<?xml version="1.0" encoding="utf-8"?>
<!-- Generator: Adobe Illustrator 27.4.1, SVG Export Plug-In . SVG Version: 6.00 Build 0)  -->
<svg version="1.1" id="Layer_1" xmlns="http://www.w3.org/2000/svg" xmlns:xlink="http://www.w3.org/1999/xlink" x="0px" y="0px"
	 viewBox="0 0 612 792" style="enable-background:new 0 0 612 792;" xml:space="preserve">
<style type="text/css">
	.st0{fill:none;stroke:#6F4A29;stroke-width:2;}
	.st1{fill:none;stroke:#121A1C;stroke-width:2;}
	.st2{fill:none;stroke:#1F3036;stroke-width:2;}
	.st3{fill:none;stroke:#346143;stroke-width:2;}
	.st4{fill:none;stroke:#457C58;stroke-width:2;}
	.st5{fill:none;stroke:#37653E;stroke-width:2;}
	.st6{fill:none;stroke:#4B6B5C;stroke-width:2;}
	.st7{fill:none;stroke:#244A29;stroke-width:2;}
	.st8{fill:none;stroke:#91BE9D;stroke-width:2;}
	.st9{fill:none;stroke:#57AA62;stroke-width:2;}
	.st10{fill:none;stroke:#A5D6B1;stroke-width:2;}
	.st11{fill:none;stroke:#80C896;stroke-width:2;}
	.st12{fill:none;stroke:#B8E0D0;stroke-width:2;}
	.st13{fill:none;stroke:#A1D7C6;stroke-width:2;}
	.st14{fill:none;stroke:#6AB080;stroke-width:2;}
	.st15{fill:none;stroke:#C7E7E2;stroke-width:2;}
	.st16{fill:none;stroke:#7AB995;stroke-width:2;}
	.st17{fill:none;stroke:#DCEBEA;stroke-width:2;}
	.st18{fill:none;stroke:#121A1F;stroke-width:2;}
	.st19{fill:none;stroke:#745823;stroke-width:2;}
	.st20{fill:none;stroke:#767130;stroke-width:2;}
	.st21{fill:none;stroke:#766328;stroke-width:2;}
	.st22{fill:none;stroke:#EBD253;stroke-width:2;}
	.st23{fill:none;stroke:#E8B841;stroke-width:2;}
	.st24{fill:none;stroke:#E7C44C;stroke-width:2;}
	.st25{fill:none;stroke:#E9DD5C;stroke-width:2;}
	.st26{fill:#040404;}
	.st27{fill:#1F3036;}
	.st28{fill:#6CC179;}
	.st29{fill:#91D0B2;}
	.st30{fill:#AFDED9;}
	.st31{fill:#458F4E;}
	.st32{fill:#DCEBEA;}
	.st33{fill:#1F2F3B;}
	.st34{fill:#EBC349;}
	.st35{fill:#E9DD5C;}
	.st36{fill:#E4AC3B;}
</style>
<g>
	<g>
		<path vector-effect="non-scaling-stroke" class="st0" d="M199.02,202.76c-14.83-12.67-31.91-17.02-51.24-13.05
			c-3.28,0.66-6.51,1.79-9.7,3.39c-3.29,1.64-6.28,3.37-8.97,5.17c-1.31,0.87-3,0.81-4.25-0.15c-16.48-12.84-33-16.39-49.54-10.64
			c-11.97,4.16-21.15,11.84-27.54,23.03c-6.89,12.05-9.02,25.78-6.39,41.17c1.67,9.81,4.79,19.14,9.37,27.98
			c10.02,19.33,22.65,36.77,37.91,52.32c6.54,6.68,11.41,10.7,14.62,12.08c5.06,2.17,9.78,2.82,14.16,1.95
			c21.65-4.28,42.16-13.24,61.53-26.86c10.78-7.59,19.9-16.59,27.36-27.01c7.84-10.95,12.73-22.08,14.66-33.4
			C224.68,237.08,217.36,218.41,199.02,202.76"/>
		<path vector-effect="non-scaling-stroke" class="st0" d="M276.34,469.26c-8.43-7.93-19.06-11.27-31.87-10.02
			c-1.44,0.13-5.28,0.79-11.53,1.95c-0.05,0.01-1.25,0.31-3.61,0.88c-3.93,0.95-7.59,0.42-10.99-1.56
			c-10.27-6.03-20.44-6.17-30.49-0.44c-6.78,3.85-11.72,9.04-14.82,15.56c-2.68,5.62-3.85,12.35-3.52,20.2
			c0.54,12.27,4.62,24.2,12.24,35.79c8.87,13.5,18.88,24.06,30.03,31.67c2.8,1.9,5.17,3.03,7.13,3.39c2.55,0.47,5.28,0.29,8.17-0.53
			c11.48-3.23,21.6-7.68,30.38-13.35c7.56-4.87,13.94-10.1,19.13-15.69c5.79-6.22,10-13.15,12.61-20.79
			C295.24,498.67,290.95,482.98,276.34,469.26"/>
		<path vector-effect="non-scaling-stroke" class="st1" d="M195.7,203.63c-7.51-6.11-16.4-9.98-26.68-11.6
			c-13.83-2.18-26.82,0.87-38.96,9.15c-1.95,1.33-3.84,1.24-5.65-0.26c-15.17-12.52-31.27-15.97-48.31-10.37
			c-8.54,2.81-15.42,7.36-20.64,13.66c-5.36,6.48-8.98,14.28-10.86,23.4c-1.47,7.14-1.73,13.94-0.77,20.4
			c0.58,3.88,1.72,8.84,3.42,14.88c1.39,4.91,3.22,9.66,5.5,14.25c10.83,21.75,25,40.92,42.51,57.52c4.63,4.37,8.48,7.06,11.56,8.06
			c4.52,1.49,9.47,1.39,14.86-0.28c13-4,23.6-7.79,31.81-11.38c18.48-8.09,34.26-19.8,47.32-35.15c10-11.76,15.96-24.36,17.88-37.82
			c1.64-11.6-0.14-22.46-5.36-32.57C208.84,216.81,202.96,209.51,195.7,203.63"/>
		<path vector-effect="non-scaling-stroke" class="st2" d="M181.8,203.48c-9.87-3.47-19.66-4.14-29.38-1.99
			c-1.95,0.43-2.78,1.33-2.49,2.71c0.11,0.5,0.63,0.87,1.23,0.85c7.06-0.05,14.07,0.5,21.03,1.66c0.1,0.01,1.3,0.37,3.61,1.07
			c2.61,0.79,4.77-0.2,6.48-2.95C182.58,204.33,182.36,203.67,181.8,203.48"/>
		<path vector-effect="non-scaling-stroke" class="st3" d="M130.71,230.03c-2.5-0.25-4.9,0.7-7.18,2.84
			c-0.53,0.5-1.33,0.53-1.86,0.07l-6.08-5.14"/>
		<path vector-effect="non-scaling-stroke" class="st4" d="M115.6,227.8c-0.79-0.47-1.37-1.1-1.77-1.91"/>
		<path vector-effect="non-scaling-stroke" class="st1" d="M113.83,225.89c1.42-0.31,1.66-1.02,0.7-2.15
			c-4.37-5.17-9.6-8.78-15.7-10.84c-5.52-1.88-10.65-2.17-15.37-0.87c-5.77,1.6-9.9,5.33-12.39,11.21
			c-3.76,8.87-3.91,18.62-0.46,29.24c3.25,9.97,9.62,21.39,19.11,34.28c4.27,5.81,10.68,13.98,19.22,24.52
			c0.7,0.86,1.24,1.78,1.62,2.76c0.38,1.01,0.74,2.02,1.07,3.04c0.18,0.5,0,1.09-0.44,1.45c-2.05,1.74-1.23,2.1,2.45,1.07
			c19.61-5.55,37.57-14.42,53.87-26.62c12.8-9.6,21.61-22.49,26.44-38.68c1.63-5.46,2.15-10.05,1.56-13.75
			c-0.79-4.9-2.99-9.21-6.61-12.92C178.59,217.04,165.97,213.5,151,217c-8.35,1.95-15.11,6.3-20.29,13.03"/>
		<path vector-effect="non-scaling-stroke" class="st5" d="M113.83,225.89c-5.2-6.03-11.1-9.83-17.67-11.4
			c-8.69-2.07-15.33-0.34-19.92,5.19c-3.29,3.98-5.09,9.7-5.41,17.18c-0.41,9.87,1.67,18.91,6.22,27.12
			c7.6,13.69,18.11,28.33,31.54,43.95c1.82,2.12,3.3,4.87,4.44,8.23c0.17,0.5,0.68,0.77,1.18,0.64c7.89-2.05,18.06-6.08,30.51-12.1
			c20.93-10.1,35.84-24.91,44.74-44.43c1.64-3.61,2.83-7.36,3.55-11.27c1.1-5.89,0.03-11.3-3.22-16.22"/>
		<path vector-effect="non-scaling-stroke" class="st6" d="M189.78,232.79c-10.85-13.71-24.84-17.7-41.96-11.97
			c-3.72,1.25-9.24,4.5-16.57,9.74"/>
		<path vector-effect="non-scaling-stroke" class="st7" d="M131.25,230.57c-0.28-0.07-0.46-0.25-0.53-0.53"/>
		<path vector-effect="non-scaling-stroke" class="st8" d="M121.12,241.46l-5.06,2.45"/>
		<path vector-effect="non-scaling-stroke" class="st9" d="M115.6,227.8c0.53,4.17,0.56,8.34,0.09,12.5
			c-0.01,0.1-0.15,0.59-0.42,1.47c-0.23,0.81,0.03,1.52,0.79,2.14"/>
		<path vector-effect="non-scaling-stroke" class="st10" d="M116.06,243.91c-2.15,2.6-2.03,4.92,0.35,6.94
			c4.55,3.88,9.86,6.65,15.93,8.32c6,1.64,11.84,1.98,17.51,0.99c10.13-1.77,18.07-7.36,23.82-16.79"/>
		<path vector-effect="non-scaling-stroke" class="st11" d="M173.67,243.38c2.05-2.96,3.49-6.19,4.33-9.68
			c0.15-0.59,0.02-1.2-0.31-1.66c-1.67-2.34-3.49-3.78-5.47-4.31c-4.49-1.19-7.71-2.24-9.67-3.15c-0.59-0.28-0.55-0.44,0.11-0.48
			c9.48-0.43,17.48,2.74,24.01,9.52c0.48,0.5,1.07,0.75,1.53,0.66c0.74-0.14,1.26-0.63,1.58-1.49"/>
		<path vector-effect="non-scaling-stroke" class="st12" d="M173.67,243.38l1.14-9.57c0.06-0.5-0.29-0.98-0.83-1.12
			c-0.64-0.18-1.27-0.39-1.9-0.63c-0.72-0.26-1.53-0.77-2.41-1.55c-2.84-2.53-6.28-3.43-10.35-2.71"/>
		<path vector-effect="non-scaling-stroke" class="st13" d="M159.32,227.8c-3.06-1.87-5.63-2.16-7.71-0.88
			c-6,3.69-12.05,7.32-18.13,10.88c-3.01,1.76-6.2,2.21-9.59,1.36"/>
		<path vector-effect="non-scaling-stroke" class="st14" d="M123.88,239.16l7.36-8.6"/>
		<path vector-effect="non-scaling-stroke" class="st15" d="M159.32,227.8c-1.71,0.66-3.82,2.21-6.33,4.64
			c-8.63,8.38-19.25,11.39-31.87,9.02"/>
		<path vector-effect="non-scaling-stroke" class="st16" d="M121.12,241.46l2.76-2.3"/>
		<path vector-effect="non-scaling-stroke" class="st17" d="M166.87,243.89c0.08-1.73-2.04-3.26-4.74-3.38
			c-2.69-0.13-4.96,1.17-5.05,2.91c-0.08,1.73,2.04,3.26,4.74,3.38C164.52,246.93,166.78,245.63,166.87,243.89"/>
		<path vector-effect="non-scaling-stroke" class="st18" d="M263.07,464.48c-7.92-3.13-16.44-3.34-25.57-0.63
			c-3.26,0.97-6.62,1.79-10.07,2.45c-3.07,0.58-5.88-0.04-8.43-1.84c-2.9-2.05-6.05-3.58-9.46-4.58c-3.22-0.95-6.64-1.11-10.27-0.5
			c-10.65,1.78-18.14,7.04-22.46,15.78c-3.38,6.82-4.55,15.12-3.52,24.89c0.91,8.7,3.52,16.99,7.84,24.87
			c8.7,15.89,20.9,28.54,36.58,37.94c1.34,0.79,2.93,1.05,4.44,0.7c15.05-3.4,28.75-9.21,41.09-17.44
			c6.82-4.55,12.58-10.48,17.27-17.77c4.77-7.41,7.37-15.01,7.79-22.79c0.5-9.34-1.77-17.87-6.83-25.59
			C276.63,472.59,270.5,467.42,263.07,464.48"/>
		<path vector-effect="non-scaling-stroke" class="st18" d="M207.08,518.73c5.08,7.7,10.97,14.38,17.66,20.05
			c1.9,1.61,4.02,1.96,6.35,1.05c10.15-3.99,19.11-9.62,26.88-16.9c4.01-3.77,7.12-8.17,9.33-13.2c2.8-6.35,2.16-12.18-1.91-17.51
			c-5.07-6.64-11.85-9.62-20.34-8.93c-2.27,0.18-6.66,2.43-13.16,6.74c-0.48,0.33-1.07,0.41-1.62,0.2
			c-7.52-2.6-16.13-4.8-25.83-6.59c-3.47-0.64-6.28-0.04-8.41,1.79c-0.44,0.37-0.7,0.92-0.75,1.55c-0.48,6.8,0.85,13.24,3.98,19.33
			C200.11,508.01,202.73,512.15,207.08,518.73"/>
		<path vector-effect="non-scaling-stroke" class="st19" d="M198.45,492.92c0.22,3.51,1.18,7.13,2.87,10.86
			c4.84,10.64,11.31,19.81,19.42,27.51c2.43,2.31,4.6,3.68,6.5,4.12c2.57,0.58,5.28,0.23,8.14-1.03
			c11.32-4.98,20.33-12.21,27.05-21.67"/>
		<path vector-effect="non-scaling-stroke" class="st20" d="M262.43,512.71c1.49-1.94,2.38-4.11,2.69-6.52"/>
		<path vector-effect="non-scaling-stroke" class="st20" d="M265.11,506.19c1.25-9.13-2.14-15.23-10.16-18.3
			c-6.08-2.32-12.02-1.61-17.84,2.12"/>
		<path vector-effect="non-scaling-stroke" class="st20" d="M237.11,490.01c-1.8,0.99-3.21,2.4-4.22,4.22"/>
		<path vector-effect="non-scaling-stroke" class="st21" d="M232.89,494.23l-0.42,0.26c-0.24,0.15-0.55,0.15-0.87,0
			c-8.22-3.72-17.44-6.41-27.63-8.08c-5.54-0.91-7.38,1.26-5.52,6.52"/>
		<path vector-effect="non-scaling-stroke" class="st22" d="M232.89,494.23c1.17,3.2,3.16,5.76,5.98,7.66
			c0.29,0.2,0.52,0.44,0.66,0.74c0.15,0.29,0.29,0.6,0.42,0.9c0.24,0.52,0.72,0.88,1.27,1.01c4.05,0.93,7.59,2.84,10.6,5.73"/>
		<path vector-effect="non-scaling-stroke" class="st23" d="M251.84,510.26c-4.8,0.28-8.97-1.06-12.52-4.03
			c-0.48-0.39-1.03-0.64-1.62-0.74c-3.34-0.55-6.33-2.28-8.98-5.17c-4.49-4.89-10.25-6.99-17.27-6.31c-0.55,0.06-1.1-0.18-1.47-0.63
			c-2.07-2.6-4.54-3.24-7.38-1.91c-1.99,0.93-3.37,1.42-4.14,1.45"/>
		<path vector-effect="non-scaling-stroke" class="st24" d="M262.43,512.71c-3.77,0-7.3-0.82-10.59-2.45"/>
		<path vector-effect="non-scaling-stroke" class="st25" d="M265.11,506.19c-1.25-0.34-2.26-0.98-3.04-1.9
			c-0.43-0.52-0.75-1.57-0.96-3.17c-0.31-2.32-1.6-4.43-3.87-6.33c-3.67-3.06-7.47-4.36-11.41-3.92c-0.52,0.06-1.09,0.29-1.62,0.7
			c-2.9,2.16-5.27,1.64-7.11-1.56"/>
	</g>
	<path class="st26" d="M199.02,202.76c18.34,15.65,25.66,34.31,21.96,55.99c-1.93,11.32-6.81,22.45-14.66,33.4
		c-7.46,10.42-16.58,19.42-27.36,27.01c-19.37,13.62-39.88,22.58-61.53,26.86c-4.38,0.87-9.1,0.22-14.16-1.95
		c-3.2-1.37-8.08-5.4-14.62-12.08C73.41,316.44,60.77,299,50.76,279.67c-4.58-8.85-7.7-18.18-9.37-27.98
		c-2.63-15.39-0.5-29.11,6.39-41.17c6.39-11.19,15.58-18.87,27.54-23.03c16.55-5.74,33.06-2.2,49.54,10.64
		c1.25,0.96,2.95,1.01,4.25,0.15c2.69-1.8,5.68-3.53,8.97-5.17c3.19-1.6,6.43-2.72,9.7-3.39
		C167.11,185.75,184.19,190.1,199.02,202.76z M195.7,203.63c-7.51-6.11-16.4-9.98-26.68-11.6c-13.83-2.18-26.82,0.87-38.96,9.15
		c-1.95,1.33-3.84,1.24-5.65-0.26c-15.17-12.52-31.27-15.97-48.31-10.37c-8.54,2.81-15.42,7.36-20.64,13.66
		c-5.36,6.48-8.98,14.28-10.86,23.4c-1.47,7.14-1.73,13.94-0.77,20.4c0.58,3.88,1.72,8.84,3.42,14.88c1.39,4.91,3.22,9.66,5.5,14.25
		c10.83,21.75,25,40.92,42.51,57.52c4.63,4.37,8.48,7.06,11.56,8.06c4.52,1.49,9.47,1.39,14.86-0.28c13-4,23.6-7.79,31.81-11.38
		c18.48-8.09,34.26-19.8,47.32-35.15c10-11.76,15.96-24.36,17.88-37.82c1.64-11.6-0.14-22.46-5.36-32.57
		C208.84,216.81,202.96,209.51,195.7,203.63z"/>
	<path class="st27" d="M213.34,225.54c5.22,10.11,7,20.97,5.36,32.57c-1.91,13.45-7.87,26.06-17.88,37.82
		c-13.06,15.34-28.83,27.06-47.32,35.15c-8.21,3.58-18.82,7.38-31.81,11.38c-5.39,1.67-10.34,1.76-14.86,0.28
		c-3.08-1.01-6.93-3.69-11.56-8.06c-17.51-16.59-31.69-35.77-42.51-57.52c-2.28-4.59-4.12-9.34-5.5-14.25
		c-1.71-6.04-2.85-11-3.42-14.88c-0.96-6.46-0.7-13.26,0.77-20.4c1.88-9.12,5.5-16.92,10.86-23.4c5.22-6.3,12.1-10.85,20.64-13.66
		c17.04-5.61,33.14-2.15,48.31,10.37c1.82,1.5,3.7,1.58,5.65,0.26c12.14-8.28,25.12-11.33,38.96-9.15
		c10.27,1.62,19.17,5.49,26.68,11.6C202.96,209.51,208.84,216.81,213.34,225.54z M181.8,203.48c-9.87-3.47-19.66-4.14-29.38-1.99
		c-1.95,0.43-2.78,1.33-2.49,2.71c0.11,0.5,0.63,0.87,1.23,0.85c7.06-0.05,14.07,0.5,21.03,1.66c0.1,0.01,1.3,0.37,3.61,1.07
		c2.61,0.79,4.77-0.2,6.48-2.95C182.58,204.33,182.36,203.67,181.8,203.48z M130.71,230.03c-2.5-0.25-4.9,0.7-7.18,2.84
		c-0.53,0.5-1.33,0.53-1.86,0.07l-6.08-5.14c-0.79-0.47-1.37-1.1-1.77-1.91c1.42-0.31,1.66-1.02,0.7-2.15
		c-4.37-5.17-9.6-8.78-15.7-10.84c-5.52-1.88-10.65-2.17-15.37-0.87c-5.77,1.6-9.9,5.33-12.39,11.21
		c-3.76,8.87-3.91,18.62-0.46,29.24c3.25,9.97,9.62,21.39,19.11,34.28c4.27,5.81,10.68,13.98,19.22,24.52
		c0.7,0.86,1.24,1.78,1.62,2.76c0.38,1.01,0.74,2.02,1.07,3.04c0.18,0.5,0,1.09-0.44,1.45c-2.05,1.74-1.23,2.1,2.45,1.07
		c19.61-5.55,37.57-14.42,53.87-26.62c12.8-9.6,21.61-22.49,26.44-38.68c1.63-5.46,2.15-10.05,1.56-13.75
		c-0.79-4.9-2.99-9.21-6.61-12.92C178.59,217.04,165.97,213.5,151,217C142.66,218.95,135.89,223.29,130.71,230.03z"/>
	<path class="st27" d="M181.8,203.48c0.55,0.18,0.77,0.85,0.48,1.34c-1.71,2.75-3.87,3.73-6.48,2.95c-2.31-0.7-3.51-1.06-3.61-1.07
		c-6.96-1.15-13.97-1.71-21.03-1.66c-0.61,0.02-1.12-0.35-1.23-0.85c-0.29-1.37,0.53-2.28,2.49-2.71
		C162.14,199.35,171.94,200.01,181.8,203.48z"/>
	<path class="st26" d="M113.83,225.89c-5.2-6.03-11.1-9.83-17.67-11.4c-8.69-2.07-15.33-0.34-19.92,5.19
		c-3.29,3.98-5.09,9.7-5.41,17.18c-0.41,9.87,1.67,18.91,6.22,27.12c7.6,13.69,18.11,28.33,31.54,43.95
		c1.82,2.12,3.3,4.87,4.44,8.23c0.17,0.5,0.68,0.77,1.18,0.64c7.89-2.05,18.06-6.08,30.51-12.1c20.93-10.1,35.84-24.91,44.74-44.43
		c1.64-3.61,2.83-7.36,3.55-11.27c1.1-5.89,0.03-11.3-3.22-16.22c-10.85-13.71-24.84-17.7-41.96-11.97
		c-3.72,1.25-9.24,4.5-16.57,9.74c-0.28-0.07-0.46-0.25-0.53-0.53c5.18-6.74,11.94-11.08,20.29-13.03
		c14.96-3.5,27.59,0.04,37.89,10.62c3.62,3.72,5.82,8.03,6.61,12.92c0.59,3.71,0.07,8.29-1.56,13.75
		c-4.82,16.19-13.64,29.08-26.44,38.68c-16.3,12.2-34.26,21.07-53.87,26.62c-3.68,1.03-4.5,0.68-2.45-1.07
		c0.44-0.37,0.63-0.96,0.44-1.45c-0.33-1.02-0.69-2.03-1.07-3.04c-0.38-0.98-0.92-1.9-1.62-2.76
		c-8.54-10.54-14.95-18.72-19.22-24.52c-9.49-12.89-15.86-24.31-19.11-34.28c-3.45-10.62-3.3-20.36,0.46-29.24
		c2.49-5.88,6.62-9.62,12.39-11.21c4.73-1.3,9.85-1.01,15.37,0.87c6.1,2.06,11.33,5.68,15.7,10.84
		C115.49,224.86,115.26,225.58,113.83,225.89z"/>
	<path class="st28" d="M113.83,225.89c0.39,0.81,0.98,1.45,1.77,1.91c0.53,4.17,0.56,8.34,0.09,12.5c-0.01,0.1-0.15,0.59-0.42,1.47
		c-0.23,0.81,0.03,1.52,0.79,2.14c-2.15,2.6-2.03,4.92,0.35,6.94c4.55,3.88,9.86,6.65,15.93,8.32c6,1.64,11.84,1.98,17.51,0.99
		c10.13-1.77,18.07-7.36,23.82-16.79c2.05-2.96,3.49-6.19,4.33-9.68c0.15-0.59,0.02-1.2-0.31-1.66c-1.67-2.34-3.49-3.78-5.47-4.31
		c-4.49-1.19-7.71-2.24-9.67-3.15c-0.59-0.28-0.55-0.44,0.11-0.48c9.48-0.43,17.48,2.74,24.01,9.52c0.48,0.5,1.07,0.75,1.53,0.66
		c0.74-0.14,1.26-0.63,1.58-1.49c3.25,4.92,4.33,10.33,3.22,16.22c-0.72,3.9-1.91,7.66-3.55,11.27
		c-8.9,19.52-23.81,34.32-44.74,44.43c-12.45,6.01-22.61,10.05-30.51,12.1c-0.5,0.13-1.01-0.15-1.18-0.64
		c-1.14-3.36-2.62-6.11-4.44-8.23c-13.43-15.61-23.94-30.26-31.54-43.95c-4.55-8.21-6.63-17.25-6.22-27.12
		c0.32-7.47,2.12-13.2,5.41-17.18c4.59-5.54,11.23-7.27,19.92-5.19C102.74,216.06,108.63,219.86,113.83,225.89z"/>
	<path class="st29" d="M189.78,232.79c-0.32,0.86-0.85,1.36-1.58,1.49c-0.46,0.09-1.05-0.17-1.53-0.66
		c-6.53-6.78-14.53-9.95-24.01-9.52c-0.66,0.04-0.7,0.2-0.11,0.48c1.95,0.91,5.17,1.96,9.67,3.15c1.98,0.53,3.8,1.96,5.47,4.31
		c0.33,0.46,0.46,1.07,0.31,1.66c-0.83,3.5-2.28,6.73-4.33,9.68l1.14-9.57c0.06-0.5-0.29-0.98-0.83-1.12
		c-0.64-0.18-1.27-0.39-1.9-0.63c-0.72-0.26-1.53-0.77-2.41-1.55c-2.84-2.53-6.28-3.43-10.35-2.71c-3.06-1.87-5.63-2.16-7.71-0.88
		c-6,3.69-12.05,7.32-18.13,10.88c-3.01,1.76-6.2,2.21-9.59,1.36l7.36-8.6c7.33-5.24,12.85-8.49,16.57-9.74
		C164.94,215.09,178.93,219.08,189.78,232.79z"/>
	<path class="st30" d="M159.32,227.8c-1.71,0.66-3.82,2.21-6.33,4.64c-8.63,8.38-19.25,11.39-31.87,9.02l2.76-2.3
		c3.39,0.85,6.58,0.39,9.59-1.36c6.09-3.56,12.13-7.19,18.13-10.88C153.7,225.64,156.27,225.94,159.32,227.8z"/>
	<path class="st31" d="M115.6,227.8l6.08,5.14c0.53,0.46,1.33,0.42,1.86-0.07c2.28-2.14,4.68-3.08,7.18-2.84
		c0.07,0.28,0.25,0.46,0.53,0.53l-7.36,8.6l-2.76,2.3l-5.06,2.45c-0.76-0.61-1.02-1.33-0.79-2.14c0.27-0.88,0.41-1.37,0.42-1.47
		C116.16,236.14,116.13,231.98,115.6,227.8z"/>
	<path class="st32" d="M159.32,227.8c4.06-0.72,7.51,0.18,10.35,2.71c0.88,0.77,1.69,1.29,2.41,1.55c0.63,0.23,1.26,0.44,1.9,0.63
		c0.53,0.15,0.88,0.63,0.83,1.12l-1.14,9.57c-5.76,9.43-13.7,15.02-23.82,16.79c-5.67,0.98-11.51,0.65-17.51-0.99
		c-6.06-1.67-11.37-4.44-15.93-8.32c-2.38-2.03-2.5-4.34-0.35-6.94l5.06-2.45c12.62,2.37,23.24-0.64,31.87-9.02
		C155.51,230.01,157.62,228.47,159.32,227.8z M166.87,243.89c0.08-1.73-2.04-3.26-4.74-3.38c-2.69-0.13-4.96,1.17-5.05,2.91
		c-0.08,1.73,2.04,3.26,4.74,3.38C164.52,246.93,166.78,245.63,166.87,243.89z"/>
	
		<ellipse transform="matrix(0.0488 -0.9988 0.9988 0.0488 -89.3007 393.5352)" class="st32" cx="161.98" cy="243.66" rx="3.15" ry="4.9"/>
	<path class="st26" d="M276.34,469.26c14.61,13.72,18.9,29.41,12.87,47.06c-2.61,7.63-6.82,14.56-12.61,20.79
		c-5.19,5.58-11.57,10.81-19.13,15.69c-8.78,5.67-18.9,10.12-30.38,13.35c-2.9,0.82-5.62,1-8.17,0.53
		c-1.95-0.36-4.33-1.49-7.13-3.39c-11.14-7.61-21.15-18.17-30.03-31.67c-7.62-11.59-11.7-23.52-12.24-35.79
		c-0.33-7.84,0.84-14.58,3.52-20.2c3.11-6.52,8.05-11.7,14.82-15.56c10.05-5.73,20.22-5.58,30.49,0.44
		c3.4,1.99,7.06,2.51,10.99,1.56c2.36-0.58,3.56-0.87,3.61-0.88c6.25-1.17,10.09-1.82,11.53-1.95
		C257.29,457.99,267.91,461.33,276.34,469.26z M263.07,464.48c-7.92-3.13-16.44-3.34-25.57-0.63c-3.26,0.97-6.62,1.79-10.07,2.45
		c-3.07,0.58-5.88-0.04-8.43-1.84c-2.9-2.05-6.05-3.58-9.46-4.58c-3.22-0.95-6.64-1.11-10.27-0.5
		c-10.65,1.78-18.14,7.04-22.46,15.78c-3.38,6.82-4.55,15.12-3.52,24.89c0.91,8.7,3.52,16.99,7.84,24.87
		c8.7,15.89,20.9,28.54,36.58,37.94c1.34,0.79,2.93,1.05,4.44,0.7c15.05-3.4,28.75-9.21,41.09-17.44
		c6.82-4.55,12.58-10.48,17.27-17.77c4.77-7.41,7.37-15.01,7.79-22.79c0.5-9.34-1.77-17.87-6.83-25.59
		C276.63,472.59,270.5,467.42,263.07,464.48z"/>
	<path class="st33" d="M281.46,479.98c5.06,7.72,7.33,16.25,6.83,25.59c-0.42,7.78-3.01,15.38-7.79,22.79
		c-4.69,7.29-10.45,13.21-17.27,17.77c-12.35,8.22-26.05,14.04-41.09,17.44c-1.51,0.35-3.09,0.09-4.44-0.7
		c-15.69-9.4-27.88-22.05-36.58-37.94c-4.32-7.88-6.93-16.17-7.84-24.87c-1.03-9.77,0.14-18.07,3.52-24.89
		c4.32-8.74,11.81-14,22.46-15.78c3.63-0.61,7.06-0.45,10.27,0.5c3.41,1.01,6.57,2.53,9.46,4.58c2.55,1.8,5.36,2.42,8.43,1.84
		c3.45-0.66,6.81-1.48,10.07-2.45c9.13-2.71,17.66-2.5,25.57,0.63C270.5,467.42,276.63,472.59,281.46,479.98z M207.08,518.73
		c5.08,7.7,10.97,14.38,17.66,20.05c1.9,1.61,4.02,1.96,6.35,1.05c10.15-3.99,19.11-9.62,26.88-16.9c4.01-3.77,7.12-8.17,9.33-13.2
		c2.8-6.35,2.16-12.18-1.91-17.51c-5.07-6.64-11.85-9.62-20.34-8.93c-2.27,0.18-6.66,2.43-13.16,6.74c-0.48,0.33-1.07,0.41-1.62,0.2
		c-7.52-2.6-16.13-4.8-25.83-6.59c-3.47-0.64-6.28-0.04-8.41,1.79c-0.44,0.37-0.7,0.92-0.75,1.55c-0.48,6.8,0.85,13.24,3.98,19.33
		C200.11,508.01,202.73,512.15,207.08,518.73z"/>
	<path class="st26" d="M207.08,518.73c-4.36-6.58-6.97-10.72-7.84-12.43c-3.13-6.09-4.46-12.53-3.98-19.33
		c0.06-0.63,0.31-1.18,0.75-1.55c2.14-1.83,4.94-2.42,8.41-1.79c9.7,1.79,18.31,3.99,25.83,6.59c0.55,0.2,1.14,0.13,1.62-0.2
		c6.51-4.31,10.89-6.55,13.16-6.74c8.49-0.69,15.27,2.29,20.34,8.93c4.07,5.33,4.71,11.16,1.91,17.51
		c-2.21,5.03-5.32,9.43-9.33,13.2c-7.77,7.28-16.73,12.91-26.88,16.9c-2.33,0.91-4.45,0.56-6.35-1.05
		C218.05,533.11,212.16,526.43,207.08,518.73z M198.45,492.92c0.22,3.51,1.18,7.13,2.87,10.86c4.84,10.64,11.31,19.81,19.42,27.51
		c2.43,2.31,4.6,3.68,6.5,4.12c2.57,0.58,5.28,0.23,8.14-1.03c11.32-4.98,20.33-12.21,27.05-21.67c1.49-1.94,2.38-4.11,2.69-6.52
		c1.25-9.13-2.14-15.23-10.16-18.3c-6.08-2.32-12.02-1.61-17.84,2.12c-1.8,0.99-3.21,2.4-4.22,4.22l-0.42,0.26
		c-0.24,0.15-0.55,0.15-0.87,0c-8.22-3.72-17.44-6.41-27.63-8.08C198.44,485.49,196.59,487.67,198.45,492.92z"/>
	<path class="st34" d="M232.89,494.23c1.17,3.2,3.16,5.76,5.98,7.66c0.29,0.2,0.52,0.44,0.66,0.74c0.15,0.29,0.29,0.6,0.42,0.9
		c0.24,0.52,0.72,0.88,1.27,1.01c4.05,0.93,7.59,2.84,10.6,5.73c-4.8,0.28-8.97-1.06-12.52-4.03c-0.48-0.39-1.03-0.64-1.62-0.74
		c-3.34-0.55-6.33-2.28-8.98-5.17c-4.49-4.89-10.25-6.99-17.27-6.31c-0.55,0.06-1.1-0.18-1.47-0.63c-2.07-2.6-4.54-3.24-7.38-1.91
		c-1.99,0.93-3.37,1.42-4.14,1.45c-1.85-5.25-0.01-7.43,5.52-6.52c10.2,1.67,19.41,4.36,27.63,8.08c0.31,0.15,0.63,0.15,0.87,0
		L232.89,494.23z"/>
	<path class="st35" d="M265.11,506.19c-1.25-0.34-2.26-0.98-3.04-1.9c-0.43-0.52-0.75-1.57-0.96-3.17c-0.31-2.32-1.6-4.43-3.87-6.33
		c-3.67-3.06-7.47-4.36-11.41-3.92c-0.52,0.06-1.09,0.29-1.62,0.7c-2.9,2.16-5.27,1.64-7.11-1.56c5.82-3.73,11.76-4.44,17.84-2.12
		C262.98,490.96,266.37,497.06,265.11,506.19z"/>
	<path class="st35" d="M237.11,490.01c1.84,3.2,4.21,3.73,7.11,1.56c0.53-0.41,1.1-0.64,1.62-0.7c3.94-0.44,7.74,0.87,11.41,3.92
		c2.27,1.9,3.56,4.01,3.87,6.33c0.21,1.6,0.53,2.65,0.96,3.17c0.77,0.92,1.79,1.55,3.04,1.9c-0.31,2.41-1.2,4.58-2.69,6.52
		c-3.77,0-7.3-0.82-10.59-2.45c-3.02-2.88-6.55-4.79-10.6-5.73c-0.55-0.13-1.03-0.5-1.27-1.01c-0.14-0.31-0.28-0.61-0.42-0.9
		c-0.15-0.29-0.37-0.54-0.66-0.74c-2.82-1.9-4.82-4.46-5.98-7.66C233.9,492.41,235.31,491.01,237.11,490.01z"/>
	<path class="st36" d="M251.84,510.26c3.29,1.63,6.82,2.45,10.59,2.45c-6.71,9.46-15.73,16.69-27.05,21.67
		c-2.86,1.26-5.57,1.61-8.14,1.03c-1.9-0.44-4.07-1.82-6.5-4.12c-8.11-7.7-14.59-16.86-19.42-27.51c-1.69-3.73-2.65-7.35-2.87-10.86
		c0.77-0.04,2.15-0.52,4.14-1.45c2.85-1.33,5.31-0.69,7.38,1.91c0.37,0.44,0.92,0.68,1.47,0.63c7.02-0.68,12.78,1.43,17.27,6.31
		c2.65,2.9,5.65,4.62,8.98,5.17c0.59,0.09,1.14,0.35,1.62,0.74C242.87,509.2,247.04,510.55,251.84,510.26z"/>
</g>
</svg>
