<?xml version="1.0" encoding="utf-8"?>
<!-- Generator: Adobe Illustrator 27.4.1, SVG Export Plug-In . SVG Version: 6.00 Build 0)  -->
<svg version="1.1" id="Layer_1" xmlns="http://www.w3.org/2000/svg" xmlns:xlink="http://www.w3.org/1999/xlink" x="0px" y="0px"
	 viewBox="0 0 612 792" style="enable-background:new 0 0 612 792;" xml:space="preserve">
<style type="text/css">
	.st0{fill:none;stroke:#6F4C2A;stroke-width:2;}
	.st1{fill:none;stroke:#131A1F;stroke-width:2;}
	.st2{fill:none;stroke:#3B6A76;stroke-width:2;}
	.st3{fill:none;stroke:#2C5B74;stroke-width:2;}
	.st4{fill:none;stroke:#476F7B;stroke-width:2;}
	.st5{fill:none;stroke:#7CD1E7;stroke-width:2;}
	.st6{fill:none;stroke:#63C0E2;stroke-width:2;}
	.st7{fill:none;stroke:#131A22;stroke-width:2;}
	.st8{fill:none;stroke:#621C1C;stroke-width:2;}
	.st9{fill:none;stroke:#6E201E;stroke-width:2;}
	.st10{fill:none;stroke:#696760;stroke-width:2;}
	.st11{fill:none;stroke:#75726E;stroke-width:2;}
	.st12{fill:none;stroke:#D9D2C6;stroke-width:2;}
	.st13{fill:none;stroke:#D28881;stroke-width:2;}
	.st14{fill:none;stroke:#C67C74;stroke-width:2;}
	.st15{fill:none;stroke:#CC3632;stroke-width:2;}
	.st16{fill:none;stroke:#151A1F;stroke-width:2;}
	.st17{fill:none;stroke:#3E718D;stroke-width:2;}
	.st18{fill:none;stroke:#3C6E87;stroke-width:2;}
	.st19{fill:none;stroke:#2B596F;stroke-width:2;}
	.st20{fill:none;stroke:#53AEDA;stroke-width:2;}
	.st21{fill:none;stroke:#61BCDD;stroke-width:2;}
	.st22{fill:#070808;}
	.st23{fill:#1F2F38;}
	.st24{fill:#88D4EA;}
	.st25{fill:#70CEE4;}
	.st26{fill:#55B0DE;}
	.st27{fill:#212D3C;}
	.st28{fill:#E4DED3;}
	.st29{fill:#CCC6B8;}
	.st30{fill:#D63A33;}
	.st31{fill:#BF332F;}
	.st32{fill:#253038;}
	.st33{fill:#52ABD5;}
</style>
<g>
	<g>
		<path vector-effect="non-scaling-stroke" class="st0" d="M320.5,228.13c5.37,4.78,11.3,7.86,17.81,9.26
			c3.92,0.84,6.89,1.14,8.92,0.9c3.21-0.37,5.94-1.99,8.2-4.86c3.98-5.06,7.17-10.16,9.58-15.3c2.7-5.76,3.44-11.78,2.2-18.08
			c-0.96-4.9-3.41-8.86-7.36-11.88c-3.38-2.59-7.11-3.81-11.18-3.67c-1.9,0.06-3.93,0.53-6.08,1.43c-2.18,0.9-4.02,1.93-5.5,3.1
			c-1.5,1.19-2.82,2.07-3.96,2.63c-0.23,0.11-0.5,0.14-0.77,0.09c-9.1-1.73-15.56,0.88-19.36,7.83c-1.46,2.66-2.15,5.63-2.06,8.91
			C311.16,216.11,314.35,222.65,320.5,228.13"/>
		<path vector-effect="non-scaling-stroke" class="st0" d="M195.26,230.51c-0.29,0.21-0.67,0.22-0.96,0.02
			c-3.14-2.15-6.48-3.2-10-3.14c-7.11,0.12-11.82,3.49-14.13,10.11c-1.39,3.97-1.57,7.89-0.54,11.76c1.13,4.25,3.22,8.13,6.26,11.66
			c3.74,4.33,8.13,7.8,13.17,10.42c2.01,1.04,3.22,1.64,3.62,1.79c1.33,0.52,2.68,0.73,4.06,0.61c1.49-0.12,3.28-0.82,5.36-2.11
			c7.98-4.94,13.89-11.63,17.73-20.06c1.69-3.72,2.55-7.02,2.57-9.92c0.03-3.99-1.25-7.35-3.83-10.09
			c-2.86-3.04-6.51-4.71-10.96-4.99C203.16,226.29,199.04,227.6,195.26,230.51"/>
		<path vector-effect="non-scaling-stroke" class="st0" d="M401.45,302.49c-7.64-2.88-13.81-1.77-18.51,3.32
			c-2.45,2.65-3.88,5.75-4.26,9.29c-0.39,3.57,0.19,7.1,1.75,10.59c1.82,4.07,4.33,7.53,7.51,10.37c2.8,2.51,6.31,4.8,10.51,6.86
			c4.67,2.29,9.67,3.69,14.99,4.21c2.44,0.23,4.54-0.2,6.31-1.31c2.35-1.48,4.54-3.57,6.57-6.27c3.96-5.28,6.93-11.07,8.91-17.36
			c0.55-1.74,0.84-3.76,0.87-6.06c0.04-2.37,0.01-4.04-0.1-4.99c-0.17-1.63-0.64-3.24-1.39-4.84c-3.73-7.93-9.63-11.79-17.71-11.59
			c-3.04,0.08-5.77,0.75-8.19,2.01c-2.58,1.34-4.8,3.2-6.65,5.59C401.92,302.5,401.67,302.57,401.45,302.49"/>
		<path vector-effect="non-scaling-stroke" class="st1" d="M354.41,232.82c2.29-2.63,4.3-5.44,6.01-8.44c2-3.49,3.45-6.6,4.35-9.34
			c1.31-3.96,1.77-8.1,1.39-12.41c-0.51-5.8-2.89-10.39-7.15-13.78c-1.67-1.33-3.52-2.21-5.54-2.66c-2.07-0.46-4.16-0.56-6.27-0.31
			c-2.31,0.28-4.72,1.24-7.23,2.88c-2.21,1.44-4.29,3.06-6.25,4.86c-0.27,0.24-0.65,0.29-0.98,0.13c-2.59-1.29-5.39-1.65-8.41-1.06
			c-4.52,0.89-7.83,3.03-9.92,6.43c-1.78,2.89-2.48,6.45-2.11,10.66c0.52,5.77,2.97,10.94,7.36,15.5
			c5.32,5.54,11.49,9.05,18.5,10.53c3.87,0.81,6.64,1.18,8.31,1.09C349.54,236.74,352.18,235.38,354.41,232.82"/>
		<path vector-effect="non-scaling-stroke" class="st1" d="M338.63,202.15c-3.31-0.15-6.63-0.15-9.94-0.02
			c-1.47,0.06-2.57,0.46-3.28,1.19c-0.88,0.9-1.53,2.11-1.96,3.63c-1.11,4.01,0.03,7.55,3.43,10.6c1.17,1.05,2.43,1.98,3.8,2.78
			c3.71,2.18,8.26,3.97,13.65,5.36c1.67,0.43,3.11,0.34,4.32-0.28c0.87-0.44,1.72-1.46,2.55-3.05c2.3-4.41,3.91-8.39,4.84-11.95
			c0.52-1.98,0.75-4.34,0.7-7.08c-0.04-2.13-0.53-3.85-1.46-5.14c-2.04-2.83-5.04-3.85-9.02-3.06c-3.71,0.74-6.08,2.95-7.12,6.63
			C339.08,202.01,338.87,202.16,338.63,202.15"/>
		<path vector-effect="non-scaling-stroke" class="st2" d="M341.77,203.44c-2.98,0.02-7.2-0.12-12.66-0.41
			c-1.72-0.09-2.95,0.65-3.7,2.24"/>
		<path vector-effect="non-scaling-stroke" class="st3" d="M325.41,205.27c-1.02,2.02-1.4,3.84-1.14,5.45
			c0.49,3.13,2.26,5.71,5.3,7.74c3.04,2.03,6.84,3.76,11.38,5.17c2.86,0.89,4.29,1.33,4.31,1.33c1.93,0.35,3.44-0.26,4.53-1.82
			c0.26-0.37,0.91-1.65,1.96-3.84c0.62-1.3,1.16-2.64,1.6-4.02"/>
		<path vector-effect="non-scaling-stroke" class="st2" d="M353.35,215.29c1.08-2.76,1.83-5.96,2.24-9.61
			c0.23-2.08,0.11-3.91-0.37-5.5"/>
		<path vector-effect="non-scaling-stroke" class="st4" d="M355.21,200.18c-0.26-0.93-0.7-1.59-1.3-1.99
			c-4.27-2.75-8.18-2.64-11.74,0.32c-0.86,0.72-1.37,1.43-1.52,2.14c-0.22,1.02,0.15,1.95,1.12,2.79"/>
		<path vector-effect="non-scaling-stroke" class="st5" d="M355.21,200.18c0.26,1.02,0.23,1.51-0.07,1.49
			c-0.51-0.04-0.99-0.31-1.3-0.73c-2.01-2.77-4.02-3.46-6.03-2.08c-0.61,0.42-0.78,1.25-0.4,1.88c0.79,1.3,1.9,2.38,3.33,3.26
			c0.89,0.53,1.01,1.24,0.37,2.13c-0.16,0.22-0.4,0.37-0.65,0.42c-0.87,0.16-1.53-0.14-1.96-0.92c-0.4-0.72-1.14-1.18-2.22-1.38
			l-4.52-0.81"/>
		<path vector-effect="non-scaling-stroke" class="st6" d="M353.35,215.29c-1.27,0.65-1.75,0.17-1.43-1.42
			c0.24-1.2,0.52-2.38,0.85-3.55c0.48-1.75-0.15-2.48-1.89-2.18c-0.51,0.08-1.02-0.02-1.45-0.3c-1.09-0.71-2.18-1.11-3.29-1.21
			c-1.74-0.14-2.75-0.25-3.05-0.33c-4.9-1.2-9.88-1.6-14.93-1.21c-0.24,0.02-0.49,0.13-0.71,0.31c-0.7,0.56-1.37,0.52-2.03-0.12"/>
		<path vector-effect="non-scaling-stroke" class="st7" d="M193.23,231.48c-0.59-0.28-1.32-0.66-2.19-1.12
			c-0.86-0.46-1.61-0.79-2.26-0.99c-4.81-1.46-9.04-0.83-12.69,1.89c-2.05,1.53-3.56,3.5-4.53,5.91c-0.97,2.42-1.34,4.96-1.1,7.62
			c0.15,1.67,0.43,3.29,0.83,4.88c0.41,1.61,1.03,3.16,1.87,4.63c4.84,8.46,11.96,14.51,21.34,18.16c0.88,0.34,1.77,0.37,2.67,0.09
			c5.3-1.67,9.72-4.71,13.27-9.13c1.92-2.4,2.88-3.61,2.9-3.63c2.36-2.76,3.79-4.58,4.29-5.47c1.66-2.95,2.76-6.06,3.3-9.34
			c0.42-2.55,0.32-4.79-0.31-6.71c-0.67-2.03-1.8-4.05-3.4-6.05c-1.92-2.4-4.41-3.8-7.48-4.2c-4.58-0.61-9.16,0.5-13.74,3.32
			C195.12,231.89,194.19,231.94,193.23,231.48"/>
		<path vector-effect="non-scaling-stroke" class="st7" d="M206.06,235.9c-2-0.24-4.05-0.01-6.13,0.69
			c-1.46,0.49-2.64,0.89-3.54,1.2c-1.19,0.41-2.4,0.64-3.63,0.69c-3.37,0.13-6.7,0.4-10,0.8c-1.02,0.12-1.74,0.64-2.18,1.57
			c-1.25,2.7-1.26,5.41-0.02,8.12c0.97,2.11,2.27,3.98,3.92,5.61c3.41,3.39,7.39,6.33,11.97,8.82c1,0.55,1.95,0.46,2.83-0.27
			c1.23-1.02,2.41-2.13,3.54-3.34c0.96-1.03,1.87-2.35,2.73-3.98c1.83-3.43,3.73-6.82,5.69-10.17c1.59-2.72,1.6-5.08,0.02-7.08
			C210.06,237.06,208.33,236.16,206.06,235.9"/>
		<path vector-effect="non-scaling-stroke" class="st8" d="M196.07,239.49l-1.8,0.03"/>
		<path vector-effect="non-scaling-stroke" class="st9" d="M194.27,239.52l-9.17,0.41"/>
		<path vector-effect="non-scaling-stroke" class="st8" d="M185.11,239.93c-2.17-0.3-3.52,0.37-4.07,2
			c-1.17,3.48-0.34,6.73,2.48,9.74c3.77,4.01,8.29,7.6,13.55,10.76c0.47,0.29,1.07,0.23,1.48-0.14c3.5-3.1,5.96-6.43,7.36-9.97"/>
		<path vector-effect="non-scaling-stroke" class="st10" d="M205.92,252.32l0.95-1.63"/>
		<path vector-effect="non-scaling-stroke" class="st11" d="M206.87,250.69c1.27-2.19,2.48-4.41,3.62-6.66
			c0.78-1.54,0.73-2.97-0.17-4.29c-1.07-1.56-2.62-2.32-4.64-2.3c-3.35,0.04-6.55,0.73-9.61,2.04"/>
		<path vector-effect="non-scaling-stroke" class="st12" d="M206.87,250.69l-1.03-0.22c-0.2-0.05-0.29-0.31-0.19-0.55l3.5-8.12
			c0.11-0.24,0.05-0.52-0.15-0.72c-0.92-0.91-2.07-1.48-3.47-1.69c-0.59-0.09-1.44-0.03-2.55,0.19c-0.86,0.17-1.72,0.28-2.59,0.34
			c-0.49,0.03-0.85,0.14-1.08,0.33c-0.35,0.29-0.52,0.67-0.49,1.13c0.02,0.22,0.16,0.46,0.41,0.63c0.93,0.67,1.45,1.59,1.57,2.74
			c0.03,0.22,0.12,0.46,0.29,0.71c0.31,0.47,0.21,0.87-0.31,1.2"/>
		<path vector-effect="non-scaling-stroke" class="st13" d="M200.79,246.65c-1.18-1-2.28-2.08-3.3-3.25
			c-0.97-1.12-1.44-2.42-1.42-3.91"/>
		<path vector-effect="non-scaling-stroke" class="st14" d="M205.92,252.32l-0.48-0.23c-0.2-0.1-0.3-0.33-0.24-0.57
			c0.21-0.79,0.01-1.37-0.59-1.74c-0.72-0.43-1.09-0.67-1.12-0.7c-0.91-0.79-1.81-1.6-2.7-2.43"/>
		<path vector-effect="non-scaling-stroke" class="st15" d="M194.27,239.52c0.75,0.29,1.12,0.81,1.11,1.55
			c-0.01,0.29,0.06,0.56,0.19,0.75c2.54,3.73,5.24,6.6,8.12,8.62c0.8,0.56,1.04,1.19,0.72,1.89c-0.09,0.2-0.34,0.3-0.6,0.25
			c-1.12-0.21-2.12,0.07-2.98,0.83c-0.15,0.14-0.4,0.21-0.69,0.22l-3.69,0.06c-1.03,0.02-1.63,0.01-1.78-0.03
			c-1.98-0.52-3.61-1.17-4.89-1.96c-0.5-0.3-1.03-0.83-1.6-1.59c-0.61-0.79-1.15-1.33-1.64-1.64c-1.53-0.96-2.51-2.3-2.97-4.04
			c-0.49-1.86,0.03-3.36,1.55-4.51"/>
		<path vector-effect="non-scaling-stroke" class="st16" d="M384.26,306.05c-2.43,2.57-3.87,5.47-4.31,8.68
			c-0.37,2.7,0.04,5.76,1.23,9.17c1.98,5.69,5.56,10.32,10.74,13.9c5.4,3.73,11.27,6.32,17.61,7.76c2.65,0.6,4.76,0.78,6.34,0.54
			c2.2-0.34,4.19-1.3,5.97-2.87c1.55-1.36,3.31-3.54,5.3-6.53c4.25-6.39,6.75-12.93,7.5-19.6c0.75-6.66-1.3-12.22-6.13-16.69
			c-3.39-3.12-7.26-4.62-11.6-4.5c-5.77,0.16-10.4,2.7-13.9,7.61c-0.64,0.9-1.44,1.07-2.4,0.5c-2.21-1.31-4.57-1.89-7.08-1.75
			c-1.9,0.11-3.55,0.41-4.95,0.9C386.97,303.73,385.54,304.69,384.26,306.05"/>
		<path vector-effect="non-scaling-stroke" class="st17" d="M409.36,313.19c-1.81-0.05-3.57,0.22-5.3,0.81"/>
		<path vector-effect="non-scaling-stroke" class="st16" d="M404.06,314.01c0.55-0.11,0.79-0.28,0.71-0.52
			c-0.07-0.18-0.32-0.33-0.65-0.37c-2.62-0.33-5.24-0.45-7.88-0.37c-2.41,0.08-3.81,0.17-4.2,0.28c-1.77,0.46-2.63,1.83-2.59,4.11
			c0.07,3.58,1.27,6.51,3.58,8.79c0.96,0.95,3.43,2.64,7.41,5.08c2.47,1.51,5.25,3.03,8.35,4.57c0.69,0.34,1.22,0.3,1.58-0.12"/>
		<path vector-effect="non-scaling-stroke" class="st18" d="M410.38,335.46c1.62,0.93,3.19,0.93,4.68,0"/>
		<path vector-effect="non-scaling-stroke" class="st16" d="M415.06,335.46c0.49,0.22,0.95,0.05,1.38-0.49
			c3.23-4.08,5.77-7.92,7.63-11.51c1.72-3.32,2.68-6.53,2.87-9.64c0.14-2.33-0.37-4.23-1.54-5.69c-1.34-1.68-3.22-2.71-5.65-3.09
			c-2.36-0.36-4.51,0.03-6.43,1.17c-0.96,0.57-1.82,1.46-2.59,2.66c-0.68,1.05-1.29,2.15-1.83,3.29c-0.24,0.51-0.09,0.85,0.46,1.03"
			/>
		<path vector-effect="non-scaling-stroke" class="st19" d="M415.06,335.46c3.9-4.34,6.9-9.24,8.99-14.7"/>
		<path vector-effect="non-scaling-stroke" class="st2" d="M424.05,320.76l1.36-4.07"/>
		<path vector-effect="non-scaling-stroke" class="st4" d="M425.41,316.69c1.29-7.27-1.75-10.6-9.13-9.98
			c-2.76,0.23-4.67,1.86-5.7,4.89c-0.17,0.52,0.03,1.14,0.61,1.87"/>
		<path vector-effect="non-scaling-stroke" class="st2" d="M411.19,313.46c-0.04,0.22,0.02,0.35,0.2,0.41"/>
		<path vector-effect="non-scaling-stroke" class="st19" d="M411.39,313.87c-0.02,0.11-0.08,0.18-0.2,0.2"/>
		<path vector-effect="non-scaling-stroke" class="st3" d="M411.19,314.07l-1.83-0.88"/>
		<path vector-effect="non-scaling-stroke" class="st5" d="M425.41,316.69c-0.05-1.08-0.37-2.05-0.95-2.92
			c-0.15-0.22-0.23-0.47-0.24-0.74c-0.11-1.75-1.05-2.99-2.79-3.72c-1.14-0.48-2.22-0.81-3.25-0.99c-1.24-0.23-2.32-0.05-3.22,0.52
			c-1.32,0.84-2.07,2.12-2.26,3.83c-0.03,0.29-0.17,0.54-0.37,0.64c-0.34,0.18-0.72,0.23-1.14,0.15"/>
		<path vector-effect="non-scaling-stroke" class="st20" d="M411.19,314.07c1.94,0.97,2.2,1.91,0.77,2.82
			c-0.22,0.13-0.48,0.2-0.76,0.17c-2.61-0.2-5.21-0.45-7.8-0.75c-0.72-0.08-2.04-0.08-3.96,0c-1.35,0.06-2.69-0.1-4-0.47
			c-0.26-0.07-0.47-0.26-0.56-0.49c-0.45-1.16,0.23-1.54,2.05-1.14"/>
		<path vector-effect="non-scaling-stroke" class="st21" d="M424.05,320.76c-0.25-0.15-0.52-0.23-0.81-0.26
			c-0.22-0.02-0.4-0.19-0.43-0.4c-0.06-0.44-0.21-0.84-0.44-1.21c-0.13-0.2-0.37-0.33-0.65-0.36c-2.39-0.24-4.62-0.95-6.69-2.13
			c-0.26-0.15-0.82-0.61-1.69-1.39c-0.56-0.51-1.21-0.89-1.95-1.14"/>
		<path vector-effect="non-scaling-stroke" class="st3" d="M404.06,314.01l-7.13,0.2"/>
		<path vector-effect="non-scaling-stroke" class="st19" d="M396.93,314.21c-1.76-0.3-3.51-0.3-5.25,0.01
			c-0.25,0.05-0.46,0.22-0.54,0.46c-0.81,2.3-0.85,4.49-0.11,6.55c0.54,1.52,1.82,3.12,3.83,4.79c4.69,3.89,9.86,7.04,15.52,9.43"/>
	</g>
	<path class="st22" d="M320.5,228.13c-6.16-5.48-9.34-12.03-9.55-19.64c-0.09-3.28,0.6-6.25,2.06-8.91
		c3.8-6.95,10.25-9.56,19.36-7.83c0.27,0.05,0.54,0.02,0.77-0.09c1.14-0.56,2.46-1.44,3.96-2.63c1.48-1.17,3.32-2.21,5.5-3.1
		c2.15-0.89,4.18-1.37,6.08-1.43c4.07-0.14,7.79,1.09,11.18,3.67c3.94,3.01,6.4,6.97,7.36,11.88c1.24,6.29,0.51,12.32-2.2,18.08
		c-2.41,5.14-5.61,10.24-9.58,15.3c-2.25,2.87-4.99,4.49-8.2,4.86c-2.03,0.23-5.01-0.07-8.92-0.9
		C331.81,236,325.87,232.91,320.5,228.13z M354.41,232.82c2.29-2.63,4.3-5.44,6.01-8.44c2-3.49,3.45-6.6,4.35-9.34
		c1.31-3.96,1.77-8.1,1.39-12.41c-0.51-5.8-2.89-10.39-7.15-13.78c-1.67-1.33-3.52-2.21-5.54-2.66c-2.07-0.46-4.16-0.56-6.27-0.31
		c-2.31,0.28-4.72,1.24-7.23,2.88c-2.21,1.44-4.29,3.06-6.25,4.86c-0.27,0.24-0.65,0.29-0.98,0.13c-2.59-1.29-5.39-1.65-8.41-1.06
		c-4.52,0.89-7.83,3.03-9.92,6.43c-1.78,2.89-2.48,6.45-2.11,10.66c0.52,5.77,2.97,10.94,7.36,15.5c5.32,5.54,11.49,9.05,18.5,10.53
		c3.87,0.81,6.64,1.18,8.31,1.09C349.54,236.74,352.18,235.38,354.41,232.82z"/>
	<path class="st23" d="M354.41,232.82c-2.23,2.56-4.87,3.92-7.91,4.08c-1.67,0.09-4.44-0.28-8.31-1.09
		c-7.01-1.48-13.18-4.99-18.5-10.53c-4.39-4.57-6.85-9.74-7.36-15.5c-0.37-4.21,0.33-7.76,2.11-10.66c2.09-3.39,5.39-5.54,9.92-6.43
		c3.01-0.59,5.82-0.23,8.41,1.06c0.33,0.16,0.71,0.11,0.98-0.13c1.96-1.8,4.04-3.42,6.25-4.86c2.5-1.63,4.91-2.59,7.23-2.88
		c2.1-0.25,4.19-0.15,6.27,0.31c2.02,0.45,3.87,1.33,5.54,2.66c4.26,3.38,6.65,7.98,7.15,13.78c0.38,4.31-0.08,8.44-1.39,12.41
		c-0.9,2.74-2.35,5.86-4.35,9.34C358.71,227.38,356.7,230.19,354.41,232.82z M338.63,202.15c-3.31-0.15-6.63-0.15-9.94-0.02
		c-1.47,0.06-2.57,0.46-3.28,1.19c-0.88,0.9-1.53,2.11-1.96,3.63c-1.11,4.01,0.03,7.55,3.43,10.6c1.17,1.05,2.43,1.98,3.8,2.78
		c3.71,2.18,8.26,3.97,13.65,5.36c1.67,0.43,3.11,0.34,4.32-0.28c0.87-0.44,1.72-1.46,2.55-3.05c2.3-4.41,3.91-8.39,4.84-11.95
		c0.52-1.98,0.75-4.34,0.7-7.08c-0.04-2.13-0.53-3.85-1.46-5.14c-2.04-2.83-5.04-3.85-9.02-3.06c-3.71,0.74-6.08,2.95-7.12,6.63
		C339.08,202.01,338.87,202.16,338.63,202.15z"/>
	<path class="st22" d="M339.14,201.77c1.04-3.68,3.41-5.89,7.12-6.63c3.98-0.79,6.98,0.23,9.02,3.06c0.93,1.29,1.41,3.01,1.46,5.14
		c0.05,2.74-0.18,5.1-0.7,7.08c-0.93,3.56-2.54,7.54-4.84,11.95c-0.83,1.59-1.68,2.61-2.55,3.05c-1.21,0.62-2.65,0.71-4.32,0.28
		c-5.39-1.39-9.94-3.18-13.65-5.36c-1.36-0.8-2.63-1.72-3.8-2.78c-3.4-3.05-4.54-6.59-3.43-10.6c0.42-1.52,1.08-2.73,1.96-3.63
		c0.72-0.73,1.81-1.13,3.28-1.19c3.31-0.14,6.63-0.13,9.94,0.02C338.87,202.16,339.08,202.01,339.14,201.77z M341.77,203.44
		c-2.98,0.02-7.2-0.12-12.66-0.41c-1.72-0.09-2.95,0.65-3.7,2.24c-1.02,2.02-1.4,3.84-1.14,5.45c0.49,3.13,2.26,5.71,5.3,7.74
		c3.04,2.03,6.84,3.76,11.38,5.17c2.86,0.89,4.29,1.33,4.31,1.33c1.93,0.35,3.44-0.26,4.53-1.82c0.26-0.37,0.91-1.65,1.96-3.84
		c0.62-1.3,1.16-2.64,1.6-4.02c1.08-2.76,1.83-5.96,2.24-9.61c0.23-2.08,0.11-3.91-0.37-5.5c-0.26-0.93-0.7-1.59-1.3-1.99
		c-4.27-2.75-8.18-2.64-11.74,0.32c-0.86,0.72-1.37,1.43-1.52,2.14C340.42,201.68,340.8,202.6,341.77,203.44z"/>
	<path class="st24" d="M355.21,200.18c0.26,1.02,0.23,1.51-0.07,1.49c-0.51-0.04-0.99-0.31-1.3-0.73c-2.01-2.77-4.02-3.46-6.03-2.08
		c-0.61,0.42-0.78,1.25-0.4,1.88c0.79,1.3,1.9,2.38,3.33,3.26c0.89,0.53,1.01,1.24,0.37,2.13c-0.16,0.22-0.4,0.37-0.65,0.42
		c-0.87,0.16-1.53-0.14-1.96-0.92c-0.4-0.72-1.14-1.18-2.22-1.38l-4.52-0.81c-0.97-0.84-1.35-1.77-1.12-2.79
		c0.15-0.71,0.66-1.43,1.52-2.14c3.56-2.96,7.47-3.07,11.74-0.32C354.52,198.59,354.95,199.25,355.21,200.18z"/>
	<path class="st25" d="M355.21,200.18c0.48,1.59,0.61,3.42,0.37,5.5c-0.41,3.64-1.16,6.85-2.24,9.61c-1.27,0.65-1.75,0.17-1.43-1.42
		c0.24-1.2,0.52-2.38,0.85-3.55c0.48-1.75-0.15-2.48-1.89-2.18c-0.51,0.08-1.02-0.02-1.45-0.3c-1.09-0.71-2.18-1.11-3.29-1.21
		c-1.74-0.14-2.75-0.25-3.05-0.33c-4.9-1.2-9.88-1.6-14.93-1.21c-0.24,0.02-0.49,0.13-0.71,0.31c-0.7,0.56-1.37,0.52-2.03-0.12
		c0.75-1.59,1.98-2.33,3.7-2.24c5.46,0.29,9.68,0.42,12.66,0.41l4.52,0.81c1.08,0.2,1.81,0.65,2.22,1.38
		c0.43,0.78,1.08,1.08,1.96,0.92c0.25-0.05,0.49-0.2,0.65-0.42c0.64-0.89,0.52-1.59-0.37-2.13c-1.43-0.87-2.54-1.96-3.33-3.26
		c-0.38-0.64-0.21-1.46,0.4-1.88c2.01-1.39,4.02-0.69,6.03,2.08c0.31,0.42,0.79,0.69,1.3,0.73
		C355.44,201.69,355.47,201.2,355.21,200.18z"/>
	<path class="st26" d="M353.35,215.29c-0.45,1.37-0.98,2.71-1.6,4.02c-1.05,2.19-1.7,3.47-1.96,3.84c-1.09,1.57-2.6,2.18-4.53,1.82
		c-0.02,0-1.45-0.44-4.31-1.33c-4.55-1.42-8.34-3.14-11.38-5.17c-3.04-2.03-4.8-4.61-5.3-7.74c-0.26-1.61,0.12-3.43,1.14-5.45
		c0.66,0.64,1.33,0.68,2.03,0.12c0.22-0.18,0.47-0.29,0.71-0.31c5.06-0.39,10.03,0.01,14.93,1.21c0.29,0.08,1.31,0.18,3.05,0.33
		c1.11,0.09,2.21,0.49,3.29,1.21c0.43,0.28,0.95,0.38,1.45,0.3c1.74-0.3,2.37,0.43,1.89,2.18c-0.33,1.17-0.61,2.35-0.85,3.55
		C351.6,215.46,352.07,215.93,353.35,215.29z"/>
	<path class="st22" d="M195.26,230.51c3.79-2.91,7.9-4.22,12.33-3.94c4.45,0.29,8.1,1.95,10.96,4.99c2.58,2.74,3.86,6.1,3.83,10.09
		c-0.02,2.9-0.87,6.21-2.57,9.92c-3.84,8.43-9.75,15.12-17.73,20.06c-2.09,1.29-3.87,1.99-5.36,2.11c-1.38,0.11-2.73-0.09-4.06-0.61
		c-0.4-0.15-1.61-0.75-3.62-1.79c-5.03-2.62-9.42-6.09-13.17-10.42c-3.04-3.52-5.13-7.41-6.26-11.66
		c-1.03-3.87-0.85-7.79,0.54-11.76c2.31-6.62,7.02-9.99,14.13-10.11c3.52-0.05,6.86,0.99,10,3.14
		C194.59,230.73,194.97,230.73,195.26,230.51z M193.23,231.48c-0.59-0.28-1.32-0.66-2.19-1.12c-0.86-0.46-1.61-0.79-2.26-0.99
		c-4.81-1.46-9.04-0.83-12.69,1.89c-2.05,1.53-3.56,3.5-4.53,5.91c-0.97,2.42-1.34,4.96-1.1,7.62c0.15,1.67,0.43,3.29,0.83,4.88
		c0.41,1.61,1.03,3.16,1.87,4.63c4.84,8.46,11.96,14.51,21.34,18.16c0.88,0.34,1.77,0.37,2.67,0.09c5.3-1.67,9.72-4.71,13.27-9.13
		c1.92-2.4,2.88-3.61,2.9-3.63c2.36-2.76,3.79-4.58,4.29-5.47c1.66-2.95,2.76-6.06,3.3-9.34c0.42-2.55,0.32-4.79-0.31-6.71
		c-0.67-2.03-1.8-4.05-3.4-6.05c-1.92-2.4-4.41-3.8-7.48-4.2c-4.58-0.61-9.16,0.5-13.74,3.32
		C195.12,231.89,194.19,231.94,193.23,231.48z"/>
	<path class="st27" d="M193.23,231.48c0.96,0.46,1.89,0.4,2.79-0.15c4.58-2.82,9.16-3.93,13.74-3.32c3.07,0.41,5.56,1.81,7.48,4.2
		c1.6,2,2.73,4.01,3.4,6.05c0.63,1.93,0.73,4.17,0.31,6.71c-0.54,3.28-1.64,6.4-3.3,9.34c-0.51,0.89-1.94,2.72-4.29,5.47
		c-0.02,0.02-0.98,1.22-2.9,3.63c-3.55,4.42-7.97,7.47-13.27,9.13c-0.9,0.28-1.79,0.25-2.67-0.09c-9.38-3.65-16.49-9.7-21.34-18.16
		c-0.84-1.47-1.47-3.01-1.87-4.63c-0.4-1.59-0.68-3.21-0.83-4.88c-0.24-2.66,0.13-5.2,1.1-7.62c0.97-2.41,2.48-4.38,4.53-5.91
		c3.64-2.72,7.87-3.35,12.69-1.89c0.65,0.2,1.4,0.52,2.26,0.99C191.91,230.83,192.64,231.2,193.23,231.48z M206.06,235.9
		c-2-0.24-4.05-0.01-6.13,0.69c-1.46,0.49-2.64,0.89-3.54,1.2c-1.19,0.41-2.4,0.64-3.63,0.69c-3.37,0.13-6.7,0.4-10,0.8
		c-1.02,0.12-1.74,0.64-2.18,1.57c-1.25,2.7-1.26,5.41-0.02,8.12c0.97,2.11,2.27,3.98,3.92,5.61c3.41,3.39,7.39,6.33,11.97,8.82
		c1,0.55,1.95,0.46,2.83-0.27c1.23-1.02,2.41-2.13,3.54-3.34c0.96-1.03,1.87-2.35,2.73-3.98c1.83-3.43,3.73-6.82,5.69-10.17
		c1.59-2.72,1.6-5.08,0.02-7.08C210.06,237.06,208.33,236.16,206.06,235.9z"/>
	<path class="st22" d="M211.25,238.57c1.58,2,1.57,4.36-0.02,7.08c-1.96,3.35-3.86,6.74-5.69,10.17c-0.86,1.63-1.77,2.96-2.73,3.98
		c-1.13,1.21-2.31,2.32-3.54,3.34c-0.88,0.73-1.82,0.82-2.83,0.27c-4.57-2.49-8.56-5.43-11.97-8.82c-1.65-1.63-2.95-3.51-3.92-5.61
		c-1.24-2.71-1.23-5.42,0.02-8.12c0.43-0.93,1.16-1.45,2.18-1.57c3.3-0.4,6.64-0.67,10-0.8c1.23-0.05,2.44-0.28,3.63-0.69
		c0.9-0.31,2.07-0.71,3.54-1.2c2.09-0.7,4.13-0.93,6.13-0.69C208.33,236.16,210.06,237.06,211.25,238.57z M196.07,239.49l-1.8,0.03
		l-9.17,0.41c-2.17-0.3-3.52,0.37-4.07,2c-1.17,3.48-0.34,6.73,2.48,9.74c3.77,4.01,8.29,7.6,13.55,10.76
		c0.47,0.29,1.07,0.23,1.48-0.14c3.5-3.1,5.96-6.43,7.36-9.97l0.95-1.63c1.27-2.19,2.48-4.41,3.62-6.66
		c0.78-1.54,0.73-2.97-0.17-4.29c-1.07-1.56-2.62-2.32-4.64-2.3C202.33,237.49,199.13,238.17,196.07,239.49z"/>
	<path class="st28" d="M206.87,250.69l-1.03-0.22c-0.2-0.05-0.29-0.31-0.19-0.55l3.5-8.12c0.11-0.24,0.05-0.52-0.15-0.72
		c-0.92-0.91-2.07-1.48-3.47-1.69c-0.59-0.09-1.44-0.03-2.55,0.19c-0.86,0.17-1.72,0.28-2.59,0.34c-0.49,0.03-0.85,0.14-1.08,0.33
		c-0.35,0.29-0.52,0.67-0.49,1.13c0.02,0.22,0.16,0.46,0.41,0.63c0.93,0.67,1.45,1.59,1.57,2.74c0.03,0.22,0.12,0.46,0.29,0.71
		c0.31,0.47,0.21,0.87-0.31,1.2c-1.18-1-2.28-2.08-3.3-3.25c-0.97-1.12-1.44-2.42-1.42-3.91c3.06-1.32,6.26-2,9.61-2.04
		c2.02-0.03,3.57,0.74,4.64,2.3c0.9,1.31,0.95,2.74,0.17,4.29C209.35,246.28,208.14,248.5,206.87,250.69z"/>
	<path class="st29" d="M206.87,250.69l-0.95,1.63l-0.48-0.23c-0.2-0.1-0.3-0.33-0.24-0.57c0.21-0.79,0.01-1.37-0.59-1.74
		c-0.72-0.43-1.09-0.67-1.12-0.7c-0.91-0.79-1.81-1.6-2.7-2.43c0.52-0.33,0.62-0.73,0.31-1.2c-0.16-0.25-0.26-0.49-0.29-0.71
		c-0.12-1.15-0.64-2.06-1.57-2.74c-0.24-0.17-0.39-0.41-0.41-0.63c-0.03-0.47,0.14-0.84,0.49-1.13c0.22-0.18,0.58-0.29,1.08-0.33
		c0.87-0.06,1.73-0.17,2.59-0.34c1.11-0.22,1.96-0.28,2.55-0.19c1.4,0.22,2.55,0.78,3.47,1.69c0.2,0.2,0.25,0.48,0.15,0.72
		l-3.5,8.12c-0.11,0.24-0.02,0.5,0.19,0.55L206.87,250.69z"/>
	<path class="st30" d="M194.27,239.52c0.75,0.29,1.12,0.81,1.11,1.55c-0.01,0.29,0.06,0.56,0.19,0.75c2.54,3.73,5.24,6.6,8.12,8.62
		c0.8,0.56,1.04,1.19,0.72,1.89c-0.09,0.2-0.34,0.3-0.6,0.25c-1.12-0.21-2.12,0.07-2.98,0.83c-0.15,0.14-0.4,0.21-0.69,0.22
		l-3.69,0.06c-1.03,0.02-1.63,0.01-1.78-0.03c-1.98-0.52-3.61-1.17-4.89-1.96c-0.5-0.3-1.03-0.83-1.6-1.59
		c-0.61-0.79-1.15-1.33-1.64-1.64c-1.53-0.96-2.51-2.3-2.97-4.04c-0.49-1.86,0.03-3.36,1.55-4.51L194.27,239.52z"/>
	<path class="st31" d="M194.27,239.52l1.8-0.03c-0.03,1.49,0.45,2.79,1.42,3.91c1.02,1.17,2.12,2.25,3.3,3.25
		c0.89,0.83,1.78,1.63,2.7,2.43c0.03,0.03,0.41,0.27,1.12,0.7c0.6,0.37,0.79,0.95,0.59,1.74c-0.07,0.24,0.04,0.47,0.24,0.57
		l0.48,0.23c-1.41,3.55-3.86,6.87-7.36,9.97c-0.42,0.37-1.01,0.42-1.48,0.14c-5.26-3.16-9.78-6.75-13.55-10.76
		c-2.82-3.01-3.65-6.25-2.48-9.74c0.55-1.63,1.91-2.3,4.07-2c-1.52,1.15-2.04,2.65-1.55,4.51c0.45,1.74,1.44,3.09,2.97,4.04
		c0.48,0.3,1.03,0.85,1.64,1.64c0.57,0.75,1.11,1.28,1.6,1.59c1.28,0.78,2.91,1.43,4.89,1.96c0.16,0.04,0.75,0.05,1.78,0.03
		l3.69-0.06c0.29-0.01,0.55-0.08,0.69-0.22c0.86-0.77,1.86-1.04,2.98-0.83c0.26,0.05,0.51-0.06,0.6-0.25
		c0.33-0.7,0.09-1.33-0.72-1.89c-2.88-2.02-5.59-4.89-8.12-8.62c-0.13-0.19-0.2-0.46-0.19-0.75
		C195.39,240.33,195.02,239.82,194.27,239.52z"/>
	<path class="st22" d="M402.07,302.31c1.85-2.39,4.07-4.25,6.65-5.59c2.42-1.27,5.15-1.94,8.19-2.01
		c8.08-0.2,13.99,3.66,17.71,11.59c0.75,1.6,1.21,3.21,1.39,4.84c0.1,0.95,0.14,2.61,0.1,4.99c-0.03,2.3-0.32,4.32-0.87,6.06
		c-1.98,6.3-4.95,12.08-8.91,17.36c-2.03,2.7-4.21,4.79-6.57,6.27c-1.77,1.11-3.87,1.55-6.31,1.31c-5.32-0.52-10.32-1.93-14.99-4.21
		c-4.2-2.06-7.71-4.35-10.51-6.86c-3.18-2.85-5.69-6.3-7.51-10.37c-1.56-3.49-2.14-7.02-1.75-10.59c0.39-3.54,1.81-6.64,4.26-9.29
		c4.7-5.09,10.87-6.19,18.51-3.32C401.67,302.57,401.92,302.5,402.07,302.31z M384.26,306.05c-2.43,2.57-3.87,5.47-4.31,8.68
		c-0.37,2.7,0.04,5.76,1.23,9.17c1.98,5.69,5.56,10.32,10.74,13.9c5.4,3.73,11.27,6.32,17.61,7.76c2.65,0.6,4.76,0.78,6.34,0.54
		c2.2-0.34,4.19-1.3,5.97-2.87c1.55-1.36,3.31-3.54,5.3-6.53c4.25-6.39,6.75-12.93,7.5-19.6c0.75-6.66-1.3-12.22-6.13-16.69
		c-3.39-3.12-7.26-4.62-11.6-4.5c-5.77,0.16-10.4,2.7-13.9,7.61c-0.64,0.9-1.44,1.07-2.4,0.5c-2.21-1.31-4.57-1.89-7.08-1.75
		c-1.9,0.11-3.55,0.41-4.95,0.9C386.97,303.73,385.54,304.69,384.26,306.05z"/>
	<path class="st32" d="M384.26,306.05c1.28-1.36,2.72-2.32,4.31-2.88c1.41-0.49,3.06-0.8,4.95-0.9c2.51-0.14,4.87,0.44,7.08,1.75
		c0.96,0.57,1.75,0.4,2.4-0.5c3.5-4.91,8.13-7.45,13.9-7.61c4.34-0.12,8.21,1.37,11.6,4.5c4.84,4.46,6.88,10.03,6.13,16.69
		c-0.75,6.68-3.25,13.21-7.5,19.6c-1.98,2.99-3.75,5.16-5.3,6.53c-1.78,1.57-3.77,2.53-5.97,2.87c-1.58,0.24-3.69,0.07-6.34-0.54
		c-6.33-1.44-12.2-4.03-17.61-7.76c-5.18-3.58-8.76-8.21-10.74-13.9c-1.19-3.41-1.6-6.46-1.23-9.17
		C380.39,311.51,381.82,308.62,384.26,306.05z M409.36,313.19c-1.81-0.05-3.57,0.22-5.3,0.81c0.55-0.11,0.79-0.28,0.71-0.52
		c-0.07-0.18-0.32-0.33-0.65-0.37c-2.62-0.33-5.24-0.45-7.88-0.37c-2.41,0.08-3.81,0.17-4.2,0.28c-1.77,0.46-2.63,1.83-2.59,4.11
		c0.07,3.58,1.27,6.51,3.58,8.79c0.96,0.95,3.43,2.64,7.41,5.08c2.47,1.51,5.25,3.03,8.35,4.57c0.69,0.34,1.22,0.3,1.58-0.12
		c1.62,0.93,3.19,0.93,4.68,0c0.49,0.22,0.95,0.05,1.38-0.49c3.23-4.08,5.77-7.92,7.63-11.51c1.72-3.32,2.68-6.53,2.87-9.64
		c0.14-2.33-0.37-4.23-1.54-5.69c-1.34-1.68-3.22-2.71-5.65-3.09c-2.36-0.36-4.51,0.03-6.43,1.17c-0.96,0.57-1.82,1.46-2.59,2.66
		c-0.68,1.05-1.29,2.15-1.83,3.29C408.66,312.66,408.81,313.01,409.36,313.19z"/>
	<path class="st22" d="M415.06,335.46c3.9-4.34,6.9-9.24,8.99-14.7l1.36-4.07c1.29-7.27-1.75-10.6-9.13-9.98
		c-2.76,0.23-4.67,1.86-5.7,4.89c-0.17,0.52,0.03,1.14,0.61,1.87c-0.04,0.22,0.02,0.35,0.2,0.41c-0.02,0.11-0.08,0.18-0.2,0.2
		l-1.83-0.88c-0.54-0.18-0.7-0.53-0.46-1.03c0.54-1.14,1.15-2.24,1.83-3.29c0.77-1.2,1.63-2.09,2.59-2.66
		c1.92-1.14,4.07-1.52,6.43-1.17c2.42,0.37,4.3,1.4,5.65,3.09c1.17,1.46,1.68,3.36,1.54,5.69c-0.19,3.11-1.15,6.32-2.87,9.64
		c-1.86,3.59-4.41,7.43-7.63,11.51C416.01,335.51,415.55,335.67,415.06,335.46z"/>
	<path class="st24" d="M425.41,316.69c-0.05-1.08-0.37-2.05-0.95-2.92c-0.15-0.22-0.23-0.47-0.24-0.74
		c-0.11-1.75-1.05-2.99-2.79-3.72c-1.14-0.48-2.22-0.81-3.25-0.99c-1.24-0.23-2.32-0.05-3.22,0.52c-1.32,0.84-2.07,2.12-2.26,3.83
		c-0.03,0.29-0.17,0.54-0.37,0.64c-0.34,0.18-0.72,0.23-1.14,0.15c-0.58-0.73-0.78-1.35-0.61-1.87c1.04-3.03,2.94-4.65,5.7-4.89
		C423.66,306.09,426.71,309.41,425.41,316.69z"/>
	<path class="st25" d="M425.41,316.69l-1.36,4.07c-0.25-0.15-0.52-0.23-0.81-0.26c-0.22-0.02-0.4-0.19-0.43-0.4
		c-0.06-0.44-0.21-0.84-0.44-1.21c-0.13-0.2-0.37-0.33-0.65-0.36c-2.39-0.24-4.62-0.95-6.69-2.13c-0.26-0.15-0.82-0.61-1.69-1.39
		c-0.56-0.51-1.21-0.89-1.95-1.14c-0.18-0.05-0.25-0.19-0.2-0.41c0.42,0.08,0.8,0.02,1.14-0.15c0.2-0.11,0.33-0.35,0.37-0.64
		c0.18-1.71,0.94-2.99,2.26-3.83c0.9-0.58,1.97-0.75,3.22-0.52c1.03,0.18,2.12,0.52,3.25,0.99c1.75,0.73,2.68,1.97,2.79,3.72
		c0.02,0.27,0.1,0.52,0.24,0.74C425.05,314.64,425.37,315.61,425.41,316.69z"/>
	<path class="st22" d="M404.06,314.01l-7.13,0.2c-1.76-0.3-3.51-0.3-5.25,0.01c-0.25,0.05-0.46,0.22-0.54,0.46
		c-0.81,2.3-0.85,4.49-0.11,6.55c0.54,1.52,1.82,3.12,3.83,4.79c4.69,3.89,9.86,7.04,15.52,9.43c-0.36,0.42-0.89,0.46-1.58,0.12
		c-3.1-1.54-5.88-3.06-8.35-4.57c-3.99-2.43-6.46-4.13-7.41-5.08c-2.32-2.28-3.51-5.21-3.58-8.79c-0.04-2.28,0.82-3.65,2.59-4.11
		c0.39-0.1,1.79-0.2,4.2-0.28c2.63-0.09,5.26,0.04,7.88,0.37c0.33,0.04,0.59,0.19,0.65,0.37
		C404.85,313.72,404.62,313.9,404.06,314.01z"/>
	<path class="st26" d="M409.36,313.19l1.83,0.88c1.94,0.97,2.2,1.91,0.77,2.82c-0.22,0.13-0.48,0.2-0.76,0.17
		c-2.61-0.2-5.21-0.45-7.8-0.75c-0.72-0.08-2.04-0.08-3.96,0c-1.35,0.06-2.69-0.1-4-0.47c-0.26-0.07-0.47-0.26-0.56-0.49
		c-0.45-1.16,0.23-1.54,2.05-1.14l7.13-0.2C405.78,313.41,407.55,313.14,409.36,313.19z"/>
	<path class="st33" d="M411.39,313.87c0.74,0.26,1.39,0.64,1.95,1.14c0.87,0.78,1.44,1.25,1.69,1.39c2.07,1.18,4.3,1.9,6.69,2.13
		c0.29,0.02,0.52,0.15,0.65,0.36c0.23,0.36,0.38,0.77,0.44,1.21c0.03,0.21,0.21,0.38,0.43,0.4c0.29,0.03,0.56,0.11,0.81,0.26
		c-2.1,5.46-5.09,10.36-8.99,14.7c-1.5,0.93-3.06,0.93-4.68,0c-5.66-2.4-10.83-5.54-15.52-9.43c-2.01-1.67-3.29-3.27-3.83-4.79
		c-0.74-2.06-0.7-4.25,0.11-6.55c0.08-0.24,0.29-0.42,0.54-0.46c1.74-0.31,3.5-0.31,5.25-0.01c-1.82-0.4-2.5-0.02-2.05,1.14
		c0.09,0.23,0.3,0.42,0.56,0.49c1.31,0.37,2.65,0.53,4,0.47c1.92-0.08,3.24-0.08,3.96,0c2.59,0.3,5.19,0.55,7.8,0.75
		c0.28,0.02,0.54-0.04,0.76-0.17c1.43-0.91,1.18-1.85-0.77-2.82C411.31,314.05,411.38,313.98,411.39,313.87z"/>
</g>
</svg>
