<?xml version="1.0" encoding="utf-8"?>
<!-- Generator: Adobe Illustrator 27.4.1, SVG Export Plug-In . SVG Version: 6.00 Build 0)  -->
<svg version="1.1" id="Layer_1" xmlns="http://www.w3.org/2000/svg" xmlns:xlink="http://www.w3.org/1999/xlink" x="0px" y="0px"
	 viewBox="0 0 536 622" style="enable-background:new 0 0 536 622;" xml:space="preserve">
<style type="text/css">
	.st0{fill:none;stroke:#6D4927;stroke-width:2;}
	.st1{fill:none;stroke:#0F181D;stroke-width:2;}
	.st2{fill:none;stroke:#3C7694;stroke-width:2;}
	.st3{fill:none;stroke:#356888;stroke-width:2;}
	.st4{fill:none;stroke:#2E6079;stroke-width:2;}
	.st5{fill:none;stroke:#54B0E4;stroke-width:2;}
	.st6{fill:none;stroke:#10171C;stroke-width:2;}
	.st7{fill:none;stroke:#27516C;stroke-width:2;}
	.st8{fill:none;stroke:#376787;stroke-width:2;}
	.st9{fill:none;stroke:#54ADDF;stroke-width:2;}
	.st10{fill:none;stroke:#2E5D74;stroke-width:2;}
	.st11{fill:none;stroke:#1E313C;stroke-width:2;}
	.st12{fill:none;stroke:#40A8CA;stroke-width:2;}
	.st13{fill:none;stroke:#ADDFF7;stroke-width:2;}
	.st14{fill:none;stroke:#379FC8;stroke-width:2;}
	.st15{fill:none;stroke:#89BFCF;stroke-width:2;}
	.st16{fill:none;stroke:#3E7691;stroke-width:2;}
	.st17{fill:none;stroke:#11171A;stroke-width:2;}
	.st18{fill:none;stroke:#92C8D1;stroke-width:2;}
	.st19{fill:none;stroke:#727778;stroke-width:2;}
	.st20{fill:none;stroke:#E3ECEE;stroke-width:2;}
	.st21{fill:none;stroke:#661A15;stroke-width:2;}
	.st22{fill:none;stroke:#84CEE1;stroke-width:2;}
	.st23{fill:#000101;}
	.st24{fill:#1D2E38;}
	.st25{fill:#5BBEF0;}
	.st26{fill:#1E343F;}
	.st27{fill:#4DA1D7;}
	.st28{fill:#2491A3;}
	.st29{fill:#137FA0;}
	.st30{fill:#FFFFFE;}
	.st31{fill:#212D32;}
	.st32{fill:#E3ECEE;}
	.st33{fill:#202D36;}
	.st34{fill:#CB3229;}
	.st35{fill:#5BB9E7;}
	.st36{fill:#ACE2DB;}
</style>
<g>
	<path vector-effect="non-scaling-stroke" class="st0" d="M227.02,495.28c-0.54,1.43-1.61,3.44-3.21,6.03
		c-3.9,6.31-7.21,13.84-9.94,22.6c-1.29,4.14-1.83,9.09-1.62,14.84c0.64,17.32,7.41,31.14,20.3,41.45
		c12.32,9.85,26.24,14.98,41.75,15.39c4.26,0.11,8.36-0.28,12.31-1.15c4.26-0.95,8.2-2.28,11.83-4
		c8.93-4.23,15.54-11.01,19.84-20.33c5.16-11.19,6.73-22.59,4.71-34.2c-0.99-5.67-3.16-11.94-6.51-18.81
		c-3.86-7.91-8.52-15.3-13.98-22.17c-0.31-0.39-0.18-0.96,0.27-1.18c37.35-17.82,71.56-40.01,102.63-66.58
		c6.78-5.79,14.04-12.79,21.79-20.98c27.42-29.01,49.61-61.11,66.56-96.28c16.61-34.47,25.82-70.86,27.63-109.17
		c0.73-15.37-0.55-32.22-3.82-50.55c-3.97-22.29-12.27-41.98-24.89-59.06c-3.94-5.33-8.34-10.33-13.2-15
		c-21.68-20.79-48.01-32.38-78.98-34.76c-22.54-1.73-44.45,1.14-65.74,8.62c-27.19,9.55-50.49,24.92-69.91,46.13
		c-0.18,0.2-0.48,0.19-0.64-0.01c-3.34-4.35-7.05-8.33-11.12-11.94c-2.85-2.52-7.19-6.01-13.04-10.46
		c-14.71-11.19-30.78-19.53-48.23-25.02c-20.33-6.41-41.44-8.96-63.31-7.67c-20.46,1.21-39.62,6.78-57.49,16.7
		c-16,8.89-29.32,20.92-39.95,36.09c-15.49,22.12-24.33,46.6-26.52,73.44c-0.93,11.51-1.03,24.1-0.29,37.75
		c0.88,16.26,3.25,31.58,7.1,45.97c8.16,30.52,20.28,59.29,36.35,86.32c3.3,5.55,6.82,11.22,10.55,16.99
		c14.79,22.87,31.31,42.92,49.56,60.16c26.77,25.28,57.52,47.7,92.25,67.25c9.43,5.31,18.32,9.62,26.65,12.93
		C226.98,494.73,227.12,495.02,227.02,495.28"/>
	<path vector-effect="non-scaling-stroke" class="st1" d="M257.58,91.44c-22.13-22.09-48.49-36.76-79.07-44.01
		c-3.93-0.93-10.93-1.91-21.01-2.93c-17.39-1.76-33.72-1.25-48.99,1.54c-11.71,2.14-23.9,6.61-36.57,13.4
		c-8.18,4.38-15.64,9.76-22.37,16.13c-22.7,21.48-36.6,47.72-41.7,78.71C6.8,160.8,6.17,166.62,6,171.75
		c-0.23,6.77-0.29,14.6-0.18,23.5c0.09,7.43,0.46,14.08,1.12,19.96c1.83,16.23,4.99,31.93,9.5,47.1
		c6.77,22.81,16.16,44.91,28.17,66.29c15.72,27.99,34.52,53.66,56.4,77c4.77,5.09,9.53,9.74,14.29,13.97
		c6.25,5.55,13.25,11.34,21.01,17.37c13.99,10.87,26.74,20.12,38.25,27.75c8.68,5.75,23.12,13.88,43.32,24.38
		c3.42,1.77,7.01,3.27,10.76,4.48c0.84,0.27,1.19,1.26,0.72,2c-4.54,7.13-8.37,14.63-11.49,22.49c-2.3,5.81-3.6,10.72-3.91,14.75
		c-0.36,4.83,0.07,9.99,1.29,15.46c2.83,12.68,8.77,22.83,17.8,30.45c6.92,5.84,14.76,9.91,23.52,12.2
		c5.92,1.55,11.9,2.38,17.94,2.48c6.55,0.11,12.47-0.67,17.77-2.32c10.87-3.41,18.96-10.14,24.28-20.21
		c2.35-4.44,3.89-9.52,4.62-15.23c0.68-5.33,0.79-10.71,0.34-16.12c-0.42-5.06-1.66-10.08-3.71-15.06
		c-4.54-11.03-10.35-21.1-17.44-30.23c-0.16-0.21-0.09-0.51,0.15-0.62c20.85-10.07,40.89-21.5,60.14-34.29
		c5.6-3.71,11.04-7.56,16.33-11.55c16.27-12.24,31.72-25.46,46.35-39.66c6.98-6.77,12.97-13.45,17.97-20.03
		c1.7-2.23,3.29-4.19,4.78-5.86c2.6-2.94,4.24-4.86,4.93-5.75c10.15-13.17,20.33-28.8,30.54-46.89
		c15.11-26.76,25.84-54.18,32.17-82.27c1.22-5.43,2.3-12,3.23-19.72c1.29-10.73,2.06-17.42,2.29-20.07
		c0.99-11.21,0.83-22.99-0.47-35.33c-0.73-6.89-1.61-13.5-2.64-19.82c-1.73-10.65-4.21-20.24-7.45-28.79
		c-7.01-18.47-18.04-34.58-33.08-48.33c-4.97-4.53-10.23-8.61-15.8-12.23c-12.86-8.34-26.38-14.01-40.56-17
		c-16.01-3.38-30.85-4.21-44.5-2.5c-9.23,1.16-17.82,2.66-25.75,4.5c-18.49,4.29-35.62,11.68-51.4,22.15
		c-4.97,3.3-10.24,7.38-15.82,12.23c-5.55,4.82-10.91,9.84-16.1,15.07c-0.97,0.98-1.84,0.89-2.61-0.26
		c-0.84-1.25-1.81-2.38-2.91-3.39C258.49,92.27,257.63,91.49,257.58,91.44"/>
	<path vector-effect="non-scaling-stroke" class="st2" d="M397,64.96h-19.25"/>
	<path vector-effect="non-scaling-stroke" class="st1" d="M377.75,64.96c0.02-0.45-0.15-0.69-0.5-0.71
		c-6.1-0.29-12.36,0.32-18.79,1.83c-14.54,3.43-28.21,8.96-41.02,16.61c-6.29,3.75-11.99,7.53-17.09,11.36
		c-4.03,3.02-9,7.45-14.91,13.3c-6.43,6.35-12.85,12.72-19.26,19.1c-0.52,0.5-1.35,0.49-1.87-0.03l-19.26-19.27
		c-0.28-0.27-0.61-0.41-0.86-0.35c-0.36,0.07-0.52,0.39-0.48,0.95"/>
	<path vector-effect="non-scaling-stroke" class="st2" d="M243.71,107.75l-6.96-6.21"/>
	<path vector-effect="non-scaling-stroke" class="st1" d="M236.75,101.54c0.23-0.7,0.15-1.21-0.25-1.54
		c-1.57-1.28-2.89-2.7-3.94-4.25c-0.46-0.67-1.24-1.06-2.05-1c-1.26,0.09-2.17-0.37-2.73-1.36c-0.16-0.29-0.38-0.51-0.66-0.68
		c-0.57-0.35-0.99-0.82-1.26-1.43c-0.13-0.3-0.37-0.52-0.65-0.62c-1.45-0.5-2.79-1.19-4-2.08c-2.27-1.66-3.44-2.51-3.49-2.54
		c-6.93-4.2-15.48-8.32-25.66-12.35c-11.65-4.62-22.59-7.43-32.81-8.44c-1.09-0.11-1.92,0.13-2.5,0.71"/>
	<path vector-effect="non-scaling-stroke" class="st2" d="M156.75,65.96c-13.24-1.61-26.48-1.59-39.71,0.04"/>
	<path vector-effect="non-scaling-stroke" class="st1" d="M117.04,66c-1.21-0.68-2.72-0.85-4.54-0.5
		c-16.2,3.07-30.35,9.68-42.44,19.81c-0.79,0.67-1.06,1.38-0.81,2.15"/>
	<path vector-effect="non-scaling-stroke" class="st3" d="M69.25,87.46c-10.65,9.49-19.56,20.42-26.71,32.79"/>
	<path vector-effect="non-scaling-stroke" class="st1" d="M42.54,120.25c-0.67-0.12-1.21,0.19-1.6,0.94
		c-6.31,11.87-10.55,24.26-12.72,37.17c-0.01,0.09-0.19,1.01-0.53,2.76c-0.41,2.07-0.64,4.62-0.69,7.63
		c-0.11,6.05-0.15,10.83-0.14,14.34c0,0.21,0.17,3.27,0.5,9.18c0.17,3.07,0.12,6.15-0.15,9.23c-0.31,3.55-0.05,8.14,0.79,13.75
		c1.65,11.02,2.93,18.43,3.84,22.23c0.41,1.7,1.38,6.12,2.91,13.27c1.58,7.35,4.19,15.64,7.83,24.85c2.63,6.64,5.23,12.77,7.8,18.39
		c3.54,7.73,7.83,15.98,12.87,24.76c10.88,18.95,22.67,36.21,35.37,51.78c4.07,4.98,8.52,9.94,13.35,14.89
		c13.37,13.67,27.59,26.4,42.64,38.19c7.33,5.73,12.57,9.86,15.74,12.37c10.48,8.3,19.63,14.87,27.46,19.71
		c8.84,5.47,16.63,9.76,23.38,12.87c9.81,4.54,17.81,8.44,24,11.7c3.46,1.83,5.49,3.03,6.08,3.61c1.91,1.87,2.49,4.41,1.73,7.63
		c-1.39,5.85-3.62,11.46-6.69,16.81c-2.51,4.35-3.78,6.56-3.81,6.63c-2.29,4.3-3.94,7.51-4.94,9.62c-2.31,4.89-3.37,9.92-3.2,15.08
		c0.15,4.33,1.44,8.52,3.88,12.56c3.61,5.97,8.47,10.55,14.57,13.74c7.43,3.88,15.68,5.91,24.75,6.08c2.41,0.04,4.5-0.24,6.27-0.83
		c1.69-0.56,3.66-1.37,5.92-2.44c5.66-2.67,9.14-6.78,10.44-12.31c0.63-2.69,0.58-4.83-0.15-6.44"/>
	<path vector-effect="non-scaling-stroke" class="st3" d="M300.04,550l-0.25-7.25"/>
	<path vector-effect="non-scaling-stroke" class="st1" d="M299.79,542.75c0.4,0.21,0.64-0.04,0.71-0.75
		c0.21-2.05,0.15-3.91-0.18-5.6c-0.14-0.69-0.68-2.45-1.63-5.29c-2-5.99-4.98-11.45-8.93-16.37c-0.89-1.11-2.03-2.75-3.43-4.93
		c-1.08-1.69-2.36-3.25-3.84-4.69c-0.63-0.62-1.67-0.54-2.21,0.16c-1.35,1.74-2.4,3.56-3.16,5.47c-1.51,3.78-2.28,5.68-2.29,5.71
		c-2.02,3.57-4.8,6.47-8.34,8.72c-0.29,0.17-0.39,0.1-0.32-0.23c0.84-4.06,1.58-8.13,2.21-12.22c0.31-2.02,0.45-4.85,0.41-8.49
		c-0.05-4.21,0.38-8.39,1.28-12.53c0.45-2.11,1.2-3.66,2.24-4.65c4.07-3.87,9.28-7.16,15.63-9.87c4.83-2.07,11.22-5.18,19.16-9.32
		c5.84-3.04,11.6-6.39,17.29-10.05c11.59-7.45,22.98-15.2,34.19-23.23c0.87-0.63,1.35-1.42,1.42-2.38"/>
	<path vector-effect="non-scaling-stroke" class="st3" d="M360,432.21c31.08-22.66,57.9-49.56,80.46-80.71"/>
	<path vector-effect="non-scaling-stroke" class="st1" d="M440.46,351.5c1.09,0.13,1.83-0.2,2.24-1.01c0.59-1.18,0.9-1.78,0.92-1.81
		c2.65-3.51,5.1-7.16,7.34-10.95c2.46-4.17,5.04-8.26,7.73-12.27c7.51-11.18,13.79-23.01,18.85-35.48
		c2.36-5.82,5.58-14.67,9.65-26.54c2.27-6.63,4.08-12.85,5.44-18.66c1.47-6.33,2.68-12.69,3.63-19.08
		c0.96-6.51,1.54-13.5,1.74-20.95c0.02-0.75-0.13-1.17-0.46-1.25"/>
	<path vector-effect="non-scaling-stroke" class="st2" d="M497.54,203.5c0.31-8.33,0.29-16.67-0.08-25"/>
	<path vector-effect="non-scaling-stroke" class="st1" d="M497.46,178.5c0.71-1.15,0.98-2.35,0.81-3.61c-0.2-1.49-0.3-2.26-0.3-2.32
		c-0.36-10.06-2.37-20.15-6.03-30.26c-4.53-12.51-10.2-23.85-17-34.04c-4.69-7.02-10.69-13.59-18-19.71
		c-0.69-0.57-1.33-0.66-1.94-0.27"/>
	<path vector-effect="non-scaling-stroke" class="st2" d="M455,88.29l-12-8.5"/>
	<path vector-effect="non-scaling-stroke" class="st1" d="M443,79.79c0.23-0.61,0.05-1.1-0.55-1.49
		c-13.53-8.63-28.32-13.37-44.39-14.24c-0.45-0.02-0.8,0.28-1.06,0.9"/>
	<path vector-effect="non-scaling-stroke" class="st4" d="M443,79.79c-14.04-8.84-29.37-13.78-46-14.83"/>
	<path vector-effect="non-scaling-stroke" class="st4" d="M156.75,65.96c5.61,0.67,10.2,1.44,13.75,2.29
		c24.71,5.94,46.79,17.04,66.25,33.29"/>
	<path vector-effect="non-scaling-stroke" class="st4" d="M455,88.29c7.81,6.43,14.25,13.39,19.31,20.9
		c13.95,20.66,21.66,43.76,23.15,69.31"/>
	<path vector-effect="non-scaling-stroke" class="st4" d="M497.54,203.5c-0.69,10.41-2.01,20.35-3.98,29.81
		c-3.03,14.59-7.3,29.17-12.81,43.73"/>
	<path vector-effect="non-scaling-stroke" class="st5" d="M480.75,277.04c-1.28,0.69-1.95,1.67-2,2.96
		c-0.07,1.58-0.56,2.8-1.47,3.66c-1.39,1.29-2.11,1.99-2.18,2.08c-3.15,4.29-5.16,6.89-6.04,7.82
		c-13.73,14.48-29.18,25.77-46.37,33.88c-19.55,9.21-40.62,15.07-63.19,17.56c-26.03,2.87-48.94,4.46-68.75,4.75
		c-1.47,0.02-2.57,0.19-3.31,0.52c-0.36,0.15-0.7,0.17-0.91,0.06l-1.07-0.58"/>
	<path vector-effect="non-scaling-stroke" class="st4" d="M285.46,349.75c1.4-3.63,2.6-7.94,3.6-12.94
		c2.81-13.99,4.63-27.35,5.44-40.06c0.25-3.81-0.65-6.98-2.68-9.51c-1.03-1.27-2.31-2.06-3.86-2.38c-1.33-0.27-2.9-0.39-4.71-0.36
		c-13.71,0.25-26.43,1.97-38.18,5.15c-2.77,0.75-5.26,1.66-7.46,2.72c-2.95,1.41-5.22,2.81-6.8,4.19
		c-4.91,4.29-7.72,9.37-8.43,15.24c-0.57,4.75,0.44,10.11,3.03,16.07c4.76,10.99,12.75,19.33,23.98,25.04
		c1.48,0.75,2.95,1.53,4.4,2.34"/>
	<path vector-effect="non-scaling-stroke" class="st5" d="M253.79,355.25c0.41,0.57,0.31,0.95-0.29,1.14
		c-0.27,0.09-0.62,0.05-0.95-0.12c-5.73-2.99-9.75-5.33-12.05-7.02c-1.43-1.05-2.79-1.22-4.08-0.51c-0.3,0.16-0.62,0.22-0.91,0.17
		c-2-0.33-4-0.46-6.01-0.39c-3.61,0.13-5.45,0.2-5.51,0.2c-3.83-0.05-7.66-0.11-11.49-0.19c-16.53-0.34-32.84-2.37-48.94-6.09
		c-10.16-2.35-20.42-6.22-30.77-11.61c-6.13-3.19-11.71-6.81-16.76-10.84c-12.31-9.84-22.55-21.62-30.74-35.34
		c-3.65-6.11-7.33-13.07-11.04-20.9c-3.78-7.97-6.61-15.8-8.5-23.5C64.17,233.8,62.59,225.38,61,215
		c-0.95-6.24-1.49-12.91-1.6-20.01c-0.13-7.65,0.03-14.31,0.48-19.99c0.63-7.99,2.05-15.85,4.25-23.56
		c1.65-5.79,3.56-10.62,5.73-14.47c2.64-4.69,5.87-8.83,9.7-12.41c8.77-8.2,19.26-17.33,31.49-27.4c0.15-0.13,0.25-0.26,0.29-0.39
		c0.09-0.36-0.16-0.41-0.75-0.14c-11.06,4.92-21.86,10.36-32.4,16.31c-2.25,1.27-4.46,1.64-6.65,1.13c-0.3-0.07-0.58-0.25-0.8-0.52
		c-2.6-3.17-4.92-6.54-6.96-10.1c-0.91-1.57-1.38-2.41-1.42-2.54c-0.35-1.13,0.09-2.15,1.34-3.05c1.4-1.01,2.58-2.24,3.53-3.68
		c1.25-1.89,3.03-3.58,5.35-5.09c3.07-1.99,5.03-4.77,5.88-8.34"/>
	<path vector-effect="non-scaling-stroke" class="st4" d="M78.46,80.75c6.01-4.39,13.19-7.89,21.54-10.5
		c6.92-2.17,12.6-3.58,17.04-4.25"/>
	<path vector-effect="non-scaling-stroke" class="st6" d="M282.5,355.04c-0.32,0.01-0.45-0.05-0.38-0.2
		c3.11-6.11,5.23-12.54,6.35-19.3c1.03-6.2,1.97-12.41,2.82-18.63c0.19-1.36,0.37-3.64,0.56-6.84c0.13-2.29,0.4-4.57,0.8-6.84
		c0.71-4.06,0.91-7.47,0.6-10.23c-0.26-2.31-1.24-4.11-2.95-5.4c-1.19-0.9-3.01-1.41-5.44-1.53c-6.15-0.31-12.28-0.16-18.4,0.46
		c-0.01,0.01-1.31,0.24-3.88,0.7c-1.19,0.21-2.71,0.39-4.58,0.52c-1.35,0.1-5.25,0.94-11.7,2.51c-3.6,0.89-7.22,2.36-10.86,4.43
		c-5.53,3.13-9.09,7.39-10.7,12.77c-1.31,4.39-1.17,9.56,0.42,15.53c2.54,9.5,7.88,17.27,16.03,23.32
		c10.25,7.61,21.93,12.25,35.06,13.9"/>
	<path vector-effect="non-scaling-stroke" class="st7" d="M253.79,355.25c6.32,3.05,12.97,4.89,19.96,5.5
		c0.69,0.06,1.52-0.12,2.5-0.54"/>
	<path vector-effect="non-scaling-stroke" class="st8" d="M276.25,360.21c2.65-1.02,4.74-2.74,6.25-5.17"/>
	<path vector-effect="non-scaling-stroke" class="st7" d="M282.5,355.04l2.96-5.29"/>
	<path vector-effect="non-scaling-stroke" class="st7" d="M480.75,277.04c-5.05,14.21-10.24,26.18-15.56,35.9
		c-6.04,11.03-14.28,23.89-24.73,38.56"/>
	<path vector-effect="non-scaling-stroke" class="st7" d="M360,432.21c-22.75,16.74-45.35,30.65-67.81,41.73
		c-7.07,3.48-12.98,6.88-17.74,10.21c-2.09,1.45-3.51,3.02-4.27,4.73c-0.81,1.82-1.37,3.94-1.68,6.37c-0.54,4.19-0.87,7.78-1,10.75
		c-0.34,8.14-1.68,15.9-4.01,23.28c-0.01,0.03-0.07,0.13-0.16,0.28c-0.09,0.17,0.05,0.24,0.42,0.23"/>
	<path vector-effect="non-scaling-stroke" class="st9" d="M263.75,529.79c-0.71,1.49-1.48,2.45-2.31,2.9
		c-5.04,2.69-8.65,6.61-10.84,11.78c-0.49,1.15-0.23,2.09,0.78,2.83c2.85,2.1,5.91,3.61,9.16,4.53c2.44,0.69,5.76,1.19,9.96,1.51
		c4.69,0.37,9.36,0.18,14.02-0.55c2.26-0.35,4.15-1,5.66-1.93c1.91-1.17,3.41-2.56,4.51-4.17c1.13-1.67,1.53-3.71,1.2-6.14
		c-0.05-0.3,0-0.62,0.14-0.93c0.61-1.35,0.6-2.74-0.03-4.15c-0.8-1.81-1.22-3.74-1.25-5.8c-0.02-1.13-0.53-1.99-1.53-2.59
		l-4.61-2.75c-0.27-0.16-0.59-0.2-0.9-0.11c-1.2,0.35-2.44,0.44-3.71,0.26c-1.17-0.16-2.2,0.08-3.11,0.71
		c-0.25,0.18-0.57,0.18-0.79,0.01c-3.09-2.43-3.61-5.4-1.56-8.9c0.87-1.49,1.47-3.07,1.8-4.74c0.06-0.31-0.11-0.6-0.38-0.64
		l-1.46-0.21"/>
	<path vector-effect="non-scaling-stroke" class="st7" d="M278.5,510.71l1.91-4.3c0.21-0.47,0.87-0.53,1.26-0.12
		c5.34,5.55,9.7,11.71,13.09,18.49c2.83,5.65,4.5,11.64,5.03,17.97"/>
	<path vector-effect="non-scaling-stroke" class="st7" d="M300.04,550c0.27,7.77-2.68,13.33-8.85,16.69
		c-4.05,2.2-8.53,3.33-13.43,3.38c-4.1,0.04-8.58-0.54-13.44-1.74c-7.81-1.92-14.73-5.71-20.78-11.37
		c-5.95-5.57-8.56-12.48-7.83-20.71c0.31-3.57,1.01-6.64,2.1-9.19c2.71-6.36,6.29-13.35,10.72-20.97
		c2.91-5.01,4.86-10.36,5.83-16.07c0.49-2.85-0.15-5.09-1.92-6.71c-1.22-1.11-3.24-2.5-6.06-4.17c-1.75-1.04-3.93-2.15-6.56-3.33
		c-16.07-7.23-29.15-14.02-39.26-20.37c-14.98-9.42-32.57-22.25-52.77-38.49c-19.18-15.41-36.49-32.66-51.92-51.75
		c-2.2-2.73-5.15-6.63-8.84-11.71c-2.87-3.96-5.78-7.89-8.72-11.8c-3.89-5.17-8.22-12.18-12.99-21.01
		c-3.57-6.59-6.66-12.5-9.29-17.73c-12.05-23.97-20.41-49.26-25.06-75.85c-2.06-11.77-3.09-23.64-3.09-35.6
		c0.01-3.98,0.13-9.98,0.37-18c0.58-19.14,5.34-36.89,14.29-53.25"/>
	<path vector-effect="non-scaling-stroke" class="st4" d="M377.75,64.96c-8.56,0.59-16.97,2.03-25.24,4.33
		c-18.29,5.08-34.89,13.28-49.81,24.6c-3.99,3.03-9,7.42-15.01,13.19c-7.07,6.77-14.19,13.77-21.38,20.99
		c-0.62,0.62-1.64,0.61-2.27-0.02l-20.33-20.3"/>
	<path vector-effect="non-scaling-stroke" class="st7" d="M78.46,80.75l-9.21,6.71"/>
	<path vector-effect="non-scaling-stroke" class="st10" d="M278.5,510.71c-1.81,5.21-4.58,9.79-8.33,13.74
		c-0.63,0.67-1.7,1.55-3.22,2.64c-1.13,0.81-2.2,1.71-3.2,2.7"/>
	<path vector-effect="non-scaling-stroke" class="st11" d="M204.98,67.28c0.11-0.86-0.82-1.69-2.07-1.85
		c-1.25-0.15-2.35,0.42-2.46,1.29c-0.11,0.86,0.82,1.69,2.07,1.85C203.77,68.72,204.87,68.15,204.98,67.28"/>
	<path vector-effect="non-scaling-stroke" class="st11" d="M313.9,78.09c-0.15,0.29-0.19,0.58-0.13,0.89
		c0.08,0.41,0.24,0.42,0.47,0.05l2.53-4.08c0.19-0.31,0.11-0.47-0.26-0.47c-1.66,0.03-2.45,0.93-2.36,2.72
		C314.16,77.45,314.07,77.76,313.9,78.09"/>
	<path vector-effect="non-scaling-stroke" class="st11" d="M59.12,87.88c0.26-0.27,0.24-0.71-0.03-0.98l-0.28-0.26
		c-0.28-0.26-0.72-0.25-0.98,0.03L46.62,98.66c-0.26,0.27-0.24,0.71,0.03,0.98l0.28,0.26c0.28,0.26,0.72,0.25,0.98-0.03L59.12,87.88
		"/>
	<path vector-effect="non-scaling-stroke" class="st11" d="M23.95,134.71c0.45,0.14,1.03-0.44,1.28-1.28
		c0.26-0.85,0.1-1.64-0.35-1.78c-0.45-0.14-1.03,0.44-1.28,1.28C23.35,133.78,23.51,134.57,23.95,134.71"/>
	<path vector-effect="non-scaling-stroke" class="st11" d="M444.28,375.03c-1.47-0.48-1.5,0.18-0.07,1.97
		c0.49,0.62,0.86,0.55,1.1-0.2C445.59,375.94,445.25,375.35,444.28,375.03"/>
	<path vector-effect="non-scaling-stroke" class="st11" d="M413.43,405.76c-0.71-0.43-1.21-0.99-1.49-1.68
		c-0.12-0.31-0.26-0.53-0.42-0.68c-0.71-0.65-1.01-0.59-0.92,0.17c0.03,0.27,0.2,0.56,0.46,0.82c0.91,0.87,1.32,1.96,1.23,3.27
		c-0.03,0.28,0.02,0.5,0.13,0.65c0.15,0.21,0.34,0.35,0.59,0.41c0.27,0.07,0.59-0.06,0.84-0.33l4.26-4.69
		c0.27-0.3,0.22-0.47-0.15-0.52c-0.85-0.11-1.61,0.53-2.28,1.91C415.27,405.93,414.23,406.24,413.43,405.76"/>
	<path vector-effect="non-scaling-stroke" class="st11" d="M233.09,485.17c2.76,1.31,4.85,2.95,6.26,4.92
		c0.55,0.76,1.51,1.11,2.43,0.89c1.39-0.35,2.62-0.91,3.69-1.7c1.19-0.88,1.89-1.96,2.09-3.23c0.25-1.53-0.31-2.72-1.66-3.56
		c-0.69-0.43-1.84-0.64-3.45-0.61c-2.09,0.04-4.08-0.35-5.99-1.17c-0.3-0.13-0.63-0.12-0.89,0.04c-1.53,0.98-2.45,2.27-2.75,3.88
		C232.78,484.85,232.89,485.08,233.09,485.17"/>
	<path vector-effect="non-scaling-stroke" class="st11" d="M307.55,567.94c0.19-0.67,0-1.12-0.56-1.33
		c-0.27-0.1-0.59,0.03-0.76,0.31l-5.77,9.47c-0.35,0.58-0.06,1.33,0.59,1.54c2.85,0.92,4.85,0.1,6.01-2.47
		c0.11-0.25,0.03-0.57-0.2-0.79c-0.87-0.84-1.06-1.79-0.55-2.86c0.48-1.01,0.79-1.87,0.92-2.6
		C307.27,569,307.38,568.57,307.55,567.94"/>
	<path vector-effect="non-scaling-stroke" class="st12" d="M151.68,95.58c-1.07-1.17-2.35-2.08-3.86-2.75
		c-1.2-0.53-2.39-1.09-3.57-1.68c-1.33-0.66-2.55-1.09-3.68-1.28c-3.32-0.56-6.63-0.64-9.93-0.24c-3.35,0.41-6.45,1.4-9.3,2.97
		c-7.85,4.34-11.84,11.22-11.96,20.64c-0.03,2.37,0.49,4.6,1.57,6.71c4.15,8.09,10.65,12.99,19.52,14.69
		c3.46,0.67,6.78,0.47,9.95-0.58c4.25-1.41,7.91-3.71,10.98-6.9c2.78-2.89,4.7-6.13,5.77-9.72c1.11-3.73,1.29-7.63,0.53-11.68
		c-0.47-2.52-1.49-4.73-3.04-6.64C153.28,97.42,152.29,96.24,151.68,95.58"/>
	<path vector-effect="non-scaling-stroke" class="st13" d="M458.96,154c-5.24-24.72-18.73-43.37-40.46-55.96"/>
	<path vector-effect="non-scaling-stroke" class="st14" d="M418.5,98.04c0.2-0.29,0.11-0.55-0.28-0.79
		c-3.11-1.89-6.34-3.52-9.69-4.87c-3.74-1.51-7.22-2.39-10.44-2.62c-6.89-0.51-13.18,1.15-18.85,4.98c-2.85,1.93-5.12,4.45-6.8,7.57
		c-4.45,8.27-4.86,16.77-1.24,25.48c1.04,2.49,2.54,5.5,4.51,9.03c1.51,2.7,3.34,5.53,5.48,8.49c8.71,12.04,17.92,22.66,27.64,31.86
		c3.88,3.68,8.02,7.04,12.42,10.08c3.35,2.31,6.94,3.79,10.79,4.42c3.73,0.61,7.48,0.23,11.23-1.15c4.83-1.77,8.64-4.63,11.42-8.58
		c5.5-7.82,7.18-16.97,5.05-27.44c-0.14-0.71-0.4-0.87-0.78-0.5"/>
	<path vector-effect="non-scaling-stroke" class="st15" d="M418.5,98.04c-5.44-3.37-11-5.66-16.69-6.85
		c-7.45-1.57-14.52-0.32-21.19,3.75c-5.91,3.61-9.45,8.71-10.62,15.31c-1.41,7.94,0.04,15.5,4.34,22.67
		c8.69,14.47,19.08,27.55,31.17,39.24c4.84,4.68,7.78,7.46,8.81,8.35c3.11,2.67,6.47,4.94,10.1,6.82c3.84,2,7.56,3,11.16,3.01
		c5.74,0.02,10.66-1.79,14.76-5.44c3.53-3.13,6.11-7.34,7.72-12.65c1.77-5.83,2.07-11.92,0.9-18.25"/>
	<path vector-effect="non-scaling-stroke" class="st4" d="M215.84,234.66c-5.21-3.89-10.85-6.01-16.93-6.36
		c-6.22-0.37-11.91,0.68-17.08,3.13c-3.97,1.88-7.23,4.66-9.8,8.33c-2.42,3.47-3.99,7.31-4.72,11.53
		c-0.99,5.74-0.15,11.29,2.5,16.65c4.74,9.56,12.64,14.83,23.69,15.8c8.68,0.77,16.28-1.88,22.81-7.93
		c6.72-6.23,9.83-13.83,9.33-22.82C225.21,245.33,221.95,239.22,215.84,234.66"/>
	<path vector-effect="non-scaling-stroke" class="st16" d="M329.25,283.54c3.08,0.64,6.16,0.64,9.25,0"/>
	<path vector-effect="non-scaling-stroke" class="st4" d="M338.5,283.54c12.01-1.63,20.23-8.06,24.66-19.29
		c3.01-7.64,2.77-14.7-0.72-21.19c-3.78-7.01-9.93-11.61-18.44-13.81c-5.06-1.31-10.21-1.43-15.44-0.38
		c-5.26,1.06-9.7,3.3-13.32,6.71c-4.71,4.45-7.44,9.96-8.19,16.51c-0.61,5.41,0.13,10.53,2.2,15.38c2.17,5.08,5.61,9.24,10.31,12.47
		c2.65,1.81,5.88,3.01,9.69,3.6"/>
	<path vector-effect="non-scaling-stroke" class="st17" d="M338.5,283.54c-1.09,0.23-1.84-0.03-2.25-0.77
		c-0.16-0.29-0.07-0.39,0.28-0.3c0.95,0.25,2.19,0.18,3.72-0.22c8.73-2.29,15.21-6.84,19.46-13.63c2.26-3.62,3.63-7.4,4.11-11.34
		c0.53-4.39-0.14-8.51-2.01-12.34c-3.15-6.49-8.2-10.96-15.14-13.41c-2.55-0.89-5.72-1.34-9.51-1.35c-4.41,0-7.63,0.19-9.66,0.57
		c-8.17,1.53-13.84,6.2-17,14c-3.05,7.52-3.1,14.69-0.17,21.5c1.63,3.79,3.55,6.89,5.74,9.28c2.57,2.81,5.81,4.72,9.73,5.74
		c0.4,0.11,1,0.34,1.8,0.71c0.59,0.27,1.23,0.44,1.9,0.5c0.37,0.03,0.68,0.18,0.84,0.4c0.42,0.57,0.06,0.79-1.09,0.66"/>
	<path vector-effect="non-scaling-stroke" class="st18" d="M152.08,97.17c-4.87-5.15-10.9-7.5-18.07-7.06
		c-6.03,0.37-11.22,2.31-15.58,5.81c-3.63,2.91-6.1,6.29-7.42,10.14c-1.51,4.39-1.24,8.85,0.8,13.38
		c2.9,6.43,7.72,10.58,14.47,12.46c3.29,0.92,6.12,1.37,8.48,1.34c2.82-0.03,5.67-0.75,8.55-2.18c8.86-4.39,13.45-11.19,13.78-20.41
		c0.09-2.69-0.26-5.09-1.05-7.19C155.17,101.13,153.85,99.04,152.08,97.17"/>
	<path vector-effect="non-scaling-stroke" class="st17" d="M215.31,275.31c6.1-5.67,9.16-12.62,9.17-20.87
		c0.01-4.19-1.3-8.35-3.92-12.5c-3.11-4.93-7.06-8.38-11.85-10.35c-2.94-1.21-6.82-1.76-11.65-1.64c-4.73,0.12-8.67,0.64-11.81,1.55
		c-5.16,1.5-9.43,4.9-12.81,10.19c-2.49,3.9-3.87,7.69-4.13,11.37c-0.54,7.73,1.6,14.47,6.42,20.22c2.29,2.73,4.96,4.82,7.99,6.27
		c3.12,1.49,6.46,2.37,10.03,2.66c0.29,0.03,0.61-0.04,0.95-0.19c0.77-0.33,1.55-0.42,2.32-0.25c1.5,0.33,2.35,0.49,2.55,0.48
		C204.93,282.09,210.51,279.78,215.31,275.31"/>
	<path vector-effect="non-scaling-stroke" class="st17" d="M211.35,247.83c-0.7-0.54-1.55-0.83-2.43-0.83c-4.69,0-9.39,0-14.12,0
		c-2.25,0-3.89,0.29-4.93,0.86c-1.58,0.87-2.71,2.25-3.38,4.14c-1.37,3.85-0.84,7.07,1.58,9.66c0.96,1.03,2.27,1.8,3.93,2.29
		c1.49,0.45,3.02,0.75,4.57,0.91c2.76,0.29,5.04,0.46,6.85,0.51c3.79,0.09,7.04-0.97,9.77-3.18c2.77-2.26,3.65-5.14,2.63-8.65
		c-0.34-1.18-0.93-2.24-1.76-3.19C213.31,249.48,212.4,248.64,211.35,247.83"/>
	<path vector-effect="non-scaling-stroke" class="st17" d="M327.18,260.73c1.45,1.65,3.05,2.75,4.8,3.32c0.7,0.23,2.56,0.5,5.57,0.8
		c2.37,0.24,4.73,0.33,7.1,0.28c2.84-0.07,5.1-0.6,6.78-1.61c3.21-1.92,4.59-4.84,4.14-8.76c-0.23-2.05-0.99-3.72-2.27-4.99
		c-1.43-1.43-3.2-2.27-5.3-2.52c-3.5-0.42-7.96-0.52-13.37-0.29c-0.07,0-0.65,0-1.76-0.01c-1.51-0.02-2.83,0.38-3.94,1.19
		c-1.11,0.81-1.88,2.12-2.29,3.92c-0.59,2.59-0.56,5.18,0.07,7.78C326.79,260.17,326.95,260.47,327.18,260.73"/>
	<path vector-effect="non-scaling-stroke" class="st19" d="M330.37,261.47c2.01,0.71,4.14,1.22,6.38,1.51
		c2.91,0.38,5.07,0.58,6.48,0.61c1.71,0.03,3.4-0.17,5.06-0.6c1.83-0.48,3.23-1.33,4.22-2.55c1.46-1.79,1.94-3.84,1.43-6.13
		c-0.63-2.86-2.03-4.55-4.19-5.06c-4.37-1.04-9.89-1.23-16.56-0.57c-0.07,0.01-0.52,0.03-1.37,0.07c-1.85,0.09-2.96,0.92-3.32,2.5
		c-0.51,2.22-0.66,4.61-0.47,7.16C328.15,259.94,328.93,260.96,330.37,261.47"/>
	<path vector-effect="non-scaling-stroke" class="st19" d="M212.26,250.21c-2.03-1.25-4.1-1.85-6.21-1.81
		c-1.68,0.03-2.55,0.04-2.6,0.04c-5.42-0.25-8.9-0.23-10.45,0.06c-2.95,0.55-4.68,2.07-5.19,4.56c-0.88,4.34,0.22,7.24,3.31,8.7
		c1.59,0.75,4.2,1.31,7.84,1.68c2.95,0.3,5.87,0.12,8.76-0.55c2.63-0.61,4.51-1.69,5.66-3.22c1.52-2.05,1.75-4.47,0.68-7.28
		C213.72,251.48,213.08,250.72,212.26,250.21"/>
	<path vector-effect="non-scaling-stroke" class="st20" d="M209.93,258.38c2.08-0.03,2.48-1.48,1.2-4.34
		c-0.25-0.58-0.98-0.79-1.5-0.43c-0.35,0.25-0.76,0.56-1.23,0.95c-0.47,0.39-0.79,0.79-0.95,1.19c-0.37,0.91-0.18,1.63,0.59,2.14
		C208.56,258.23,209.19,258.39,209.93,258.38"/>
	<path vector-effect="non-scaling-stroke" class="st6" d="M256.43,340.07c5.27,2.87,10.71,5.34,16.33,7.43
		c2.25,0.83,3.6,0.08,4.07-2.27c0.97-4.92,0.51-9.95-1.36-15.09c-1-2.75-3.05-5.4-6.16-7.95c-2.29-1.89-4.34-3.42-6.16-4.6
		c-2.47-1.61-4.71-2.85-6.7-3.72c-4.51-1.99-9.17-2.2-13.98-0.63c-1.73,0.57-2.99,1.38-3.78,2.45c-1.05,1.43-1.37,3.03-0.94,4.81
		c1.31,5.45,4.49,10.03,9.54,13.76C250.2,336.41,253.25,338.34,256.43,340.07"/>
	<path vector-effect="non-scaling-stroke" class="st21" d="M261.99,341.63c3.81,1.91,7.79,3.71,11.94,5.4
		c0.83,0.34,1.75-0.19,1.89-1.07c0.81-5.36,0.63-10.26-0.56-14.71c-0.54-2.02-1.69-3.87-3.45-5.56
		c-5.08-4.89-10.71-8.54-16.88-10.97c-1.94-0.77-3.78-1.19-5.51-1.26c-1.93-0.09-3.83,0.07-5.72,0.46c-1.7,0.36-2.92,0.94-3.67,1.74
		c-1.01,1.1-1.4,2.54-1.16,4.32c0.29,2.15,0.93,3.97,1.94,5.46c2.63,3.87,5.87,7.15,9.72,9.82
		C252.66,336.75,256.48,338.87,261.99,341.63"/>
	<path vector-effect="non-scaling-stroke" class="st22" d="M270.68,529.19c2.56,1.24,5,1.78,7.31,1.63
		c1.75-0.12,2.06-0.85,0.92-2.18l-3.15-3.7c-0.25-0.29-0.57-0.45-0.82-0.4c-0.74,0.13-1.18,1.13-1.33,2.98
		c-0.05,0.61-0.65,1.01-1.23,0.83c-1.71-0.53-2.62-0.63-2.75-0.28C269.5,528.42,269.85,528.79,270.68,529.19"/>
</g>
<path class="st23" d="M226.71,494.62c-8.33-3.31-17.22-7.62-26.65-12.93c-34.73-19.55-65.48-41.97-92.25-67.25
	c-18.25-17.24-34.77-37.29-49.56-60.16c-3.73-5.77-7.25-11.44-10.55-16.99c-16.07-27.03-28.19-55.8-36.35-86.32
	C7.5,236.58,5.13,221.26,4.25,205c-0.74-13.65-0.64-26.24,0.29-37.75c2.19-26.84,11.03-51.32,26.52-73.44
	c10.63-15.17,23.95-27.2,39.95-36.09c17.87-9.92,37.03-15.49,57.49-16.7c21.87-1.29,42.98,1.26,63.31,7.67
	c17.45,5.49,33.52,13.83,48.23,25.02c5.85,4.45,10.19,7.94,13.04,10.46c4.07,3.61,7.78,7.59,11.12,11.94
	c0.16,0.2,0.46,0.21,0.64,0.01c19.42-21.21,42.72-36.58,69.91-46.13c21.29-7.48,43.2-10.35,65.74-8.62
	c30.97,2.38,57.3,13.97,78.98,34.76c4.86,4.67,9.26,9.67,13.2,15c12.62,17.08,20.92,36.77,24.89,59.06
	c3.27,18.33,4.55,35.18,3.82,50.55c-1.81,38.31-11.02,74.7-27.63,109.17c-16.95,35.17-39.14,67.27-66.56,96.28
	c-7.75,8.19-15.01,15.19-21.79,20.98c-31.07,26.57-65.28,48.76-102.63,66.58c-0.45,0.22-0.58,0.79-0.27,1.18
	c5.46,6.87,10.12,14.26,13.98,22.17c3.35,6.87,5.52,13.14,6.51,18.81c2.02,11.61,0.45,23.01-4.71,34.2
	c-4.3,9.32-10.91,16.1-19.84,20.33c-3.63,1.72-7.57,3.05-11.83,4c-3.95,0.87-8.05,1.26-12.31,1.15
	c-15.51-0.41-29.43-5.54-41.75-15.39c-12.89-10.31-19.66-24.13-20.3-41.45c-0.21-5.75,0.33-10.7,1.62-14.84
	c2.73-8.76,6.04-16.29,9.94-22.6c1.6-2.59,2.67-4.6,3.21-6.03C227.12,495.02,226.98,494.73,226.71,494.62z M257.58,91.44
	c-22.13-22.09-48.49-36.76-79.07-44.01c-3.93-0.93-10.93-1.91-21.01-2.93c-17.39-1.76-33.72-1.25-48.99,1.54
	c-11.71,2.14-23.9,6.61-36.57,13.4c-8.18,4.38-15.64,9.76-22.37,16.13c-22.7,21.48-36.6,47.72-41.7,78.71
	C6.8,160.8,6.17,166.62,6,171.75c-0.23,6.77-0.29,14.6-0.18,23.5c0.09,7.43,0.46,14.08,1.12,19.96c1.83,16.23,4.99,31.93,9.5,47.1
	c6.77,22.81,16.16,44.91,28.17,66.29c15.72,27.99,34.52,53.66,56.4,77c4.77,5.09,9.53,9.74,14.29,13.97
	c6.25,5.55,13.25,11.34,21.01,17.37c13.99,10.87,26.74,20.12,38.25,27.75c8.68,5.75,23.12,13.88,43.32,24.38
	c3.42,1.77,7.01,3.27,10.76,4.48c0.84,0.27,1.19,1.26,0.72,2c-4.54,7.13-8.37,14.63-11.49,22.49c-2.3,5.81-3.6,10.72-3.91,14.75
	c-0.36,4.83,0.07,9.99,1.29,15.46c2.83,12.68,8.77,22.83,17.8,30.45c6.92,5.84,14.76,9.91,23.52,12.2
	c5.92,1.55,11.9,2.38,17.94,2.48c6.55,0.11,12.47-0.67,17.77-2.32c10.87-3.41,18.96-10.14,24.28-20.21
	c2.35-4.44,3.89-9.52,4.62-15.23c0.68-5.33,0.79-10.71,0.34-16.12c-0.42-5.06-1.66-10.08-3.71-15.06
	c-4.54-11.03-10.35-21.1-17.44-30.23c-0.16-0.21-0.09-0.51,0.15-0.62c20.85-10.07,40.89-21.5,60.14-34.29
	c5.6-3.71,11.04-7.56,16.33-11.55c16.27-12.24,31.72-25.46,46.35-39.66c6.98-6.77,12.97-13.45,17.97-20.03
	c1.7-2.23,3.29-4.19,4.78-5.86c2.6-2.94,4.24-4.86,4.93-5.75c10.15-13.17,20.33-28.8,30.54-46.89
	c15.11-26.76,25.84-54.18,32.17-82.27c1.22-5.43,2.3-12,3.23-19.72c1.29-10.73,2.06-17.42,2.29-20.07
	c0.99-11.21,0.83-22.99-0.47-35.33c-0.73-6.89-1.61-13.5-2.64-19.82c-1.73-10.65-4.21-20.24-7.45-28.79
	c-7.01-18.47-18.04-34.58-33.08-48.33c-4.97-4.53-10.23-8.61-15.8-12.23c-12.86-8.34-26.38-14.01-40.56-17
	c-16.01-3.38-30.85-4.21-44.5-2.5c-9.23,1.16-17.82,2.66-25.75,4.5c-18.49,4.29-35.62,11.68-51.4,22.15
	c-4.97,3.3-10.24,7.38-15.82,12.23c-5.55,4.82-10.91,9.84-16.1,15.07c-0.97,0.98-1.84,0.89-2.61-0.26
	c-0.84-1.25-1.81-2.38-2.91-3.39C258.49,92.27,257.63,91.49,257.58,91.44z"/>
<path class="st24" d="M260.16,93.8c1.1,1.01,2.07,2.14,2.91,3.39c0.77,1.15,1.64,1.24,2.61,0.26c5.19-5.23,10.55-10.25,16.1-15.07
	c5.58-4.85,10.85-8.93,15.82-12.23C313.38,59.68,330.51,52.29,349,48c7.93-1.84,16.52-3.34,25.75-4.5
	c13.65-1.71,28.49-0.88,44.5,2.5c14.18,2.99,27.7,8.66,40.56,17c5.57,3.62,10.83,7.7,15.8,12.23
	c15.04,13.75,26.07,29.86,33.08,48.33c3.24,8.55,5.72,18.14,7.45,28.79c1.03,6.32,1.91,12.93,2.64,19.82
	c1.3,12.34,1.46,24.12,0.47,35.33c-0.23,2.65-1,9.34-2.29,20.07c-0.93,7.72-2.01,14.29-3.23,19.72
	c-6.33,28.09-17.06,55.51-32.17,82.27c-10.21,18.09-20.39,33.72-30.54,46.89c-0.69,0.89-2.33,2.81-4.93,5.75
	c-1.49,1.67-3.08,3.63-4.78,5.86c-5,6.58-10.99,13.26-17.97,20.03c-14.63,14.2-30.08,27.42-46.35,39.66
	c-5.29,3.99-10.73,7.84-16.33,11.55c-19.25,12.79-39.29,24.22-60.14,34.29c-0.24,0.11-0.31,0.41-0.15,0.62
	c7.09,9.13,12.9,19.2,17.44,30.23c2.05,4.98,3.29,10,3.71,15.06c0.45,5.41,0.34,10.79-0.34,16.12c-0.73,5.71-2.27,10.79-4.62,15.23
	c-5.32,10.07-13.41,16.8-24.28,20.21c-5.3,1.65-11.22,2.43-17.77,2.32c-6.04-0.1-12.02-0.93-17.94-2.48
	c-8.76-2.29-16.6-6.36-23.52-12.2c-9.03-7.62-14.97-17.77-17.8-30.45c-1.22-5.47-1.65-10.63-1.29-15.46
	c0.31-4.03,1.61-8.94,3.91-14.75c3.12-7.86,6.95-15.36,11.49-22.49c0.47-0.74,0.12-1.73-0.72-2c-3.75-1.21-7.34-2.71-10.76-4.48
	c-20.2-10.5-34.64-18.63-43.32-24.38c-11.51-7.63-24.26-16.88-38.25-27.75c-7.76-6.03-14.76-11.82-21.01-17.37
	c-4.76-4.23-9.52-8.88-14.29-13.97c-21.88-23.34-40.68-49.01-56.4-77c-12.01-21.38-21.4-43.48-28.17-66.29
	c-4.51-15.17-7.67-30.87-9.5-47.1c-0.66-5.88-1.03-12.53-1.12-19.96c-0.11-8.9-0.05-16.73,0.18-23.5c0.17-5.13,0.8-10.95,1.87-17.47
	c5.1-30.99,19-57.23,41.7-78.71c6.73-6.37,14.19-11.75,22.37-16.13c12.67-6.79,24.86-11.26,36.57-13.4
	c15.27-2.79,31.6-3.3,48.99-1.54c10.08,1.02,17.08,2,21.01,2.93c30.58,7.25,56.94,21.92,79.07,44.01
	C257.63,91.49,258.49,92.27,260.16,93.8z M397,64.96h-19.25c0.02-0.45-0.15-0.69-0.5-0.71c-6.1-0.29-12.36,0.32-18.79,1.83
	c-14.54,3.43-28.21,8.96-41.02,16.61c-6.29,3.75-11.99,7.53-17.09,11.36c-4.03,3.02-9,7.45-14.91,13.3
	c-6.43,6.35-12.85,12.72-19.26,19.1c-0.52,0.5-1.35,0.49-1.87-0.03l-19.26-19.27c-0.28-0.27-0.61-0.41-0.86-0.35
	c-0.36,0.07-0.52,0.39-0.48,0.95l-6.96-6.21c0.23-0.7,0.15-1.21-0.25-1.54c-1.57-1.28-2.89-2.7-3.94-4.25
	c-0.46-0.67-1.24-1.06-2.05-1c-1.26,0.09-2.17-0.37-2.73-1.36c-0.16-0.29-0.38-0.51-0.66-0.68c-0.57-0.35-0.99-0.82-1.26-1.43
	c-0.13-0.3-0.37-0.52-0.65-0.62c-1.45-0.5-2.79-1.19-4-2.08c-2.27-1.66-3.44-2.51-3.49-2.54c-6.93-4.2-15.48-8.32-25.66-12.35
	c-11.65-4.62-22.59-7.43-32.81-8.44c-1.09-0.11-1.92,0.13-2.5,0.71c-13.24-1.61-26.48-1.59-39.71,0.04
	c-1.21-0.68-2.72-0.85-4.54-0.5c-16.2,3.07-30.35,9.68-42.44,19.81c-0.79,0.67-1.06,1.38-0.81,2.15
	c-10.65,9.49-19.56,20.42-26.71,32.79c-0.67-0.12-1.21,0.19-1.6,0.94c-6.31,11.87-10.55,24.26-12.72,37.17
	c-0.01,0.09-0.19,1.01-0.53,2.76c-0.41,2.07-0.64,4.62-0.69,7.63c-0.11,6.05-0.15,10.83-0.14,14.34c0,0.21,0.17,3.27,0.5,9.18
	c0.17,3.07,0.12,6.15-0.15,9.23c-0.31,3.55-0.05,8.14,0.79,13.75c1.65,11.02,2.93,18.43,3.84,22.23c0.41,1.7,1.38,6.12,2.91,13.27
	c1.58,7.35,4.19,15.64,7.83,24.85c2.63,6.64,5.23,12.77,7.8,18.39c3.54,7.73,7.83,15.98,12.87,24.76
	c10.88,18.95,22.67,36.21,35.37,51.78c4.07,4.98,8.52,9.94,13.35,14.89c13.37,13.67,27.59,26.4,42.64,38.19
	c7.33,5.73,12.57,9.86,15.74,12.37c10.48,8.3,19.63,14.87,27.46,19.71c8.84,5.47,16.63,9.76,23.38,12.87
	c9.81,4.54,17.81,8.44,24,11.7c3.46,1.83,5.49,3.03,6.08,3.61c1.91,1.87,2.49,4.41,1.73,7.63c-1.39,5.85-3.62,11.46-6.69,16.81
	c-2.51,4.35-3.78,6.56-3.81,6.63c-2.29,4.3-3.94,7.51-4.94,9.62c-2.31,4.89-3.37,9.92-3.2,15.08c0.15,4.33,1.44,8.52,3.88,12.56
	c3.61,5.97,8.47,10.55,14.57,13.74c7.43,3.88,15.68,5.91,24.75,6.08c2.41,0.04,4.5-0.24,6.27-0.83c1.69-0.56,3.66-1.37,5.92-2.44
	c5.66-2.67,9.14-6.78,10.44-12.31c0.63-2.69,0.58-4.83-0.15-6.44l-0.25-7.25c0.4,0.21,0.64-0.04,0.71-0.75
	c0.21-2.05,0.15-3.91-0.18-5.6c-0.14-0.69-0.68-2.45-1.63-5.29c-2-5.99-4.98-11.45-8.93-16.37c-0.89-1.11-2.03-2.75-3.43-4.93
	c-1.08-1.69-2.36-3.25-3.84-4.69c-0.63-0.62-1.67-0.54-2.21,0.16c-1.35,1.74-2.4,3.56-3.16,5.47c-1.51,3.78-2.28,5.68-2.29,5.71
	c-2.02,3.57-4.8,6.47-8.34,8.72c-0.29,0.17-0.39,0.1-0.32-0.23c0.84-4.06,1.58-8.13,2.21-12.22c0.31-2.02,0.45-4.85,0.41-8.49
	c-0.05-4.21,0.38-8.39,1.28-12.53c0.45-2.11,1.2-3.66,2.24-4.65c4.07-3.87,9.28-7.16,15.63-9.87c4.83-2.07,11.22-5.18,19.16-9.32
	c5.84-3.04,11.6-6.39,17.29-10.05c11.59-7.45,22.98-15.2,34.19-23.23c0.87-0.63,1.35-1.42,1.42-2.38
	c31.08-22.66,57.9-49.56,80.46-80.71c1.09,0.13,1.83-0.2,2.24-1.01c0.59-1.18,0.9-1.78,0.92-1.81c2.65-3.51,5.1-7.16,7.34-10.95
	c2.46-4.17,5.04-8.26,7.73-12.27c7.51-11.18,13.79-23.01,18.85-35.48c2.36-5.82,5.58-14.67,9.65-26.54
	c2.27-6.63,4.08-12.85,5.44-18.66c1.47-6.33,2.68-12.69,3.63-19.08c0.96-6.51,1.54-13.5,1.74-20.95c0.02-0.75-0.13-1.17-0.46-1.25
	c0.31-8.33,0.29-16.67-0.08-25c0.71-1.15,0.98-2.35,0.81-3.61c-0.2-1.49-0.3-2.26-0.3-2.32c-0.36-10.06-2.37-20.15-6.03-30.26
	c-4.53-12.51-10.2-23.85-17-34.04c-4.69-7.02-10.69-13.59-18-19.71c-0.69-0.57-1.33-0.66-1.94-0.27l-12-8.5
	c0.23-0.61,0.05-1.1-0.55-1.49c-13.53-8.63-28.32-13.37-44.39-14.24C397.61,64.04,397.26,64.34,397,64.96z M204.98,67.28
	c0.11-0.86-0.82-1.69-2.07-1.85c-1.25-0.15-2.35,0.42-2.46,1.29c-0.11,0.86,0.82,1.69,2.07,1.85
	C203.77,68.72,204.87,68.15,204.98,67.28z M313.9,78.09c-0.15,0.29-0.19,0.58-0.13,0.89c0.08,0.41,0.24,0.42,0.47,0.05l2.53-4.08
	c0.19-0.31,0.11-0.47-0.26-0.47c-1.66,0.03-2.45,0.93-2.36,2.72C314.16,77.45,314.07,77.76,313.9,78.09z M59.12,87.88
	c0.26-0.27,0.24-0.71-0.03-0.98l-0.28-0.26c-0.28-0.26-0.72-0.25-0.98,0.03L46.62,98.66c-0.26,0.27-0.24,0.71,0.03,0.98l0.28,0.26
	c0.28,0.26,0.72,0.25,0.98-0.03L59.12,87.88z M23.95,134.71c0.45,0.14,1.03-0.44,1.28-1.28c0.26-0.85,0.1-1.64-0.35-1.78
	c-0.45-0.14-1.03,0.44-1.28,1.28C23.35,133.78,23.51,134.57,23.95,134.71z M444.28,375.03c-1.47-0.48-1.5,0.18-0.07,1.97
	c0.49,0.62,0.86,0.55,1.1-0.2C445.59,375.94,445.25,375.35,444.28,375.03z M413.43,405.76c-0.71-0.43-1.21-0.99-1.49-1.68
	c-0.12-0.31-0.26-0.53-0.42-0.68c-0.71-0.65-1.01-0.59-0.92,0.17c0.03,0.27,0.2,0.56,0.46,0.82c0.91,0.87,1.32,1.96,1.23,3.27
	c-0.03,0.28,0.02,0.5,0.13,0.65c0.15,0.21,0.34,0.35,0.59,0.41c0.27,0.07,0.59-0.06,0.84-0.33l4.26-4.69
	c0.27-0.3,0.22-0.47-0.15-0.52c-0.85-0.11-1.61,0.53-2.28,1.91C415.27,405.93,414.23,406.24,413.43,405.76z M233.09,485.17
	c2.76,1.31,4.85,2.95,6.26,4.92c0.55,0.76,1.51,1.11,2.43,0.89c1.39-0.35,2.62-0.91,3.69-1.7c1.19-0.88,1.89-1.96,2.09-3.23
	c0.25-1.53-0.31-2.72-1.66-3.56c-0.69-0.43-1.84-0.64-3.45-0.61c-2.09,0.04-4.08-0.35-5.99-1.17c-0.3-0.13-0.63-0.12-0.89,0.04
	c-1.53,0.98-2.45,2.27-2.75,3.88C232.78,484.85,232.89,485.08,233.09,485.17z M307.55,567.94c0.19-0.67,0-1.12-0.56-1.33
	c-0.27-0.1-0.59,0.03-0.76,0.31l-5.77,9.47c-0.35,0.58-0.06,1.33,0.59,1.54c2.85,0.92,4.85,0.1,6.01-2.47
	c0.11-0.25,0.03-0.57-0.2-0.79c-0.87-0.84-1.06-1.79-0.55-2.86c0.48-1.01,0.79-1.87,0.92-2.6
	C307.27,569,307.38,568.57,307.55,567.94z"/>
<path class="st23" d="M443,79.79c-14.04-8.84-29.37-13.78-46-14.83c0.26-0.62,0.61-0.92,1.06-0.9c16.07,0.87,30.86,5.61,44.39,14.24
	C443.05,78.69,443.23,79.18,443,79.79z"/>
<path class="st23" d="M377.75,64.96c-8.56,0.59-16.97,2.03-25.24,4.33c-18.29,5.08-34.89,13.28-49.81,24.6
	c-3.99,3.03-9,7.42-15.01,13.19c-7.07,6.77-14.19,13.77-21.38,20.99c-0.62,0.62-1.64,0.61-2.27-0.02l-20.33-20.3
	c-0.04-0.56,0.12-0.88,0.48-0.95c0.25-0.06,0.58,0.08,0.86,0.35l19.26,19.27c0.52,0.52,1.35,0.53,1.87,0.03
	c6.41-6.38,12.83-12.75,19.26-19.1c5.91-5.85,10.88-10.28,14.91-13.3c5.1-3.83,10.8-7.61,17.09-11.36
	c12.81-7.65,26.48-13.18,41.02-16.61c6.43-1.51,12.69-2.12,18.79-1.83C377.6,64.27,377.77,64.51,377.75,64.96z"/>
<path class="st25" d="M156.75,65.96c5.61,0.67,10.2,1.44,13.75,2.29c24.71,5.94,46.79,17.04,66.25,33.29l6.96,6.21l20.33,20.3
	c0.63,0.63,1.65,0.64,2.27,0.02c7.19-7.22,14.31-14.22,21.38-20.99c6.01-5.77,11.02-10.16,15.01-13.19
	c14.92-11.32,31.52-19.52,49.81-24.6c8.27-2.3,16.68-3.74,25.24-4.33H397c16.63,1.05,31.96,5.99,46,14.83l12,8.5
	c7.81,6.43,14.25,13.39,19.31,20.9c13.95,20.66,21.66,43.76,23.15,69.31c0.37,8.33,0.39,16.67,0.08,25
	c-0.69,10.41-2.01,20.35-3.98,29.81c-3.03,14.59-7.3,29.17-12.81,43.73c-1.28,0.69-1.95,1.67-2,2.96c-0.07,1.58-0.56,2.8-1.47,3.66
	c-1.39,1.29-2.11,1.99-2.18,2.08c-3.15,4.29-5.16,6.89-6.04,7.82c-13.73,14.48-29.18,25.77-46.37,33.88
	c-19.55,9.21-40.62,15.07-63.19,17.56c-26.03,2.87-48.94,4.46-68.75,4.75c-1.47,0.02-2.57,0.19-3.31,0.52
	c-0.36,0.15-0.7,0.17-0.91,0.06l-1.07-0.58c1.4-3.63,2.6-7.94,3.6-12.94c2.81-13.99,4.63-27.35,5.44-40.06
	c0.25-3.81-0.65-6.98-2.68-9.51c-1.03-1.27-2.31-2.06-3.86-2.38c-1.33-0.27-2.9-0.39-4.71-0.36c-13.71,0.25-26.43,1.97-38.18,5.15
	c-2.77,0.75-5.26,1.66-7.46,2.72c-2.95,1.41-5.22,2.81-6.8,4.19c-4.91,4.29-7.72,9.37-8.43,15.24c-0.57,4.75,0.44,10.11,3.03,16.07
	c4.76,10.99,12.75,19.33,23.98,25.04c1.48,0.75,2.95,1.53,4.4,2.34c0.41,0.57,0.31,0.95-0.29,1.14c-0.27,0.09-0.62,0.05-0.95-0.12
	c-5.73-2.99-9.75-5.33-12.05-7.02c-1.43-1.05-2.79-1.22-4.08-0.51c-0.3,0.16-0.62,0.22-0.91,0.17c-2-0.33-4-0.46-6.01-0.39
	c-3.61,0.13-5.45,0.2-5.51,0.2c-3.83-0.05-7.66-0.11-11.49-0.19c-16.53-0.34-32.84-2.37-48.94-6.09
	c-10.16-2.35-20.42-6.22-30.77-11.61c-6.13-3.19-11.71-6.81-16.76-10.84c-12.31-9.84-22.55-21.62-30.74-35.34
	c-3.65-6.11-7.33-13.07-11.04-20.9c-3.78-7.97-6.61-15.8-8.5-23.5C64.17,233.8,62.59,225.38,61,215c-0.95-6.24-1.49-12.91-1.6-20.01
	c-0.13-7.65,0.03-14.31,0.48-19.99c0.63-7.99,2.05-15.85,4.25-23.56c1.65-5.79,3.56-10.62,5.73-14.47c2.64-4.69,5.87-8.83,9.7-12.41
	c8.77-8.2,19.26-17.33,31.49-27.4c0.15-0.13,0.25-0.26,0.29-0.39c0.09-0.36-0.16-0.41-0.75-0.14c-11.06,4.92-21.86,10.36-32.4,16.31
	c-2.25,1.27-4.46,1.64-6.65,1.13c-0.3-0.07-0.58-0.25-0.8-0.52c-2.6-3.17-4.92-6.54-6.96-10.1c-0.91-1.57-1.38-2.41-1.42-2.54
	c-0.35-1.13,0.09-2.15,1.34-3.05c1.4-1.01,2.58-2.24,3.53-3.68c1.25-1.89,3.03-3.58,5.35-5.09c3.07-1.99,5.03-4.77,5.88-8.34
	c6.01-4.39,13.19-7.89,21.54-10.5c6.92-2.17,12.6-3.58,17.04-4.25C130.27,64.37,143.51,64.35,156.75,65.96z M151.68,95.58
	c-1.07-1.17-2.35-2.08-3.86-2.75c-1.2-0.53-2.39-1.09-3.57-1.68c-1.33-0.66-2.55-1.09-3.68-1.28c-3.32-0.56-6.63-0.64-9.93-0.24
	c-3.35,0.41-6.45,1.4-9.3,2.97c-7.85,4.34-11.84,11.22-11.96,20.64c-0.03,2.37,0.49,4.6,1.57,6.71
	c4.15,8.09,10.65,12.99,19.52,14.69c3.46,0.67,6.78,0.47,9.95-0.58c4.25-1.41,7.91-3.71,10.98-6.9c2.78-2.89,4.7-6.13,5.77-9.72
	c1.11-3.73,1.29-7.63,0.53-11.68c-0.47-2.52-1.49-4.73-3.04-6.64C153.28,97.42,152.29,96.24,151.68,95.58z M458.96,154
	c-5.24-24.72-18.73-43.37-40.46-55.96c0.2-0.29,0.11-0.55-0.28-0.79c-3.11-1.89-6.34-3.52-9.69-4.87
	c-3.74-1.51-7.22-2.39-10.44-2.62c-6.89-0.51-13.18,1.15-18.85,4.98c-2.85,1.93-5.12,4.45-6.8,7.57
	c-4.45,8.27-4.86,16.77-1.24,25.48c1.04,2.49,2.54,5.5,4.51,9.03c1.51,2.7,3.34,5.53,5.48,8.49c8.71,12.04,17.92,22.66,27.64,31.86
	c3.88,3.68,8.02,7.04,12.42,10.08c3.35,2.31,6.94,3.79,10.79,4.42c3.73,0.61,7.48,0.23,11.23-1.15c4.83-1.77,8.64-4.63,11.42-8.58
	c5.5-7.82,7.18-16.97,5.05-27.44C459.6,153.79,459.34,153.63,458.96,154z M215.84,234.66c-5.21-3.89-10.85-6.01-16.93-6.36
	c-6.22-0.37-11.91,0.68-17.08,3.13c-3.97,1.88-7.23,4.66-9.8,8.33c-2.42,3.47-3.99,7.31-4.72,11.53c-0.99,5.74-0.15,11.29,2.5,16.65
	c4.74,9.56,12.64,14.83,23.69,15.8c8.68,0.77,16.28-1.88,22.81-7.93c6.72-6.23,9.83-13.83,9.33-22.82
	C225.21,245.33,221.95,239.22,215.84,234.66z M329.25,283.54c3.08,0.64,6.16,0.64,9.25,0c12.01-1.63,20.23-8.06,24.66-19.29
	c3.01-7.64,2.77-14.7-0.72-21.19c-3.78-7.01-9.93-11.61-18.44-13.81c-5.06-1.31-10.21-1.43-15.44-0.38
	c-5.26,1.06-9.7,3.3-13.32,6.71c-4.71,4.45-7.44,9.96-8.19,16.51c-0.61,5.41,0.13,10.53,2.2,15.38c2.17,5.08,5.61,9.24,10.31,12.47
	C322.21,281.75,325.44,282.95,329.25,283.54z"/>
<path class="st23" d="M117.04,66c-4.44,0.67-10.12,2.08-17.04,4.25c-8.35,2.61-15.53,6.11-21.54,10.5l-9.21,6.71
	c-0.25-0.77,0.02-1.48,0.81-2.15C82.15,75.18,96.3,68.57,112.5,65.5C114.32,65.15,115.83,65.32,117.04,66z"/>
<path class="st23" d="M236.75,101.54c-19.46-16.25-41.54-27.35-66.25-33.29c-3.55-0.85-8.14-1.62-13.75-2.29
	c0.58-0.58,1.41-0.82,2.5-0.71c10.22,1.01,21.16,3.82,32.81,8.44c10.18,4.03,18.73,8.15,25.66,12.35c0.05,0.03,1.22,0.88,3.49,2.54
	c1.21,0.89,2.55,1.58,4,2.08c0.28,0.1,0.52,0.32,0.65,0.62c0.27,0.61,0.69,1.08,1.26,1.43c0.28,0.17,0.5,0.39,0.66,0.68
	c0.56,0.99,1.47,1.45,2.73,1.36c0.81-0.06,1.59,0.33,2.05,1c1.05,1.55,2.37,2.97,3.94,4.25
	C236.9,100.33,236.98,100.84,236.75,101.54z"/>
<ellipse transform="matrix(0.1236 -0.9923 0.9923 0.1236 111.1773 259.8842)" class="st26" cx="202.72" cy="67" rx="1.58" ry="2.28"/>
<path class="st26" d="M314.15,77.2c-0.09-1.79,0.7-2.69,2.36-2.72c0.37,0,0.45,0.16,0.26,0.47l-2.53,4.08
	c-0.23,0.37-0.39,0.36-0.47-0.05c-0.06-0.31-0.02-0.6,0.13-0.89C314.07,77.76,314.16,77.45,314.15,77.2z"/>
<path class="st27" d="M78.46,80.75c-0.85,3.57-2.81,6.35-5.88,8.34c-2.32,1.51-4.1,3.2-5.35,5.09c-0.95,1.44-2.13,2.67-3.53,3.68
	c-1.25,0.9-1.69,1.92-1.34,3.05c0.04,0.13,0.51,0.97,1.42,2.54c2.04,3.56,4.36,6.93,6.96,10.1c0.22,0.27,0.5,0.45,0.8,0.52
	c2.19,0.51,4.4,0.14,6.65-1.13c10.54-5.95,21.34-11.39,32.4-16.31c0.59-0.27,0.84-0.22,0.75,0.14c-0.04,0.13-0.14,0.26-0.29,0.39
	c-12.23,10.07-22.72,19.2-31.49,27.4c-3.83,3.58-7.06,7.72-9.7,12.41c-2.17,3.85-4.08,8.68-5.73,14.47
	c-2.2,7.71-3.62,15.57-4.25,23.56c-0.45,5.68-0.61,12.34-0.48,19.99c0.11,7.1,0.65,13.77,1.6,20.01c1.59,10.38,3.17,18.8,4.75,25.25
	c1.89,7.7,4.72,15.53,8.5,23.5c3.71,7.83,7.39,14.79,11.04,20.9c8.19,13.72,18.43,25.5,30.74,35.34
	c5.05,4.03,10.63,7.65,16.76,10.84c10.35,5.39,20.61,9.26,30.77,11.61c16.1,3.72,32.41,5.75,48.94,6.09
	c3.83,0.08,7.66,0.14,11.49,0.19c0.06,0,1.9-0.07,5.51-0.2c2.01-0.07,4.01,0.06,6.01,0.39c0.29,0.05,0.61-0.01,0.91-0.17
	c1.29-0.71,2.65-0.54,4.08,0.51c2.3,1.69,6.32,4.03,12.05,7.02c0.33,0.17,0.68,0.21,0.95,0.12c0.6-0.19,0.7-0.57,0.29-1.14
	c6.32,3.05,12.97,4.89,19.96,5.5c0.69,0.06,1.52-0.12,2.5-0.54c2.65-1.02,4.74-2.74,6.25-5.17l2.96-5.29l1.07,0.58
	c0.21,0.11,0.55,0.09,0.91-0.06c0.74-0.33,1.84-0.5,3.31-0.52c19.81-0.29,42.72-1.88,68.75-4.75c22.57-2.49,43.64-8.35,63.19-17.56
	c17.19-8.11,32.64-19.4,46.37-33.88c0.88-0.93,2.89-3.53,6.04-7.82c0.07-0.09,0.79-0.79,2.18-2.08c0.91-0.86,1.4-2.08,1.47-3.66
	c0.05-1.29,0.72-2.27,2-2.96c-5.05,14.21-10.24,26.18-15.56,35.9c-6.04,11.03-14.28,23.89-24.73,38.56
	c-22.56,31.15-49.38,58.05-80.46,80.71c-22.75,16.74-45.35,30.65-67.81,41.73c-7.07,3.48-12.98,6.88-17.74,10.21
	c-2.09,1.45-3.51,3.02-4.27,4.73c-0.81,1.82-1.37,3.94-1.68,6.37c-0.54,4.19-0.87,7.78-1,10.75c-0.34,8.14-1.68,15.9-4.01,23.28
	c-0.01,0.03-0.07,0.13-0.16,0.28c-0.09,0.17,0.05,0.24,0.42,0.23c-0.71,1.49-1.48,2.45-2.31,2.9c-5.04,2.69-8.65,6.61-10.84,11.78
	c-0.49,1.15-0.23,2.09,0.78,2.83c2.85,2.1,5.91,3.61,9.16,4.53c2.44,0.69,5.76,1.19,9.96,1.51c4.69,0.37,9.36,0.18,14.02-0.55
	c2.26-0.35,4.15-1,5.66-1.93c1.91-1.17,3.41-2.56,4.51-4.17c1.13-1.67,1.53-3.71,1.2-6.14c-0.05-0.3,0-0.62,0.14-0.93
	c0.61-1.35,0.6-2.74-0.03-4.15c-0.8-1.81-1.22-3.74-1.25-5.8c-0.02-1.13-0.53-1.99-1.53-2.59l-4.61-2.75
	c-0.27-0.16-0.59-0.2-0.9-0.11c-1.2,0.35-2.44,0.44-3.71,0.26c-1.17-0.16-2.2,0.08-3.11,0.71c-0.25,0.18-0.57,0.18-0.79,0.01
	c-3.09-2.43-3.61-5.4-1.56-8.9c0.87-1.49,1.47-3.07,1.8-4.74c0.06-0.31-0.11-0.6-0.38-0.64l-1.46-0.21l1.91-4.3
	c0.21-0.47,0.87-0.53,1.26-0.12c5.34,5.55,9.7,11.71,13.09,18.49c2.83,5.65,4.5,11.64,5.03,17.97l0.25,7.25
	c0.27,7.77-2.68,13.33-8.85,16.69c-4.05,2.2-8.53,3.33-13.43,3.38c-4.1,0.04-8.58-0.54-13.44-1.74
	c-7.81-1.92-14.73-5.71-20.78-11.37c-5.95-5.57-8.56-12.48-7.83-20.71c0.31-3.57,1.01-6.64,2.1-9.19
	c2.71-6.36,6.29-13.35,10.72-20.97c2.91-5.01,4.86-10.36,5.83-16.07c0.49-2.85-0.15-5.09-1.92-6.71c-1.22-1.11-3.24-2.5-6.06-4.17
	c-1.75-1.04-3.93-2.15-6.56-3.33c-16.07-7.23-29.15-14.02-39.26-20.37c-14.98-9.42-32.57-22.25-52.77-38.49
	c-19.18-15.41-36.49-32.66-51.92-51.75c-2.2-2.73-5.15-6.63-8.84-11.71c-2.87-3.96-5.78-7.89-8.72-11.8
	c-3.89-5.17-8.22-12.18-12.99-21.01c-3.57-6.59-6.66-12.5-9.29-17.73c-12.05-23.97-20.41-49.26-25.06-75.85
	c-2.06-11.77-3.09-23.64-3.09-35.6c0.01-3.98,0.13-9.98,0.37-18c0.58-19.14,5.34-36.89,14.29-53.25
	c7.15-12.37,16.06-23.3,26.71-32.79L78.46,80.75z"/>
<path class="st26" d="M58.81,86.65l0.28,0.26c0.28,0.26,0.29,0.7,0.03,0.98L47.91,99.86c-0.26,0.28-0.7,0.29-0.98,0.03l-0.28-0.26
	c-0.28-0.26-0.29-0.7-0.03-0.98l11.21-11.97C58.09,86.4,58.53,86.39,58.81,86.65z"/>
<path class="st23" d="M497.46,178.5c-1.49-25.55-9.2-48.65-23.15-69.31c-5.06-7.51-11.5-14.47-19.31-20.9
	c0.61-0.39,1.25-0.3,1.94,0.27c7.31,6.12,13.31,12.69,18,19.71c6.8,10.19,12.47,21.53,17,34.04c3.66,10.11,5.67,20.2,6.03,30.26
	c0,0.06,0.1,0.83,0.3,2.32C498.44,176.15,498.17,177.35,497.46,178.5z"/>
<path class="st28" d="M154.66,99.12c1.55,1.91,2.57,4.12,3.04,6.64c0.76,4.05,0.58,7.95-0.53,11.68c-1.07,3.59-2.99,6.83-5.77,9.72
	c-3.07,3.19-6.73,5.49-10.98,6.9c-3.17,1.05-6.49,1.25-9.95,0.58c-8.87-1.7-15.37-6.6-19.52-14.69c-1.08-2.11-1.6-4.34-1.57-6.71
	c0.12-9.42,4.11-16.3,11.96-20.64c2.85-1.57,5.95-2.56,9.3-2.97c3.3-0.4,6.61-0.32,9.93,0.24c1.13,0.19,2.35,0.62,3.68,1.28
	c1.18,0.59,2.37,1.15,3.57,1.68c1.51,0.67,2.79,1.58,3.86,2.75C152.29,96.24,153.28,97.42,154.66,99.12z M152.08,97.17
	c-4.87-5.15-10.9-7.5-18.07-7.06c-6.03,0.37-11.22,2.31-15.58,5.81c-3.63,2.91-6.1,6.29-7.42,10.14c-1.51,4.39-1.24,8.85,0.8,13.38
	c2.9,6.43,7.72,10.58,14.47,12.46c3.29,0.92,6.12,1.37,8.48,1.34c2.82-0.03,5.67-0.75,8.55-2.18c8.86-4.39,13.45-11.19,13.78-20.41
	c0.09-2.69-0.26-5.09-1.05-7.19C155.17,101.13,153.85,99.04,152.08,97.17z"/>
<path class="st29" d="M418.5,98.04c-5.44-3.37-11-5.66-16.69-6.85c-7.45-1.57-14.52-0.32-21.19,3.75
	c-5.91,3.61-9.45,8.71-10.62,15.31c-1.41,7.94,0.04,15.5,4.34,22.67c8.69,14.47,19.08,27.55,31.17,39.24
	c4.84,4.68,7.78,7.46,8.81,8.35c3.11,2.67,6.47,4.94,10.1,6.82c3.84,2,7.56,3,11.16,3.01c5.74,0.02,10.66-1.79,14.76-5.44
	c3.53-3.13,6.11-7.34,7.72-12.65c1.77-5.83,2.07-11.92,0.9-18.25c0.38-0.37,0.64-0.21,0.78,0.5c2.13,10.47,0.45,19.62-5.05,27.44
	c-2.78,3.95-6.59,6.81-11.42,8.58c-3.75,1.38-7.5,1.76-11.23,1.15c-3.85-0.63-7.44-2.11-10.79-4.42c-4.4-3.04-8.54-6.4-12.42-10.08
	c-9.72-9.2-18.93-19.82-27.64-31.86c-2.14-2.96-3.97-5.79-5.48-8.49c-1.97-3.53-3.47-6.54-4.51-9.03
	c-3.62-8.71-3.21-17.21,1.24-25.48c1.68-3.12,3.95-5.64,6.8-7.57c5.67-3.83,11.96-5.49,18.85-4.98c3.22,0.23,6.7,1.11,10.44,2.62
	c3.35,1.35,6.58,2.98,9.69,4.87C418.61,97.49,418.7,97.75,418.5,98.04z"/>
<path class="st30" d="M152.08,97.17c1.77,1.87,3.09,3.96,3.96,6.29c0.79,2.1,1.14,4.5,1.05,7.19c-0.33,9.22-4.92,16.02-13.78,20.41
	c-2.88,1.43-5.73,2.15-8.55,2.18c-2.36,0.03-5.19-0.42-8.48-1.34c-6.75-1.88-11.57-6.03-14.47-12.46c-2.04-4.53-2.31-8.99-0.8-13.38
	c1.32-3.85,3.79-7.23,7.42-10.14c4.36-3.5,9.55-5.44,15.58-5.81C141.18,89.67,147.21,92.02,152.08,97.17z"/>
<path class="st30" d="M418.5,98.04c21.73,12.59,35.22,31.24,40.46,55.96c1.17,6.33,0.87,12.42-0.9,18.25
	c-1.61,5.31-4.19,9.52-7.72,12.65c-4.1,3.65-9.02,5.46-14.76,5.44c-3.6-0.01-7.32-1.01-11.16-3.01c-3.63-1.88-6.99-4.15-10.1-6.82
	c-1.03-0.89-3.97-3.67-8.81-8.35c-12.09-11.69-22.48-24.77-31.17-39.24c-4.3-7.17-5.75-14.73-4.34-22.67
	c1.17-6.6,4.71-11.7,10.62-15.31c6.67-4.07,13.74-5.32,21.19-3.75C407.5,92.38,413.06,94.67,418.5,98.04z"/>
<path class="st23" d="M42.54,120.25c-8.95,16.36-13.71,34.11-14.29,53.25c-0.24,8.02-0.36,14.02-0.37,18
	c0,11.96,1.03,23.83,3.09,35.6c4.65,26.59,13.01,51.88,25.06,75.85c2.63,5.23,5.72,11.14,9.29,17.73
	c4.77,8.83,9.1,15.84,12.99,21.01c2.94,3.91,5.85,7.84,8.72,11.8c3.69,5.08,6.64,8.98,8.84,11.71
	c15.43,19.09,32.74,36.34,51.92,51.75c20.2,16.24,37.79,29.07,52.77,38.49c10.11,6.35,23.19,13.14,39.26,20.37
	c2.63,1.18,4.81,2.29,6.56,3.33c2.82,1.67,4.84,3.06,6.06,4.17c1.77,1.62,2.41,3.86,1.92,6.71c-0.97,5.71-2.92,11.06-5.83,16.07
	c-4.43,7.62-8.01,14.61-10.72,20.97c-1.09,2.55-1.79,5.62-2.1,9.19c-0.73,8.23,1.88,15.14,7.83,20.71
	c6.05,5.66,12.97,9.45,20.78,11.37c4.86,1.2,9.34,1.78,13.44,1.74c4.9-0.05,9.38-1.18,13.43-3.38c6.17-3.36,9.12-8.92,8.85-16.69
	c0.73,1.61,0.78,3.75,0.15,6.44c-1.3,5.53-4.78,9.64-10.44,12.31c-2.26,1.07-4.23,1.88-5.92,2.44c-1.77,0.59-3.86,0.87-6.27,0.83
	c-9.07-0.17-17.32-2.2-24.75-6.08c-6.1-3.19-10.96-7.77-14.57-13.74c-2.44-4.04-3.73-8.23-3.88-12.56
	c-0.17-5.16,0.89-10.19,3.2-15.08c1-2.11,2.65-5.32,4.94-9.62c0.03-0.07,1.3-2.28,3.81-6.63c3.07-5.35,5.3-10.96,6.69-16.81
	c0.76-3.22,0.18-5.76-1.73-7.63c-0.59-0.58-2.62-1.78-6.08-3.61c-6.19-3.26-14.19-7.16-24-11.7c-6.75-3.11-14.54-7.4-23.38-12.87
	c-7.83-4.84-16.98-11.41-27.46-19.71c-3.17-2.51-8.41-6.64-15.74-12.37c-15.05-11.79-29.27-24.52-42.64-38.19
	c-4.83-4.95-9.28-9.91-13.35-14.89c-12.7-15.57-24.49-32.83-35.37-51.78c-5.04-8.78-9.33-17.03-12.87-24.76
	c-2.57-5.62-5.17-11.75-7.8-18.39c-3.64-9.21-6.25-17.5-7.83-24.85c-1.53-7.15-2.5-11.57-2.91-13.27
	c-0.91-3.8-2.19-11.21-3.84-22.23c-0.84-5.61-1.1-10.2-0.79-13.75c0.27-3.08,0.32-6.16,0.15-9.23c-0.33-5.91-0.5-8.97-0.5-9.18
	c-0.01-3.51,0.03-8.29,0.14-14.34c0.05-3.01,0.28-5.56,0.69-7.63c0.34-1.75,0.52-2.67,0.53-2.76c2.17-12.91,6.41-25.3,12.72-37.17
	C41.33,120.44,41.87,120.13,42.54,120.25z"/>
<ellipse transform="matrix(0.2907 -0.9568 0.9568 0.2907 -110.1074 117.8297)" class="st26" cx="24.42" cy="133.18" rx="1.6" ry="0.85"/>
<path class="st23" d="M497.54,203.5c0.33,0.08,0.48,0.5,0.46,1.25c-0.2,7.45-0.78,14.44-1.74,20.95
	c-0.95,6.39-2.16,12.75-3.63,19.08c-1.36,5.81-3.17,12.03-5.44,18.66c-4.07,11.87-7.29,20.72-9.65,26.54
	c-5.06,12.47-11.34,24.3-18.85,35.48c-2.69,4.01-5.27,8.1-7.73,12.27c-2.24,3.79-4.69,7.44-7.34,10.95
	c-0.02,0.03-0.33,0.63-0.92,1.81c-0.41,0.81-1.15,1.14-2.24,1.01c10.45-14.67,18.69-27.53,24.73-38.56
	c5.32-9.72,10.51-21.69,15.56-35.9c5.51-14.56,9.78-29.14,12.81-43.73C495.53,223.85,496.85,213.91,497.54,203.5z"/>
<path class="st23" d="M215.84,234.66c6.11,4.56,9.37,10.67,9.8,18.33c0.5,8.99-2.61,16.59-9.33,22.82
	c-6.53,6.05-14.13,8.7-22.81,7.93c-11.05-0.97-18.95-6.24-23.69-15.8c-2.65-5.36-3.49-10.91-2.5-16.65
	c0.73-4.22,2.3-8.06,4.72-11.53c2.57-3.67,5.83-6.45,9.8-8.33c5.17-2.45,10.86-3.5,17.08-3.13
	C204.99,228.65,210.63,230.77,215.84,234.66z M215.31,275.31c6.1-5.67,9.16-12.62,9.17-20.87c0.01-4.19-1.3-8.35-3.92-12.5
	c-3.11-4.93-7.06-8.38-11.85-10.35c-2.94-1.21-6.82-1.76-11.65-1.64c-4.73,0.12-8.67,0.64-11.81,1.55
	c-5.16,1.5-9.43,4.9-12.81,10.19c-2.49,3.9-3.87,7.69-4.13,11.37c-0.54,7.73,1.6,14.47,6.42,20.22c2.29,2.73,4.96,4.82,7.99,6.27
	c3.12,1.49,6.46,2.37,10.03,2.66c0.29,0.03,0.61-0.04,0.95-0.19c0.77-0.33,1.55-0.42,2.32-0.25c1.5,0.33,2.35,0.49,2.55,0.48
	C204.93,282.09,210.51,279.78,215.31,275.31z"/>
<path class="st23" d="M338.5,283.54c-1.09,0.23-1.84-0.03-2.25-0.77c-0.16-0.29-0.07-0.39,0.28-0.3c0.95,0.25,2.19,0.18,3.72-0.22
	c8.73-2.29,15.21-6.84,19.46-13.63c2.26-3.62,3.63-7.4,4.11-11.34c0.53-4.39-0.14-8.51-2.01-12.34c-3.15-6.49-8.2-10.96-15.14-13.41
	c-2.55-0.89-5.72-1.34-9.51-1.35c-4.41,0-7.63,0.19-9.66,0.57c-8.17,1.53-13.84,6.2-17,14c-3.05,7.52-3.1,14.69-0.17,21.5
	c1.63,3.79,3.55,6.89,5.74,9.28c2.57,2.81,5.81,4.72,9.73,5.74c0.4,0.11,1,0.34,1.8,0.71c0.59,0.27,1.23,0.44,1.9,0.5
	c0.37,0.03,0.68,0.18,0.84,0.4c0.42,0.57,0.06,0.79-1.09,0.66c-3.81-0.59-7.04-1.79-9.69-3.6c-4.7-3.23-8.14-7.39-10.31-12.47
	c-2.07-4.85-2.81-9.97-2.2-15.38c0.75-6.55,3.48-12.06,8.19-16.51c3.62-3.41,8.06-5.65,13.32-6.71c5.23-1.05,10.38-0.93,15.44,0.38
	c8.51,2.2,14.66,6.8,18.44,13.81c3.49,6.49,3.73,13.55,0.72,21.19C358.73,275.48,350.51,281.91,338.5,283.54z"/>
<path class="st31" d="M215.31,275.31c-4.8,4.47-10.38,6.78-16.74,6.94c-0.2,0.01-1.05-0.15-2.55-0.48
	c-0.77-0.17-1.55-0.08-2.32,0.25c-0.34,0.15-0.66,0.22-0.95,0.19c-3.57-0.29-6.91-1.17-10.03-2.66c-3.03-1.45-5.7-3.54-7.99-6.27
	c-4.82-5.75-6.96-12.49-6.42-20.22c0.26-3.68,1.64-7.47,4.13-11.37c3.38-5.29,7.65-8.69,12.81-10.19c3.14-0.91,7.08-1.43,11.81-1.55
	c4.83-0.12,8.71,0.43,11.65,1.64c4.79,1.97,8.74,5.42,11.85,10.35c2.62,4.15,3.93,8.31,3.92,12.5
	C224.47,262.69,221.41,269.64,215.31,275.31z M211.35,247.83c-0.7-0.54-1.55-0.83-2.43-0.83c-4.69,0-9.39,0-14.12,0
	c-2.25,0-3.89,0.29-4.93,0.86c-1.58,0.87-2.71,2.25-3.38,4.14c-1.37,3.85-0.84,7.07,1.58,9.66c0.96,1.03,2.27,1.8,3.93,2.29
	c1.49,0.45,3.02,0.75,4.57,0.91c2.76,0.29,5.04,0.46,6.85,0.51c3.79,0.09,7.04-0.97,9.77-3.18c2.77-2.26,3.65-5.14,2.63-8.65
	c-0.34-1.18-0.93-2.24-1.76-3.19C213.31,249.48,212.4,248.64,211.35,247.83z"/>
<path class="st31" d="M338.5,283.54c-3.09,0.64-6.17,0.64-9.25,0c1.15,0.13,1.51-0.09,1.09-0.66c-0.16-0.22-0.47-0.37-0.84-0.4
	c-0.67-0.06-1.31-0.23-1.9-0.5c-0.8-0.37-1.4-0.6-1.8-0.71c-3.92-1.02-7.16-2.93-9.73-5.74c-2.19-2.39-4.11-5.49-5.74-9.28
	c-2.93-6.81-2.88-13.98,0.17-21.5c3.16-7.8,8.83-12.47,17-14c2.03-0.38,5.25-0.57,9.66-0.57c3.79,0.01,6.96,0.46,9.51,1.35
	c6.94,2.45,11.99,6.92,15.14,13.41c1.87,3.83,2.54,7.95,2.01,12.34c-0.48,3.94-1.85,7.72-4.11,11.34
	c-4.25,6.79-10.73,11.34-19.46,13.63c-1.53,0.4-2.77,0.47-3.72,0.22c-0.35-0.09-0.44,0.01-0.28,0.3
	C336.66,283.51,337.41,283.77,338.5,283.54z M327.18,260.73c1.45,1.65,3.05,2.75,4.8,3.32c0.7,0.23,2.56,0.5,5.57,0.8
	c2.37,0.24,4.73,0.33,7.1,0.28c2.84-0.07,5.1-0.6,6.78-1.61c3.21-1.92,4.59-4.84,4.14-8.76c-0.23-2.05-0.99-3.72-2.27-4.99
	c-1.43-1.43-3.2-2.27-5.3-2.52c-3.5-0.42-7.96-0.52-13.37-0.29c-0.07,0-0.65,0-1.76-0.01c-1.51-0.02-2.83,0.38-3.94,1.19
	c-1.11,0.81-1.88,2.12-2.29,3.92c-0.59,2.59-0.56,5.18,0.07,7.78C326.79,260.17,326.95,260.47,327.18,260.73z"/>
<path class="st23" d="M327.18,260.73c-0.23-0.26-0.39-0.56-0.47-0.89c-0.63-2.6-0.66-5.19-0.07-7.78c0.41-1.8,1.18-3.11,2.29-3.92
	c1.11-0.81,2.43-1.21,3.94-1.19c1.11,0.01,1.69,0.01,1.76,0.01c5.41-0.23,9.87-0.13,13.37,0.29c2.1,0.25,3.87,1.09,5.3,2.52
	c1.28,1.27,2.04,2.94,2.27,4.99c0.45,3.92-0.93,6.84-4.14,8.76c-1.68,1.01-3.94,1.54-6.78,1.61c-2.37,0.05-4.73-0.04-7.1-0.28
	c-3.01-0.3-4.87-0.57-5.57-0.8C330.23,263.48,328.63,262.38,327.18,260.73z M330.37,261.47c2.01,0.71,4.14,1.22,6.38,1.51
	c2.91,0.38,5.07,0.58,6.48,0.61c1.71,0.03,3.4-0.17,5.06-0.6c1.83-0.48,3.23-1.33,4.22-2.55c1.46-1.79,1.94-3.84,1.43-6.13
	c-0.63-2.86-2.03-4.55-4.19-5.06c-4.37-1.04-9.89-1.23-16.56-0.57c-0.07,0.01-0.52,0.03-1.37,0.07c-1.85,0.09-2.96,0.92-3.32,2.5
	c-0.51,2.22-0.66,4.61-0.47,7.16C328.15,259.94,328.93,260.96,330.37,261.47z"/>
<path class="st23" d="M211.35,247.83c1.05,0.81,1.96,1.65,2.71,2.52c0.83,0.95,1.42,2.01,1.76,3.19c1.02,3.51,0.14,6.39-2.63,8.65
	c-2.73,2.21-5.98,3.27-9.77,3.18c-1.81-0.05-4.09-0.22-6.85-0.51c-1.55-0.16-3.08-0.46-4.57-0.91c-1.66-0.49-2.97-1.26-3.93-2.29
	c-2.42-2.59-2.95-5.81-1.58-9.66c0.67-1.89,1.8-3.27,3.38-4.14c1.04-0.57,2.68-0.86,4.93-0.86c4.73,0,9.43,0,14.12,0
	C209.8,247,210.65,247.29,211.35,247.83z M212.26,250.21c-2.03-1.25-4.1-1.85-6.21-1.81c-1.68,0.03-2.55,0.04-2.6,0.04
	c-5.42-0.25-8.9-0.23-10.45,0.06c-2.95,0.55-4.68,2.07-5.19,4.56c-0.88,4.34,0.22,7.24,3.31,8.7c1.59,0.75,4.2,1.31,7.84,1.68
	c2.95,0.3,5.87,0.12,8.76-0.55c2.63-0.61,4.51-1.69,5.66-3.22c1.52-2.05,1.75-4.47,0.68-7.28
	C213.72,251.48,213.08,250.72,212.26,250.21z"/>
<path class="st32" d="M212.26,250.21c0.82,0.51,1.46,1.27,1.8,2.18c1.07,2.81,0.84,5.23-0.68,7.28c-1.15,1.53-3.03,2.61-5.66,3.22
	c-2.89,0.67-5.81,0.85-8.76,0.55c-3.64-0.37-6.25-0.93-7.84-1.68c-3.09-1.46-4.19-4.36-3.31-8.7c0.51-2.49,2.24-4.01,5.19-4.56
	c1.55-0.29,5.03-0.31,10.45-0.06c0.05,0,0.92-0.01,2.6-0.04C208.16,248.36,210.23,248.96,212.26,250.21z M209.93,258.38
	c2.08-0.03,2.48-1.48,1.2-4.34c-0.25-0.58-0.98-0.79-1.5-0.43c-0.35,0.25-0.76,0.56-1.23,0.95c-0.47,0.39-0.79,0.79-0.95,1.19
	c-0.37,0.91-0.18,1.63,0.59,2.14C208.56,258.23,209.19,258.39,209.93,258.38z"/>
<path class="st32" d="M330.37,261.47c-1.44-0.51-2.22-1.53-2.34-3.06c-0.19-2.55-0.04-4.94,0.47-7.16c0.36-1.58,1.47-2.41,3.32-2.5
	c0.85-0.04,1.3-0.06,1.37-0.07c6.67-0.66,12.19-0.47,16.56,0.57c2.16,0.51,3.56,2.2,4.19,5.06c0.51,2.29,0.03,4.34-1.43,6.13
	c-0.99,1.22-2.39,2.07-4.22,2.55c-1.66,0.43-3.35,0.63-5.06,0.6c-1.41-0.03-3.57-0.23-6.48-0.61
	C334.51,262.69,332.38,262.18,330.37,261.47z"/>
<path class="st32" d="M208.04,257.89c-0.77-0.51-0.96-1.23-0.59-2.14c0.16-0.4,0.48-0.8,0.95-1.19c0.47-0.39,0.88-0.7,1.23-0.95
	c0.52-0.36,1.25-0.15,1.5,0.43c1.28,2.86,0.88,4.31-1.2,4.34C209.19,258.39,208.56,258.23,208.04,257.89z"/>
<path class="st23" d="M285.46,349.75l-2.96,5.29c-0.32,0.01-0.45-0.05-0.38-0.2c3.11-6.11,5.23-12.54,6.35-19.3
	c1.03-6.2,1.97-12.41,2.82-18.63c0.19-1.36,0.37-3.64,0.56-6.84c0.13-2.29,0.4-4.57,0.8-6.84c0.71-4.06,0.91-7.47,0.6-10.23
	c-0.26-2.31-1.24-4.11-2.95-5.4c-1.19-0.9-3.01-1.41-5.44-1.53c-6.15-0.31-12.28-0.16-18.4,0.46c-0.01,0.01-1.31,0.24-3.88,0.7
	c-1.19,0.21-2.71,0.39-4.58,0.52c-1.35,0.1-5.25,0.94-11.7,2.51c-3.6,0.89-7.22,2.36-10.86,4.43c-5.53,3.13-9.09,7.39-10.7,12.77
	c-1.31,4.39-1.17,9.56,0.42,15.53c2.54,9.5,7.88,17.27,16.03,23.32c10.25,7.61,21.93,12.25,35.06,13.9c-0.98,0.42-1.81,0.6-2.5,0.54
	c-6.99-0.61-13.64-2.45-19.96-5.5c-1.45-0.81-2.92-1.59-4.4-2.34c-11.23-5.71-19.22-14.05-23.98-25.04
	c-2.59-5.96-3.6-11.32-3.03-16.07c0.71-5.87,3.52-10.95,8.43-15.24c1.58-1.38,3.85-2.78,6.8-4.19c2.2-1.06,4.69-1.97,7.46-2.72
	c11.75-3.18,24.47-4.9,38.18-5.15c1.81-0.03,3.38,0.09,4.71,0.36c1.55,0.32,2.83,1.11,3.86,2.38c2.03,2.53,2.93,5.7,2.68,9.51
	c-0.81,12.71-2.63,26.07-5.44,40.06C288.06,341.81,286.86,346.12,285.46,349.75z"/>
<path class="st33" d="M282.5,355.04c-1.51,2.43-3.6,4.15-6.25,5.17c-13.13-1.65-24.81-6.29-35.06-13.9
	c-8.15-6.05-13.49-13.82-16.03-23.32c-1.59-5.97-1.73-11.14-0.42-15.53c1.61-5.38,5.17-9.64,10.7-12.77
	c3.64-2.07,7.26-3.54,10.86-4.43c6.45-1.57,10.35-2.41,11.7-2.51c1.87-0.13,3.39-0.31,4.58-0.52c2.57-0.46,3.87-0.69,3.88-0.7
	c6.12-0.62,12.25-0.77,18.4-0.46c2.43,0.12,4.25,0.63,5.44,1.53c1.71,1.29,2.69,3.09,2.95,5.4c0.31,2.76,0.11,6.17-0.6,10.23
	c-0.4,2.27-0.67,4.55-0.8,6.84c-0.19,3.2-0.37,5.48-0.56,6.84c-0.85,6.22-1.79,12.43-2.82,18.63c-1.12,6.76-3.24,13.19-6.35,19.3
	C282.05,354.99,282.18,355.05,282.5,355.04z M256.43,340.07c5.27,2.87,10.71,5.34,16.33,7.43c2.25,0.83,3.6,0.08,4.07-2.27
	c0.97-4.92,0.51-9.95-1.36-15.09c-1-2.75-3.05-5.4-6.16-7.95c-2.29-1.89-4.34-3.42-6.16-4.6c-2.47-1.61-4.71-2.85-6.7-3.72
	c-4.51-1.99-9.17-2.2-13.98-0.63c-1.73,0.57-2.99,1.38-3.78,2.45c-1.05,1.43-1.37,3.03-0.94,4.81c1.31,5.45,4.49,10.03,9.54,13.76
	C250.2,336.41,253.25,338.34,256.43,340.07z"/>
<path class="st23" d="M256.43,340.07c-3.18-1.73-6.23-3.66-9.14-5.81c-5.05-3.73-8.23-8.31-9.54-13.76
	c-0.43-1.78-0.11-3.38,0.94-4.81c0.79-1.07,2.05-1.88,3.78-2.45c4.81-1.57,9.47-1.36,13.98,0.63c1.99,0.87,4.23,2.11,6.7,3.72
	c1.82,1.18,3.87,2.71,6.16,4.6c3.11,2.55,5.16,5.2,6.16,7.95c1.87,5.14,2.33,10.17,1.36,15.09c-0.47,2.35-1.82,3.1-4.07,2.27
	C267.14,345.41,261.7,342.94,256.43,340.07z M261.99,341.63c3.81,1.91,7.79,3.71,11.94,5.4c0.83,0.34,1.75-0.19,1.89-1.07
	c0.81-5.36,0.63-10.26-0.56-14.71c-0.54-2.02-1.69-3.87-3.45-5.56c-5.08-4.89-10.71-8.54-16.88-10.97
	c-1.94-0.77-3.78-1.19-5.51-1.26c-1.93-0.09-3.83,0.07-5.72,0.46c-1.7,0.36-2.92,0.94-3.67,1.74c-1.01,1.1-1.4,2.54-1.16,4.32
	c0.29,2.15,0.93,3.97,1.94,5.46c2.63,3.87,5.87,7.15,9.72,9.82C252.66,336.75,256.48,338.87,261.99,341.63z"/>
<path class="st34" d="M250.53,335.26c-3.85-2.67-7.09-5.95-9.72-9.82c-1.01-1.49-1.65-3.31-1.94-5.46
	c-0.24-1.78,0.15-3.22,1.16-4.32c0.75-0.8,1.97-1.38,3.67-1.74c1.89-0.39,3.79-0.55,5.72-0.46c1.73,0.07,3.57,0.49,5.51,1.26
	c6.17,2.43,11.8,6.08,16.88,10.97c1.76,1.69,2.91,3.54,3.45,5.56c1.19,4.45,1.37,9.35,0.56,14.71c-0.14,0.88-1.06,1.41-1.89,1.07
	c-4.15-1.69-8.13-3.49-11.94-5.4C256.48,338.87,252.66,336.75,250.53,335.26z"/>
<path class="st26" d="M444.28,375.03c0.97,0.32,1.31,0.91,1.03,1.77c-0.24,0.75-0.61,0.82-1.1,0.2
	C442.78,375.21,442.81,374.55,444.28,375.03z"/>
<path class="st26" d="M413.43,405.76c0.8,0.48,1.84,0.17,2.25-0.67c0.67-1.38,1.43-2.02,2.28-1.91c0.37,0.05,0.42,0.22,0.15,0.52
	l-4.26,4.69c-0.25,0.27-0.57,0.4-0.84,0.33c-0.25-0.06-0.44-0.2-0.59-0.41c-0.11-0.15-0.16-0.37-0.13-0.65
	c0.09-1.31-0.32-2.4-1.23-3.27c-0.26-0.26-0.43-0.55-0.46-0.82c-0.09-0.76,0.21-0.82,0.92-0.17c0.16,0.15,0.3,0.37,0.42,0.68
	C412.22,404.77,412.72,405.33,413.43,405.76z"/>
<path class="st23" d="M360,432.21c-0.07,0.96-0.55,1.75-1.42,2.38c-11.21,8.03-22.6,15.78-34.19,23.23
	c-5.69,3.66-11.45,7.01-17.29,10.05c-7.94,4.14-14.33,7.25-19.16,9.32c-6.35,2.71-11.56,6-15.63,9.87
	c-1.04,0.99-1.79,2.54-2.24,4.65c-0.9,4.14-1.33,8.32-1.28,12.53c0.04,3.64-0.1,6.47-0.41,8.49c-0.63,4.09-1.37,8.16-2.21,12.22
	c-0.07,0.33,0.03,0.4,0.32,0.23c3.54-2.25,6.32-5.15,8.34-8.72c0.01-0.03,0.78-1.93,2.29-5.71c0.76-1.91,1.81-3.73,3.16-5.47
	c0.54-0.7,1.58-0.78,2.21-0.16c1.48,1.44,2.76,3,3.84,4.69c1.4,2.18,2.54,3.82,3.43,4.93c3.95,4.92,6.93,10.38,8.93,16.37
	c0.95,2.84,1.49,4.6,1.63,5.29c0.33,1.69,0.39,3.55,0.18,5.6c-0.07,0.71-0.31,0.96-0.71,0.75c-0.53-6.33-2.2-12.32-5.03-17.97
	c-3.39-6.78-7.75-12.94-13.09-18.49c-0.39-0.41-1.05-0.35-1.26,0.12l-1.91,4.3c-1.81,5.21-4.58,9.79-8.33,13.74
	c-0.63,0.67-1.7,1.55-3.22,2.64c-1.13,0.81-2.2,1.71-3.2,2.7c-0.37,0.01-0.51-0.06-0.42-0.23c0.09-0.15,0.15-0.25,0.16-0.28
	c2.33-7.38,3.67-15.14,4.01-23.28c0.13-2.97,0.46-6.56,1-10.75c0.31-2.43,0.87-4.55,1.68-6.37c0.76-1.71,2.18-3.28,4.27-4.73
	c4.76-3.33,10.67-6.73,17.74-10.21C314.65,462.86,337.25,448.95,360,432.21z"/>
<path class="st26" d="M233.09,485.17c-0.2-0.09-0.31-0.32-0.27-0.54c0.3-1.61,1.22-2.9,2.75-3.88c0.26-0.16,0.59-0.17,0.89-0.04
	c1.91,0.82,3.9,1.21,5.99,1.17c1.61-0.03,2.76,0.18,3.45,0.61c1.35,0.84,1.91,2.03,1.66,3.56c-0.2,1.27-0.9,2.35-2.09,3.23
	c-1.07,0.79-2.3,1.35-3.69,1.7c-0.92,0.22-1.88-0.13-2.43-0.89C237.94,488.12,235.85,486.48,233.09,485.17z"/>
<path class="st35" d="M278.5,510.71l1.46,0.21c0.27,0.04,0.44,0.33,0.38,0.64c-0.33,1.67-0.93,3.25-1.8,4.74
	c-2.05,3.5-1.53,6.47,1.56,8.9c0.22,0.17,0.54,0.17,0.79-0.01c0.91-0.63,1.94-0.87,3.11-0.71c1.27,0.18,2.51,0.09,3.71-0.26
	c0.31-0.09,0.63-0.05,0.9,0.11l4.61,2.75c1,0.6,1.51,1.46,1.53,2.59c0.03,2.06,0.45,3.99,1.25,5.8c0.63,1.41,0.64,2.8,0.03,4.15
	c-0.14,0.31-0.19,0.63-0.14,0.93c0.33,2.43-0.07,4.47-1.2,6.14c-1.1,1.61-2.6,3-4.51,4.17c-1.51,0.93-3.4,1.58-5.66,1.93
	c-4.66,0.73-9.33,0.92-14.02,0.55c-4.2-0.32-7.52-0.82-9.96-1.51c-3.25-0.92-6.31-2.43-9.16-4.53c-1.01-0.74-1.27-1.68-0.78-2.83
	c2.19-5.17,5.8-9.09,10.84-11.78c0.83-0.45,1.6-1.41,2.31-2.9c1-0.99,2.07-1.89,3.2-2.7c1.52-1.09,2.59-1.97,3.22-2.64
	C273.92,520.5,276.69,515.92,278.5,510.71z M270.68,529.19c2.56,1.24,5,1.78,7.31,1.63c1.75-0.12,2.06-0.85,0.92-2.18l-3.15-3.7
	c-0.25-0.29-0.57-0.45-0.82-0.4c-0.74,0.13-1.18,1.13-1.33,2.98c-0.05,0.61-0.65,1.01-1.23,0.83c-1.71-0.53-2.62-0.63-2.75-0.28
	C269.5,528.42,269.85,528.79,270.68,529.19z"/>
<path class="st36" d="M269.63,528.07c0.13-0.35,1.04-0.25,2.75,0.28c0.58,0.18,1.18-0.22,1.23-0.83c0.15-1.85,0.59-2.85,1.33-2.98
	c0.25-0.05,0.57,0.11,0.82,0.4l3.15,3.7c1.14,1.33,0.83,2.06-0.92,2.18c-2.31,0.15-4.75-0.39-7.31-1.63
	C269.85,528.79,269.5,528.42,269.63,528.07z"/>
<path class="st26" d="M307.23,569.21c-0.13,0.73-0.44,1.59-0.92,2.6c-0.51,1.07-0.32,2.02,0.55,2.86c0.23,0.22,0.31,0.54,0.2,0.79
	c-1.16,2.57-3.16,3.39-6.01,2.47c-0.65-0.21-0.94-0.96-0.59-1.54l5.77-9.47c0.17-0.28,0.49-0.41,0.76-0.31
	c0.56,0.21,0.75,0.66,0.56,1.33C307.38,568.57,307.27,569,307.23,569.21z"/>
</svg>
