<?xml version="1.0" encoding="utf-8"?>
<!-- Generator: Adobe Illustrator 27.4.1, SVG Export Plug-In . SVG Version: 6.00 Build 0)  -->
<svg version="1.1" id="Layer_1" xmlns="http://www.w3.org/2000/svg" xmlns:xlink="http://www.w3.org/1999/xlink" x="0px" y="0px"
	 viewBox="0 0 612 792" style="enable-background:new 0 0 612 792;" xml:space="preserve">
<style type="text/css">
	.st0{fill:none;stroke:#6E4927;stroke-width:2;}
	.st1{fill:none;stroke:#8C6948;stroke-width:2;}
	.st2{fill:none;stroke:#1F2021;stroke-width:2;}
	.st3{fill:none;stroke:#10181E;stroke-width:2;}
	.st4{fill:none;stroke:#7D363C;stroke-width:2;}
	.st5{fill:none;stroke:#111A20;stroke-width:2;}
	.st6{fill:none;stroke:#682E32;stroke-width:2;}
	.st7{fill:none;stroke:#5D1B19;stroke-width:2;}
	.st8{fill:none;stroke:#732325;stroke-width:2;}
	.st9{fill:none;stroke:#CA3534;stroke-width:2;}
	.st10{fill:none;stroke:#2D363D;stroke-width:2;}
	.st11{fill:none;stroke:#1F3039;stroke-width:2;}
	.st12{fill:none;stroke:#9B2227;stroke-width:2;}
	.st13{fill:none;stroke:#7E353B;stroke-width:2;}
	.st14{fill:none;stroke:#121A20;stroke-width:2;}
	.st15{fill:none;stroke:#701F21;stroke-width:2;}
	.st16{fill:none;stroke:#11181D;stroke-width:2;}
	.st17{fill:none;stroke:#AA8185;stroke-width:2;}
	.st18{fill:none;stroke:#6F7474;stroke-width:2;}
	.st19{fill:#020202;}
	.st20{fill:#1A2E39;}
	.st21{fill:#09090A;}
	.st22{fill:#DF3E3F;}
	.st23{fill:#B42E29;}
	.st24{fill:#3F4042;}
	.st25{fill:#511116;}
	.st26{fill:#FFFFFF;}
	.st27{fill:#1D2B37;}
	.st28{fill:#DDE5E3;}
	.st29{fill:#243138;}
</style>
<g>
	<g>
		<path vector-effect="non-scaling-stroke" class="st0" d="M301.93,530.54c3.57,2.93,7.19,5.81,10.87,8.66
			c0.48,0.37,0.72,0.98,0.64,1.59c-0.29,2.14-0.4,4.26-0.31,6.35c0.1,2.27,0.32,4.37,0.69,6.31c0.73,3.87,2.25,7.23,4.57,10.08
			c3.99,4.88,9.36,7.27,16.12,7.18c4.55-0.07,8.5-1.27,11.87-3.61c4.7-3.27,7.53-7.9,8.48-13.89c0.67-4.22,0.6-8.32-0.21-12.29
			c-0.08-0.39,0.06-0.78,0.36-1.03c11.08-9.08,22.23-18,33.45-26.79c4.36-3.41,7.9-6.25,10.62-8.52
			c9.13-7.62,18.06-15.48,26.78-23.58c4.57-4.25,7.88-7.36,9.91-9.32c8.19-7.91,16.63-17.02,25.32-27.32
			c9.15-10.84,16.61-22.15,22.37-33.93c12.68-25.93,15.7-52.92,9.08-80.98c-1.07-4.53-2.36-8.87-3.88-13.04
			c-6.79-18.59-17.59-34.17-32.41-46.74c-8.43-7.15-18.16-12.49-29.18-16.02c-4.26-1.37-8.67-2.38-13.23-3.05
			c-10.76-1.58-21.56-1.44-32.39,0.44c-9.9,1.71-19.17,5.11-27.8,10.21c-7.01,4.14-13.47,9.17-19.38,15.09
			c-0.22,0.22-0.56,0.22-0.79,0.01c-7.93-7.62-16.92-13.9-26.98-18.85c-9.52-4.68-20.03-7.21-31.51-7.6
			c-14.9-0.5-28.71,2.24-41.45,8.23c-3.97,1.86-7.89,4.13-11.77,6.8c-10.16,7-18.71,15.6-25.66,25.79
			c-2.59,3.79-4.96,7.66-7.11,11.6c-2.59,4.75-4.76,9.63-6.49,14.63c-2.45,7.09-4.37,14.42-5.76,21.98c-0.87,4.74-1.4,9.24-1.6,13.5
			c-0.57,12.29,0.86,24.39,4.3,36.32c2.84,9.85,7.21,20.13,13.1,30.85c5.15,9.37,11.04,17.93,17.69,25.68
			c18.36,21.42,38.54,41.43,60.55,60.04c3.32,2.81,10.19,8.34,20.61,16.61C293.59,523.73,297.11,526.59,301.93,530.54"/>
		<path vector-effect="non-scaling-stroke" class="st1" d="M303.04,632.31c19.22,0.75,38.44,0.75,57.66,0.01
			c7.66-0.3,15.31-0.6,22.96-0.9c3.19-0.13,6.36-0.4,9.52-0.82"/>
		<path vector-effect="non-scaling-stroke" class="st0" d="M393.19,630.61c2.68-0.04,7.1-0.44,13.27-1.22
			c10.94-1.38,20.2-2.99,27.75-4.84c3.06-0.74,5.27-1.95,6.65-3.63c2.47-3.01,1.99-5.28-1.44-6.8c-5.91-2.63-12.41-4.51-19.52-5.65
			c-13.19-2.12-26.45-3.47-39.79-4.04c-14.17-0.61-28.35-1.01-42.53-1.2c-17.76-0.24-35.51,0.09-53.24,0.97
			c-7.49,0.37-12.02,0.62-13.59,0.75c-4.91,0.39-10.69,1.06-17.36,2c-10.38,1.47-19.05,3.29-26.02,5.46
			c-2.01,0.63-3.76,1.64-5.25,3.05c-0.71,0.68-1.15,1.34-1.31,1.99c-0.22,0.88-0.07,1.73,0.47,2.54c0.64,0.97,1.61,1.8,2.92,2.5
			c2.46,1.31,5.05,2.29,7.77,2.93c7.91,1.86,15.9,3.24,23.97,4.14c11.23,1.26,26.94,2.17,47.11,2.75"/>
		<path vector-effect="non-scaling-stroke" class="st2" d="M393.19,630.61c-1.13,0.29-1.71,0.11-1.73-0.54
			c-0.01-0.17,0.16-0.31,0.37-0.31l5.28-0.02c0.37-0.01,0.66-0.34,0.63-0.73c-0.13-1.68,0.72-2.04,2.54-1.07
			c0.24,0.13,0.51,0.16,0.77,0.1c0.86-0.23,1.39,0,1.6,0.69c0.05,0.19,0.22,0.32,0.4,0.31c10.28-0.91,20.44-2.57,30.47-5
			c2.98-0.72,5.14-1.75,6.48-3.1c2.51-2.5,2.26-4.49-0.76-5.95c-4.67-2.26-10.27-3.98-16.8-5.16c-4.96-0.89-9.93-1.68-14.93-2.36
			c-2.15-0.29-4.79-0.55-7.93-0.76c-2.65-0.18-5.3-0.4-7.95-0.65c-4.63-0.44-8.6-0.72-11.91-0.83c-8.21-0.27-16.43-0.53-24.64-0.78
			c-25.3-0.77-50.59-0.5-75.86,0.8c-17.3,0.89-33.25,3.19-47.84,6.88c-2.59,0.65-4.13,1.08-4.64,1.27
			c-1.53,0.59-2.93,1.43-4.19,2.53c-1.68,1.47-1.73,2.96-0.15,4.46c1.06,1.02,1.97,1.69,2.74,2.03c2.03,0.91,4.71,1.81,8.03,2.68
			c4.56,1.2,10.88,2.24,18.97,3.14c17.83,1.98,35.72,2.92,53.66,2.82c0.29,0,0.51,0.02,0.67,0.05c0.58,0.14,0.66,0.39,0.25,0.78
			c-0.16,0.15-0.38,0.25-0.65,0.29c-1.01,0.13-2.02,0.17-3.03,0.14"/>
		<path vector-effect="non-scaling-stroke" class="st3" d="M459.54,274.41c-8-7.42-16.98-13.17-26.96-17.23
			c-4.13-1.68-8.46-3-12.99-3.97c-10.46-2.24-21.08-2.74-31.85-1.51c-6.07,0.69-10.56,1.45-13.46,2.27
			c-15.32,4.3-28.7,12.12-40.15,23.47c-0.23,0.23-0.6,0.24-0.84,0.02c-6.97-6.25-14.31-11.63-22.02-16.14
			c-4.27-2.49-8.37-4.42-12.29-5.79c-7.21-2.52-14.65-3.9-22.3-4.15c-4.18-0.14-8.71,0-13.6,0.41c-21.39,1.77-39.72,10.43-55,25.98
			c-6.6,6.72-12.04,13.92-16.31,21.61c-7.94,14.28-12.93,29.77-14.97,46.47c-0.54,4.46-0.64,9.4-0.3,14.8
			c0.49,7.68,0.89,12.44,1.19,14.29c0.81,4.87,1.83,9.41,3.06,13.61c5.88,20.01,15.5,38.11,28.87,54.3
			c20.08,24.32,43.39,47.16,69.93,68.52c5.61,4.51,8.75,7.04,9.43,7.59c4.16,3.37,7.33,5.87,9.51,7.49
			c4.08,3.04,7.58,5.92,10.48,8.65c0.74,0.7,1.52,1.32,2.33,1.88c0.76,0.52,1.59,1.09,2.48,1.72c0.7,0.5,0.97,1.17,0.8,2.01
			c-1.56,7.9-0.16,15.05,4.18,21.46c1.07,1.59,2.21,2.81,3.39,3.67c1.34,0.96,2.86,1.72,4.56,2.27c8.23,2.67,15.53,1.26,21.9-4.21
			c1.89-1.62,3.24-3.72,4.03-6.29c0.59-1.89,1-4.28,1.23-7.19c0.27-3.31,0.01-6.66-0.78-10.04c-0.06-0.27,0.03-0.54,0.25-0.71
			c4.14-3.31,8.27-6.57,12.4-9.8c10.56-8.23,21.02-16.59,31.39-25.06c3.74-3.05,7.19-5.99,10.35-8.82
			c5.93-5.3,13.42-12.13,22.46-20.5c13.09-12.11,24.86-24.75,35.32-37.9c2.5-3.15,4.69-6.19,6.57-9.14c1.69-2.65,3.66-5.85,5.91-9.6
			c11.84-19.78,17.39-41.05,16.63-63.82c-0.17-5.19-0.53-9.81-1.06-13.87c-0.57-4.34-1.38-8.8-2.43-13.39
			c-1.75-7.62-4.44-14.9-8.06-21.81c-2.02-3.87-4.3-7.79-6.82-11.77C471.4,286.92,465.9,280.32,459.54,274.41"/>
		<path vector-effect="non-scaling-stroke" class="st4" d="M335.02,299.11c-1.1,0.5-2.12,0.39-3.06-0.34"/>
		<path vector-effect="non-scaling-stroke" class="st5" d="M331.96,298.77c0.25-0.29,0.21-0.54-0.13-0.75
			c-1.07-0.68-2.3-1.78-3.69-3.29c-3.15-3.42-6.43-6.72-9.82-9.9c-2.83-2.65-5.61-4.91-8.33-6.77c-2.66-1.83-5.72-3.65-9.2-5.46
			c-11.97-6.24-25.05-8.36-39.24-6.35c-6.5,0.92-12.48,2.56-17.94,4.93c-3.56,1.55-7.13,3.37-10.74,5.46
			c-3.54,2.06-6.81,4.42-9.8,7.08c-5.94,5.27-11.2,11.29-15.77,18.06c-0.67,0.98-1.37,2.19-2.11,3.63c-0.64,1.24-1.3,2.47-1.98,3.69
			c-3.35,6.04-6.15,12.32-8.42,18.84c-0.19,0.54-0.38,1.29-0.57,2.25c-0.15,0.77-0.36,1.52-0.61,2.25
			c-0.42,1.23-0.68,2.34-0.78,3.35c-0.19,1.97-0.5,3.92-0.95,5.84c-0.35,1.52-0.37,3.03-0.03,4.54c0.05,0.25,0.2,0.37,0.45,0.35"/>
		<path vector-effect="non-scaling-stroke" class="st6" d="M192.29,346.54c-0.09,3.06-0.14,6.13-0.15,9.19
			c-0.02,4.99-0.02,8.05,0.01,9.17c0.32,12.16,3.09,23.67,8.33,34.53c1.47,3.03,3.55,7.06,6.25,12.08c4,7.43,8.73,14.41,14.16,20.91
			c9.41,11.26,19.34,22.03,29.79,32.33"/>
		<path vector-effect="non-scaling-stroke" class="st5" d="M250.68,464.75c-0.03,0.11-0.04,0.21-0.03,0.31
			c0.01,0.09,0.06,0.17,0.15,0.27c2.86,3.1,5.89,6.02,9.09,8.77c1.32,1.13,2.71,2.43,4.17,3.91c1.35,1.36,2.75,2.66,4.2,3.91
			c3.69,3.16,5.86,5.02,6.5,5.6c2.44,2.18,5.21,4.53,8.33,7.04c1.83,1.47,3.84,3.24,6.03,5.3c2.31,2.17,4.31,3.94,5.99,5.32
			c5.89,4.82,11.8,9.62,17.74,14.38c1.47,1.18,2.68,1.91,3.64,2.17"/>
		<path vector-effect="non-scaling-stroke" class="st6" d="M316.51,521.73c3.34,2.7,6.53,5.57,9.57,8.61
			c2.1,2.1,3.32,4.44,3.67,7.04c0.53,3.9,1.31,7.65,2.34,11.24c0.27,0.93,0.85,1.44,1.74,1.53l3.74,0.35"/>
		<path vector-effect="non-scaling-stroke" class="st5" d="M337.57,550.5c0.38,0.44,0.71,0.5,1,0.19c0.15-0.15,0.24-0.41,0.28-0.76
			c0.2-1.91,0.43-3.83,0.67-5.74c0-0.02,0.12-1.4,0.33-4.14c0.4-4.98,2.49-8.98,6.27-11.99c8.21-6.54,15.3-12.38,21.26-17.52
			c2.66-2.29,5.12-4.34,7.37-6.14c3.1-2.49,5.55-4.54,7.36-6.14c7.41-6.56,14.86-13.07,22.36-19.52c2.49-2.14,7.42-6.62,14.78-13.44
			c8.6-7.96,16.43-15.94,23.47-23.93c4.29-4.87,7.27-8.29,8.93-10.26c5.37-6.35,9.62-12.45,12.76-18.28
			c2.83-5.26,5.48-10.61,7.94-16.06c4.83-10.66,7.47-21.85,7.92-33.57c0.04-0.92-0.01-1.95-0.14-3.08
			c-0.13-1.15-0.18-2.17-0.17-3.05c0.14-8.25-0.68-15.71-2.46-22.4c-1.31-4.92-3.23-10.46-5.75-16.62
			c-1.97-4.82-3.96-8.89-5.95-12.21c-5.11-8.49-11.61-16.08-19.51-22.79c-10.45-8.88-22.17-14.59-35.15-17.14
			c-4.42-0.87-8.93-1.21-13.53-1.03c-6.42,0.25-12.76,1.24-19.01,2.96c-6.71,1.85-12.81,4.71-18.29,8.58
			c-8.17,5.77-15.82,12.46-22.95,20.08c-0.49,0.53-1.29,1.2-2.39,2.03c-0.27,0.2-0.26,0.4,0.04,0.58"/>
		<path vector-effect="non-scaling-stroke" class="st7" d="M337.57,550.5c0.52-0.03,0.81-0.32,0.86-0.88
			c0.35-3.68,0.65-7.36,0.91-11.05c0.15-2.22,0.82-4.2,2.01-5.92c1-1.46,2.16-2.86,3.48-4.22c0.89-0.92,2.25-2.12,4.09-3.61
			c17.68-14.32,35.1-28.96,52.24-43.94c8.55-7.47,16.9-15.17,25.04-23.09c10.97-10.67,21.07-22.12,30.3-34.33
			c6-7.94,10.63-16.17,13.88-24.7"/>
		<path vector-effect="non-scaling-stroke" class="st8" d="M470.38,398.76c4.45-8.73,7.17-17.36,8.15-25.89
			c0.78-6.74,0.88-14.11,0.32-22.1c-0.35-4.98-0.97-9.47-1.85-13.47c-1.33-6.01-3.29-12.18-5.87-18.52
			c-7.08-17.39-18.1-31.08-33.07-41.08c-3.96-2.64-7.94-4.79-11.96-6.43c-9.61-3.92-19.62-5.63-30.04-5.13
			c-4.82,0.24-9.31,0.81-13.49,1.71c-5.95,1.3-11.61,3.46-17,6.48c-6.49,3.64-12.41,8.04-17.78,13.19c-3.32,3.2-6.6,6.44-9.83,9.73
			c-0.74,0.76-1.72,1.38-2.93,1.86"/>
		<path vector-effect="non-scaling-stroke" class="st7" d="M316.51,521.73c-2.51-2.17-7.49-6.21-14.95-12.12
			c-4.09-3.24-10.18-8.41-18.27-15.49c-0.94-0.83-4.37-3.8-10.29-8.92c-7.63-6.6-15.07-13.42-22.31-20.45"/>
		<path vector-effect="non-scaling-stroke" class="st9" d="M470.38,398.76c-0.23,0.22-0.49,0.34-0.79,0.38
			c-0.23,0.03-0.42,0.13-0.54,0.28c-1.16,1.51-2.4,2.77-3.71,3.8c-8.11,6.37-17.06,11.56-26.83,15.59c-12,4.94-24.4,8.23-37.21,9.86
			c-2.38,0.3-6.89,0.78-13.53,1.43c-10.15,0.99-20.09,1.55-29.81,1.66c-13.52,0.16-27.86-0.04-43.03-0.59
			c-4.66-0.17-10.45-0.6-17.35-1.29c-9.04-0.9-17.61-2.49-25.68-4.76c-7.85-2.2-15.46-5.77-22.85-10.7
			c-3.92-2.62-7.45-5.45-10.59-8.5c-12.85-12.49-20.03-28.03-21.54-46.62c-1.1-13.48,1-26.14,6.29-37.97
			c2.74-6.15,6.72-11.67,11.91-16.55c2.3-2.16,3.63-3.42,3.97-3.76c1.28-1.28,2.57-2.57,3.85-3.85c0.94-0.94,1.36-2,1.27-3.19
			c-0.02-0.24,0.05-0.46,0.18-0.61l2.54-2.69c0.13-0.14,0.12-0.16-0.05-0.06c-6.91,4.02-13.44,8.58-19.59,13.7
			c-1.54,1.27-3.23,2.27-5.08,2.97c-0.22,0.08-0.45,0.1-0.66,0.04c-2.43-0.62-4.1-1.98-5-4.08c-0.56-1.29-0.59-2.72-0.1-4.31
			c0.62-2.01,1.59-3.81,2.92-5.42c0.23-0.28,1.66-1.7,4.31-4.27c2.25-2.19,4.52-4.37,6.78-6.54c0.44-0.43,0.93-0.76,1.46-1
			c0.54-0.25,1.09-0.49,1.65-0.71c0.73-0.3,1.46-0.78,2.18-1.45c1.07-0.99,2.18-1.64,3.31-1.93c1.3-0.33,2.45-0.95,3.46-1.84
			c0.36-0.32,0.81-0.63,1.36-0.92l4.07-2.16c0.2-0.1,0.42-0.14,0.63-0.12c1.33,0.13,2.79-0.68,4.37-2.43
			c0.42-0.46,1.02-0.7,1.64-0.66c0.62,0.05,0.81-0.25,0.59-0.88"/>
		<path vector-effect="non-scaling-stroke" class="st8" d="M331.96,298.77c-2.14-1.58-4.48-3.79-7.01-6.62
			c-3.72-4.15-7.98-8.01-12.78-11.59c-3.86-2.88-7.72-5.24-11.59-7.09c-14.22-6.79-29.34-8.4-45.35-4.83"/>
		<path vector-effect="non-scaling-stroke" class="st7" d="M255.22,268.64c-9.6,2.11-18.28,6.17-26.04,12.19
			c-5.76,4.47-11.23,9.66-16.42,15.58c-5.41,6.17-9.68,12.86-12.8,20.05c-4.17,9.61-6.73,19.63-7.67,30.09"/>
		<path vector-effect="non-scaling-stroke" class="st10" d="M350.82,277.69c0.81-1.66,0.21-1.78-1.82-0.38
			c-0.28,0.2-0.41,0.54-0.33,0.87c0.27,1.11,0.76,1.27,1.49,0.49C350.4,278.41,350.62,278.09,350.82,277.69"/>
		<path vector-effect="non-scaling-stroke" class="st10" d="M196.13,414.9c0.14,0.07,0.48-0.28,0.76-0.79
			c0.29-0.51,0.41-0.99,0.27-1.06c-0.14-0.07-0.48,0.28-0.76,0.79C196.11,414.34,195.99,414.82,196.13,414.9"/>
		<path vector-effect="non-scaling-stroke" class="st10" d="M473.84,416.74c-0.16,0.24-0.13,0.28,0.1,0.11
			c1.17-0.86,2.01-2.02,2.52-3.49c0.07-0.2,0.05-0.3-0.06-0.31c-0.07-0.01-0.17,0.07-0.26,0.2L473.84,416.74"/>
		<path vector-effect="non-scaling-stroke" class="st11" d="M466.65,425.89c-0.67,0.33-1.12,0.86-1.34,1.6
			c-0.16,0.53-0.05,0.59,0.33,0.19l2.8-2.95c0.18-0.19,0.15-0.23-0.08-0.13c-0.46,0.2-0.86,0.5-1.18,0.88
			C467.03,425.65,466.86,425.79,466.65,425.89"/>
		<path vector-effect="non-scaling-stroke" class="st11" d="M463.94,428.9c-0.34,0.85-0.66,1.7-0.96,2.54
			c-0.26,0.73-0.69,1.51-1.31,2.33c-0.93,1.24-1.62,2.62-2.06,4.12c-0.06,0.21,0.03,0.43,0.2,0.48c0.24,0.07,0.47,0,0.71-0.19
			c0.8-0.65,1.22-1.47,1.25-2.48c0.01-0.22,0.1-0.44,0.24-0.59c1.5-1.61,2.19-3.67,2.08-6.19
			C464.08,428.67,464.03,428.67,463.94,428.9"/>
		<path vector-effect="non-scaling-stroke" class="st11" d="M426.6,473.68c-0.14-0.17-0.38-0.2-0.56-0.06l-14.89,12.19
			c-0.17,0.14-0.19,0.39-0.06,0.56l0.01,0.01c0.14,0.17,0.38,0.2,0.56,0.06l14.89-12.19c0.17-0.14,0.19-0.39,0.06-0.56L426.6,473.68
			"/>
		<path vector-effect="non-scaling-stroke" class="st12" d="M440,299.04c-3.63-4-7.57-7.33-11.82-9.99c-3-1.88-5.92-3.44-8.76-4.68
			c-3.07-1.34-6.26-2.3-9.57-2.87c-2.57-0.44-4.84-0.52-6.81-0.23c-2.3,0.34-4.49,1.08-6.58,2.2c-1.96,1.05-3.58,2.67-4.84,4.85
			c-2.93,5.02-3.44,10.2-1.55,15.54c0.63,1.79,1.43,3.5,2.39,5.13c3.15,5.38,6.89,10.31,11.24,14.78
			c5.58,5.75,11.51,11.1,17.8,16.05c2.94,2.32,6.21,3.74,9.8,4.27c2.14,0.31,4.25,0.08,6.35-0.69c3.09-1.14,5.76-2.87,8.03-5.17
			c2.16-2.2,3.74-4.86,4.74-7.97c1.88-5.88,1.44-11.82-1.33-17.82C446.93,307.8,443.9,303.33,440,299.04"/>
		<path vector-effect="non-scaling-stroke" class="st12" d="M273.52,286.25c-2.37-1.79-4.89-2.73-7.56-2.81
			c-4.44-0.14-8.67,1.09-12.67,3.67c-2.33,1.5-4.16,3.48-5.48,5.93c-1.35,2.5-1.46,5.06-0.33,7.69c2.26,5.27,6.16,8.66,11.7,10.17
			c2.3,0.63,4.57,0.55,6.82-0.23c2.21-0.77,4.27-1.83,6.18-3.18c3.5-2.47,5.56-5.84,6.2-10.12
			C279.05,292.91,277.43,289.2,273.52,286.25"/>
		<path vector-effect="non-scaling-stroke" class="st13" d="M353.05,377.52c4.25,6.27,10.2,9.11,17.86,8.5"/>
		<path vector-effect="non-scaling-stroke" class="st8" d="M370.91,386.03c3-0.27,5.77-1.2,8.31-2.78c4.26-2.66,7.2-6.15,8.81-10.45
			c1.63-4.35,1.69-8.63,0.19-12.82c-1.83-5.13-5.74-8.6-11.74-10.42c-2.52-0.76-5.68-1.03-9.49-0.8c-4.19,0.25-7.76,1.44-10.7,3.57
			c-2.93,2.1-5.01,5-6.25,8.69c-1.89,5.62-0.89,11.12,3,16.52"/>
		<path vector-effect="non-scaling-stroke" class="st14" d="M370.91,386.03c-0.69,0-0.86-0.14-0.52-0.42
			c0.1-0.08,0.23-0.13,0.39-0.16c7.86-1.39,13.36-5.74,16.48-13.05c1.29-3.01,1.45-6.25,0.48-9.71c-2.34-8.35-7.84-12.71-16.5-13.1
			c-3.27-0.15-6.29,0.15-9.06,0.88c-2.63,0.69-4.79,1.81-6.48,3.35c-1.76,1.61-3.22,3.65-4.35,6.14c-2.29,4.99-2.13,9.71,0.47,14.16
			c0.7,1.2,1.11,2.33,1.23,3.39"/>
		<path vector-effect="non-scaling-stroke" class="st13" d="M276.34,378.2c4.58,6.3,10.83,8.84,18.74,7.63"/>
		<path vector-effect="non-scaling-stroke" class="st15" d="M295.07,385.83c3.56-0.63,6.63-2.19,9.23-4.68
			c2.78-2.68,4.86-5.82,6.22-9.44c1.46-3.88,1.32-7.94-0.41-12.19c-2.12-5.2-5.9-8.5-11.33-9.89c-5.22-1.33-10.15-1.34-14.79-0.03
			c-4.18,1.18-7.29,3.57-9.31,7.18c-4.21,7.5-3.66,14.64,1.66,21.42"/>
		<path vector-effect="non-scaling-stroke" class="st16" d="M295.07,385.83c0.23-0.71,0.72-1.12,1.46-1.25
			c1.4-0.24,2.68-0.76,3.84-1.55c2.66-1.83,4.93-4.05,6.8-6.68c3.81-5.34,4.37-11.05,1.67-17.13c-2.3-5.2-6.06-8.22-11.28-9.06
			c-5.62-0.9-10.54-0.63-14.76,0.81c-2.56,0.88-4.59,2.31-6.08,4.29c-3.02,4.01-4.33,8.54-3.95,13.6c0.07,0.92,0.28,1.89,0.61,2.92
			c0.47,1.43,0.85,2.36,1.12,2.79c1.07,1.62,1.68,2.83,1.83,3.64"/>
		<path vector-effect="non-scaling-stroke" class="st4" d="M343.89,406.54c-0.29,0.01-0.52-0.22-0.54-0.5l-0.56-13.64
			c-0.02-0.45-0.32-0.83-0.74-0.95c-2.86-0.75-5.46-0.93-7.78-0.54c-1.66,0.28-2.54,1.08-2.65,2.39c-0.35,4.02-0.46,8.27-0.32,12.76
			c0.01,0.19-0.15,0.35-0.34,0.34c-4.61-0.07-9.04-0.02-13.29,0.16c-1.1,0.05-2.04,0.32-2.82,0.82c-0.72,0.46-1.2,1.22-1.45,2.29
			c-0.51,2.22-0.39,4.49,0.37,6.8c0.31,0.94,0.96,1.44,1.95,1.5c6.43,0.38,12.91,0.47,19.44,0.28c4.77-0.14,9.21-0.17,13.31-0.07
			c5.42,0.12,10.84,0.09,16.26-0.08c0.22-0.01,0.41-0.12,0.54-0.29c1.2-1.77,1.86-3.69,1.96-5.76c0.08-1.54-0.32-2.82-1.18-3.82
			c-1.03-1.21-2.37-1.81-4-1.82C356.01,406.38,349.95,406.42,343.89,406.54"/>
		<path vector-effect="non-scaling-stroke" class="st17" d="M438.12,297.87c-6.39-6.51-13.9-11.22-22.55-14.14
			c-4.66-1.57-9.06-2.06-13.2-1.48c-4.59,0.65-7.98,2.76-10.16,6.33c-1.62,2.66-2.46,5.59-2.5,8.79c-0.04,2.65,0.64,5.52,2.04,8.59
			c1.61,3.53,3.71,6.87,6.33,10.01c6.17,7.42,12.65,14.09,19.45,20.02c2.15,1.87,4.46,3.52,6.93,4.94c2.32,1.34,4.76,2.11,7.31,2.31
			c2.44,0.2,4.88-0.26,7.31-1.37c5.07-2.32,8.5-6.33,10.27-12.04c1.52-4.86,1.51-9.55-0.04-14.08
			C447.05,309.12,443.32,303.16,438.12,297.87"/>
		<path vector-effect="non-scaling-stroke" class="st17" d="M273.13,286.99c-2.56-1.93-5.4-2.83-8.53-2.71
			c-6.51,0.26-11.72,2.99-15.64,8.18c-1.55,2.05-2.06,4.09-1.54,6.11c1.43,5.5,4.68,9.13,9.73,10.91c2.83,0.99,5.66,1.1,8.49,0.33
			c2.86-0.79,5.43-2.24,7.72-4.35c2.36-2.19,3.75-4.83,4.17-7.91C278.12,293.17,276.65,289.65,273.13,286.99"/>
		<path vector-effect="non-scaling-stroke" class="st16" d="M363.04,363.68c-2.19,3.94-1.32,6.73,2.59,8.38
			c3.96,1.66,8.21,1.84,12.76,0.54c0.95-0.27,1.69-0.63,2.22-1.08c0.75-0.63,1.2-1.36,1.35-2.18c0.48-2.58-0.07-4.7-1.65-6.36
			c-1.23-1.3-3.04-2.08-5.42-2.35c-3.02-0.34-6.01-0.01-8.97,0.98C364.5,362.07,363.55,362.76,363.04,363.68"/>
		<path vector-effect="non-scaling-stroke" class="st16" d="M299.48,361.39c-3.3-1.12-6.64-1.25-10.04-0.39
			c-3.76,0.95-5.39,3.26-4.91,6.95c0.14,1.08,0.49,1.98,1.03,2.68c0.65,0.84,1.48,1.41,2.48,1.72c0.43,0.13,1.79,0.27,4.1,0.43
			c1.54,0.1,3.08,0.16,4.63,0.16c2.18,0,3.52-0.08,4.04-0.25c1.39-0.45,2.36-1.57,2.93-3.35c0.66-2.09,0.55-3.84-0.33-5.27
			C302.71,362.94,301.4,362.05,299.48,361.39"/>
		<path vector-effect="non-scaling-stroke" class="st18" d="M302.86,366.23c0.04-2.1-1.63-3.83-3.72-3.87l-9.46-0.18
			c-2.1-0.04-3.83,1.63-3.87,3.72l-0.04,1.85c-0.04,2.1,1.63,3.83,3.72,3.87l9.46,0.18c2.1,0.04,3.83-1.63,3.87-3.72L302.86,366.23"
			/>
		<path vector-effect="non-scaling-stroke" class="st18" d="M363.22,366.26c-0.62,2.39,0.42,4.03,3.14,4.91
			c2.87,0.93,6.2,1.18,10,0.76c3.73-0.4,5.1-2.47,4.12-6.2c-0.45-1.71-1.37-2.77-2.76-3.19c-2.21-0.66-4.71-0.79-7.49-0.37
			c-0.09,0.01-0.88,0.07-2.39,0.18c-0.98,0.08-1.85,0.38-2.61,0.9C364.23,363.91,363.56,364.92,363.22,366.26"/>
	</g>
	<path class="st19" d="M291.37,521.97c-10.42-8.26-17.29-13.8-20.61-16.61c-22.01-18.61-42.2-38.62-60.55-60.04
		c-6.64-7.76-12.54-16.32-17.69-25.68c-5.89-10.72-10.25-21-13.1-30.85c-3.44-11.92-4.87-24.03-4.3-36.32
		c0.2-4.26,0.73-8.77,1.6-13.5c1.39-7.56,3.31-14.89,5.76-21.98c1.73-5.01,3.9-9.89,6.49-14.63c2.15-3.94,4.52-7.81,7.11-11.6
		c6.95-10.19,15.51-18.79,25.66-25.79c3.88-2.67,7.8-4.94,11.77-6.8c12.74-5.99,26.56-8.73,41.45-8.23
		c11.48,0.39,21.99,2.92,31.51,7.6c10.06,4.94,19.05,11.23,26.98,18.85c0.22,0.21,0.57,0.21,0.79-0.01
		c5.91-5.92,12.37-10.95,19.38-15.09c8.63-5.1,17.9-8.5,27.8-10.21c10.83-1.87,21.63-2.02,32.39-0.44
		c4.56,0.67,8.97,1.69,13.23,3.05c11.02,3.53,20.75,8.87,29.18,16.02c14.82,12.57,25.63,28.15,32.41,46.74
		c1.52,4.16,2.81,8.51,3.88,13.04c6.63,28.06,3.6,55.05-9.08,80.98c-5.76,11.78-13.22,23.09-22.37,33.93
		c-8.69,10.3-17.13,19.4-25.32,27.32c-2.04,1.96-5.34,5.07-9.91,9.32c-8.72,8.1-17.64,15.96-26.78,23.58
		c-2.72,2.27-6.26,5.11-10.62,8.52c-11.22,8.78-22.37,17.71-33.45,26.79c-0.3,0.24-0.44,0.64-0.36,1.03
		c0.81,3.97,0.88,8.06,0.21,12.29c-0.96,5.99-3.79,10.62-8.48,13.89c-3.36,2.34-7.32,3.54-11.87,3.61
		c-6.76,0.1-12.13-2.3-16.12-7.18c-2.32-2.85-3.85-6.21-4.57-10.08c-0.36-1.94-0.59-4.04-0.69-6.31c-0.09-2.1,0.01-4.21,0.31-6.35
		c0.08-0.61-0.16-1.21-0.64-1.59c-3.68-2.85-7.3-5.74-10.87-8.66C297.11,526.59,293.59,523.73,291.37,521.97z M459.54,274.41
		c-8-7.42-16.98-13.17-26.96-17.23c-4.13-1.68-8.46-3-12.99-3.97c-10.46-2.24-21.08-2.74-31.85-1.51
		c-6.07,0.69-10.56,1.45-13.46,2.27c-15.32,4.3-28.7,12.12-40.15,23.47c-0.23,0.23-0.6,0.24-0.84,0.02
		c-6.97-6.25-14.31-11.63-22.02-16.14c-4.27-2.49-8.37-4.42-12.29-5.79c-7.21-2.52-14.65-3.9-22.3-4.15c-4.18-0.14-8.71,0-13.6,0.41
		c-21.39,1.77-39.72,10.43-55,25.98c-6.6,6.72-12.04,13.92-16.31,21.61c-7.94,14.28-12.93,29.77-14.97,46.47
		c-0.54,4.46-0.64,9.4-0.3,14.8c0.49,7.68,0.89,12.44,1.19,14.29c0.81,4.87,1.83,9.41,3.06,13.61c5.88,20.01,15.5,38.11,28.87,54.3
		c20.08,24.32,43.39,47.16,69.93,68.52c5.61,4.51,8.75,7.04,9.43,7.59c4.16,3.37,7.33,5.87,9.51,7.49
		c4.08,3.04,7.58,5.92,10.48,8.65c0.74,0.7,1.52,1.32,2.33,1.88c0.76,0.52,1.59,1.09,2.48,1.72c0.7,0.5,0.97,1.17,0.8,2.01
		c-1.56,7.9-0.16,15.05,4.18,21.46c1.07,1.59,2.21,2.81,3.39,3.67c1.34,0.96,2.86,1.72,4.56,2.27c8.23,2.67,15.53,1.26,21.9-4.21
		c1.89-1.62,3.24-3.72,4.03-6.29c0.59-1.89,1-4.28,1.23-7.19c0.27-3.31,0.01-6.66-0.78-10.04c-0.06-0.27,0.03-0.54,0.25-0.71
		c4.14-3.31,8.27-6.57,12.4-9.8c10.56-8.23,21.02-16.59,31.39-25.06c3.74-3.05,7.19-5.99,10.35-8.82
		c5.93-5.3,13.42-12.13,22.46-20.5c13.09-12.11,24.86-24.75,35.32-37.9c2.5-3.15,4.69-6.19,6.57-9.14c1.69-2.65,3.66-5.85,5.91-9.6
		c11.84-19.78,17.39-41.05,16.63-63.82c-0.17-5.19-0.53-9.81-1.06-13.87c-0.57-4.34-1.38-8.8-2.43-13.39
		c-1.75-7.62-4.44-14.9-8.06-21.81c-2.02-3.87-4.3-7.79-6.82-11.77C471.4,286.92,465.9,280.32,459.54,274.41z"/>
	<path class="st20" d="M459.54,274.41c6.37,5.91,11.86,12.51,16.48,19.79c2.52,3.98,4.79,7.9,6.82,11.77
		c3.62,6.92,6.31,14.19,8.06,21.81c1.05,4.59,1.86,9.05,2.43,13.39c0.54,4.06,0.89,8.68,1.06,13.87
		c0.76,22.77-4.79,44.05-16.63,63.82c-2.25,3.75-4.21,6.95-5.91,9.6c-1.88,2.94-4.07,5.99-6.57,9.14
		c-10.45,13.15-22.23,25.79-35.32,37.9c-9.04,8.37-16.53,15.2-22.46,20.5c-3.16,2.83-6.61,5.76-10.35,8.82
		c-10.37,8.48-20.83,16.83-31.39,25.06c-4.13,3.22-8.27,6.49-12.4,9.8c-0.22,0.17-0.31,0.45-0.25,0.71
		c0.78,3.38,1.04,6.72,0.78,10.04c-0.24,2.91-0.65,5.3-1.23,7.19c-0.8,2.57-2.14,4.66-4.03,6.29c-6.37,5.47-13.67,6.88-21.9,4.21
		c-1.7-0.55-3.22-1.31-4.56-2.27c-1.19-0.86-2.32-2.09-3.39-3.67c-4.35-6.41-5.74-13.56-4.18-21.46c0.16-0.84-0.1-1.51-0.8-2.01
		c-0.89-0.63-1.71-1.2-2.48-1.72c-0.82-0.55-1.59-1.18-2.33-1.88c-2.91-2.73-6.4-5.62-10.48-8.65c-2.18-1.62-5.35-4.12-9.51-7.49
		c-0.68-0.55-3.82-3.08-9.43-7.59c-26.54-21.36-49.85-44.2-69.93-68.52c-13.37-16.19-23-34.29-28.87-54.3
		c-1.23-4.2-2.25-8.74-3.06-13.61c-0.3-1.85-0.7-6.61-1.19-14.29c-0.34-5.41-0.24-10.34,0.3-14.8c2.04-16.7,7.03-32.19,14.97-46.47
		c4.27-7.68,9.71-14.89,16.31-21.61c15.28-15.55,33.61-24.21,55-25.98c4.89-0.41,9.42-0.54,13.6-0.41
		c7.66,0.25,15.09,1.63,22.3,4.15c3.92,1.37,8.01,3.3,12.29,5.79c7.71,4.5,15.05,9.88,22.02,16.14c0.24,0.22,0.61,0.21,0.84-0.02
		c11.44-11.35,24.83-19.18,40.15-23.47c2.9-0.82,7.39-1.57,13.46-2.27c10.77-1.23,21.38-0.73,31.85,1.51
		c4.54,0.97,8.87,2.29,12.99,3.97C442.55,261.24,451.54,266.98,459.54,274.41z M335.02,299.11c-1.1,0.5-2.12,0.39-3.06-0.34
		c0.25-0.29,0.21-0.54-0.13-0.75c-1.07-0.68-2.3-1.78-3.69-3.29c-3.15-3.42-6.43-6.72-9.82-9.9c-2.83-2.65-5.61-4.91-8.33-6.77
		c-2.66-1.83-5.72-3.65-9.2-5.46c-11.97-6.24-25.05-8.36-39.24-6.35c-6.5,0.92-12.48,2.56-17.94,4.93
		c-3.56,1.55-7.13,3.37-10.74,5.46c-3.54,2.06-6.81,4.42-9.8,7.08c-5.94,5.27-11.2,11.29-15.77,18.06
		c-0.67,0.98-1.37,2.19-2.11,3.63c-0.64,1.24-1.3,2.47-1.98,3.69c-3.35,6.04-6.15,12.32-8.42,18.84c-0.19,0.54-0.38,1.29-0.57,2.25
		c-0.15,0.77-0.36,1.52-0.61,2.25c-0.42,1.23-0.68,2.34-0.78,3.35c-0.19,1.97-0.5,3.92-0.95,5.84c-0.35,1.52-0.37,3.03-0.03,4.54
		c0.05,0.25,0.2,0.37,0.45,0.35c-0.09,3.06-0.14,6.13-0.15,9.19c-0.02,4.99-0.02,8.05,0.01,9.17c0.32,12.16,3.09,23.67,8.33,34.53
		c1.47,3.03,3.55,7.06,6.25,12.08c4,7.43,8.73,14.41,14.16,20.91c9.41,11.26,19.34,22.03,29.79,32.33
		c-0.03,0.11-0.04,0.21-0.03,0.31c0.01,0.09,0.06,0.17,0.15,0.27c2.86,3.1,5.89,6.02,9.09,8.77c1.32,1.13,2.71,2.43,4.17,3.91
		c1.35,1.36,2.75,2.66,4.2,3.91c3.69,3.16,5.86,5.02,6.5,5.6c2.44,2.18,5.21,4.53,8.33,7.04c1.83,1.47,3.84,3.24,6.03,5.3
		c2.31,2.17,4.31,3.94,5.99,5.32c5.89,4.82,11.8,9.62,17.74,14.38c1.47,1.18,2.68,1.91,3.64,2.17c3.34,2.7,6.53,5.57,9.57,8.61
		c2.1,2.1,3.32,4.44,3.67,7.04c0.53,3.9,1.31,7.65,2.34,11.24c0.27,0.93,0.85,1.44,1.74,1.53l3.74,0.35c0.38,0.44,0.71,0.5,1,0.19
		c0.15-0.15,0.24-0.41,0.28-0.76c0.2-1.91,0.43-3.83,0.67-5.74c0-0.02,0.12-1.4,0.33-4.14c0.4-4.98,2.49-8.98,6.27-11.99
		c8.21-6.54,15.3-12.38,21.26-17.52c2.66-2.29,5.12-4.34,7.37-6.14c3.1-2.49,5.55-4.54,7.36-6.14c7.41-6.56,14.86-13.07,22.36-19.52
		c2.49-2.14,7.42-6.62,14.78-13.44c8.6-7.96,16.43-15.94,23.47-23.93c4.29-4.87,7.27-8.29,8.93-10.26
		c5.37-6.35,9.62-12.45,12.76-18.28c2.83-5.26,5.48-10.61,7.94-16.06c4.83-10.66,7.47-21.85,7.92-33.57
		c0.04-0.92-0.01-1.95-0.14-3.08c-0.13-1.15-0.18-2.17-0.17-3.05c0.14-8.25-0.68-15.71-2.46-22.4c-1.31-4.92-3.23-10.46-5.75-16.62
		c-1.97-4.82-3.96-8.89-5.95-12.21c-5.11-8.49-11.61-16.08-19.51-22.79c-10.45-8.88-22.17-14.59-35.15-17.14
		c-4.42-0.87-8.93-1.21-13.53-1.03c-6.42,0.25-12.76,1.24-19.01,2.96c-6.71,1.85-12.81,4.71-18.29,8.58
		c-8.17,5.77-15.82,12.46-22.95,20.08c-0.49,0.53-1.29,1.2-2.39,2.03C334.71,298.74,334.72,298.93,335.02,299.11z M350.82,277.69
		c0.81-1.66,0.21-1.78-1.82-0.38c-0.28,0.2-0.41,0.54-0.33,0.87c0.27,1.11,0.76,1.27,1.49,0.49
		C350.4,278.41,350.62,278.09,350.82,277.69z M196.13,414.9c0.14,0.07,0.48-0.28,0.76-0.79c0.29-0.51,0.41-0.99,0.27-1.06
		c-0.14-0.07-0.48,0.28-0.76,0.79C196.11,414.34,195.99,414.82,196.13,414.9z M473.84,416.74c-0.16,0.24-0.13,0.28,0.1,0.11
		c1.17-0.86,2.01-2.02,2.52-3.49c0.07-0.2,0.05-0.3-0.06-0.31c-0.07-0.01-0.17,0.07-0.26,0.2L473.84,416.74z M466.65,425.89
		c-0.67,0.33-1.12,0.86-1.34,1.6c-0.16,0.53-0.05,0.59,0.33,0.19l2.8-2.95c0.18-0.19,0.15-0.23-0.08-0.13
		c-0.46,0.2-0.86,0.5-1.18,0.88C467.03,425.65,466.86,425.79,466.65,425.89z M463.94,428.9c-0.34,0.85-0.66,1.7-0.96,2.54
		c-0.26,0.73-0.69,1.51-1.31,2.33c-0.93,1.24-1.62,2.62-2.06,4.12c-0.06,0.21,0.03,0.43,0.2,0.48c0.24,0.07,0.47,0,0.71-0.19
		c0.8-0.65,1.22-1.47,1.25-2.48c0.01-0.22,0.1-0.44,0.24-0.59c1.5-1.61,2.19-3.67,2.08-6.19
		C464.08,428.67,464.03,428.67,463.94,428.9z M426.6,473.68c-0.14-0.17-0.38-0.2-0.56-0.06l-14.89,12.19
		c-0.17,0.14-0.19,0.39-0.06,0.56l0.01,0.01c0.14,0.17,0.38,0.2,0.56,0.06l14.89-12.19c0.17-0.14,0.19-0.39,0.06-0.56L426.6,473.68z
		"/>
	<path class="st21" d="M337.57,550.5c0.52-0.03,0.81-0.32,0.86-0.88c0.35-3.68,0.65-7.36,0.91-11.05c0.15-2.22,0.82-4.2,2.01-5.92
		c1-1.46,2.16-2.86,3.48-4.22c0.89-0.92,2.25-2.12,4.09-3.61c17.68-14.32,35.1-28.96,52.24-43.94c8.55-7.47,16.9-15.17,25.04-23.09
		c10.97-10.67,21.07-22.12,30.3-34.33c6-7.94,10.63-16.17,13.88-24.7c4.45-8.73,7.17-17.36,8.15-25.89
		c0.78-6.74,0.88-14.11,0.32-22.1c-0.35-4.98-0.97-9.47-1.85-13.47c-1.33-6.01-3.29-12.18-5.87-18.52
		c-7.08-17.39-18.1-31.08-33.07-41.08c-3.96-2.64-7.94-4.79-11.96-6.43c-9.61-3.92-19.62-5.63-30.04-5.13
		c-4.82,0.24-9.31,0.81-13.49,1.71c-5.95,1.3-11.61,3.46-17,6.48c-6.49,3.64-12.41,8.04-17.78,13.19c-3.32,3.2-6.6,6.44-9.83,9.73
		c-0.74,0.76-1.72,1.38-2.93,1.86c-0.3-0.18-0.31-0.37-0.04-0.58c1.11-0.83,1.9-1.51,2.39-2.03c7.13-7.62,14.77-14.31,22.95-20.08
		c5.48-3.87,11.58-6.73,18.29-8.58c6.25-1.72,12.59-2.71,19.01-2.96c4.59-0.18,9.1,0.17,13.53,1.03
		c12.98,2.54,24.7,8.26,35.15,17.14c7.9,6.71,14.41,14.31,19.51,22.79c2,3.32,3.98,7.38,5.95,12.21c2.52,6.16,4.44,11.7,5.75,16.62
		c1.78,6.69,2.6,14.16,2.46,22.4c-0.01,0.88,0.04,1.9,0.17,3.05c0.13,1.13,0.17,2.15,0.14,3.08c-0.45,11.72-3.09,22.91-7.92,33.57
		c-2.46,5.44-5.11,10.79-7.94,16.06c-3.14,5.83-7.39,11.93-12.76,18.28c-1.66,1.97-4.64,5.39-8.93,10.26
		c-7.04,7.99-14.86,15.97-23.47,23.93c-7.36,6.82-12.29,11.3-14.78,13.44c-7.5,6.45-14.96,12.96-22.36,19.52
		c-1.81,1.61-4.26,3.65-7.36,6.14c-2.25,1.81-4.71,3.85-7.37,6.14c-5.96,5.13-13.05,10.97-21.26,17.52
		c-3.77,3.01-5.86,7.01-6.27,11.99c-0.22,2.73-0.33,4.11-0.33,4.14c-0.24,1.91-0.46,3.82-0.67,5.74c-0.04,0.35-0.13,0.61-0.28,0.76
		C338.28,551,337.95,550.94,337.57,550.5z"/>
	<path class="st21" d="M331.96,298.77c-2.14-1.58-4.48-3.79-7.01-6.62c-3.72-4.15-7.98-8.01-12.78-11.59
		c-3.86-2.88-7.72-5.24-11.59-7.09c-14.22-6.79-29.34-8.4-45.35-4.83c-9.6,2.11-18.28,6.17-26.04,12.19
		c-5.76,4.47-11.23,9.66-16.42,15.58c-5.41,6.17-9.68,12.86-12.8,20.05c-4.17,9.61-6.73,19.63-7.67,30.09
		c-0.24,0.02-0.39-0.09-0.45-0.35c-0.33-1.51-0.32-3.02,0.03-4.54c0.45-1.93,0.77-3.88,0.95-5.84c0.1-1,0.35-2.12,0.78-3.35
		c0.25-0.73,0.45-1.49,0.61-2.25c0.2-0.97,0.39-1.72,0.57-2.25c2.27-6.52,5.08-12.8,8.42-18.84c0.68-1.22,1.34-2.45,1.98-3.69
		c0.74-1.43,1.44-2.64,2.11-3.63c4.57-6.78,9.83-12.8,15.77-18.06c2.99-2.66,6.26-5.02,9.8-7.08c3.6-2.1,7.18-3.92,10.74-5.46
		c5.47-2.37,11.45-4.02,17.94-4.93c14.19-2,27.27,0.11,39.24,6.35c3.47,1.81,6.54,3.63,9.2,5.46c2.72,1.86,5.49,4.12,8.33,6.77
		c3.4,3.17,6.67,6.47,9.82,9.9c1.39,1.51,2.62,2.61,3.69,3.29C332.16,298.23,332.21,298.48,331.96,298.77z"/>
	<path class="st22" d="M470.38,398.76c-0.23,0.22-0.49,0.34-0.79,0.38c-0.23,0.03-0.42,0.13-0.54,0.28c-1.16,1.51-2.4,2.77-3.71,3.8
		c-8.11,6.37-17.06,11.56-26.83,15.59c-12,4.94-24.4,8.23-37.21,9.86c-2.38,0.3-6.89,0.78-13.53,1.43
		c-10.15,0.99-20.09,1.55-29.81,1.66c-13.52,0.16-27.86-0.04-43.03-0.59c-4.66-0.17-10.45-0.6-17.35-1.29
		c-9.04-0.9-17.61-2.49-25.68-4.76c-7.85-2.2-15.46-5.77-22.85-10.7c-3.92-2.62-7.45-5.45-10.59-8.5
		c-12.85-12.49-20.03-28.03-21.54-46.62c-1.1-13.48,1-26.14,6.29-37.97c2.74-6.15,6.72-11.67,11.91-16.55
		c2.3-2.16,3.63-3.42,3.97-3.76c1.28-1.28,2.57-2.57,3.85-3.85c0.94-0.94,1.36-2,1.27-3.19c-0.02-0.24,0.05-0.46,0.18-0.61
		l2.54-2.69c0.13-0.14,0.12-0.16-0.05-0.06c-6.91,4.02-13.44,8.58-19.59,13.7c-1.54,1.27-3.23,2.27-5.08,2.97
		c-0.22,0.08-0.45,0.1-0.66,0.04c-2.43-0.62-4.1-1.98-5-4.08c-0.56-1.29-0.59-2.72-0.1-4.31c0.62-2.01,1.59-3.81,2.92-5.42
		c0.23-0.28,1.66-1.7,4.31-4.27c2.25-2.19,4.52-4.37,6.78-6.54c0.44-0.43,0.93-0.76,1.46-1c0.54-0.25,1.09-0.49,1.65-0.71
		c0.73-0.3,1.46-0.78,2.18-1.45c1.07-0.99,2.18-1.64,3.31-1.93c1.3-0.33,2.45-0.95,3.46-1.84c0.36-0.32,0.81-0.63,1.36-0.92
		l4.07-2.16c0.2-0.1,0.42-0.14,0.63-0.12c1.33,0.13,2.79-0.68,4.37-2.43c0.42-0.46,1.02-0.7,1.64-0.66
		c0.62,0.05,0.81-0.25,0.59-0.88c16.02-3.57,31.13-1.95,45.35,4.83c3.87,1.85,7.73,4.21,11.59,7.09c4.8,3.58,9.06,7.44,12.78,11.59
		c2.54,2.83,4.87,5.04,7.01,6.62c0.94,0.73,1.96,0.84,3.06,0.34c1.21-0.48,2.19-1.1,2.93-1.86c3.23-3.29,6.51-6.53,9.83-9.73
		c5.37-5.15,11.3-9.55,17.78-13.19c5.38-3.03,11.05-5.19,17-6.48c4.18-0.91,8.67-1.48,13.49-1.71c10.42-0.5,20.44,1.21,30.04,5.13
		c4.02,1.64,8.01,3.79,11.96,6.43c14.97,10,25.99,23.69,33.07,41.08c2.59,6.34,4.54,12.51,5.87,18.52c0.88,4,1.5,8.49,1.85,13.47
		c0.56,7.99,0.46,15.35-0.32,22.1C477.55,381.4,474.83,390.03,470.38,398.76z M440,299.04c-3.63-4-7.57-7.33-11.82-9.99
		c-3-1.88-5.92-3.44-8.76-4.68c-3.07-1.34-6.26-2.3-9.57-2.87c-2.57-0.44-4.84-0.52-6.81-0.23c-2.3,0.34-4.49,1.08-6.58,2.2
		c-1.96,1.05-3.58,2.67-4.84,4.85c-2.93,5.02-3.44,10.2-1.55,15.54c0.63,1.79,1.43,3.5,2.39,5.13c3.15,5.38,6.89,10.31,11.24,14.78
		c5.58,5.75,11.51,11.1,17.8,16.05c2.94,2.32,6.21,3.74,9.8,4.27c2.14,0.31,4.25,0.08,6.35-0.69c3.09-1.14,5.76-2.87,8.03-5.17
		c2.16-2.2,3.74-4.86,4.74-7.97c1.88-5.88,1.44-11.82-1.33-17.82C446.93,307.8,443.9,303.33,440,299.04z M273.52,286.25
		c-2.37-1.79-4.89-2.73-7.56-2.81c-4.44-0.14-8.67,1.09-12.67,3.67c-2.33,1.5-4.16,3.48-5.48,5.93c-1.35,2.5-1.46,5.06-0.33,7.69
		c2.26,5.27,6.16,8.66,11.7,10.17c2.3,0.63,4.57,0.55,6.82-0.23c2.21-0.77,4.27-1.83,6.18-3.18c3.5-2.47,5.56-5.84,6.2-10.12
		C279.05,292.91,277.43,289.2,273.52,286.25z M353.05,377.52c4.25,6.27,10.2,9.11,17.86,8.5c3-0.27,5.77-1.2,8.31-2.78
		c4.26-2.66,7.2-6.15,8.81-10.45c1.63-4.35,1.69-8.63,0.19-12.82c-1.83-5.13-5.74-8.6-11.74-10.42c-2.52-0.76-5.68-1.03-9.49-0.8
		c-4.19,0.25-7.76,1.44-10.7,3.57c-2.93,2.1-5.01,5-6.25,8.69C348.16,366.62,349.16,372.12,353.05,377.52z M276.34,378.2
		c4.58,6.3,10.83,8.84,18.74,7.63c3.56-0.63,6.63-2.19,9.23-4.68c2.78-2.68,4.86-5.82,6.22-9.44c1.46-3.88,1.32-7.94-0.41-12.19
		c-2.12-5.2-5.9-8.5-11.33-9.89c-5.22-1.33-10.15-1.34-14.79-0.03c-4.18,1.18-7.29,3.57-9.31,7.18
		C270.46,364.28,271.02,371.42,276.34,378.2z M343.89,406.54c-0.29,0.01-0.52-0.22-0.54-0.5l-0.56-13.64
		c-0.02-0.45-0.32-0.83-0.74-0.95c-2.86-0.75-5.46-0.93-7.78-0.54c-1.66,0.28-2.54,1.08-2.65,2.39c-0.35,4.02-0.46,8.27-0.32,12.76
		c0.01,0.19-0.15,0.35-0.34,0.34c-4.61-0.07-9.04-0.02-13.29,0.16c-1.1,0.05-2.04,0.32-2.82,0.82c-0.72,0.46-1.2,1.22-1.45,2.29
		c-0.51,2.22-0.39,4.49,0.37,6.8c0.31,0.94,0.96,1.44,1.95,1.5c6.43,0.38,12.91,0.47,19.44,0.28c4.77-0.14,9.21-0.17,13.31-0.07
		c5.42,0.12,10.84,0.09,16.26-0.08c0.22-0.01,0.41-0.12,0.54-0.29c1.2-1.77,1.86-3.69,1.96-5.76c0.08-1.54-0.32-2.82-1.18-3.82
		c-1.03-1.21-2.37-1.81-4-1.82C356.01,406.38,349.95,406.42,343.89,406.54z"/>
	<path class="st23" d="M255.22,268.64c0.22,0.63,0.02,0.92-0.59,0.88c-0.62-0.04-1.22,0.2-1.64,0.66c-1.58,1.75-3.04,2.56-4.37,2.43
		c-0.22-0.02-0.44,0.02-0.63,0.12l-4.07,2.16c-0.55,0.29-1,0.6-1.36,0.92c-1.01,0.9-2.17,1.51-3.46,1.84
		c-1.13,0.29-2.24,0.93-3.31,1.93c-0.72,0.67-1.45,1.15-2.18,1.45c-0.55,0.22-1.1,0.46-1.65,0.71c-0.53,0.24-1.01,0.57-1.46,1
		c-2.27,2.17-4.53,4.35-6.78,6.54c-2.65,2.56-4.09,3.98-4.31,4.27c-1.33,1.6-2.3,3.41-2.92,5.42c-0.49,1.58-0.46,3.02,0.1,4.31
		c0.9,2.1,2.57,3.46,5,4.08c0.21,0.05,0.44,0.04,0.66-0.04c1.85-0.71,3.54-1.7,5.08-2.97c6.15-5.11,12.68-9.68,19.59-13.7
		c0.16-0.1,0.18-0.07,0.05,0.06l-2.54,2.69c-0.14,0.14-0.2,0.36-0.18,0.61c0.09,1.19-0.33,2.25-1.27,3.19
		c-1.28,1.28-2.57,2.57-3.85,3.85c-0.34,0.34-1.66,1.59-3.97,3.76c-5.2,4.88-9.17,10.4-11.91,16.55
		c-5.29,11.83-7.38,24.49-6.29,37.97c1.51,18.59,8.69,34.13,21.54,46.62c3.13,3.05,6.66,5.88,10.59,8.5c7.38,4.93,15,8.5,22.85,10.7
		c8.08,2.27,16.64,3.86,25.68,4.76c6.9,0.69,12.69,1.12,17.35,1.29c15.17,0.55,29.51,0.74,43.03,0.59
		c9.72-0.11,19.66-0.67,29.81-1.66c6.64-0.65,11.14-1.12,13.53-1.43c12.8-1.63,25.21-4.92,37.21-9.86
		c9.77-4.02,18.71-9.22,26.83-15.59c1.31-1.03,2.55-2.3,3.71-3.8c0.12-0.15,0.31-0.25,0.54-0.28c0.3-0.04,0.56-0.16,0.79-0.38
		c-3.25,8.53-7.88,16.77-13.88,24.7c-9.23,12.21-19.33,23.66-30.3,34.33c-8.14,7.92-16.49,15.62-25.04,23.09
		c-17.14,14.97-34.55,29.62-52.24,43.94c-1.84,1.49-3.2,2.69-4.09,3.61c-1.32,1.36-2.47,2.77-3.48,4.22
		c-1.18,1.72-1.85,3.7-2.01,5.92c-0.26,3.69-0.56,7.37-0.91,11.05c-0.05,0.56-0.34,0.85-0.86,0.88l-3.74-0.35
		c-0.89-0.09-1.47-0.6-1.74-1.53c-1.03-3.59-1.81-7.34-2.34-11.24c-0.35-2.6-1.58-4.95-3.67-7.04c-3.04-3.04-6.23-5.91-9.57-8.61
		c-2.51-2.17-7.49-6.21-14.95-12.12c-4.09-3.24-10.18-8.41-18.27-15.49c-0.94-0.83-4.37-3.8-10.29-8.92
		c-7.63-6.6-15.07-13.42-22.31-20.45c-10.45-10.3-20.37-21.07-29.79-32.33c-5.44-6.51-10.16-13.48-14.16-20.91
		c-2.7-5.02-4.79-9.04-6.25-12.08c-5.23-10.85-8.01-22.36-8.33-34.53c-0.03-1.12-0.04-4.18-0.01-9.17c0.01-3.07,0.06-6.13,0.15-9.19
		c0.94-10.45,3.5-20.48,7.67-30.09c3.13-7.19,7.39-13.88,12.8-20.05c5.19-5.92,10.66-11.11,16.42-15.58
		C236.94,274.81,245.62,270.75,255.22,268.64z"/>
	<path class="st24" d="M350.16,278.67c-0.73,0.78-1.22,0.62-1.49-0.49c-0.08-0.33,0.05-0.67,0.33-0.87c2.02-1.4,2.63-1.27,1.82,0.38
		C350.62,278.09,350.4,278.41,350.16,278.67z"/>
	<path class="st25" d="M440,299.04c3.9,4.29,6.92,8.76,9.07,13.41c2.77,6,3.22,11.94,1.33,17.82c-1,3.11-2.58,5.77-4.74,7.97
		c-2.26,2.3-4.94,4.03-8.03,5.17c-2.1,0.77-4.21,1-6.35,0.69c-3.59-0.52-6.85-1.94-9.8-4.27c-6.29-4.95-12.22-10.3-17.8-16.05
		c-4.35-4.47-8.09-9.4-11.24-14.78c-0.96-1.63-1.76-3.34-2.39-5.13c-1.89-5.34-1.37-10.52,1.55-15.54c1.27-2.18,2.88-3.8,4.84-4.85
		c2.09-1.12,4.28-1.86,6.58-2.2c1.97-0.29,4.24-0.21,6.81,0.23c3.32,0.57,6.51,1.53,9.57,2.87c2.83,1.24,5.75,2.8,8.76,4.68
		C432.43,291.72,436.37,295.05,440,299.04z M438.12,297.87c-6.39-6.51-13.9-11.22-22.55-14.14c-4.66-1.57-9.06-2.06-13.2-1.48
		c-4.59,0.65-7.98,2.76-10.16,6.33c-1.62,2.66-2.46,5.59-2.5,8.79c-0.04,2.65,0.64,5.52,2.04,8.59c1.61,3.53,3.71,6.87,6.33,10.01
		c6.17,7.42,12.65,14.09,19.45,20.02c2.15,1.87,4.46,3.52,6.93,4.94c2.32,1.34,4.76,2.11,7.31,2.31c2.44,0.2,4.88-0.26,7.31-1.37
		c5.07-2.32,8.5-6.33,10.27-12.04c1.52-4.86,1.51-9.55-0.04-14.08C447.05,309.12,443.32,303.16,438.12,297.87z"/>
	<path class="st26" d="M438.12,297.87c5.19,5.29,8.92,11.26,11.19,17.89c1.55,4.53,1.56,9.22,0.04,14.08
		c-1.78,5.7-5.2,9.71-10.27,12.04c-2.43,1.11-4.86,1.56-7.31,1.37c-2.55-0.2-4.99-0.97-7.31-2.31c-2.47-1.42-4.78-3.07-6.93-4.94
		c-6.8-5.93-13.28-12.61-19.45-20.02c-2.61-3.14-4.72-6.47-6.33-10.01c-1.4-3.07-2.08-5.93-2.04-8.59c0.04-3.2,0.87-6.13,2.5-8.79
		c2.18-3.57,5.57-5.69,10.16-6.33c4.14-0.59,8.54-0.09,13.2,1.48C424.22,286.64,431.74,291.36,438.12,297.87z"/>
	<path class="st25" d="M273.52,286.25c3.91,2.95,5.52,6.67,4.86,11.14c-0.63,4.28-2.7,7.65-6.2,10.12
		c-1.91,1.35-3.97,2.41-6.18,3.18c-2.25,0.78-4.52,0.86-6.82,0.23c-5.53-1.51-9.43-4.91-11.7-10.17c-1.13-2.63-1.02-5.2,0.33-7.69
		c1.32-2.45,3.15-4.43,5.48-5.93c4-2.59,8.23-3.81,12.67-3.67C268.63,283.52,271.15,284.45,273.52,286.25z M273.13,286.99
		c-2.56-1.93-5.4-2.83-8.53-2.71c-6.51,0.26-11.72,2.99-15.64,8.18c-1.55,2.05-2.06,4.09-1.54,6.11c1.43,5.5,4.68,9.13,9.73,10.91
		c2.83,0.99,5.66,1.1,8.49,0.33c2.86-0.79,5.43-2.24,7.72-4.35c2.36-2.19,3.75-4.83,4.17-7.91
		C278.12,293.17,276.65,289.65,273.13,286.99z"/>
	<path class="st26" d="M273.13,286.99c3.52,2.66,4.98,6.18,4.4,10.56c-0.42,3.08-1.81,5.71-4.17,7.91
		c-2.28,2.11-4.85,3.57-7.72,4.35c-2.83,0.78-5.66,0.67-8.49-0.33c-5.05-1.78-8.3-5.42-9.73-10.91c-0.53-2.02-0.01-4.05,1.54-6.11
		c3.92-5.19,9.13-7.91,15.64-8.18C267.73,284.16,270.58,285.06,273.13,286.99z"/>
	<path class="st21" d="M370.91,386.03c-0.69,0-0.86-0.14-0.52-0.42c0.1-0.08,0.23-0.13,0.39-0.16c7.86-1.39,13.36-5.74,16.48-13.05
		c1.29-3.01,1.45-6.25,0.48-9.71c-2.34-8.35-7.84-12.71-16.5-13.1c-3.27-0.15-6.29,0.15-9.06,0.88c-2.63,0.69-4.79,1.81-6.48,3.35
		c-1.76,1.61-3.22,3.65-4.35,6.14c-2.29,4.99-2.13,9.71,0.47,14.16c0.7,1.2,1.11,2.33,1.23,3.39c-3.89-5.4-4.89-10.9-3-16.52
		c1.24-3.69,3.32-6.58,6.25-8.69c2.94-2.13,6.51-3.32,10.7-3.57c3.81-0.23,6.97,0.04,9.49,0.8c5.99,1.81,9.9,5.29,11.74,10.42
		c1.5,4.2,1.44,8.47-0.19,12.82c-1.61,4.3-4.55,7.79-8.81,10.45C376.68,384.83,373.9,385.76,370.91,386.03z"/>
	<path class="st19" d="M295.07,385.83c0.23-0.71,0.72-1.12,1.46-1.25c1.4-0.24,2.68-0.76,3.84-1.55c2.66-1.83,4.93-4.05,6.8-6.68
		c3.81-5.34,4.37-11.05,1.67-17.13c-2.3-5.2-6.06-8.22-11.28-9.06c-5.62-0.9-10.54-0.63-14.76,0.81c-2.56,0.88-4.59,2.31-6.08,4.29
		c-3.02,4.01-4.33,8.54-3.95,13.6c0.07,0.92,0.28,1.89,0.61,2.92c0.47,1.43,0.85,2.36,1.12,2.79c1.07,1.62,1.68,2.83,1.83,3.64
		c-5.32-6.78-5.87-13.92-1.66-21.42c2.03-3.61,5.13-6.01,9.31-7.18c4.64-1.31,9.57-1.3,14.79,0.03c5.44,1.39,9.22,4.68,11.33,9.89
		c1.73,4.25,1.87,8.31,0.41,12.19c-1.36,3.61-3.43,6.76-6.22,9.44C301.71,383.64,298.63,385.2,295.07,385.83z"/>
	<path class="st27" d="M370.91,386.03c-7.66,0.6-13.61-2.23-17.86-8.5c-0.12-1.06-0.53-2.19-1.23-3.39
		c-2.6-4.45-2.76-9.17-0.47-14.16c1.14-2.49,2.59-4.54,4.35-6.14c1.69-1.54,3.85-2.66,6.48-3.35c2.77-0.73,5.79-1.02,9.06-0.88
		c8.66,0.39,14.16,4.75,16.5,13.1c0.97,3.46,0.81,6.7-0.48,9.71c-3.13,7.31-8.62,11.66-16.48,13.05c-0.16,0.03-0.29,0.08-0.39,0.16
		C370.04,385.88,370.22,386.02,370.91,386.03z M363.04,363.68c-2.19,3.94-1.32,6.73,2.59,8.38c3.96,1.66,8.21,1.84,12.76,0.54
		c0.95-0.27,1.69-0.63,2.22-1.08c0.75-0.63,1.2-1.36,1.35-2.18c0.48-2.58-0.07-4.7-1.65-6.36c-1.23-1.3-3.04-2.08-5.42-2.35
		c-3.02-0.34-6.01-0.01-8.97,0.98C364.5,362.07,363.55,362.76,363.04,363.68z"/>
	<path class="st27" d="M295.07,385.83c-7.91,1.22-14.16-1.33-18.74-7.63c-0.15-0.81-0.76-2.02-1.83-3.64
		c-0.28-0.43-0.65-1.36-1.12-2.79c-0.34-1.03-0.54-2-0.61-2.92c-0.39-5.06,0.93-9.6,3.95-13.6c1.5-1.99,3.52-3.42,6.08-4.29
		c4.22-1.44,9.14-1.71,14.76-0.81c5.22,0.84,8.98,3.86,11.28,9.06c2.69,6.08,2.14,11.79-1.67,17.13c-1.87,2.63-4.13,4.85-6.8,6.68
		c-1.16,0.79-2.44,1.31-3.84,1.55C295.79,384.7,295.31,385.12,295.07,385.83z M299.48,361.39c-3.3-1.12-6.64-1.25-10.04-0.39
		c-3.76,0.95-5.39,3.26-4.91,6.95c0.14,1.08,0.49,1.98,1.03,2.68c0.65,0.84,1.48,1.41,2.48,1.72c0.43,0.13,1.79,0.27,4.1,0.43
		c1.54,0.1,3.08,0.16,4.63,0.16c2.18,0,3.52-0.08,4.04-0.25c1.39-0.45,2.36-1.57,2.93-3.35c0.66-2.09,0.55-3.84-0.33-5.27
		C302.71,362.94,301.4,362.05,299.48,361.39z"/>
	<path class="st19" d="M303.4,364.06c0.88,1.43,0.98,3.19,0.33,5.27c-0.56,1.78-1.54,2.89-2.93,3.35c-0.52,0.17-1.86,0.25-4.04,0.25
		c-1.54,0-3.08-0.05-4.63-0.16c-2.3-0.15-3.67-0.3-4.1-0.43c-1-0.31-1.82-0.88-2.48-1.72c-0.55-0.7-0.89-1.6-1.03-2.68
		c-0.48-3.68,1.16-6,4.91-6.95c3.4-0.86,6.74-0.73,10.04,0.39C301.4,362.05,302.71,362.94,303.4,364.06z M302.86,366.23
		c0.04-2.1-1.63-3.83-3.72-3.87l-9.46-0.18c-2.1-0.04-3.83,1.63-3.87,3.72l-0.04,1.85c-0.04,2.1,1.63,3.83,3.72,3.87l9.46,0.18
		c2.1,0.04,3.83-1.63,3.87-3.72L302.86,366.23z"/>
	<path class="st19" d="M363.04,363.68c0.5-0.91,1.46-1.6,2.88-2.08c2.97-0.99,5.96-1.32,8.97-0.98c2.38,0.26,4.19,1.05,5.42,2.35
		c1.58,1.66,2.13,3.78,1.65,6.36c-0.15,0.82-0.61,1.55-1.35,2.18c-0.53,0.45-1.27,0.81-2.22,1.08c-4.54,1.3-8.8,1.12-12.76-0.54
		C361.72,370.41,360.86,367.62,363.04,363.68z M363.22,366.26c-0.62,2.39,0.42,4.03,3.14,4.91c2.87,0.93,6.2,1.18,10,0.76
		c3.73-0.4,5.1-2.47,4.12-6.2c-0.45-1.71-1.37-2.77-2.76-3.19c-2.21-0.66-4.71-0.79-7.49-0.37c-0.09,0.01-0.88,0.07-2.39,0.18
		c-0.98,0.08-1.85,0.38-2.61,0.9C364.23,363.91,363.56,364.92,363.22,366.26z"/>
	<path class="st28" d="M365.22,363.23c0.76-0.52,1.63-0.82,2.61-0.9c1.51-0.11,2.3-0.17,2.39-0.18c2.78-0.41,5.28-0.29,7.49,0.37
		c1.39,0.42,2.31,1.48,2.76,3.19c0.98,3.73-0.39,5.8-4.12,6.2c-3.8,0.42-7.13,0.16-10-0.76c-2.71-0.88-3.76-2.51-3.14-4.91
		C363.56,364.92,364.23,363.91,365.22,363.23z"/>
	<path class="st28" d="M289.68,362.18l9.46,0.18c2.1,0.04,3.76,1.77,3.72,3.87l-0.04,1.85c-0.04,2.1-1.77,3.76-3.87,3.72l-9.46-0.18
		c-2.1-0.04-3.76-1.77-3.72-3.87l0.04-1.85C285.85,363.8,287.59,362.14,289.68,362.18z"/>
	<path class="st20" d="M343.89,406.54c6.06-0.12,12.12-0.16,18.17-0.13c1.63,0.01,2.97,0.62,4,1.82c0.86,1.01,1.25,2.28,1.18,3.82
		c-0.1,2.07-0.76,3.99-1.96,5.76c-0.12,0.18-0.32,0.29-0.54,0.29c-5.42,0.17-10.84,0.2-16.26,0.08c-4.11-0.09-8.55-0.07-13.31,0.07
		c-6.53,0.2-13.01,0.1-19.44-0.28c-0.99-0.06-1.64-0.56-1.95-1.5c-0.76-2.32-0.88-4.59-0.37-6.8c0.24-1.06,0.73-1.82,1.45-2.29
		c0.78-0.5,1.72-0.77,2.82-0.82c4.25-0.18,8.68-0.24,13.29-0.16c0.19,0.01,0.35-0.15,0.34-0.34c-0.14-4.49-0.03-8.74,0.32-12.76
		c0.11-1.32,1-2.11,2.65-2.39c2.33-0.39,4.92-0.21,7.78,0.54c0.42,0.12,0.72,0.5,0.74,0.95l0.56,13.64
		C343.37,406.32,343.6,406.55,343.89,406.54z"/>
	
		<ellipse transform="matrix(0.4863 -0.8738 0.8738 0.4863 -260.7056 384.4609)" class="st24" cx="196.64" cy="413.97" rx="1.06" ry="0.28"/>
	<path class="st24" d="M473.84,416.74l2.3-3.49c0.09-0.13,0.19-0.21,0.26-0.2c0.11,0.01,0.13,0.11,0.06,0.31
		c-0.5,1.47-1.34,2.63-2.52,3.49C473.71,417.02,473.68,416.99,473.84,416.74z"/>
	<path class="st29" d="M467.18,425.48c0.32-0.38,0.71-0.67,1.18-0.88c0.24-0.1,0.26-0.06,0.08,0.13l-2.8,2.95
		c-0.38,0.4-0.49,0.34-0.33-0.19c0.22-0.74,0.67-1.27,1.34-1.6C466.86,425.79,467.03,425.65,467.18,425.48z"/>
	<path class="st29" d="M463.94,428.9c0.1-0.24,0.15-0.23,0.16,0.03c0.11,2.52-0.59,4.59-2.08,6.19c-0.14,0.16-0.23,0.37-0.24,0.59
		c-0.04,1-0.45,1.83-1.25,2.48c-0.24,0.2-0.47,0.26-0.71,0.19c-0.18-0.05-0.27-0.27-0.2-0.48c0.44-1.51,1.13-2.88,2.06-4.12
		c0.61-0.82,1.05-1.59,1.31-2.33C463.27,430.6,463.59,429.75,463.94,428.9z"/>
	<path class="st21" d="M250.68,464.75c7.24,7.03,14.68,13.85,22.31,20.45c5.91,5.12,9.34,8.09,10.29,8.92
		c8.09,7.08,14.18,12.25,18.27,15.49c7.46,5.91,12.45,9.94,14.95,12.12c-0.96-0.26-2.17-0.99-3.64-2.17
		c-5.93-4.77-11.84-9.56-17.74-14.38c-1.69-1.38-3.69-3.15-5.99-5.32c-2.2-2.06-4.21-3.83-6.03-5.3c-3.12-2.51-5.89-4.86-8.33-7.04
		c-0.65-0.58-2.82-2.44-6.5-5.6c-1.45-1.25-2.85-2.55-4.2-3.91c-1.46-1.47-2.85-2.78-4.17-3.91c-3.2-2.75-6.23-5.67-9.09-8.77
		c-0.09-0.09-0.14-0.18-0.15-0.27C250.64,464.96,250.65,464.86,250.68,464.75z"/>
	<path class="st29" d="M411.16,485.81l14.89-12.19c0.17-0.14,0.42-0.11,0.56,0.06l0.01,0.01c0.14,0.17,0.11,0.42-0.06,0.56
		l-14.89,12.19c-0.17,0.14-0.42,0.11-0.56-0.06l-0.01-0.01C410.97,486.2,410.99,485.95,411.16,485.81z"/>
	<path class="st19" d="M393.19,630.61c-1.13,0.29-1.71,0.11-1.73-0.54c-0.01-0.17,0.16-0.31,0.37-0.31l5.28-0.02
		c0.37-0.01,0.66-0.34,0.63-0.73c-0.13-1.68,0.72-2.04,2.54-1.07c0.24,0.13,0.51,0.16,0.77,0.1c0.86-0.23,1.39,0,1.6,0.69
		c0.05,0.19,0.22,0.32,0.4,0.31c10.28-0.91,20.44-2.57,30.47-5c2.98-0.72,5.14-1.75,6.48-3.1c2.51-2.5,2.26-4.49-0.76-5.95
		c-4.67-2.26-10.27-3.98-16.8-5.16c-4.96-0.89-9.93-1.68-14.93-2.36c-2.15-0.29-4.79-0.55-7.93-0.76c-2.65-0.18-5.3-0.4-7.95-0.65
		c-4.63-0.44-8.6-0.72-11.91-0.83c-8.21-0.27-16.43-0.53-24.64-0.78c-25.3-0.77-50.59-0.5-75.86,0.8
		c-17.3,0.89-33.25,3.19-47.84,6.88c-2.59,0.65-4.13,1.08-4.64,1.27c-1.53,0.59-2.93,1.43-4.19,2.53c-1.68,1.47-1.73,2.96-0.15,4.46
		c1.06,1.02,1.97,1.69,2.74,2.03c2.03,0.91,4.71,1.81,8.03,2.68c4.56,1.2,10.88,2.24,18.97,3.14c17.83,1.98,35.72,2.92,53.66,2.82
		c0.29,0,0.51,0.02,0.67,0.05c0.58,0.14,0.66,0.39,0.25,0.78c-0.16,0.15-0.38,0.25-0.65,0.29c-1.01,0.13-2.02,0.17-3.03,0.14
		c-20.17-0.58-35.88-1.49-47.11-2.75c-8.07-0.9-16.06-2.28-23.97-4.14c-2.72-0.64-5.31-1.61-7.77-2.93
		c-1.31-0.69-2.28-1.53-2.92-2.5c-0.54-0.81-0.69-1.66-0.47-2.54c0.16-0.65,0.6-1.31,1.31-1.99c1.49-1.41,3.24-2.43,5.25-3.05
		c6.96-2.17,15.63-3.99,26.02-5.46c6.66-0.94,12.45-1.61,17.36-2c1.57-0.13,6.1-0.38,13.59-0.75c17.73-0.88,35.48-1.2,53.24-0.97
		c14.18,0.19,28.36,0.59,42.53,1.2c13.34,0.58,26.61,1.92,39.79,4.04c7.11,1.14,13.61,3.03,19.52,5.65c3.43,1.53,3.91,3.8,1.44,6.8
		c-1.37,1.67-3.59,2.88-6.65,3.63c-7.56,1.85-16.81,3.46-27.75,4.84C400.29,630.17,395.87,630.58,393.19,630.61z"/>
	<path class="st24" d="M393.19,630.61c-3.16,0.42-6.34,0.69-9.52,0.82c-7.65,0.3-15.31,0.6-22.96,0.9
		c-19.22,0.74-38.44,0.73-57.66-0.01c1.02,0.03,2.03-0.02,3.03-0.14c0.27-0.04,0.49-0.13,0.65-0.29c0.41-0.38,0.32-0.64-0.25-0.78
		c-0.16-0.04-0.39-0.05-0.67-0.05c-17.94,0.1-35.83-0.84-53.66-2.82c-8.09-0.89-14.41-1.94-18.97-3.14
		c-3.33-0.88-6.01-1.77-8.03-2.68c-0.76-0.34-1.67-1.02-2.74-2.03c-1.58-1.51-1.53-2.99,0.15-4.46c1.27-1.1,2.66-1.94,4.19-2.53
		c0.51-0.2,2.05-0.62,4.64-1.27c14.59-3.69,30.54-5.98,47.84-6.88c25.27-1.3,50.56-1.57,75.86-0.8c8.21,0.25,16.43,0.51,24.64,0.78
		c3.31,0.11,7.28,0.39,11.91,0.83c2.64,0.25,5.29,0.47,7.95,0.65c3.14,0.21,5.78,0.47,7.93,0.76c4.99,0.68,9.97,1.47,14.93,2.36
		c6.53,1.17,12.13,2.89,16.8,5.16c3.02,1.47,3.27,3.45,0.76,5.95c-1.35,1.35-3.51,2.38-6.48,3.1c-10.03,2.43-20.19,4.09-30.47,5
		c-0.18,0.01-0.35-0.12-0.4-0.31c-0.21-0.69-0.74-0.92-1.6-0.69c-0.26,0.07-0.53,0.03-0.77-0.1c-1.82-0.96-2.66-0.6-2.54,1.07
		c0.03,0.39-0.26,0.72-0.63,0.73l-5.28,0.02c-0.21,0-0.38,0.14-0.37,0.31C391.48,630.72,392.05,630.91,393.19,630.61z"/>
</g>
</svg>
