<?xml version="1.0" encoding="utf-8"?>
<!-- Generator: Adobe Illustrator 27.4.1, SVG Export Plug-In . SVG Version: 6.00 Build 0)  -->
<svg version="1.1" id="Layer_1" xmlns="http://www.w3.org/2000/svg" xmlns:xlink="http://www.w3.org/1999/xlink" x="0px" y="0px"
	 viewBox="0 0 612 792" style="enable-background:new 0 0 612 792;" xml:space="preserve">
<style type="text/css">
	.st0{fill:none;stroke:#6E4A28;stroke-width:2;}
	.st1{fill:none;stroke:#DA904D;stroke-width:2;}
	.st2{fill:none;stroke:#121A1C;stroke-width:2;}
	.st3{fill:none;stroke:#376D54;stroke-width:2;}
	.st4{fill:none;stroke:#142123;stroke-width:2;}
	.st5{fill:none;stroke:#295639;stroke-width:2;}
	.st6{fill:none;stroke:#3A6842;stroke-width:2;}
	.st7{fill:none;stroke:#34633E;stroke-width:2;}
	.st8{fill:none;stroke:#3A6C53;stroke-width:2;}
	.st9{fill:none;stroke:#305E41;stroke-width:2;}
	.st10{fill:none;stroke:#61BB79;stroke-width:2;}
	.st11{fill:none;stroke:#4B7F5B;stroke-width:2;}
	.st12{fill:none;stroke:#71C27D;stroke-width:2;}
	.st13{fill:none;stroke:#59B574;stroke-width:2;}
	.st14{fill:none;stroke:#13191B;stroke-width:2;}
	.st15{fill:none;stroke:#2D373D;stroke-width:2;}
	.st16{fill:none;stroke:#1D3036;stroke-width:2;}
	.st17{fill:none;stroke:#BADFBE;stroke-width:2;}
	.st18{fill:none;stroke:#A7D2B7;stroke-width:2;}
	.st19{fill:none;stroke:#FFFFFF;stroke-width:2;}
	.st20{fill:none;stroke:#13191A;stroke-width:2;}
	.st21{fill:none;stroke:#707674;stroke-width:2;}
	.st22{fill:none;stroke:#DAE2DE;stroke-width:2;}
	.st23{fill:none;stroke:#803D39;stroke-width:2;}
	.st24{fill:none;stroke:#75312F;stroke-width:2;}
	.st25{fill:none;stroke:#641A17;stroke-width:2;}
	.st26{fill:none;stroke:#6F2520;stroke-width:2;}
	.st27{fill:none;stroke:#6D6F6E;stroke-width:2;}
	.st28{fill:none;stroke:#D9928B;stroke-width:2;}
	.st29{fill:none;stroke:#CD7067;stroke-width:2;}
	.st30{fill:none;stroke:#D13E34;stroke-width:2;}
	.st31{fill:none;stroke:#CAB9B4;stroke-width:2;}
	.st32{fill:#020202;}
	.st33{fill:#1D3036;}
	.st34{fill:#77C480;}
	.st35{fill:#3E4043;}
	.st36{fill:#69C079;}
	.st37{fill:#4EA86F;}
	.st38{fill:#FFFFFF;}
	.st39{fill:#0F1413;}
	.st40{fill:#1F2D2F;}
	.st41{fill:#DDE7E4;}
	.st42{fill:#D6DBD8;}
	.st43{fill:#222E32;}
	.st44{fill:#DC493D;}
	.st45{fill:#C6322A;}
	.st46{fill:#BC9790;}
	.st47{fill:#DA904D;}
</style>
<g>
	<g>
		<path vector-effect="non-scaling-stroke" class="st0" d="M194.03,228.66"/>
		<path vector-effect="non-scaling-stroke" class="st0" d="M194.03,228.66c-5.68,5.9-10.53,12.69-14.53,20.36
			c-5.88,11.27-9.69,22.89-11.44,34.86c-2.6,17.88-1.25,35.3,4.06,52.28c1.19,3.79,2.7,7.82,4.54,12.07
			c3.44,7.96,7.21,14.99,11.29,21.09c5.59,8.33,12.41,16.85,20.47,25.55c1.66,1.79,4.61,4.91,8.87,9.37
			c7.51,7.87,13.86,14.08,19.03,18.61c7.11,6.22,14.17,12.49,21.19,18.81c6.41,5.76,12.98,11.33,19.72,16.7
			c6.6,5.27,13.2,10.7,19.8,16.29c0.76,0.64,1.01,1.44,0.77,2.4c-0.74,2.98-0.97,6.11-0.7,9.38c0.47,5.64,2.56,10.14,6.27,13.49
			c3.18,2.88,7.06,4.53,11.64,4.96c7.26,0.68,13.09-2.48,17.48-9.48c0.86-1.36,1.54-3.27,2.04-5.73c0.83-4.02,0.77-8.52-0.18-13.48
			c-0.15-0.76,0.06-1.4,0.61-1.93c4.68-4.52,9.68-8.86,14.99-13.04c19.37-15.23,37.91-31.41,55.63-48.52
			c9.26-8.94,18.01-18.37,26.24-28.26c8.06-9.69,15.21-20,21.45-30.95c5.64-9.89,9.48-20.73,11.51-32.52
			c2.23-12.93,2.25-25.63,0.06-38.07c-0.77-4.38-1.69-8.57-2.75-12.59c-2.64-9.94-6.78-19.21-12.42-27.79
			c-2.55-3.89-5.08-7.37-7.57-10.44c-4.85-5.96-10.63-11.31-17.34-16.03c-13.17-9.26-27.61-14.26-43.33-14.98
			c-25.12-1.16-46.44,7.16-63.96,24.97c-0.17,0.17-0.44,0.15-0.59-0.03c-1.42-1.79-2.91-3.35-4.46-4.69
			c-0.65-0.56-2.35-1.88-5.08-3.95c-8.01-6.08-16.82-10.52-26.41-13.33c-4.07-1.19-8.29-1.96-12.65-2.32
			c-4.37-0.35-9.33-0.48-14.88-0.39c-5.56,0.09-11.25,0.9-17.09,2.42"/>
		<path vector-effect="non-scaling-stroke" class="st1" d="M296.09,476.2c0.11-0.12,0.11-0.3-0.01-0.41l-3.86-3.67
			c-0.12-0.11-0.3-0.1-0.41,0.01l-0.14,0.15c-0.11,0.12-0.11,0.3,0.01,0.41l3.86,3.67c0.12,0.11,0.3,0.1,0.41-0.01L296.09,476.2"/>
		<path vector-effect="non-scaling-stroke" class="st2" d="M443.73,236.27c-4.42-5.78-8.75-10.37-13-13.78
			c-5.19-4.16-8.37-6.63-9.51-7.42c-9.68-6.62-20.55-10.58-32.6-11.89c-3.56-0.39-7.06-0.61-10.51-0.67
			c-3.36-0.06-6.87,0.08-10.55,0.43c-13.02,1.23-24.86,5.36-35.51,12.38c-4.81,3.16-9.63,7.23-14.45,12.18
			c-0.13,0.14-0.34,0.16-0.49,0.05c-0.41-0.29-0.77-0.63-1.08-1.02c-0.57-0.71-0.95-1.15-1.16-1.34
			c-4.62-4.18-9.94-8.12-15.95-11.81c-6.45-3.96-13.18-6.85-20.16-8.64c-3.73-0.96-7.97-1.6-12.74-1.91
			c-4.68-0.31-9.37-0.36-14.07-0.14c-6.79,0.32-13.41,1.51-19.88,3.55c-20.37,6.44-36.12,18.44-47.27,36
			c-2.27,3.57-4.37,7.33-6.29,11.26c-6.28,12.82-9.69,26.66-10.25,41.51c-0.84,22.55,3.89,43.57,14.21,63.06
			c3.25,6.14,7.18,12.25,11.79,18.34c5.62,7.41,11.3,14.14,17.07,20.18c7.22,7.59,14.62,14.99,22.19,22.23
			c2.7,2.58,5.88,5.48,9.52,8.7c7.14,6.31,14.27,12.62,21.39,18.94c3.17,2.82,6.45,5.59,9.83,8.33c4.04,3.28,8.08,6.56,12.1,9.84
			c0.02,0.02,1.82,1.53,5.39,4.53c2.35,1.97,4.77,3.87,7.26,5.69c0.43,0.32,0.62,0.86,0.47,1.37c-0.99,3.53-1.29,7.06-0.88,10.57
			c0.43,3.74,1.58,6.99,3.44,9.75c2.4,3.55,5.69,5.83,9.89,6.84c3.74,0.9,7.38,0.74,10.92-0.48c3.93-1.35,6.86-3.86,8.79-7.54
			c1.37-2.6,2.13-5.77,2.28-9.5c0.13-3.26-0.17-6.56-0.92-9.89c-0.14-0.63,0.06-1.28,0.52-1.72c1.54-1.49,3.03-2.9,4.48-4.22
			c1.26-1.14,2.82-2.46,4.7-3.96c8.34-6.66,16.55-13.48,24.61-20.48c0.02-0.02,1.12-0.9,3.31-2.64c0.91-0.73,2.06-1.71,3.45-2.94
			c12.62-11.15,22.87-20.44,30.76-27.84c3.23-3.04,6.29-6.05,9.18-9.06c7.2-7.47,13.43-14.44,18.67-20.9
			c8.14-10.03,15.6-21.43,22.39-34.2c2.8-5.27,4.97-10.79,6.5-16.56c1.23-4.61,2.25-10.42,3.08-17.41
			c0.89-7.56,0.96-14.8,0.19-21.72c-0.41-3.74-1.05-7.99-1.92-12.75C460.03,263.69,453.63,249.25,443.73,236.27"/>
		<path vector-effect="non-scaling-stroke" class="st3" d="M185.16,274.22l-1.61,6.13"/>
		<path vector-effect="non-scaling-stroke" class="st4" d="M183.54,280.35c-0.53,0.69-0.87,1.46-1.02,2.31
			c-0.17,0.96-0.26,1.46-0.27,1.5c-0.74,3.03-1.21,5.32-1.39,6.88c-0.39,3.36-0.66,7.81-0.81,13.35c-0.03,0.91,0.07,1.97,0.28,3.19
			c0.18,1.07,0.3,2.14,0.36,3.22c0.11,1.92,0.35,3.81,0.72,5.69c0.57,2.84,0.93,4.71,1.1,5.6c0.55,2.99,1.38,6.23,2.5,9.71
			c1.71,5.3,3.63,9.97,5.75,14c0.14,0.27,0.34,0.56,0.61,0.88c0.23,0.28,0.45,0.58,0.65,0.88c0.19,0.3,0.38,0.8,0.57,1.5
			c0.23,0.84,0.62,1.58,1.19,2.23c0.75,0.86,1.24,1.5,1.47,1.95c1.61,3.1,3.68,6.5,6.21,10.18c6.94,10.12,14.5,19.19,22.67,27.21
			c0.01,0.01,0.61,0.56,1.79,1.65c1.15,1.06,2.28,2.31,3.4,3.75c1.73,2.23,3.82,4.44,6.27,6.63c2.35,2.11,4.66,4.26,6.92,6.46
			c5.74,5.59,11.77,10.86,18.08,15.8c0.18,0.13,0.57,0.36,1.17,0.67c0.42,0.22,0.78,0.51,1.07,0.88c0.66,0.82,1.09,1.3,1.28,1.46
			c2.86,2.3,5.68,4.67,8.44,7.1c5.81,5.1,11.58,10.26,17.3,15.47c0.74,0.68,2.45,2.17,5.13,4.48c1.72,1.48,3.39,3.03,5.01,4.62
			c0.03,0.03,1.27,1.2,3.73,3.52c1.55,1.46,3.22,3.26,5.01,5.4c1.23,1.46,1.82,3.01,1.79,4.63c-0.03,1.52-0.01,2.46,0.05,2.83
			c0.39,2.51,0.75,5.03,1.08,7.55c0.09,0.72,0.29,1.23,0.58,1.52c0.46,0.46,1.06,0.6,1.79,0.42"/>
		<path vector-effect="non-scaling-stroke" class="st3" d="M314.02,485.43c1.3,0.59,2.58,0.63,3.86,0.12
			c0.19-0.08,0.32-0.25,0.36-0.45c0.37-1.79,0.56-3.61,0.58-5.45c0.07-7.54,2.9-13.76,8.48-18.66c5.31-4.66,10.72-9.2,16.23-13.62"
			/>
		<path vector-effect="non-scaling-stroke" class="st2" d="M343.53,447.38c1.34,0.03,2.32-0.5,2.95-1.58
			c0.11-0.2,0.25-0.35,0.42-0.46c1.52-0.98,2.93-2.1,4.22-3.35c0.99-0.96,2.05-1.85,3.17-2.66c1.14-0.82,2.2-1.72,3.19-2.7
			c0.64-0.64,1.25-1.16,1.81-1.57c0.65-0.47,1.3-0.95,1.94-1.43c0.93-0.7,1.86-1.46,2.77-2.3c12.72-11.66,20.35-18.71,22.9-21.16
			c5.23-5.03,9.73-9.55,13.51-13.58c0.24-0.26,0.21-0.51-0.1-0.77"/>
		<path vector-effect="non-scaling-stroke" class="st3" d="M400.32,395.8l9.17-9.7"/>
		<path vector-effect="non-scaling-stroke" class="st2" d="M409.48,386.1c0.3-0.06,0.77-0.39,1.41-0.98
			c2.89-2.67,5.28-5.17,7.17-7.48c2.22-2.73,3.35-4.1,3.37-4.13c7.07-8.3,13.37-17.63,18.89-27.98
			c11.43-21.41,14.44-43.88,9.02-67.42c-3.09-13.42-9.13-25.41-18.12-35.95c-10.23-11.98-22.74-20.1-37.53-24.34
			c-4.71-1.35-8.91-2.25-12.6-2.69c-5.59-0.67-11.01-0.38-16.27,0.87c-16,3.8-29.63,11.99-40.89,24.58c-1.45,1.62-3,3.12-4.66,4.52
			c-1.28,1.08-2.49,1.16-3.63,0.25c-1.18-0.94-2.97-2.74-5.38-5.39c-2.22-2.45-3.99-4.26-5.3-5.44c-5.33-4.77-11.05-8.7-17.18-11.79
			c-10.06-5.08-20.72-7.63-31.98-7.64c-4.28,0-8.54,0.48-12.77,1.46c-7.27,1.69-14.15,4.36-20.64,8.03
			c-4.17,2.35-7.64,4.53-10.42,6.54c-3.35,2.42-6.39,5.21-9.12,8.37c-0.35,0.4-0.8,1-1.35,1.79c-0.43,0.62-0.89,1.22-1.37,1.8
			c-1.16,1.39-1.87,2.26-2.12,2.61c-3.98,5.49-7.34,11.34-10.09,17.56c-0.67,1.52-1.65,4.84-2.94,9.96
			c-0.14,0.54-0.08,0.87,0.17,1.01"/>
		<path vector-effect="non-scaling-stroke" class="st5" d="M409.48,386.1c8.48-8.68,16.18-18.23,23.1-28.64
			c7.46-11.23,12.83-23.28,16.11-36.16"/>
		<path vector-effect="non-scaling-stroke" class="st6" d="M448.69,321.31c0.92-3.78,1.5-6.9,1.75-9.35
			c1.4-14.06,0.11-27.44-3.87-40.15c-3.92-12.51-10.37-23.53-19.36-33.05c-5.38-5.71-11.93-10.56-19.63-14.56
			c-10.89-5.66-22.2-8.29-33.93-7.89c-4.38,0.15-8.63,0.75-12.75,1.79c-6.73,1.7-13.05,4.46-18.96,8.27
			c-5.18,3.33-9.37,6.61-12.57,9.84c-3.02,3.05-6.06,6.09-9.11,9.11c-0.6,0.59-1.51,1.11-2.72,1.55c-0.2,0.07-0.41,0.06-0.6-0.03
			c-1.11-0.52-2.15-1.32-3.13-2.41c-1.03-1.14-3.18-3.3-6.43-6.47c-7.26-7.06-15.56-12.55-24.9-16.47c-8.88-3.72-18.36-5.39-28.45-5
			c-5.28,0.2-10.07,0.9-14.38,2.1"/>
		<path vector-effect="non-scaling-stroke" class="st7" d="M239.66,218.59c-13.61,3.55-25.27,10.38-34.99,20.48"/>
		<path vector-effect="non-scaling-stroke" class="st5" d="M204.67,239.07c-2.58,2.51-5.21,5.77-7.91,9.8
			c-5.47,8.14-9.33,16.6-11.6,25.36"/>
		<path vector-effect="non-scaling-stroke" class="st8" d="M311.44,372.77c1.2,0.83,2.5,1.14,3.9,0.94"/>
		<path vector-effect="non-scaling-stroke" class="st5" d="M315.34,373.71l2.39-1.26"/>
		<path vector-effect="non-scaling-stroke" class="st5" d="M400.32,395.8c-6.36,6.78-13.31,13.61-20.83,20.48
			c-12.14,11.1-24.13,21.46-35.96,31.1"/>
		<path vector-effect="non-scaling-stroke" class="st9" d="M314.02,485.43c-0.37-0.2-0.69-0.46-0.95-0.77
			c-0.22-0.27-0.35-0.64-0.37-1.1c-0.12-2.49-0.21-4.97-0.26-7.46c-0.06-2.76-0.78-5.33-2.16-7.7c-0.9-1.55-2.79-3.64-5.65-6.28
			c-5.86-5.4-11.83-10.66-17.93-15.78c-9.48-7.96-18.89-15.99-28.24-24.1c-3.54-3.07-6.73-5.94-9.58-8.62
			c-10.76-10.09-21.16-20.54-31.22-31.34c-3.5-3.76-6.33-6.99-8.49-9.71c-7.63-9.57-14.1-19.89-19.41-30.98
			c-1.52-3.17-3.06-7.61-4.61-13.32c-4.44-16.26-4.97-32.24-1.6-47.93"/>
		<path vector-effect="non-scaling-stroke" class="st10" d="M448.69,321.31c0.03-0.19,0.02-0.36-0.03-0.52
			c-0.06-0.17-0.27-0.26-0.45-0.18c-0.48,0.21-0.8,0.55-0.95,1.04c-0.15,0.5-0.24,0.78-0.26,0.83c-0.34,0.8-0.58,1.64-0.74,2.5
			c-0.04,0.2-0.15,0.37-0.32,0.48c-1.38,0.9-2.14,2.2-2.26,3.91c-0.01,0.2-0.1,0.39-0.24,0.55c-0.41,0.43-0.66,0.89-0.74,1.39
			c-0.6,3.45-1.98,6.42-4.15,8.93c-4.62,5.32-9.93,9.83-15.94,13.51c-7.16,4.39-14.7,7.94-22.61,10.64
			c-3.9,1.33-8.05,2.43-12.46,3.3c-5.38,1.06-11.13,1.89-17.24,2.48c-7.13,0.7-13.42,1.22-18.87,1.57
			c-2.74,0.18-7.04,0.28-12.89,0.31c-5.93,0.03-12.24,0.25-18.93,0.67c-0.37,0.02-0.73,0.11-1.07,0.26
			c-0.54,0.24-0.81,0.06-0.81-0.53"/>
		<path vector-effect="non-scaling-stroke" class="st6" d="M317.73,372.45c3.18-2.52,6.13-5.27,8.87-8.24
			c2.58-2.81,4.38-4.99,5.39-6.53c1.54-2.34,2.7-4.95,3.48-7.84c1.47-5.44,0.02-9.73-4.35-12.89c-3.86-2.79-8.05-4.6-12.59-5.42
			c-3.47-0.64-6.77-0.59-9.89,0.15c-3.39,0.8-6.42,2.3-9.09,4.5c-3.84,3.16-5.93,7.12-6.26,11.9c-0.18,2.5,0.22,5.02,1.18,7.57
			c0.95,2.51,2.27,4.76,3.95,6.74c2.59,3.05,5.81,5.85,9.64,8.4"/>
		<path vector-effect="non-scaling-stroke" class="st11" d="M308.06,370.78l3.39,1.99"/>
		<path vector-effect="non-scaling-stroke" class="st10" d="M311.44,372.77c0.12,0.5-0.03,0.68-0.46,0.54
			c-1.57-0.54-3.14-1.07-4.72-1.59c-0.18-0.06-0.39-0.05-0.6,0.03c-0.37,0.14-0.76,0.21-1.15,0.21c-12.91-0.02-25.7-1.27-38.37-3.75
			c-11.23-2.2-21.21-5.91-29.96-11.14c-15.9-9.51-26.28-23.15-31.15-40.93c-1.13-4.12-1.8-8.36-2.02-12.71
			c-0.49-9.78,0.72-19.41,3.62-28.88c1.43-4.68,3.42-9.09,5.95-13.21c1.57-2.55,3.65-5.25,6.25-8.12c2.46-2.71,4.88-5.13,7.28-7.25
			c3.88-3.45,7.18-6.69,9.91-9.73c0.18-0.2,0.32-0.4,0.42-0.6c0.51-1.02,0.27-1.24-0.72-0.65c-4.12,2.46-8.11,5.11-11.97,7.95"/>
		<path vector-effect="non-scaling-stroke" class="st12" d="M223.75,242.94c0.01-0.3-0.07-0.36-0.23-0.2
			c-0.31,0.32-0.86,0.14-1.05-0.32c-0.63-1.61-0.82-3.22-0.56-4.83c0.18-1.12,0.81-2.35,1.88-3.67c1.07-1.31,2.15-2.61,3.24-3.9
			c0.94-1.1,1.99-2,3.17-2.69c1.2-0.71,2.43-1.38,3.68-2.03c0.17-0.08,0.3-0.25,0.35-0.46c0.16-0.6,0.52-1.09,1.06-1.47
			c1.09-0.77,2.04-1.68,2.84-2.74c0.01-0.02,0.13-0.24,0.36-0.68c0.16-0.3,0.41-0.5,0.75-0.61c0.15-0.05,0.28-0.2,0.33-0.39
			l0.08-0.36"/>
		<path vector-effect="non-scaling-stroke" class="st13" d="M223.75,242.94c-4.51,3.56-8.45,6.83-11.84,9.8
			c-2.21,1.94-4.68,3.27-7.39,3.99c-0.2,0.05-0.41,0.01-0.57-0.13c-2.7-2.33-3.68-5.29-2.95-8.87c0.09-0.44,0.26-0.85,0.52-1.22
			c1.45-2.08,2.51-4.01,3.17-5.81c0.04-0.11,0.05-0.31,0.03-0.62l-0.06-1.01"/>
		<path vector-effect="non-scaling-stroke" class="st14" d="M315.34,373.71c0.01-0.25,0.15-0.48,0.42-0.68
			c5.01-3.79,9.61-8.22,13.81-13.28c2.73-3.28,4.57-7,5.52-11.17c0.39-1.68,0.35-3.24-0.1-4.7c-0.78-2.51-2.13-4.57-4.04-6.17
			c-1.41-1.19-3.49-2.36-6.22-3.51c-5.39-2.28-10.9-2.73-16.52-1.35c-3.31,0.81-6.01,2.08-8.09,3.82c-2.39,1.99-4.13,4.55-5.23,7.68
			c-0.68,1.93-0.9,3.76-0.68,5.5c0.93,7.37,4.46,13.24,10.6,17.61c1.55,1.11,2.64,2.21,3.26,3.32"/>
		<path vector-effect="non-scaling-stroke" class="st15" d="M219.63,219.69c0.43,0.13,0.87,0.28,1.3,0.43
			c0.16,0.06,0.3,0.08,0.43,0.06c0.49-0.05,0.51-0.25,0.06-0.59c-1.18-0.89-2.5-1.21-3.97-0.95c-0.16,0.03-0.5,0.08-1.01,0.17
			c-1.07,0.17-1.2,0.62-0.38,1.35c0.15,0.14,0.35,0.21,0.57,0.21c0.85-0.03,1.66-0.23,2.42-0.62
			C219.24,219.65,219.45,219.63,219.63,219.69"/>
		<path vector-effect="non-scaling-stroke" class="st16" d="M202.96,232.58c-0.78-0.62-1.43-1.04-1.95-1.26
			c-0.33-0.14-0.37-0.08-0.13,0.16l2.26,2.26c0.21,0.2,0.33,0.16,0.37-0.14C203.55,233.24,203.37,232.9,202.96,232.58"/>
		<path vector-effect="non-scaling-stroke" class="st16" d="M449.03,347.47c0.18-0.41,0.61-1.09,1.3-2.03
			c0.58-0.79,0.96-1.48,1.14-2.08c0.41-1.34,0.51-2.72,0.28-4.12c-0.03-0.19-0.21-0.31-0.37-0.25c-0.31,0.13-0.51,0.41-0.61,0.85
			c-0.76,3.22-2.06,6.33-3.91,9.31c-0.18,0.28-0.23,0.53-0.15,0.74c0.06,0.16,0.28,0.2,0.44,0.07
			C447.97,349.3,448.6,348.46,449.03,347.47"/>
		<path vector-effect="non-scaling-stroke" class="st15" d="M188.54,354.46c0.17-0.07,0.07-0.73-0.23-1.47
			c-0.3-0.74-0.68-1.29-0.85-1.22c-0.17,0.07-0.07,0.73,0.23,1.47C187.99,353.98,188.37,354.53,188.54,354.46"/>
		<path vector-effect="non-scaling-stroke" class="st15" d="M245.83,422.11c0.42-0.05,0.8-0.2,1.15-0.43
			c0.22-0.15,0.2-0.26-0.06-0.31c-0.42-0.09-0.86,0.09-1.3,0.52c-1.55,1.48-1.56,1.59-0.01,0.32
			C245.65,422.16,245.74,422.13,245.83,422.11"/>
		<path vector-effect="non-scaling-stroke" class="st17" d="M374.19,237.13l-0.97,1.29"/>
		<path vector-effect="non-scaling-stroke" class="st10" d="M373.23,238.42c-1.72,1.86-2.75,3.96-3.08,6.3
			c-0.26,1.85,0.1,4.05,1.09,6.59c1.2,3.06,2.74,5.94,4.63,8.64c0.98,1.4,2.15,3.02,3.5,4.86c1.11,1.51,2.37,3.05,3.79,4.62
			c5.24,5.82,10.51,11.03,15.8,15.64c2.24,1.96,4.67,3.32,7.29,4.09c2.64,0.78,5.33,0.77,8.07-0.02c3.09-0.89,5.7-2.51,7.83-4.86
			c1.92-2.11,3.29-4.73,4.13-7.87c0.86-3.22,1.04-6.47,0.55-9.77c-0.35-2.4-1.28-5.24-2.79-8.53c-1.45-3.16-2.93-5.78-4.44-7.87
			c-1.63-2.25-2.97-3.81-4.03-4.68c-0.35-0.28-0.57-0.31-0.67-0.08c-0.03,0.08,0.03,0.31,0.15,0.57l0.53,1.08"/>
		<path vector-effect="non-scaling-stroke" class="st17" d="M415.58,247.13c-4.29-4.64-9.08-8.45-14.36-11.41
			c-5.56-3.11-11.63-4.48-18.18-4.1"/>
		<path vector-effect="non-scaling-stroke" class="st10" d="M383.04,231.62c-0.04-0.25-0.25-0.34-0.65-0.3
			c-3.89,0.48-6.62,2.41-8.2,5.81"/>
		<path vector-effect="non-scaling-stroke" class="st18" d="M383.04,231.62c-3.72,0.61-6.66,2.45-8.84,5.51"/>
		<path vector-effect="non-scaling-stroke" class="st18" d="M415.58,247.13c3.35,3.8,6.09,7.84,8.21,12.13
			c2.13,4.32,2.96,8.74,2.48,13.26c-0.52,4.79-2.12,8.66-4.82,11.62c-2.59,2.84-6.01,4.42-10.25,4.72
			c-1.79,0.13-3.55-0.11-5.28-0.72c-1.83-0.64-3.42-1.48-4.79-2.52c-9.79-7.4-18.26-16.5-25.41-27.3c-1.38-2.09-2.58-4.28-3.59-6.58
			c-2.03-4.65-1.67-9.09,1.08-13.33"/>
		<path vector-effect="non-scaling-stroke" class="st17" d="M261.49,234.51c-3.02-2.32-6.42-3.33-10.2-3.03
			c-5.12,0.41-9.35,2.35-12.7,5.81c-1.63,1.68-2.64,3.38-3.04,5.08c-0.49,2.09-0.2,4.18,0.87,6.24c1.42,2.76,3.58,5,6.47,6.73
			c2.81,1.69,5.77,2.33,8.89,1.93c4.6-0.58,8.29-2.8,11.08-6.66c2.08-2.87,2.94-6,2.59-9.4c-0.15-1.43-0.56-2.67-1.22-3.74
			C263.54,236.37,262.62,235.38,261.49,234.51"/>
		<path vector-effect="non-scaling-stroke" class="st6" d="M330.61,304.79c-1.93,4.38-2.08,8.87-0.45,13.47c1,2.83,2.5,5.2,4.49,7.1
			c2.17,2.07,4.71,3.45,7.63,4.13c3.32,0.79,6.64,0.91,9.94,0.37c4.1-0.67,7.57-2.76,10.39-6.26c3.41-4.23,4.82-9.07,4.21-14.54
			c-0.51-4.67-2.59-8.31-6.24-10.94c-3.35-2.41-7.07-3.67-11.16-3.76c-2.35-0.05-4.56,0.12-6.61,0.52
			c-2.28,0.44-4.35,1.29-6.22,2.55C334,299.17,332,301.63,330.61,304.79"/>
		<path vector-effect="non-scaling-stroke" class="st6" d="M287.13,298.53c-3.2-2.46-6.82-3.83-10.86-4.11
			c-3.97-0.27-7.67,0.27-11.09,1.63c-4.01,1.59-6.85,4.37-8.53,8.33c-1.53,3.6-1.94,7.31-1.24,11.15c0.77,4.16,2.87,7.66,6.33,10.5
			c3.88,3.19,8.25,4.68,13.11,4.48c3.13-0.13,6.01-0.98,8.64-2.53c2.75-1.63,4.96-3.81,6.62-6.54c2.13-3.5,3.05-7.3,2.76-11.4
			c-0.16-2.27-0.7-4.36-1.63-6.28C290.22,301.58,288.84,299.85,287.13,298.53"/>
		<path vector-effect="non-scaling-stroke" class="st19" d="M406.63,247.23c-0.85-0.43-1.63-0.3-2.33,0.4
			c-0.55,0.55-0.41,0.85,0.43,0.92l1.7,0.13c0.28,0.02,0.48,0,0.61-0.06C407.85,248.24,407.71,247.77,406.63,247.23"/>
		<path vector-effect="non-scaling-stroke" class="st20" d="M360.69,298.97c-0.55-0.52-1.18-0.96-1.89-1.32
			c-2.63-1.32-5.36-2.07-8.2-2.26c-2.86-0.19-5.64,0.02-8.32,0.64c-4,0.93-7.11,3.04-9.32,6.35c-1.79,2.68-2.73,5.78-2.84,9.29
			c-0.11,3.57,0.69,6.85,2.4,9.84c2.61,4.59,6.78,7.04,12.5,7.35c0.33,0.02,0.83,0,1.52-0.05c0.5-0.03,1.01-0.04,1.51-0.02
			c1.2,0.05,1.94,0.06,2.24,0.05c6.83-0.46,11.66-3.85,14.5-10.19c1.1-2.45,1.55-5.23,1.35-8.35c-0.24-3.86-1.53-7.08-3.88-9.66
			C361.52,299.81,360.99,299.25,360.69,298.97"/>
		<path vector-effect="non-scaling-stroke" class="st20" d="M285.52,298.53c-2.77-1.84-5.83-2.86-9.18-3.07
			c-3.22-0.21-6.34,0.14-9.37,1.03c-4.39,1.29-7.51,3.95-9.38,7.98c-1.62,3.51-2.05,7.18-1.29,11c0.77,3.88,2.72,7.26,5.84,10.15
			c1.33,1.23,3.18,2.22,5.57,2.98c4.09,1.3,7.9,1.39,11.45,0.25c7.43-2.38,11.71-7.46,12.82-15.25c0.39-2.76,0.12-5.26-0.83-7.51
			c-0.54-1.29-1.3-2.67-2.28-4.14C287.9,300.51,286.79,299.37,285.52,298.53"/>
		<path vector-effect="non-scaling-stroke" class="st20" d="M341.34,314.2c0.23,0.94,0.81,1.68,1.76,2.22
			c1.29,0.74,2.66,1.21,4.11,1.41c1.23,0.17,2.64,0.28,4.26,0.34c2.17,0.09,4.23-0.38,6.18-1.39c0.96-0.49,1.61-1.09,1.94-1.77
			c0.35-0.74,0.54-1.65,0.55-2.73c0.03-1.97-0.52-3.45-1.64-4.44c-0.81-0.71-2.16-1.16-4.06-1.37c-2.55-0.28-5.08-0.17-7.6,0.32
			c-1.97,0.39-3.22,0.71-3.76,0.96c-1.47,0.69-2.15,1.96-2.04,3.81C341.12,312.85,341.22,313.73,341.34,314.2"/>
		<path vector-effect="non-scaling-stroke" class="st20" d="M284.7,307.38c-0.4-0.39-0.92-0.65-1.47-0.71
			c-3.83-0.46-7.55-0.4-11.16,0.2c-1.49,0.25-2.25,0.37-2.28,0.39c-0.77,0.28-1.33,0.89-1.68,1.83c-1.18,3.1-0.81,5.45,1.11,7.03
			c1.12,0.93,2.82,1.55,5.1,1.85c1.76,0.24,3.61,0.27,5.53,0.11c1.53-0.13,2.9-0.52,4.12-1.18c1.29-0.7,2.15-1.74,2.57-3.12
			C287.23,311.4,286.63,309.27,284.7,307.38"/>
		<path vector-effect="non-scaling-stroke" class="st21" d="M342.36,309.8c-0.74,2.37-0.46,4.18,0.86,5.43
			c0.88,0.83,2.37,1.35,4.48,1.57c2.08,0.21,4.16,0.23,6.24,0.04c1.75-0.16,3.04-0.65,3.87-1.46c1.18-1.16,1.55-2.67,1.12-4.52
			c-0.23-0.98-0.61-1.72-1.14-2.22c-0.64-0.61-1.48-0.92-2.51-0.94c-3.61-0.07-7.2,0.06-10.79,0.37
			C343.41,308.18,342.69,308.75,342.36,309.8"/>
		<path vector-effect="non-scaling-stroke" class="st21" d="M284.18,308.58c-0.55-0.44-1.18-0.66-1.88-0.66h-11.37
			c-0.72,0-1.26,0.32-1.6,0.95c-0.51,0.96-0.77,2.15-0.78,3.56c-0.01,1.08,0.3,1.98,0.94,2.68c0.47,0.52,1.24,0.93,2.33,1.22
			c3.32,0.9,6.69,0.98,10.11,0.25c2.61-0.56,3.83-2.21,3.66-4.95C285.5,310.27,285.03,309.26,284.18,308.58"/>
		<path vector-effect="non-scaling-stroke" class="st22" d="M353.65,310.64c-0.77,0.99-0.53,1.86,0.72,2.61
			c0.18,0.1,0.33,0.25,0.44,0.44c0.61,1.01,1.37,1.13,2.3,0.37c0.15-0.13,0.25-0.32,0.25-0.54c0.03-1.39-0.11-2.3-0.41-2.73
			c-0.48-0.7-1.06-1.03-1.75-1.01C354.6,309.79,354.09,310.08,353.65,310.64"/>
		<path vector-effect="non-scaling-stroke" class="st23" d="M310.34,341.95l-2.31,0.65"/>
		<path vector-effect="non-scaling-stroke" class="st24" d="M308.03,342.59c-5.27,2.46-6.33,6.22-3.2,11.29
			c0.92,1.49,3.07,3.59,6.45,6.31"/>
		<path vector-effect="non-scaling-stroke" class="st14" d="M311.28,360.19c0.81,1.8,2.23,3.13,4.24,3.99
			c0.41,0.17,0.88,0.06,1.15-0.28c3.59-4.37,6.77-8.95,9.54-13.76c0.02-0.03,0.35-0.49,0.99-1.37c0.43-0.59,0.63-1.24,0.6-1.95
			c-0.03-0.78-0.44-1.52-1.23-2.23c-1.39-1.26-2.99-2.13-4.79-2.59c-1-0.26-2.64-0.5-4.92-0.72c-1.52-0.15-3.18-0.21-4.99-0.17
			c-0.78,0.01-1.3,0.29-1.55,0.84"/>
		<path vector-effect="non-scaling-stroke" class="st25" d="M311.28,360.19l3.36,2.39"/>
		<path vector-effect="non-scaling-stroke" class="st26" d="M314.64,362.59c0.26,0.39,0.59,0.59,0.99,0.61
			c0.29,0.01,0.59-0.14,0.9-0.47c2.05-2.18,3.86-4.54,5.42-7.08c0.68-1.1,1.45-2.27,2.29-3.5c0.79-1.16,1.51-2.35,2.17-3.59"/>
		<path vector-effect="non-scaling-stroke" class="st27" d="M326.41,348.56c0.73-1.85,0.22-3.21-1.54-4.08
			c-1.9-0.93-3.9-1.51-6.01-1.75"/>
		<path vector-effect="non-scaling-stroke" class="st26" d="M318.86,342.73c-2.82-0.51-5.66-0.77-8.52-0.78"/>
		<path vector-effect="non-scaling-stroke" class="st28" d="M318.86,342.73c-1.57,0.07-2.52,1.05-2.83,2.95
			c-0.21,1.26,0.33,1.87,1.61,1.81c0.19-0.01,0.81-0.14,1.86-0.39c1.01-0.24,2.3,0.09,3.87,0.99"/>
		<path vector-effect="non-scaling-stroke" class="st29" d="M323.37,348.1c0.67,0.37,1.36,0.36,2.07-0.03"/>
		<path vector-effect="non-scaling-stroke" class="st28" d="M325.45,348.07c0.23,0.34,0.55,0.51,0.97,0.48"/>
		<path vector-effect="non-scaling-stroke" class="st30" d="M314.64,362.59c0.15-0.48,0.47-0.72,0.95-0.72
			c0.26,0.01,0.48-0.06,0.57-0.16l1.37-1.52c0.25-0.28,0.14-0.75-0.25-0.99c-2.29-1.46-4.1-3.06-5.43-4.81
			c-0.21-0.28-0.48-0.72-0.8-1.34c-0.24-0.46-0.51-0.91-0.81-1.34c-0.54-0.78-0.89-1.47-1.07-2.05c-0.69-2.3-1.08-4.65-1.15-7.07"/>
		<path vector-effect="non-scaling-stroke" class="st31" d="M325.45,348.07c0.09-0.61-0.12-1.14-0.66-1.57
			c-1.54-1.25-3.24-1.81-5.11-1.68c-0.19,0.01-0.34,0.17-0.31,0.34c0.09,0.74,0.57,1.07,1.43,0.97c0.4-0.04,1.24,0.29,2.54,1.01
			c0.52,0.28,0.53,0.6,0.04,0.95"/>
	</g>
	<path class="st32" d="M236.3,203.75c5.84-1.52,11.54-2.32,17.09-2.42c5.55-0.09,10.51,0.03,14.88,0.39
		c4.36,0.35,8.58,1.12,12.65,2.32c9.6,2.8,18.4,7.25,26.41,13.33c2.73,2.07,4.43,3.39,5.08,3.95c1.55,1.34,3.03,2.9,4.46,4.69
		c0.15,0.18,0.42,0.19,0.59,0.03c17.52-17.81,38.84-26.13,63.96-24.97c15.72,0.73,30.16,5.72,43.33,14.98
		c6.72,4.73,12.5,10.07,17.34,16.03c2.49,3.07,5.02,6.55,7.57,10.44c5.64,8.59,9.78,17.85,12.42,27.79
		c1.07,4.02,1.98,8.21,2.75,12.59c2.19,12.45,2.17,25.14-0.06,38.07c-2.03,11.79-5.87,22.63-11.51,32.52
		c-6.24,10.94-13.39,21.26-21.45,30.95c-8.23,9.9-16.98,19.32-26.24,28.26c-17.72,17.12-36.26,33.29-55.63,48.52
		c-5.31,4.18-10.31,8.52-14.99,13.04c-0.55,0.53-0.76,1.18-0.61,1.93c0.95,4.96,1.01,9.46,0.18,13.48c-0.5,2.46-1.18,4.37-2.04,5.73
		c-4.39,6.99-10.22,10.15-17.48,9.48c-4.58-0.43-8.45-2.08-11.64-4.96c-3.71-3.36-5.8-7.86-6.27-13.49c-0.27-3.28-0.04-6.4,0.7-9.38
		c0.24-0.96-0.02-1.76-0.77-2.4c-6.6-5.59-13.19-11.03-19.8-16.29c-6.74-5.37-13.31-10.94-19.72-16.7
		c-7.02-6.32-14.09-12.59-21.19-18.81c-5.18-4.54-11.52-10.74-19.03-18.61c-4.26-4.46-7.21-7.58-8.87-9.37
		c-8.06-8.7-14.88-17.22-20.47-25.55c-4.09-6.1-7.85-13.13-11.29-21.09c-1.84-4.25-3.35-8.28-4.54-12.07
		c-5.31-16.98-6.67-34.4-4.06-52.28c1.75-11.98,5.56-23.6,11.44-34.86c4-7.67,8.85-14.46,14.53-20.36 M443.73,236.27
		c-4.42-5.78-8.75-10.37-13-13.78c-5.19-4.16-8.37-6.63-9.51-7.42c-9.68-6.62-20.55-10.58-32.6-11.89
		c-3.56-0.39-7.06-0.61-10.51-0.67c-3.36-0.06-6.87,0.08-10.55,0.43c-13.02,1.23-24.86,5.36-35.51,12.38
		c-4.81,3.16-9.63,7.23-14.45,12.18c-0.13,0.14-0.34,0.16-0.49,0.05c-0.41-0.29-0.77-0.63-1.08-1.02c-0.57-0.71-0.95-1.15-1.16-1.34
		c-4.62-4.18-9.94-8.12-15.95-11.81c-6.45-3.96-13.18-6.85-20.16-8.64c-3.73-0.96-7.97-1.6-12.74-1.91
		c-4.68-0.31-9.37-0.36-14.07-0.14c-6.79,0.32-13.41,1.51-19.88,3.55c-20.37,6.44-36.12,18.44-47.27,36
		c-2.27,3.57-4.37,7.33-6.29,11.26c-6.28,12.82-9.69,26.66-10.25,41.51c-0.84,22.55,3.89,43.57,14.21,63.06
		c3.25,6.14,7.18,12.25,11.79,18.34c5.62,7.41,11.3,14.14,17.07,20.18c7.22,7.59,14.62,14.99,22.19,22.23
		c2.7,2.58,5.88,5.48,9.52,8.7c7.14,6.31,14.27,12.62,21.39,18.94c3.17,2.82,6.45,5.59,9.83,8.33c4.04,3.28,8.08,6.56,12.1,9.84
		c0.02,0.02,1.82,1.53,5.39,4.53c2.35,1.97,4.77,3.87,7.26,5.69c0.43,0.32,0.62,0.86,0.47,1.37c-0.99,3.53-1.29,7.06-0.88,10.57
		c0.43,3.74,1.58,6.99,3.44,9.75c2.4,3.55,5.69,5.83,9.89,6.84c3.74,0.9,7.38,0.74,10.92-0.48c3.93-1.35,6.86-3.86,8.79-7.54
		c1.37-2.6,2.13-5.77,2.28-9.5c0.13-3.26-0.17-6.56-0.92-9.89c-0.14-0.63,0.06-1.28,0.52-1.72c1.54-1.49,3.03-2.9,4.48-4.22
		c1.26-1.14,2.82-2.46,4.7-3.96c8.34-6.66,16.55-13.48,24.61-20.48c0.02-0.02,1.12-0.9,3.31-2.64c0.91-0.73,2.06-1.71,3.45-2.94
		c12.62-11.15,22.87-20.44,30.76-27.84c3.23-3.04,6.29-6.05,9.18-9.06c7.2-7.47,13.43-14.44,18.67-20.9
		c8.14-10.03,15.6-21.43,22.39-34.2c2.8-5.27,4.97-10.79,6.5-16.56c1.23-4.61,2.25-10.42,3.08-17.41c0.89-7.56,0.96-14.8,0.19-21.72
		c-0.41-3.74-1.05-7.99-1.92-12.75C460.03,263.69,453.63,249.25,443.73,236.27z"/>
	<path class="st33" d="M443.73,236.27c9.91,12.98,16.3,27.41,19.18,43.31c0.86,4.76,1.5,9.01,1.92,12.75
		c0.77,6.91,0.7,14.15-0.19,21.72c-0.83,6.99-1.85,12.79-3.08,17.41c-1.54,5.77-3.7,11.3-6.5,16.56
		c-6.79,12.77-14.25,24.17-22.39,34.2c-5.25,6.46-11.47,13.43-18.67,20.9c-2.89,3-5.96,6.02-9.18,9.06
		c-7.89,7.41-18.14,16.69-30.76,27.84c-1.39,1.23-2.54,2.21-3.45,2.94c-2.19,1.75-3.29,2.63-3.31,2.64
		c-8.07,7-16.27,13.82-24.61,20.48c-1.87,1.5-3.44,2.82-4.7,3.96c-1.44,1.32-2.94,2.73-4.48,4.22c-0.46,0.45-0.65,1.1-0.52,1.72
		c0.74,3.33,1.05,6.62,0.92,9.89c-0.15,3.73-0.91,6.9-2.28,9.5c-1.93,3.68-4.87,6.19-8.79,7.54c-3.54,1.22-7.18,1.38-10.92,0.48
		c-4.2-1.01-7.49-3.29-9.89-6.84c-1.86-2.76-3-6.01-3.44-9.75c-0.41-3.51-0.12-7.04,0.88-10.57c0.15-0.51-0.04-1.06-0.47-1.37
		c-2.49-1.82-4.9-3.72-7.26-5.69c-3.57-3-5.37-4.51-5.39-4.53c-4.02-3.29-8.06-6.57-12.1-9.84c-3.38-2.74-6.66-5.52-9.83-8.33
		c-7.12-6.32-14.25-12.64-21.39-18.94c-3.64-3.22-6.82-6.12-9.52-8.7c-7.57-7.23-14.96-14.64-22.19-22.23
		c-5.76-6.05-11.45-12.77-17.07-20.18c-4.61-6.09-8.54-12.2-11.79-18.34c-10.32-19.49-15.05-40.51-14.21-63.06
		c0.55-14.85,3.97-28.68,10.25-41.51c1.92-3.93,4.02-7.69,6.29-11.26c11.14-17.56,26.9-29.56,47.27-36
		c6.47-2.04,13.09-3.23,19.88-3.55c4.7-0.22,9.39-0.18,14.07,0.14c4.76,0.31,9.01,0.95,12.74,1.91c6.99,1.8,13.71,4.68,20.16,8.64
		c6.02,3.69,11.33,7.63,15.95,11.81c0.21,0.19,0.59,0.64,1.16,1.34c0.31,0.39,0.67,0.73,1.08,1.02c0.15,0.11,0.36,0.08,0.49-0.05
		c4.82-4.96,9.64-9.02,14.45-12.18c10.66-7.02,22.49-11.14,35.51-12.38c3.67-0.35,7.19-0.49,10.55-0.43
		c3.45,0.06,6.95,0.28,10.51,0.67c12.05,1.31,22.92,5.28,32.6,11.89c1.15,0.79,4.32,3.26,9.51,7.42
		C434.98,225.9,439.31,230.5,443.73,236.27z M185.16,274.22l-1.61,6.13c-0.53,0.69-0.87,1.46-1.02,2.31
		c-0.17,0.96-0.26,1.46-0.27,1.5c-0.74,3.03-1.21,5.32-1.39,6.88c-0.39,3.36-0.66,7.81-0.81,13.35c-0.03,0.91,0.07,1.97,0.28,3.19
		c0.18,1.07,0.3,2.14,0.36,3.22c0.11,1.92,0.35,3.81,0.72,5.69c0.57,2.84,0.93,4.71,1.1,5.6c0.55,2.99,1.38,6.23,2.5,9.71
		c1.71,5.3,3.63,9.97,5.75,14c0.14,0.27,0.34,0.56,0.61,0.88c0.23,0.28,0.45,0.58,0.65,0.88c0.19,0.3,0.38,0.8,0.57,1.5
		c0.23,0.84,0.62,1.58,1.19,2.23c0.75,0.86,1.24,1.5,1.47,1.95c1.61,3.1,3.68,6.5,6.21,10.18c6.94,10.12,14.5,19.19,22.67,27.21
		c0.01,0.01,0.61,0.56,1.79,1.65c1.15,1.06,2.28,2.31,3.4,3.75c1.73,2.23,3.82,4.44,6.27,6.63c2.35,2.11,4.66,4.26,6.92,6.46
		c5.74,5.59,11.77,10.86,18.08,15.8c0.18,0.13,0.57,0.36,1.17,0.67c0.42,0.22,0.78,0.51,1.07,0.88c0.66,0.82,1.09,1.3,1.28,1.46
		c2.86,2.3,5.68,4.67,8.44,7.1c5.81,5.1,11.58,10.26,17.3,15.47c0.74,0.68,2.45,2.17,5.13,4.48c1.72,1.48,3.39,3.03,5.01,4.62
		c0.03,0.03,1.27,1.2,3.73,3.52c1.55,1.46,3.22,3.26,5.01,5.4c1.23,1.46,1.82,3.01,1.79,4.63c-0.03,1.52-0.01,2.46,0.05,2.83
		c0.39,2.51,0.75,5.03,1.08,7.55c0.09,0.72,0.29,1.23,0.58,1.52c0.46,0.46,1.06,0.6,1.79,0.42c1.3,0.59,2.58,0.63,3.86,0.12
		c0.19-0.08,0.32-0.25,0.36-0.45c0.37-1.79,0.56-3.61,0.58-5.45c0.07-7.54,2.9-13.76,8.48-18.66c5.31-4.66,10.72-9.2,16.23-13.62
		c1.34,0.03,2.32-0.5,2.95-1.58c0.11-0.2,0.25-0.35,0.42-0.46c1.52-0.98,2.93-2.1,4.22-3.35c0.99-0.96,2.05-1.85,3.17-2.66
		c1.14-0.82,2.2-1.72,3.19-2.7c0.64-0.64,1.25-1.16,1.81-1.57c0.65-0.47,1.3-0.95,1.94-1.43c0.93-0.7,1.86-1.46,2.77-2.3
		c12.72-11.66,20.35-18.71,22.9-21.16c5.23-5.03,9.73-9.55,13.51-13.58c0.24-0.26,0.21-0.51-0.1-0.77l9.17-9.7
		c0.3-0.06,0.77-0.39,1.41-0.98c2.89-2.67,5.28-5.17,7.17-7.48c2.22-2.73,3.35-4.1,3.37-4.13c7.07-8.3,13.37-17.63,18.89-27.98
		c11.43-21.41,14.44-43.88,9.02-67.42c-3.09-13.42-9.13-25.41-18.12-35.95c-10.23-11.98-22.74-20.1-37.53-24.34
		c-4.71-1.35-8.91-2.25-12.6-2.69c-5.59-0.67-11.01-0.38-16.27,0.87c-16,3.8-29.63,11.99-40.89,24.58c-1.45,1.62-3,3.12-4.66,4.52
		c-1.28,1.08-2.49,1.16-3.63,0.25c-1.18-0.94-2.97-2.74-5.38-5.39c-2.22-2.45-3.99-4.26-5.3-5.44c-5.33-4.77-11.05-8.7-17.18-11.79
		c-10.06-5.08-20.72-7.63-31.98-7.64c-4.28,0-8.54,0.48-12.77,1.46c-7.27,1.69-14.15,4.36-20.64,8.03
		c-4.17,2.35-7.64,4.53-10.42,6.54c-3.35,2.42-6.39,5.21-9.12,8.37c-0.35,0.4-0.8,1-1.35,1.79c-0.43,0.62-0.89,1.22-1.37,1.8
		c-1.16,1.39-1.87,2.26-2.12,2.61c-3.98,5.49-7.34,11.34-10.09,17.56c-0.67,1.52-1.65,4.84-2.94,9.96
		C184.85,273.75,184.9,274.09,185.16,274.22z M219.63,219.69c0.43,0.13,0.87,0.28,1.3,0.43c0.16,0.06,0.3,0.08,0.43,0.06
		c0.49-0.05,0.51-0.25,0.06-0.59c-1.18-0.89-2.5-1.21-3.97-0.95c-0.16,0.03-0.5,0.08-1.01,0.17c-1.07,0.17-1.2,0.62-0.38,1.35
		c0.15,0.14,0.35,0.21,0.57,0.21c0.85-0.03,1.66-0.23,2.42-0.62C219.24,219.65,219.45,219.63,219.63,219.69z M202.96,232.58
		c-0.78-0.62-1.43-1.04-1.95-1.26c-0.33-0.14-0.37-0.08-0.13,0.16l2.26,2.26c0.21,0.2,0.33,0.16,0.37-0.14
		C203.55,233.24,203.37,232.9,202.96,232.58z M449.03,347.47c0.18-0.41,0.61-1.09,1.3-2.03c0.58-0.79,0.96-1.48,1.14-2.08
		c0.41-1.34,0.51-2.72,0.28-4.12c-0.03-0.19-0.21-0.31-0.37-0.25c-0.31,0.13-0.51,0.41-0.61,0.85c-0.76,3.22-2.06,6.33-3.91,9.31
		c-0.18,0.28-0.23,0.53-0.15,0.74c0.06,0.16,0.28,0.2,0.44,0.07C447.97,349.3,448.6,348.46,449.03,347.47z M188.54,354.46
		c0.17-0.07,0.07-0.73-0.23-1.47c-0.3-0.74-0.68-1.29-0.85-1.22c-0.17,0.07-0.07,0.73,0.23,1.47
		C187.99,353.98,188.37,354.53,188.54,354.46z M245.83,422.11c0.42-0.05,0.8-0.2,1.15-0.43c0.22-0.15,0.2-0.26-0.06-0.31
		c-0.42-0.09-0.86,0.09-1.3,0.52c-1.55,1.48-1.56,1.59-0.01,0.32C245.65,422.16,245.74,422.13,245.83,422.11z"/>
	<path class="st32" d="M409.48,386.1c8.48-8.68,16.18-18.23,23.1-28.64c7.46-11.23,12.83-23.28,16.11-36.16
		c0.92-3.78,1.5-6.9,1.75-9.35c1.4-14.06,0.11-27.44-3.87-40.15c-3.92-12.51-10.37-23.53-19.36-33.05
		c-5.38-5.71-11.93-10.56-19.63-14.56c-10.89-5.66-22.2-8.29-33.93-7.89c-4.38,0.15-8.63,0.75-12.75,1.79
		c-6.73,1.7-13.05,4.46-18.96,8.27c-5.18,3.33-9.37,6.61-12.57,9.84c-3.02,3.05-6.06,6.09-9.11,9.11c-0.6,0.59-1.51,1.11-2.72,1.55
		c-0.2,0.07-0.41,0.06-0.6-0.03c-1.11-0.52-2.15-1.32-3.13-2.41c-1.03-1.14-3.18-3.3-6.43-6.47c-7.26-7.06-15.56-12.55-24.9-16.47
		c-8.88-3.72-18.36-5.39-28.45-5c-5.28,0.2-10.07,0.9-14.38,2.1c-13.61,3.55-25.27,10.38-34.99,20.48c-2.58,2.51-5.21,5.77-7.91,9.8
		c-5.47,8.14-9.33,16.6-11.6,25.36c-0.25-0.13-0.31-0.47-0.17-1.01c1.29-5.12,2.27-8.44,2.94-9.96c2.74-6.21,6.11-12.07,10.09-17.56
		c0.25-0.34,0.95-1.21,2.12-2.61c0.48-0.58,0.94-1.18,1.37-1.8c0.55-0.8,1-1.39,1.35-1.79c2.73-3.16,5.77-5.94,9.12-8.37
		c2.78-2.01,6.26-4.19,10.42-6.54c6.49-3.67,13.37-6.34,20.64-8.03c4.24-0.98,8.49-1.47,12.77-1.46
		c11.26,0.01,21.92,2.56,31.98,7.64c6.12,3.09,11.85,7.02,17.18,11.79c1.31,1.17,3.08,2.99,5.3,5.44c2.41,2.65,4.2,4.44,5.38,5.39
		c1.14,0.92,2.35,0.83,3.63-0.25c1.66-1.4,3.21-2.9,4.66-4.52c11.26-12.59,24.89-20.78,40.89-24.58c5.26-1.25,10.69-1.54,16.27-0.87
		c3.69,0.44,7.88,1.34,12.6,2.69c14.79,4.24,27.3,12.36,37.53,24.34c8.99,10.54,15.03,22.52,18.12,35.95
		c5.42,23.53,2.42,46.01-9.02,67.42c-5.53,10.35-11.82,19.68-18.89,27.98c-0.02,0.03-1.14,1.41-3.37,4.13
		c-1.88,2.31-4.27,4.8-7.17,7.48C410.25,385.71,409.78,386.04,409.48,386.1z"/>
	<path class="st34" d="M448.69,321.31c0.03-0.19,0.02-0.36-0.03-0.52c-0.06-0.17-0.27-0.26-0.45-0.18c-0.48,0.21-0.8,0.55-0.95,1.04
		c-0.15,0.5-0.24,0.78-0.26,0.83c-0.34,0.8-0.58,1.64-0.74,2.5c-0.04,0.2-0.15,0.37-0.32,0.48c-1.38,0.9-2.14,2.2-2.26,3.91
		c-0.01,0.2-0.1,0.39-0.24,0.55c-0.41,0.43-0.66,0.89-0.74,1.39c-0.6,3.45-1.98,6.42-4.15,8.93c-4.62,5.32-9.93,9.83-15.94,13.51
		c-7.16,4.39-14.7,7.94-22.61,10.64c-3.9,1.33-8.05,2.43-12.46,3.3c-5.38,1.06-11.13,1.89-17.24,2.48
		c-7.13,0.7-13.42,1.22-18.87,1.57c-2.74,0.18-7.04,0.28-12.89,0.31c-5.93,0.03-12.24,0.25-18.93,0.67
		c-0.37,0.02-0.73,0.11-1.07,0.26c-0.54,0.24-0.81,0.06-0.81-0.53c3.18-2.52,6.13-5.27,8.87-8.24c2.58-2.81,4.38-4.99,5.39-6.53
		c1.54-2.34,2.7-4.95,3.48-7.84c1.47-5.44,0.02-9.73-4.35-12.89c-3.86-2.79-8.05-4.6-12.59-5.42c-3.47-0.64-6.77-0.59-9.89,0.15
		c-3.39,0.8-6.42,2.3-9.09,4.5c-3.84,3.16-5.93,7.12-6.26,11.9c-0.18,2.5,0.22,5.02,1.18,7.57c0.95,2.51,2.27,4.76,3.95,6.74
		c2.59,3.05,5.81,5.85,9.64,8.4l3.39,1.99c0.12,0.5-0.03,0.68-0.46,0.54c-1.57-0.54-3.14-1.07-4.72-1.59
		c-0.18-0.06-0.39-0.05-0.6,0.03c-0.37,0.14-0.76,0.21-1.15,0.21c-12.91-0.02-25.7-1.27-38.37-3.75
		c-11.23-2.2-21.21-5.91-29.96-11.14c-15.9-9.51-26.28-23.15-31.15-40.93c-1.13-4.12-1.8-8.36-2.02-12.71
		c-0.49-9.78,0.72-19.41,3.62-28.88c1.43-4.68,3.42-9.09,5.95-13.21c1.57-2.55,3.65-5.25,6.25-8.12c2.46-2.71,4.88-5.13,7.28-7.25
		c3.88-3.45,7.18-6.69,9.91-9.73c0.18-0.2,0.32-0.4,0.42-0.6c0.51-1.02,0.27-1.24-0.72-0.65c-4.12,2.46-8.11,5.11-11.97,7.95
		c0.01-0.3-0.07-0.36-0.23-0.2c-0.31,0.32-0.86,0.14-1.05-0.32c-0.63-1.61-0.82-3.22-0.56-4.83c0.18-1.12,0.81-2.35,1.88-3.67
		c1.07-1.31,2.15-2.61,3.24-3.9c0.94-1.1,1.99-2,3.17-2.69c1.2-0.71,2.43-1.38,3.68-2.03c0.17-0.08,0.3-0.25,0.35-0.46
		c0.16-0.6,0.52-1.09,1.06-1.47c1.09-0.77,2.04-1.68,2.84-2.74c0.01-0.02,0.13-0.24,0.36-0.68c0.16-0.3,0.41-0.5,0.75-0.61
		c0.15-0.05,0.28-0.2,0.33-0.39l0.08-0.36c4.3-1.2,9.1-1.89,14.38-2.1c10.09-0.39,19.58,1.28,28.45,5
		c9.34,3.91,17.65,9.4,24.9,16.47c3.26,3.17,5.4,5.33,6.43,6.47c0.98,1.09,2.02,1.89,3.13,2.41c0.19,0.08,0.4,0.1,0.6,0.03
		c1.21-0.44,2.12-0.95,2.72-1.55c3.05-3.02,6.08-6.06,9.11-9.11c3.2-3.23,7.39-6.51,12.57-9.84c5.92-3.81,12.24-6.57,18.96-8.27
		c4.12-1.04,8.37-1.64,12.75-1.79c11.73-0.4,23.04,2.24,33.93,7.89c7.7,4,14.24,8.85,19.63,14.56c8.98,9.52,15.43,20.54,19.36,33.05
		c3.98,12.71,5.27,26.09,3.87,40.15C450.19,314.41,449.61,317.53,448.69,321.31z M374.19,237.13l-0.97,1.29
		c-1.72,1.86-2.75,3.96-3.08,6.3c-0.26,1.85,0.1,4.05,1.09,6.59c1.2,3.06,2.74,5.94,4.63,8.64c0.98,1.4,2.15,3.02,3.5,4.86
		c1.11,1.51,2.37,3.05,3.79,4.62c5.24,5.82,10.51,11.03,15.8,15.64c2.24,1.96,4.67,3.32,7.29,4.09c2.64,0.78,5.33,0.77,8.07-0.02
		c3.09-0.89,5.7-2.51,7.83-4.86c1.92-2.11,3.29-4.73,4.13-7.87c0.86-3.22,1.04-6.47,0.55-9.77c-0.35-2.4-1.28-5.24-2.79-8.53
		c-1.45-3.16-2.93-5.78-4.44-7.87c-1.63-2.25-2.97-3.81-4.03-4.68c-0.35-0.28-0.57-0.31-0.67-0.08c-0.03,0.08,0.03,0.31,0.15,0.57
		l0.53,1.08c-4.29-4.64-9.08-8.45-14.36-11.41c-5.56-3.11-11.63-4.48-18.18-4.1c-0.04-0.25-0.25-0.34-0.65-0.3
		C378.5,231.8,375.77,233.74,374.19,237.13z M261.49,234.51c-3.02-2.32-6.42-3.33-10.2-3.03c-5.12,0.41-9.35,2.35-12.7,5.81
		c-1.63,1.68-2.64,3.38-3.04,5.08c-0.49,2.09-0.2,4.18,0.87,6.24c1.42,2.76,3.58,5,6.47,6.73c2.81,1.69,5.77,2.33,8.89,1.93
		c4.6-0.58,8.29-2.8,11.08-6.66c2.08-2.87,2.94-6,2.59-9.4c-0.15-1.43-0.56-2.67-1.22-3.74
		C263.54,236.37,262.62,235.38,261.49,234.51z M330.61,304.79c-1.93,4.38-2.08,8.87-0.45,13.47c1,2.83,2.5,5.2,4.49,7.1
		c2.17,2.07,4.71,3.45,7.63,4.13c3.32,0.79,6.64,0.91,9.94,0.37c4.1-0.67,7.57-2.76,10.39-6.26c3.41-4.23,4.82-9.07,4.21-14.54
		c-0.51-4.67-2.59-8.31-6.24-10.94c-3.35-2.41-7.07-3.67-11.16-3.76c-2.35-0.05-4.56,0.12-6.61,0.52c-2.28,0.44-4.35,1.29-6.22,2.55
		C334,299.17,332,301.63,330.61,304.79z M287.13,298.53c-3.2-2.46-6.82-3.83-10.86-4.11c-3.97-0.27-7.67,0.27-11.09,1.63
		c-4.01,1.59-6.85,4.37-8.53,8.33c-1.53,3.6-1.94,7.31-1.24,11.15c0.77,4.16,2.87,7.66,6.33,10.5c3.88,3.19,8.25,4.68,13.11,4.48
		c3.13-0.13,6.01-0.98,8.64-2.53c2.75-1.63,4.96-3.81,6.62-6.54c2.13-3.5,3.05-7.3,2.76-11.4c-0.16-2.27-0.7-4.36-1.63-6.28
		C290.22,301.58,288.84,299.85,287.13,298.53z"/>
	<path class="st35" d="M219.05,219.74c-0.76,0.39-1.57,0.59-2.42,0.62c-0.21,0.01-0.41-0.07-0.57-0.21
		c-0.82-0.73-0.69-1.18,0.38-1.35c0.52-0.09,0.85-0.14,1.01-0.17c1.47-0.26,2.8,0.06,3.97,0.95c0.45,0.34,0.43,0.54-0.06,0.59
		c-0.13,0.01-0.27-0.01-0.43-0.06c-0.43-0.15-0.86-0.3-1.3-0.43C219.45,219.63,219.24,219.65,219.05,219.74z"/>
	<path class="st36" d="M239.66,218.59l-0.08,0.36c-0.05,0.19-0.17,0.35-0.33,0.39c-0.34,0.11-0.6,0.32-0.75,0.61
		c-0.23,0.43-0.35,0.66-0.36,0.68c-0.8,1.06-1.75,1.97-2.84,2.74c-0.54,0.38-0.89,0.87-1.06,1.47c-0.05,0.21-0.18,0.37-0.35,0.46
		c-1.25,0.64-2.47,1.32-3.68,2.03c-1.17,0.69-2.23,1.59-3.17,2.69c-1.09,1.29-2.17,2.58-3.24,3.9c-1.07,1.32-1.7,2.55-1.88,3.67
		c-0.26,1.61-0.07,3.22,0.56,4.83c0.19,0.46,0.74,0.64,1.05,0.32c0.16-0.16,0.23-0.1,0.23,0.2c-4.51,3.56-8.45,6.83-11.84,9.8
		c-2.21,1.94-4.68,3.27-7.39,3.99c-0.2,0.05-0.41,0.01-0.57-0.13c-2.7-2.33-3.68-5.29-2.95-8.87c0.09-0.44,0.26-0.85,0.52-1.22
		c1.45-2.08,2.51-4.01,3.17-5.81c0.04-0.11,0.05-0.31,0.03-0.62l-0.06-1.01C214.39,228.97,226.05,222.14,239.66,218.59z"/>
	<path class="st33" d="M202.96,232.58c0.41,0.32,0.59,0.66,0.54,1.02c-0.04,0.29-0.16,0.34-0.37,0.14l-2.26-2.26
		c-0.24-0.25-0.2-0.3,0.13-0.16C201.53,231.53,202.18,231.96,202.96,232.58z"/>
	<path class="st37" d="M383.04,231.62c-3.72,0.61-6.66,2.45-8.84,5.51c1.57-3.39,4.31-5.33,8.2-5.81
		C382.78,231.28,383,231.38,383.04,231.62z"/>
	<path class="st38" d="M261.49,234.51c1.13,0.86,2.04,1.86,2.74,2.97c0.66,1.07,1.07,2.31,1.22,3.74c0.35,3.4-0.52,6.54-2.59,9.4
		c-2.79,3.85-6.48,6.07-11.08,6.66c-3.11,0.4-6.08-0.25-8.89-1.93c-2.89-1.73-5.05-3.98-6.47-6.73c-1.07-2.07-1.36-4.15-0.87-6.24
		c0.4-1.71,1.41-3.4,3.04-5.08c3.35-3.46,7.58-5.39,12.7-5.81C255.07,231.19,258.47,232.2,261.49,234.51z"/>
	<path class="st38" d="M383.04,231.62c6.56-0.38,12.62,0.98,18.18,4.1c5.29,2.96,10.08,6.77,14.36,11.41
		c3.35,3.8,6.09,7.84,8.21,12.13c2.13,4.32,2.96,8.74,2.48,13.26c-0.52,4.79-2.12,8.66-4.82,11.62c-2.59,2.84-6.01,4.42-10.25,4.72
		c-1.79,0.13-3.55-0.11-5.28-0.72c-1.83-0.64-3.42-1.48-4.79-2.52c-9.79-7.4-18.26-16.5-25.41-27.3c-1.38-2.09-2.58-4.28-3.59-6.58
		c-2.03-4.65-1.67-9.09,1.08-13.33l0.97-1.29C376.37,234.08,379.32,232.24,383.04,231.62z M406.63,247.23
		c-0.85-0.43-1.63-0.3-2.33,0.4c-0.55,0.55-0.41,0.85,0.43,0.92l1.7,0.13c0.28,0.02,0.48,0,0.61-0.06
		C407.85,248.24,407.71,247.77,406.63,247.23z"/>
	<path class="st37" d="M311.44,372.77c1.2,0.83,2.5,1.14,3.9,0.94l2.39-1.26c0,0.59,0.26,0.77,0.81,0.53
		c0.34-0.15,0.7-0.24,1.07-0.26c6.69-0.42,13-0.64,18.93-0.67c5.85-0.03,10.14-0.13,12.89-0.31c5.45-0.35,11.74-0.88,18.87-1.57
		c6.11-0.59,11.86-1.42,17.24-2.48c4.41-0.87,8.57-1.97,12.46-3.3c7.91-2.7,15.44-6.25,22.61-10.64
		c6.01-3.69,11.33-8.19,15.94-13.51c2.17-2.5,3.55-5.48,4.15-8.93c0.09-0.49,0.33-0.96,0.74-1.39c0.14-0.15,0.23-0.35,0.24-0.55
		c0.12-1.71,0.87-3.01,2.26-3.91c0.17-0.11,0.28-0.28,0.32-0.48c0.16-0.86,0.41-1.7,0.74-2.5c0.02-0.05,0.1-0.32,0.26-0.83
		c0.15-0.49,0.47-0.84,0.95-1.04c0.18-0.08,0.39,0.01,0.45,0.18c0.05,0.16,0.06,0.33,0.03,0.52c-3.28,12.88-8.65,24.93-16.11,36.16
		c-6.91,10.41-14.61,19.96-23.1,28.64l-9.17,9.7c-6.36,6.78-13.31,13.61-20.83,20.48c-12.14,11.1-24.13,21.46-35.96,31.1
		c-5.51,4.42-10.92,8.96-16.23,13.62c-5.59,4.9-8.41,11.12-8.48,18.66c-0.02,1.84-0.21,3.66-0.58,5.45
		c-0.04,0.2-0.17,0.37-0.36,0.45c-1.27,0.51-2.56,0.47-3.86-0.12c-0.37-0.2-0.69-0.46-0.95-0.77c-0.22-0.27-0.35-0.64-0.37-1.1
		c-0.12-2.49-0.21-4.97-0.26-7.46c-0.06-2.76-0.78-5.33-2.16-7.7c-0.9-1.55-2.79-3.64-5.65-6.28c-5.86-5.4-11.83-10.66-17.93-15.78
		c-9.48-7.96-18.89-15.99-28.24-24.1c-3.54-3.07-6.73-5.94-9.58-8.62c-10.76-10.09-21.16-20.54-31.22-31.34
		c-3.5-3.76-6.33-6.99-8.49-9.71c-7.63-9.57-14.1-19.89-19.41-30.98c-1.52-3.17-3.06-7.61-4.61-13.32
		c-4.44-16.26-4.97-32.24-1.6-47.93l1.61-6.13c2.27-8.76,6.13-17.21,11.6-25.36c2.7-4.02,5.34-7.29,7.91-9.8l0.06,1.01
		c0.02,0.31,0.01,0.51-0.03,0.62c-0.67,1.8-1.72,3.73-3.17,5.81c-0.26,0.37-0.43,0.78-0.52,1.22c-0.73,3.58,0.25,6.53,2.95,8.87
		c0.15,0.14,0.37,0.18,0.57,0.13c2.71-0.72,5.17-2.05,7.39-3.99c3.38-2.97,7.33-6.23,11.84-9.8c3.86-2.85,7.85-5.5,11.97-7.95
		c0.99-0.59,1.23-0.37,0.72,0.65c-0.1,0.2-0.24,0.4-0.42,0.6c-2.73,3.04-6.04,6.28-9.91,9.73c-2.39,2.12-4.82,4.54-7.28,7.25
		c-2.6,2.87-4.68,5.57-6.25,8.12c-2.54,4.12-4.52,8.53-5.95,13.21c-2.9,9.47-4.1,19.1-3.62,28.88c0.21,4.35,0.89,8.59,2.02,12.71
		c4.87,17.78,15.26,31.42,31.15,40.93c8.75,5.23,18.73,8.94,29.96,11.14c12.67,2.48,25.46,3.73,38.37,3.75
		c0.4,0,0.78-0.07,1.15-0.21c0.21-0.08,0.42-0.09,0.6-0.03c1.58,0.52,3.15,1.04,4.72,1.59
		C311.41,373.45,311.56,373.27,311.44,372.77z"/>
	<path class="st37" d="M373.23,238.42c-2.75,4.24-3.11,8.68-1.08,13.33c1.01,2.3,2.2,4.49,3.59,6.58
		c7.15,10.79,15.62,19.89,25.41,27.3c1.37,1.03,2.96,1.87,4.79,2.52c1.72,0.61,3.48,0.85,5.28,0.72c4.24-0.31,7.66-1.88,10.25-4.72
		c2.7-2.96,4.3-6.83,4.82-11.62c0.48-4.52-0.34-8.94-2.48-13.26c-2.12-4.29-4.86-8.34-8.21-12.13l-0.53-1.08
		c-0.13-0.26-0.19-0.49-0.15-0.57c0.1-0.23,0.32-0.21,0.67,0.08c1.06,0.86,2.4,2.42,4.03,4.68c1.51,2.09,2.99,4.71,4.44,7.87
		c1.51,3.29,2.44,6.13,2.79,8.53c0.49,3.3,0.3,6.56-0.55,9.77c-0.83,3.14-2.21,5.76-4.13,7.87c-2.13,2.35-4.74,3.97-7.83,4.86
		c-2.74,0.79-5.43,0.8-8.07,0.02c-2.61-0.77-5.04-2.13-7.29-4.09c-5.29-4.61-10.56-9.82-15.8-15.64c-1.42-1.57-2.69-3.12-3.79-4.62
		c-1.35-1.84-2.52-3.46-3.5-4.86c-1.89-2.7-3.44-5.57-4.63-8.64c-0.99-2.54-1.35-4.73-1.09-6.59
		C370.48,242.38,371.51,240.28,373.23,238.42z"/>
	<path class="st38" d="M406.63,247.23c1.08,0.54,1.21,1,0.41,1.39c-0.12,0.06-0.33,0.08-0.61,0.06l-1.7-0.13
		c-0.83-0.06-0.98-0.37-0.43-0.92C405,246.94,405.78,246.8,406.63,247.23z"/>
	<path class="st39" d="M183.54,280.35c-3.37,15.7-2.84,31.67,1.6,47.93c1.56,5.71,3.09,10.15,4.61,13.32
		c5.31,11.09,11.78,21.41,19.41,30.98c2.16,2.71,4.99,5.95,8.49,9.71c10.05,10.8,20.46,21.25,31.22,31.34
		c2.85,2.68,6.05,5.55,9.58,8.62c9.35,8.11,18.76,16.14,28.24,24.1c6.1,5.12,12.07,10.38,17.93,15.78c2.86,2.64,4.75,4.73,5.65,6.28
		c1.38,2.37,2.1,4.94,2.16,7.7c0.06,2.49,0.14,4.98,0.26,7.46c0.03,0.46,0.15,0.83,0.37,1.1c0.26,0.31,0.57,0.57,0.95,0.77
		c-0.73,0.18-1.33,0.04-1.79-0.42c-0.29-0.29-0.49-0.8-0.58-1.52c-0.33-2.52-0.69-5.04-1.08-7.55c-0.06-0.36-0.07-1.3-0.05-2.83
		c0.03-1.63-0.57-3.17-1.79-4.63c-1.79-2.14-3.46-3.94-5.01-5.4c-2.46-2.32-3.7-3.5-3.73-3.52c-1.62-1.6-3.29-3.14-5.01-4.62
		c-2.68-2.31-4.39-3.8-5.13-4.48c-5.72-5.21-11.49-10.36-17.3-15.47c-2.76-2.43-5.58-4.79-8.44-7.1c-0.19-0.15-0.62-0.64-1.28-1.46
		c-0.29-0.37-0.65-0.66-1.07-0.88c-0.6-0.31-0.99-0.54-1.17-0.67c-6.31-4.94-12.33-10.21-18.08-15.8c-2.26-2.2-4.57-4.36-6.92-6.46
		c-2.45-2.19-4.54-4.4-6.27-6.63c-1.12-1.44-2.25-2.69-3.4-3.75c-1.18-1.09-1.77-1.64-1.79-1.65c-8.17-8.02-15.73-17.09-22.67-27.21
		c-2.53-3.69-4.6-7.08-6.21-10.18c-0.23-0.44-0.72-1.09-1.47-1.95c-0.56-0.65-0.96-1.39-1.19-2.23c-0.19-0.7-0.38-1.2-0.57-1.5
		c-0.2-0.3-0.41-0.59-0.65-0.88c-0.26-0.31-0.46-0.61-0.61-0.88c-2.12-4.03-4.04-8.69-5.75-14c-1.12-3.48-1.96-6.72-2.5-9.71
		c-0.16-0.89-0.53-2.76-1.1-5.6c-0.37-1.87-0.61-3.77-0.72-5.69c-0.06-1.08-0.18-2.15-0.36-3.22c-0.21-1.22-0.3-2.29-0.28-3.19
		c0.15-5.54,0.42-9.99,0.81-13.35c0.18-1.56,0.64-3.85,1.39-6.88c0.01-0.03,0.1-0.53,0.27-1.5
		C182.68,281.81,183.02,281.04,183.54,280.35z"/>
	<path class="st32" d="M336.59,297.43c1.87-1.26,3.95-2.11,6.22-2.55c2.06-0.4,4.26-0.57,6.61-0.52c4.09,0.09,7.81,1.35,11.16,3.76
		c3.65,2.63,5.73,6.27,6.24,10.94c0.61,5.47-0.8,10.31-4.21,14.54c-2.83,3.5-6.29,5.59-10.39,6.26c-3.3,0.54-6.62,0.42-9.94-0.37
		c-2.92-0.69-5.46-2.07-7.63-4.13c-1.99-1.9-3.49-4.26-4.49-7.1c-1.63-4.61-1.48-9.1,0.45-13.47
		C332,301.63,334,299.17,336.59,297.43z M360.69,298.97c-0.55-0.52-1.18-0.96-1.89-1.32c-2.63-1.32-5.36-2.07-8.2-2.26
		c-2.86-0.19-5.64,0.02-8.32,0.64c-4,0.93-7.11,3.04-9.32,6.35c-1.79,2.68-2.73,5.78-2.84,9.29c-0.11,3.57,0.69,6.85,2.4,9.84
		c2.61,4.59,6.78,7.04,12.5,7.35c0.33,0.02,0.83,0,1.52-0.05c0.5-0.03,1.01-0.04,1.51-0.02c1.2,0.05,1.94,0.06,2.24,0.05
		c6.83-0.46,11.66-3.85,14.5-10.19c1.1-2.45,1.55-5.23,1.35-8.35c-0.24-3.86-1.53-7.08-3.88-9.66
		C361.52,299.81,360.99,299.25,360.69,298.97z"/>
	<path class="st32" d="M287.13,298.53c1.71,1.32,3.09,3.05,4.12,5.21c0.92,1.92,1.47,4.02,1.63,6.28c0.29,4.1-0.63,7.9-2.76,11.4
		c-1.67,2.73-3.88,4.91-6.62,6.54c-2.63,1.55-5.51,2.4-8.64,2.53c-4.86,0.21-9.23-1.29-13.11-4.48c-3.45-2.84-5.56-6.34-6.33-10.5
		c-0.7-3.83-0.29-7.55,1.24-11.15c1.68-3.96,4.53-6.74,8.53-8.33c3.42-1.35,7.11-1.9,11.09-1.63
		C280.31,294.7,283.93,296.07,287.13,298.53z M285.52,298.53c-2.77-1.84-5.83-2.86-9.18-3.07c-3.22-0.21-6.34,0.14-9.37,1.03
		c-4.39,1.29-7.51,3.95-9.38,7.98c-1.62,3.51-2.05,7.18-1.29,11c0.77,3.88,2.72,7.26,5.84,10.15c1.33,1.23,3.18,2.22,5.57,2.98
		c4.09,1.3,7.9,1.39,11.45,0.25c7.43-2.38,11.71-7.46,12.82-15.25c0.39-2.76,0.12-5.26-0.83-7.51c-0.54-1.29-1.3-2.67-2.28-4.14
		C287.9,300.51,286.79,299.37,285.52,298.53z"/>
	<path class="st40" d="M362.27,300.64c2.34,2.58,3.64,5.8,3.88,9.66c0.2,3.12-0.25,5.9-1.35,8.35c-2.84,6.34-7.67,9.74-14.5,10.19
		c-0.3,0.02-1.05,0-2.24-0.05c-0.5-0.02-1.01-0.01-1.51,0.02c-0.68,0.05-1.19,0.06-1.52,0.05c-5.72-0.31-9.89-2.76-12.5-7.35
		c-1.71-2.99-2.51-6.27-2.4-9.84c0.1-3.52,1.05-6.62,2.84-9.29c2.21-3.3,5.32-5.42,9.32-6.35c2.68-0.62,5.46-0.83,8.32-0.64
		c2.84,0.19,5.57,0.94,8.2,2.26c0.71,0.35,1.34,0.79,1.89,1.32C360.99,299.25,361.52,299.81,362.27,300.64z M341.34,314.2
		c0.23,0.94,0.81,1.68,1.76,2.22c1.29,0.74,2.66,1.21,4.11,1.41c1.23,0.17,2.64,0.28,4.26,0.34c2.17,0.09,4.23-0.38,6.18-1.39
		c0.96-0.49,1.61-1.09,1.94-1.77c0.35-0.74,0.54-1.65,0.55-2.73c0.03-1.97-0.52-3.45-1.64-4.44c-0.81-0.71-2.16-1.16-4.06-1.37
		c-2.55-0.28-5.08-0.17-7.6,0.32c-1.97,0.39-3.22,0.71-3.76,0.96c-1.47,0.69-2.15,1.96-2.04,3.81
		C341.12,312.85,341.22,313.73,341.34,314.2z"/>
	<path class="st40" d="M285.52,298.53c1.27,0.84,2.38,1.98,3.35,3.42c0.98,1.47,1.74,2.85,2.28,4.14c0.94,2.25,1.22,4.75,0.83,7.51
		c-1.11,7.79-5.38,12.87-12.82,15.25c-3.55,1.14-7.36,1.05-11.45-0.25c-2.38-0.76-4.24-1.75-5.57-2.98
		c-3.12-2.89-5.07-6.27-5.84-10.15c-0.76-3.83-0.33-7.49,1.29-11c1.87-4.03,4.99-6.69,9.38-7.98c3.03-0.89,6.16-1.24,9.37-1.03
		C279.69,295.67,282.75,296.69,285.52,298.53z M284.7,307.38c-0.4-0.39-0.92-0.65-1.47-0.71c-3.83-0.46-7.55-0.4-11.16,0.2
		c-1.49,0.25-2.25,0.37-2.28,0.39c-0.77,0.28-1.33,0.89-1.68,1.83c-1.18,3.1-0.81,5.45,1.11,7.03c1.12,0.93,2.82,1.55,5.1,1.85
		c1.76,0.24,3.61,0.27,5.53,0.11c1.53-0.13,2.9-0.52,4.12-1.18c1.29-0.7,2.15-1.74,2.57-3.12
		C287.23,311.4,286.63,309.27,284.7,307.38z"/>
	<path class="st32" d="M341.03,311.56c-0.12-1.85,0.56-3.12,2.04-3.81c0.54-0.25,1.79-0.57,3.76-0.96c2.52-0.49,5.06-0.6,7.6-0.32
		c1.9,0.21,3.25,0.67,4.06,1.37c1.13,0.99,1.67,2.47,1.64,4.44c-0.02,1.08-0.2,1.99-0.55,2.73c-0.33,0.69-0.98,1.28-1.94,1.77
		c-1.95,1.01-4.01,1.47-6.18,1.39c-1.61-0.06-3.03-0.17-4.26-0.34c-1.44-0.19-2.81-0.66-4.11-1.41c-0.95-0.54-1.53-1.28-1.76-2.22
		C341.22,313.73,341.12,312.85,341.03,311.56z M342.36,309.8c-0.74,2.37-0.46,4.18,0.86,5.43c0.88,0.83,2.37,1.35,4.48,1.57
		c2.08,0.21,4.16,0.23,6.24,0.04c1.75-0.16,3.04-0.65,3.87-1.46c1.18-1.16,1.55-2.67,1.12-4.52c-0.23-0.98-0.61-1.72-1.14-2.22
		c-0.64-0.61-1.48-0.92-2.51-0.94c-3.61-0.07-7.2,0.06-10.79,0.37C343.41,308.18,342.69,308.75,342.36,309.8z"/>
	<path class="st32" d="M284.7,307.38c1.93,1.89,2.53,4.02,1.82,6.4c-0.42,1.38-1.27,2.43-2.57,3.12c-1.22,0.66-2.59,1.05-4.12,1.18
		c-1.92,0.16-3.76,0.13-5.53-0.11c-2.27-0.31-3.97-0.92-5.1-1.85c-1.92-1.58-2.29-3.93-1.11-7.03c0.36-0.94,0.92-1.55,1.68-1.83
		c0.03-0.01,0.79-0.14,2.28-0.39c3.61-0.6,7.33-0.66,11.16-0.2C283.78,306.73,284.3,306.99,284.7,307.38z M284.18,308.58
		c-0.55-0.44-1.18-0.66-1.88-0.66h-11.37c-0.72,0-1.26,0.32-1.6,0.95c-0.51,0.96-0.77,2.15-0.78,3.56c-0.01,1.08,0.3,1.98,0.94,2.68
		c0.47,0.52,1.24,0.93,2.33,1.22c3.32,0.9,6.69,0.98,10.11,0.25c2.61-0.56,3.83-2.21,3.66-4.95
		C285.5,310.27,285.03,309.26,284.18,308.58z"/>
	<path class="st41" d="M342.36,309.8c0.33-1.05,1.05-1.63,2.15-1.72c3.59-0.32,7.18-0.44,10.79-0.37c1.03,0.02,1.86,0.33,2.51,0.94
		c0.53,0.5,0.91,1.24,1.14,2.22c0.43,1.85,0.06,3.36-1.12,4.52c-0.83,0.82-2.12,1.31-3.87,1.46c-2.09,0.19-4.17,0.18-6.24-0.04
		c-2.11-0.22-3.61-0.74-4.48-1.57C341.91,313.99,341.62,312.18,342.36,309.8z M353.65,310.64c-0.77,0.99-0.53,1.86,0.72,2.61
		c0.18,0.1,0.33,0.25,0.44,0.44c0.61,1.01,1.37,1.13,2.3,0.37c0.15-0.13,0.25-0.32,0.25-0.54c0.03-1.39-0.11-2.3-0.41-2.73
		c-0.48-0.7-1.06-1.03-1.75-1.01C354.6,309.79,354.09,310.08,353.65,310.64z"/>
	<path class="st41" d="M284.18,308.58c0.86,0.68,1.32,1.69,1.41,3.04c0.17,2.74-1.05,4.39-3.66,4.95
		c-3.42,0.74-6.79,0.65-10.11-0.25c-1.08-0.29-1.86-0.7-2.33-1.22c-0.63-0.7-0.94-1.59-0.94-2.68c0.01-1.41,0.27-2.6,0.78-3.56
		c0.34-0.64,0.88-0.95,1.6-0.95h11.37C283,307.92,283.63,308.14,284.18,308.58z"/>
	<path class="st42" d="M355.2,309.77c0.69-0.02,1.28,0.32,1.75,1.01c0.3,0.43,0.44,1.35,0.41,2.73c-0.01,0.22-0.1,0.41-0.25,0.54
		c-0.93,0.76-1.7,0.63-2.3-0.37c-0.11-0.19-0.26-0.34-0.44-0.44c-1.25-0.74-1.49-1.61-0.72-2.61
		C354.09,310.08,354.6,309.79,355.2,309.77z"/>
	<path class="st32" d="M317.73,372.45l-2.39,1.26c0.01-0.25,0.15-0.48,0.42-0.68c5.01-3.79,9.61-8.22,13.81-13.28
		c2.73-3.28,4.57-7,5.52-11.17c0.39-1.68,0.35-3.24-0.1-4.7c-0.78-2.51-2.13-4.57-4.04-6.17c-1.41-1.19-3.49-2.36-6.22-3.51
		c-5.39-2.28-10.9-2.73-16.52-1.35c-3.31,0.81-6.01,2.08-8.09,3.82c-2.39,1.99-4.13,4.55-5.23,7.68c-0.68,1.93-0.9,3.76-0.68,5.5
		c0.93,7.37,4.46,13.24,10.6,17.61c1.55,1.11,2.64,2.21,3.26,3.32c-3.83-2.55-7.04-5.34-9.64-8.4c-1.68-1.98-3-4.23-3.95-6.74
		c-0.96-2.55-1.36-5.07-1.18-7.57c0.33-4.78,2.42-8.74,6.26-11.9c2.67-2.19,5.71-3.69,9.09-4.5c3.12-0.74,6.41-0.78,9.89-0.15
		c4.54,0.83,8.73,2.63,12.59,5.42c4.36,3.16,5.81,7.45,4.35,12.89c-0.78,2.89-1.94,5.5-3.48,7.84c-1.01,1.54-2.81,3.72-5.39,6.53
		C323.86,367.18,320.91,369.93,317.73,372.45z"/>
	<path class="st43" d="M315.34,373.71c-1.4,0.2-2.7-0.12-3.9-0.94l-3.39-1.99c-0.63-1.11-1.72-2.22-3.26-3.32
		c-6.14-4.37-9.68-10.24-10.6-17.61c-0.22-1.74,0.01-3.57,0.68-5.5c1.1-3.13,2.84-5.7,5.23-7.68c2.09-1.74,4.78-3.01,8.09-3.82
		c5.63-1.38,11.14-0.94,16.52,1.35c2.73,1.15,4.8,2.32,6.22,3.51c1.91,1.6,3.26,3.66,4.04,6.17c0.46,1.46,0.49,3.03,0.1,4.7
		c-0.95,4.16-2.79,7.88-5.52,11.17c-4.2,5.06-8.8,9.49-13.81,13.28C315.49,373.23,315.35,373.46,315.34,373.71z M310.34,341.95
		l-2.31,0.65c-5.27,2.46-6.33,6.22-3.2,11.29c0.92,1.49,3.07,3.59,6.45,6.31c0.81,1.8,2.23,3.13,4.24,3.99
		c0.41,0.17,0.88,0.06,1.15-0.28c3.59-4.37,6.77-8.95,9.54-13.76c0.02-0.03,0.35-0.49,0.99-1.37c0.43-0.59,0.63-1.24,0.6-1.95
		c-0.03-0.78-0.44-1.52-1.23-2.23c-1.39-1.26-2.99-2.13-4.79-2.59c-1-0.26-2.64-0.5-4.92-0.72c-1.52-0.15-3.18-0.21-4.99-0.17
		C311.1,341.11,310.59,341.39,310.34,341.95z"/>
	<path class="st33" d="M449.03,347.47c-0.43,0.99-1.06,1.83-1.88,2.51c-0.15,0.13-0.38,0.09-0.44-0.07
		c-0.08-0.21-0.03-0.46,0.15-0.74c1.85-2.99,3.15-6.09,3.91-9.31c0.1-0.44,0.31-0.72,0.61-0.85c0.16-0.06,0.34,0.05,0.37,0.25
		c0.23,1.41,0.14,2.78-0.28,4.12c-0.18,0.59-0.57,1.29-1.14,2.08C449.64,346.38,449.21,347.05,449.03,347.47z"/>
	<path class="st32" d="M311.28,360.19l3.36,2.39c0.26,0.39,0.59,0.59,0.99,0.61c0.29,0.01,0.59-0.14,0.9-0.47
		c2.05-2.18,3.86-4.54,5.42-7.08c0.68-1.1,1.45-2.27,2.29-3.5c0.79-1.16,1.51-2.35,2.17-3.59c0.73-1.85,0.22-3.21-1.54-4.08
		c-1.9-0.93-3.9-1.51-6.01-1.75c-2.82-0.51-5.66-0.77-8.52-0.78c0.25-0.55,0.77-0.83,1.55-0.84c1.81-0.03,3.47,0.02,4.99,0.17
		c2.28,0.22,3.92,0.46,4.92,0.72c1.8,0.46,3.39,1.33,4.79,2.59c0.78,0.71,1.19,1.45,1.23,2.23c0.03,0.71-0.17,1.35-0.6,1.95
		c-0.64,0.89-0.98,1.34-0.99,1.37c-2.76,4.8-5.94,9.39-9.54,13.76c-0.28,0.34-0.75,0.46-1.15,0.28
		C313.51,363.32,312.09,361.99,311.28,360.19z"/>
	<path class="st44" d="M310.34,341.95c2.86,0.01,5.7,0.27,8.52,0.78c-1.57,0.07-2.52,1.05-2.83,2.95c-0.21,1.26,0.33,1.87,1.61,1.81
		c0.19-0.01,0.81-0.14,1.86-0.39c1.01-0.24,2.3,0.09,3.87,0.99c0.67,0.37,1.36,0.36,2.07-0.03c0.23,0.34,0.55,0.51,0.97,0.48
		c-0.66,1.23-1.39,2.43-2.17,3.59c-0.84,1.23-1.61,2.4-2.29,3.5c-1.57,2.54-3.37,4.9-5.42,7.08c-0.31,0.33-0.6,0.48-0.9,0.47
		c-0.4-0.01-0.72-0.22-0.99-0.61c0.15-0.48,0.47-0.72,0.95-0.72c0.26,0.01,0.48-0.06,0.57-0.16l1.37-1.52
		c0.25-0.28,0.14-0.75-0.25-0.99c-2.29-1.46-4.1-3.06-5.43-4.81c-0.21-0.28-0.48-0.72-0.8-1.34c-0.24-0.46-0.51-0.91-0.81-1.34
		c-0.54-0.78-0.89-1.47-1.07-2.05c-0.69-2.3-1.08-4.65-1.15-7.07L310.34,341.95z"/>
	<path class="st45" d="M308.03,342.59c0.08,2.42,0.46,4.77,1.15,7.07c0.18,0.58,0.53,1.27,1.07,2.05c0.3,0.43,0.57,0.88,0.81,1.34
		c0.32,0.61,0.58,1.06,0.8,1.34c1.33,1.74,3.14,3.34,5.43,4.81c0.38,0.25,0.5,0.72,0.25,0.99l-1.37,1.52
		c-0.09,0.1-0.31,0.17-0.57,0.16c-0.49,0-0.8,0.24-0.95,0.72l-3.36-2.39c-3.38-2.72-5.53-4.83-6.45-6.31
		C301.7,348.81,302.76,345.05,308.03,342.59z"/>
	<path class="st42" d="M318.86,342.73c2.11,0.24,4.12,0.82,6.01,1.75c1.76,0.87,2.27,2.23,1.54,4.08c-0.41,0.02-0.74-0.14-0.97-0.48
		c0.09-0.61-0.12-1.14-0.66-1.57c-1.54-1.25-3.24-1.81-5.11-1.68c-0.19,0.01-0.34,0.17-0.31,0.34c0.09,0.74,0.57,1.07,1.43,0.97
		c0.4-0.04,1.24,0.29,2.54,1.01c0.52,0.28,0.53,0.6,0.04,0.95c-1.57-0.9-2.86-1.23-3.87-0.99c-1.05,0.25-1.67,0.38-1.86,0.39
		c-1.28,0.06-1.81-0.55-1.61-1.81C316.34,343.78,317.29,342.79,318.86,342.73z"/>
	<path class="st46" d="M325.45,348.07c-0.71,0.39-1.4,0.4-2.07,0.03c0.49-0.35,0.48-0.67-0.04-0.95c-1.3-0.71-2.15-1.05-2.54-1.01
		c-0.86,0.09-1.34-0.23-1.43-0.97c-0.03-0.17,0.12-0.33,0.31-0.34c1.87-0.13,3.58,0.43,5.11,1.68
		C325.32,346.93,325.54,347.46,325.45,348.07z"/>
	
		<ellipse transform="matrix(0.9278 -0.373 0.373 0.9278 -118.1413 95.6045)" class="st35" cx="188" cy="353.12" rx="0.34" ry="1.44"/>
	<path class="st32" d="M400.32,395.8c0.31,0.25,0.34,0.51,0.1,0.77c-3.78,4.03-8.28,8.56-13.51,13.58
		c-2.55,2.45-10.18,9.5-22.9,21.16c-0.92,0.84-1.84,1.61-2.77,2.3c-0.64,0.48-1.29,0.96-1.94,1.43c-0.56,0.41-1.16,0.93-1.81,1.57
		c-0.99,0.98-2.06,1.89-3.19,2.7c-1.13,0.81-2.18,1.7-3.17,2.66c-1.29,1.25-2.7,2.37-4.22,3.35c-0.17,0.11-0.31,0.27-0.42,0.46
		c-0.63,1.08-1.62,1.61-2.95,1.58c11.83-9.63,23.82-20,35.96-31.1C387.01,409.41,393.95,402.58,400.32,395.8z"/>
	<path class="st35" d="M245.6,422.2c-1.54,1.27-1.54,1.17,0.01-0.32c0.45-0.43,0.88-0.6,1.3-0.52c0.26,0.05,0.28,0.15,0.06,0.31
		c-0.34,0.24-0.73,0.38-1.15,0.43C245.74,422.13,245.65,422.16,245.6,422.2z"/>
	<path class="st47" d="M292.22,472.12l3.86,3.67c0.12,0.11,0.12,0.29,0.01,0.41l-0.14,0.15c-0.11,0.12-0.29,0.12-0.41,0.01
		l-3.86-3.67c-0.12-0.11-0.12-0.29-0.01-0.41l0.14-0.15C291.92,472.01,292.1,472.01,292.22,472.12z"/>
</g>
</svg>
