<?xml version="1.0" encoding="utf-8"?>
<!-- Generator: Adobe Illustrator 27.4.1, SVG Export Plug-In . SVG Version: 6.00 Build 0)  -->
<svg version="1.1" id="Layer_1" xmlns="http://www.w3.org/2000/svg" xmlns:xlink="http://www.w3.org/1999/xlink" x="0px" y="0px"
	 viewBox="0 0 612 792" style="enable-background:new 0 0 612 792;" xml:space="preserve">
<style type="text/css">
	.st0{fill:none;stroke:#6E4A28;stroke-width:2;}
	.st1{fill:none;stroke:#90633B;stroke-width:2;}
	.st2{fill:none;stroke:#221B15;stroke-width:2;}
	.st3{fill:none;stroke:#1F2022;stroke-width:2;}
	.st4{fill:none;stroke:#413A36;stroke-width:2;}
	.st5{fill:none;stroke:#11191C;stroke-width:2;}
	.st6{fill:none;stroke:#2D373D;stroke-width:2;}
	.st7{fill:none;stroke:#1D3139;stroke-width:2;}
	.st8{fill:none;stroke:#755A24;stroke-width:2;}
	.st9{fill:none;stroke:#7D6E2C;stroke-width:2;}
	.st10{fill:none;stroke:#EFC441;stroke-width:2;}
	.st11{fill:none;stroke:#F8E68F;stroke-width:2;}
	.st12{fill:none;stroke:#FCECA3;stroke-width:2;}
	.st13{fill:none;stroke:#FBFAEA;stroke-width:2;}
	.st14{fill:none;stroke:#12191D;stroke-width:2;}
	.st15{fill:none;stroke:#11181A;stroke-width:2;}
	.st16{fill:none;stroke:#1E303A;stroke-width:2;}
	.st17{fill:none;stroke:#747675;stroke-width:2;}
	.st18{fill:none;stroke:#11191E;stroke-width:2;}
	.st19{fill:none;stroke:#6C1C15;stroke-width:2;}
	.st20{fill:#020202;}
	.st21{fill:#1A2D36;}
	.st22{fill:#F8D848;}
	.st23{fill:#E6B13C;}
	.st24{fill:#FAF5D4;}
	.st25{fill:#FFFFFF;}
	.st26{fill:#3E4043;}
	.st27{fill:#20343D;}
	.st28{fill:#1D2D35;}
	.st29{fill:#1A2C32;}
	.st30{fill:#E4E9E5;}
	.st31{fill:#1C2F38;}
	.st32{fill:#D63428;}
	.st33{fill:#433429;}
</style>
<g>
	<g>
		<path vector-effect="non-scaling-stroke" class="st0" d="M414.56,453.49c6.61-6.39,13.81-13.75,21.61-22.11
			c10.6-11.35,19.51-23.6,26.73-36.75c4.03-7.33,7.13-14.83,9.31-22.49c2.34-8.24,3.89-16.73,4.62-25.46
			c0.38-4.52,0.45-8.98,0.21-13.39c-0.95-17.28-5.3-33.63-13.06-49.03c-2.1-4.18-4.35-8.03-6.74-11.57
			c-8.15-12.04-18.36-21.7-30.63-28.96c-13.93-8.25-29.44-12.06-46.52-11.43c-13.75,0.51-26.25,3.87-37.49,10.1
			c-3.16,1.75-6.72,4.14-10.68,7.16c-3.42,2.61-6.74,5.33-9.98,8.16c-0.1,0.09-0.25,0.08-0.33-0.01
			c-7.34-7.57-15.78-13.65-25.32-18.25c-8.41-4.06-16.87-6.38-25.38-6.98c-8.14-0.57-15.84-0.46-23.11,0.33
			c-8.46,0.92-16.7,3.37-24.73,7.33c-15.59,7.69-28.46,18.44-38.59,32.25c-2.66,3.62-5.03,7.4-7.12,11.33
			c-4.11,7.72-7.19,15.78-9.24,24.16c-4.12,16.89-4.68,33.9-1.67,51.04c0.75,4.27,1.55,8.06,2.4,11.36
			c0.98,3.83,2.19,7.51,3.63,11.04c5.48,13.43,12.87,25.87,22.15,37.32c10.74,13.25,22.38,25.64,34.93,37.16
			c5.77,5.29,9.05,8.32,9.86,9.07c10.58,9.85,20.53,18.51,29.86,25.98c13.71,10.98,24.22,19.57,31.52,25.78
			c0.16,0.14,0.25,0.34,0.23,0.55c-0.49,6.11-0.53,10.3-0.14,12.57c0.64,3.66,1.88,6.89,3.72,9.67c2.71,4.09,6.24,6.68,10.61,7.78
			c3.95,1,8.05,0.68,12.28-0.94c5.87-2.25,9.85-6.48,11.92-12.69c0.71-2.13,1.09-4.72,1.14-7.78c0.04-2.55-0.03-5.18-0.19-7.91
			c-0.04-0.81,0.25-1.46,0.88-1.97c4.89-3.92,9.77-7.77,14.63-11.54C376.37,488.46,395.92,471.51,414.56,453.49"/>
		<path vector-effect="non-scaling-stroke" class="st1" d="M266.73,607.58c2.68,0.26,5.35,0.42,8.04,0.48
			c6.09,0.13,12.18,0.33,18.27,0.58c6.06,0.25,10.51,0.41,13.38,0.47c22.64,0.47,45.64,0.08,69-1.17
			c7.72-0.42,14.86-1.02,21.44-1.82"/>
		<path vector-effect="non-scaling-stroke" class="st0" d="M396.86,606.13c8.64-0.97,17.17-2.52,25.6-4.66
			c3.12-0.79,5.63-1.83,7.52-3.11c1.62-1.1,2.29-2.58,2.02-4.42c-0.13-0.93-0.56-1.73-1.27-2.4c-0.68-0.65-1.47-1.16-2.36-1.55
			c-3.16-1.36-6.41-2.41-9.77-3.16c-13.68-3.01-27.51-4.76-41.48-5.23c-7.34-0.25-11.04-0.37-11.09-0.38
			c-26.45-1.13-52.91-1.2-79.37-0.19c-7.78,0.29-12.24,0.47-13.38,0.52c-13.08,0.62-26.08,2.03-39.01,4.21
			c-4.93,0.84-9.72,2.18-14.36,4.01c-1.5,0.59-2.57,1.18-3.21,1.78c-2.03,1.89-2.42,3.65-1.17,5.28c0.62,0.81,1.86,1.65,3.71,2.51
			c3.2,1.48,6.42,2.56,9.65,3.23c12.14,2.52,24.75,4.18,37.85,5"/>
		<path vector-effect="non-scaling-stroke" class="st2" d="M396.86,606.13c-0.89,0-1.09-0.15-0.58-0.46
			c0.12-0.07,0.26-0.11,0.42-0.12c2.04-0.11,4.05-0.44,6.02-0.98"/>
		<path vector-effect="non-scaling-stroke" class="st3" d="M402.72,604.57c2.42-0.26,4.83-0.62,7.21-1.09
			c0.15-0.03,2.38-0.44,6.71-1.24c3.79-0.7,7.48-1.79,11.06-3.28c1.38-0.58,2.39-1.36,3.03-2.36c0.78-1.21,0.9-2.36,0.37-3.44
			c-0.36-0.71-1.14-1.37-2.36-1.96c-3.63-1.76-7.39-3.09-11.29-4c-1.97-0.46-5.87-1.17-11.71-2.12c-3.55-0.58-7.13-1.02-10.71-1.32
			c-3.43-0.29-6-0.53-7.71-0.73c-4.12-0.48-6.69-0.72-7.71-0.72c-3.77,0-9.91-0.17-18.42-0.5c-16.76-0.65-34.78-0.85-54.09-0.6
			c-3.95,0.05-8.41,0.18-13.4,0.38c-5.48,0.22-10.95,0.44-16.42,0.64c-5.3,0.2-9.76,0.45-13.38,0.75
			c-6.83,0.56-13.65,1.29-20.45,2.17c-5.42,0.71-10.79,1.67-16.11,2.88c-4.03,0.92-7.55,2.35-10.56,4.29
			c-1.02,0.66-1.5,1.51-1.42,2.57c0.06,0.84,0.49,1.58,1.27,2.23c0.69,0.57,1.54,1.05,2.53,1.44c3.26,1.28,5.89,2.14,7.89,2.59
			c8.92,1.96,17.9,3.54,26.96,4.74c0.68,0.09,1.79,0.16,3.34,0.22c1.12,0.04,2.24,0.16,3.35,0.36"/>
		<path vector-effect="non-scaling-stroke" class="st2" d="M260.7,606.46c1.74,0.33,3.29,0.45,4.65,0.35
			c0.71-0.05,1.17,0.2,1.38,0.77"/>
		<path vector-effect="non-scaling-stroke" class="st4" d="M402.72,604.57l-0.14-0.78c-0.04-0.19-0.21-0.33-0.4-0.34
			c-1.33-0.05-2.66-0.12-3.99-0.21c-1.25-0.08-2.59-0.07-3.99,0.04c-2.66,0.21-5.33,0.25-8.01,0.11c-0.15-0.01-0.35-0.11-0.54-0.28
			c-0.21-0.2-0.49-0.26-0.84-0.17c-2.36,0.59-4.74,0.99-7.15,1.19c-1.21,0.1-2.43,0.38-3.66,0.82c-2.55,0.92-5.2,1.49-7.94,1.69
			c-0.12,0.01-0.16,0.06-0.11,0.14c0.02,0.05-0.01,0.11-0.05,0.11c-4.07,0.34-8.15,0.52-12.23,0.54
			c-11.77,0.06-23.54,0.02-35.31-0.13c-0.84-0.01-2.75-0.16-5.73-0.44c-1.91-0.18-3.83-0.19-5.76-0.02c-0.04,0-0.84,0.14-2.42,0.42
			c-0.82,0.14-1.72,0.2-2.7,0.17c-3.52-0.09-11.96-0.24-25.33-0.45c-0.18,0-0.56,0.06-1.12,0.19c-0.4,0.1-0.79,0.06-1.18-0.13
			c-0.15-0.07-0.31-0.23-0.42-0.47c-0.35-0.68-0.92-0.89-1.71-0.62c-0.42,0.15-1.45,0.59-3.08,1.33c-0.18,0.08-0.4,0.06-0.58-0.05
			c-0.76-0.5-1.6-0.74-2.51-0.72c-0.92,0.03-1.41,0.04-1.46,0.03c-1.21-0.06-2.42-0.09-3.62-0.1"/>
		<path vector-effect="non-scaling-stroke" class="st5" d="M450.96,266.08c-3.91-5.01-8.38-9.45-13.43-13.33
			c-5.29-4.07-10.71-7.58-16.26-10.52c-6.86-3.64-14.12-6.07-21.78-7.31c-3.97-0.64-8.42-1.05-13.33-1.23
			c-23.24-0.84-43.59,6.67-61.05,22.51c-0.94,0.85-1.89,1.63-2.87,2.34c-0.28,0.21-0.66,0.18-0.92-0.06
			c-4.53-4.32-9.25-8.1-14.16-11.34c-4.21-2.77-8.08-4.99-11.62-6.66c-6.22-2.93-13.03-4.87-20.44-5.83
			c-8.93-1.16-17.35-1.34-25.26-0.55c-3.62,0.37-5.76,0.59-6.43,0.67c-2.16,0.27-4.28,0.69-6.37,1.27
			c-2.74,0.75-5.62,1.74-8.63,2.99c-2.5,1.03-5.26,2.35-8.27,3.96c-22.94,12.21-38.82,30.32-47.62,54.32
			c-2.85,7.77-4.79,16.29-5.8,25.56c-1.21,11.06-1.08,21.78,0.4,32.16c0.62,4.4,1.3,8.32,2.03,11.78c0.86,4.09,1.98,7.92,3.35,11.5
			c5.73,14.96,13.84,28.73,24.33,41.31c1,1.2,2.64,3.23,4.92,6.11c1.63,2.05,3.35,4.03,5.15,5.93c8.44,8.9,17.18,17.49,26.21,25.79
			c3.18,2.93,6.43,6,9.74,9.19c4.34,4.19,8.18,7.74,11.54,10.64c5.75,4.97,13.65,11.41,23.69,19.33
			c9.17,7.23,14.75,11.7,16.75,13.41c3.18,2.72,5.76,4.78,7.76,6.18c0.17,0.11,0.25,0.31,0.21,0.51c-0.96,4.31-1.13,8.65-0.52,13.03
			c0.46,3.26,1.52,6.23,3.2,8.9c1.75,2.77,3.96,4.85,6.65,6.22c2.91,1.48,6.03,2.03,9.38,1.64c8.77-1.01,14.45-5.48,17.04-13.41
			c0.56-1.71,0.85-3.89,0.86-6.54c0.02-3.27,0.04-6.55,0.06-9.83c0-0.21,0.09-0.42,0.25-0.56c2.21-2.08,4.51-4.04,6.9-5.88
			c3.22-2.49,5.6-4.35,7.13-5.58c1.72-1.38,3.47-2.72,5.25-4.02c2.13-1.55,3.88-2.89,5.25-4.02c2.16-1.79,4.32-3.58,6.48-5.38
			c0.79-0.66,2.92-2.49,6.36-5.5c1.81-1.58,3.98-3.41,6.5-5.47c4.26-3.49,8.93-7.56,14.01-12.2c5.27-4.82,8.57-7.84,9.88-9.06
			c3.53-3.27,6.97-6.63,10.34-10.07c2.41-2.46,5.55-5.63,9.43-9.51c8.26-8.25,15.87-17.08,22.84-26.47
			c6.39-8.62,11.86-17.79,16.4-27.52c2.15-4.62,3.9-9.95,5.24-15.99c1.06-4.79,1.93-8.95,2.6-12.48c0.78-4.09,1.23-8.3,1.35-12.63
			c0.18-6.19,0.09-11.66-0.27-16.42c-0.65-8.61-2.51-17.25-5.59-25.94c-1.6-4.54-3.22-8.7-4.86-12.49
			c-2.21-5.11-4.97-10.35-8.27-15.7c-1.28-2.08-2.47-3.78-3.56-5.1C451.71,266.99,450.98,266.11,450.96,266.08"/>
		<path vector-effect="non-scaling-stroke" class="st5" d="M429.42,265.05c-2.3-2.08-4.74-3.98-7.34-5.71
			c-9.41-6.27-19.71-10.31-30.9-12.1c-4.47-0.72-9.27-0.73-14.42-0.03c-16.64,2.27-30.71,9.24-42.21,20.93
			c-2.89,2.93-5.79,5.86-8.69,8.78c-0.01,0.01-0.26,0.29-0.74,0.83c-0.79,0.89-1.7,1.24-2.75,1.05c-0.71-0.13-1.56-0.67-2.55-1.61
			c-1.1-1.05-1.93-1.9-2.49-2.55c-6.9-8.04-14.95-14.68-24.16-19.9c-3.62-2.05-7.8-3.72-12.55-5.01
			c-5.47-1.48-10.34-2.46-14.62-2.94c-5.65-0.64-11.26-0.4-16.84,0.73c-12.72,2.55-24.23,7.73-34.54,15.53
			c-0.02,0.01-0.25,0.13-0.69,0.38c-0.25,0.13-0.53,0.35-0.84,0.66c-5.59,5.45-10.22,10.43-13.87,14.95
			c-8.62,10.62-14.3,22.53-17.01,35.72c-0.95,4.63-1.67,9.04-2.16,13.22c-0.63,5.48-0.67,11-0.11,16.55
			c0.84,8.31,1.87,15.05,3.09,20.22c1.76,7.39,4.81,15.1,9.15,23.14c5.07,9.39,11.1,18.08,18.07,26.09
			c0.21,0.24,3.19,3.56,8.94,9.97c9.69,10.8,19.69,20.54,29.99,29.23c2,1.68,3.63,3.11,4.91,4.29c2.55,2.35,3.82,3.53,3.83,3.54
			c15.95,14.05,32.07,27.89,48.37,41.53c1.56,1.31,2.81,2.43,3.76,3.37c1.52,1.5,2.64,2.76,3.36,3.78c1.69,2.38,2.52,5.33,2.47,8.84
			c-0.03,1.97,0.1,3.87,0.4,5.71c0.2,1.28,0.86,2.07,1.98,2.36l4.07,1.07c0.21,0.05,0.44,0.03,0.64-0.08
			c0.89-0.47,1.29-1.32,1.2-2.54c-0.31-4.03,0.54-7.92,2.56-11.68c1.4-2.62,3.03-5.06,4.91-7.32c1.37-1.66,3.48-3.67,6.32-6.05
			c9.59-8.02,17.68-14.67,24.27-19.96c13.9-11.17,26.83-22.7,38.77-34.58c6.1-6.07,10.74-10.71,13.93-13.93
			c0.08-0.08,2.79-2.79,8.15-8.15c4.18-4.17,7.59-7.86,10.24-11.07c10.13-12.26,17.98-26.36,23.53-42.29
			c2.41-6.91,3.92-13.74,4.51-20.48c0.35-3.93,0.53-8.39,0.53-13.38c0-7.4-0.84-14.56-2.53-21.48c-2.31-9.48-6.02-18.72-11.13-27.72
			c-3.01-5.3-7.05-10.46-12.12-15.49C433.33,268.7,431.1,266.57,429.42,265.05"/>
		<path vector-effect="non-scaling-stroke" class="st6" d="M197.49,270.87c-0.09,0.19,0.03,0.4,0.23,0.43
			c0.85,0.11,1.29-0.26,1.31-1.11c0.01-0.21-0.15-0.38-0.33-0.38C198.22,269.83,197.82,270.18,197.49,270.87"/>
		<path vector-effect="non-scaling-stroke" class="st7" d="M195.94,272.73c-1.22,1.59-2.32,3.14-3.3,4.66
			c-0.69,1.07-1.74,2.65-3.15,4.75c-1.14,1.7-2.14,3.44-2.98,5.2c-0.38,0.79-0.27,0.87,0.33,0.23c0.76-0.81,1.39-1.7,1.9-2.67
			c0.64-1.22,1.2-2.13,1.69-2.73c2.1-2.61,4.01-5.35,5.72-8.23c0.11-0.18,0.28-0.36,0.5-0.54c0.39-0.31,0.48-0.56,0.25-0.77
			C196.62,272.39,196.18,272.43,195.94,272.73"/>
		<path vector-effect="non-scaling-stroke" class="st7" d="M461.02,376.83c0.22,0.1,0.62-0.3,0.87-0.89
			c0.25-0.59,0.28-1.15,0.05-1.25c-0.22-0.1-0.62,0.3-0.87,0.89C460.82,376.18,460.79,376.73,461.02,376.83"/>
		<path vector-effect="non-scaling-stroke" class="st7" d="M460.8,378.81c-1.19,2.68-2.18,5.62-2.96,8.82
			c-0.1,0.41,0.05,0.55,0.45,0.42c0.92-0.29,1.52-0.74,1.79-1.35c1.07-2.4,1.71-4.91,1.9-7.54c0.02-0.25-0.01-0.46-0.09-0.63
			c-0.15-0.34-0.37-0.44-0.64-0.29C461.08,378.33,460.93,378.52,460.8,378.81"/>
		<path vector-effect="non-scaling-stroke" class="st7" d="M450.67,405.66c0-0.42-0.5-0.76-1.11-0.76c-0.61,0-1.11,0.34-1.11,0.76
			c0,0.42,0.5,0.76,1.11,0.76C450.17,406.42,450.67,406.07,450.67,405.66"/>
		<path vector-effect="non-scaling-stroke" class="st7" d="M211.49,427.33c0.19-0.18,0.17-0.51-0.05-0.75
			c-0.22-0.23-0.55-0.28-0.74-0.09c-0.19,0.18-0.17,0.51,0.05,0.75C210.96,427.47,211.29,427.52,211.49,427.33"/>
		<path vector-effect="non-scaling-stroke" class="st7" d="M392.43,462.89c2.96-1.57,5.66-3.5,8.1-5.77
			c0.03-0.03,0.27-0.28,0.71-0.76c0.77-0.84,1.77-1.19,2.98-1.03c0.25,0.03,0.46,0.01,0.64-0.06c1.19-0.48,2.23-1.2,3.1-2.17
			c2.25-2.49,4.64-4.83,7.18-7.01c0.24-0.21,0.38-0.41,0.43-0.62c0.08-0.39-0.07-0.65-0.48-0.76c-0.18-0.05-0.4,0.01-0.58,0.17
			l-2.16,1.81c-0.24,0.2-0.6,0.13-0.76-0.15c-0.42-0.77-0.96-1.23-1.63-1.36c-0.75-0.15-0.88,0.06-0.4,0.65
			c1.4,1.7,1.37,2.87-0.09,3.52c-0.01,0-0.88,0.15-2.61,0.43c-0.96,0.15-1.8,0.57-2.51,1.26c-0.65,0.63-1.13,1.12-1.45,1.47
			c-0.48,0.54-0.79,1.18-0.94,1.92c-0.05,0.22-0.14,0.42-0.28,0.56c-2.72,2.81-5.75,5.24-9.08,7.29c-0.1,0.06-0.19,0.14-0.26,0.22
			C391.88,463.04,391.91,463.17,392.43,462.89"/>
		<path vector-effect="non-scaling-stroke" class="st8" d="M229.36,255.59c-6.91,3.19-13.13,7.4-18.67,12.63
			c-2.96,2.79-5.51,5.38-7.64,7.76c-8.59,9.6-14.7,20.53-18.35,32.79c-1.2,4.03-2.1,8.4-2.71,13.1
			c-1.89,14.62-1.04,29.06,2.54,43.33c1.07,4.27,2.51,8.49,4.31,12.67c5.31,12.29,12.35,23.56,21.14,33.79
			c8.47,9.87,17.4,19.3,26.78,28.31c9.16,8.79,18.54,17.33,28.16,25.6c11.65,10.03,23.38,19.95,35.2,29.76
			c3.35,2.78,7.11,6.17,11.29,10.16c1.84,1.76,3.27,3.71,4.27,5.83c0.65,1.38,1.06,3.1,1.22,5.17c0.17,2.23,0.2,4.02,0.08,5.37
			c-0.1,1.11,0.07,2.04,0.51,2.79c0.4,0.69,1.12,1.17,2.16,1.45c0.89,0.25,1.91,0.41,3.05,0.5c0.26,0.02,0.48-0.19,0.48-0.46
			c0-4.43,0.81-8.56,2.42-12.38c1.31-3.1,3.67-6.46,7.09-10.07c3.71-3.92,7.86-7.68,12.47-11.27c4.98-3.89,13.25-10.64,24.81-20.26
			c18.78-15.64,36.52-32.39,53.2-50.26"/>
		<path vector-effect="non-scaling-stroke" class="st9" d="M423.15,421.91c8.18-8.49,15.29-17.79,21.34-27.9
			c4.26-7.12,7.69-14.31,10.27-21.57c6.06-17.07,7.43-34.66,4.09-52.75c-1.58-8.54-4.19-16.75-7.84-24.62
			c-3.18-6.87-7.2-13.15-12.05-18.85c-2.97-3.49-6.08-6.69-9.32-9.62c-7.99-7.21-17.15-12.38-27.47-15.53
			c-4.37-1.33-8.75-2.19-13.12-2.59c-7.25-0.65-14.25-0.13-20.99,1.58c-8.39,2.13-16.24,5.82-23.53,11.08
			c-2.67,1.92-5.64,4.46-8.93,7.63c-2.83,2.72-5.57,5.53-8.24,8.41c-1.13,1.22-2.43,2.24-3.89,3.03c-0.19,0.11-0.42,0.13-0.62,0.09
			c-1.42-0.31-2.58-0.97-3.48-1.99c-4.36-4.94-8.95-9.45-13.77-13.5c-3.81-3.21-7.43-5.8-10.86-7.79
			c-11.98-6.94-25.28-9.82-39.88-8.64c-9.31,0.75-17.81,3.15-25.48,7.2"/>
		<path vector-effect="non-scaling-stroke" class="st10" d="M423.15,421.91c-0.46-0.06-0.55-0.28-0.29-0.67
			c0.67-1,1.43-1.9,2.28-2.73c1.1-1.05,1.9-1.91,2.39-2.59c1.46-2.01,2.93-4.01,4.43-5.99c5.83-7.72,11.05-15.83,15.66-24.34
			c0.35-0.65,0.78-1.65,1.29-2.99c0.38-1.03,0.85-2.02,1.39-2.97c0.4-0.7,0.7-1.41,0.92-2.13c0.21-0.74,0.46-1.48,0.75-2.2
			c0.05-0.15-0.07-0.3-0.22-0.27c-2.36,0.33-4.05,1.53-5.08,3.58c-1.51,3.04-3.45,5.72-5.81,8.03c-1.55,1.52-4.06,3.62-7.52,6.29
			c-2.88,2.22-5.95,4.17-9.21,5.83c-8.72,4.43-17.89,7.42-27.51,8.97c-4.28,0.69-6.44,1.04-6.47,1.05
			c-1.94,0.29-4.12,0.53-6.52,0.72c-10.48,0.82-20.19,1.15-29.14,1c-0.85-0.01-2.12,0.05-3.81,0.18c-0.19,0.01-0.36,0.17-0.38,0.36
			c-0.05,0.49-0.11,0.97-0.17,1.46c-0.07,0.54-0.06,1.13,0.03,1.78c0.27,1.98,0.21,4.24-0.19,6.77c-0.11,0.71-0.28,1.3-0.52,1.78
			c-0.5,1.02-0.75,1.54-0.76,1.56c-1.17,3.18-3.35,5.32-6.53,6.42c-0.25,0.09-0.86,0.15-1.83,0.19c-0.67,0.03-1.28,0.27-1.83,0.7
			c-0.17,0.14-0.38,0.21-0.58,0.2c-3.2-0.18-6.37-0.6-9.5-1.24c-1.66-0.34-3.32-0.88-4.98-1.62c-2.38-1.06-3.93-1.87-4.66-2.44
			c-4.01-3.15-6.97-6.11-8.88-8.88c-1.92-2.8-3.29-4.68-4.09-5.65c-0.14-0.17-0.33-0.27-0.56-0.31c-3.55-0.58-7.12-1.07-10.7-1.45
			c-4.44-0.48-8-0.96-10.68-1.45c-3.69-0.67-7.38-1.38-11.05-2.13c-6.33-1.28-12.5-3.09-18.51-5.43
			c-16.09-6.27-29.14-16.43-39.14-30.47c-6.93-9.74-10.67-20.91-11.23-33.53c-0.64-14.46,2.49-27.61,9.38-39.44
			c1.27-2.19,2.63-4.16,4.08-5.91c1.6-1.93,3.27-3.66,5-5.19c4.46-3.91,8.36-7.59,11.71-11.02c0.33-0.35,0.52-0.7,0.57-1.06
			c0.08-0.73-0.21-1.1-0.88-1.11c-0.39-0.01-0.83,0.16-1.32,0.51c-4.22,2.93-10.76,7.83-19.62,14.69c-2.13,1.65-3.95,1.52-5.46-0.38
			c-0.51-0.64-0.97-1.27-1.37-1.88c-0.44-0.67-0.75-1.38-0.92-2.14c-0.23-1.02-0.04-2.08,0.58-3.2c1.28-2.34,3.1-4.19,5.47-5.56
			c0.18-0.1,0.33-0.25,0.47-0.44c0.33-0.47,0.73-0.81,1.21-1.02c0.48-0.21,0.85-0.49,1.1-0.86c0.43-0.64,0.69-1,0.76-1.07
			c1.17-1.13,2.39-2.21,3.66-3.23c1.27-1.02,2.37-1.96,3.31-2.84c1.07-0.99,2.16-1.95,3.27-2.88c0.16-0.13,0.29-0.32,0.36-0.54
			c0.4-1.19,1.27-2.47,2.63-3.83c0.55-0.55,0.64-1.25,0.27-2.08c-0.07-0.16,0.01-0.36,0.17-0.43c0.41-0.19,0.76-0.47,1.04-0.84"/>
		<path vector-effect="non-scaling-stroke" class="st11" d="M250.04,265.09c-0.64,0.02-1.26,0.17-1.84,0.44
			c-3.34,1.55-6.2,3.71-8.58,6.46c-0.7,0.81-1.26,1.76-1.69,2.87c-0.33,0.86-0.72,1.91-1.17,3.17c-0.68,1.89-0.55,3.69,0.41,5.39
			c1.74,3.1,4.08,5.43,7,6.99c2.8,1.49,5.89,2.03,9.27,1.61c3.84-0.48,7.34-2,10.5-4.56c2.41-1.95,4.16-4.55,5.27-7.8
			c0.62-1.82,0.83-3.59,0.64-5.29c-0.18-1.62-0.86-3.19-2.03-4.72c-3.08-4.03-7.4-5.86-12.98-5.5c-1.46,0.1-2.92,0.26-4.37,0.5
			c-0.41,0.06-0.53,0.17-0.38,0.31C250.17,265.04,250.16,265.09,250.04,265.09"/>
		<path vector-effect="non-scaling-stroke" class="st12" d="M379.06,269.61c-2.8,2.72-4.37,5.74-4.73,9.06
			c-0.27,2.5,0.38,5.63,1.94,9.41c1.5,3.64,3.39,7.05,5.68,10.24c1.65,2.31,4.14,5.28,7.46,8.92c3.2,3.5,6.59,6.81,10.19,9.92
			c3.14,2.72,6.5,4.64,10.11,5.79c2.86,0.91,5.7,0.97,8.51,0.19c2.22-0.62,4.11-1.43,5.67-2.42c1.73-1.1,3.18-2.65,4.33-4.63
			c2.51-4.3,3.66-8.72,3.48-13.26c-0.15-3.68-1.48-7.77-3.99-12.27c-5.99-10.74-14.84-18.53-26.53-23.37
			c-4.59-1.9-9.37-2.49-14.33-1.78c-1.73,0.25-3.14,0.71-4.23,1.37C381.49,267.45,380.31,268.4,379.06,269.61"/>
		<path vector-effect="non-scaling-stroke" class="st9" d="M277.07,362.14c2.91,2.52,6.15,4.01,9.73,4.46
			c3.39,0.43,6.76-0.09,10.1-1.58c3.63-1.62,6.59-4.14,8.88-7.57c3.96-5.91,4.65-11.88,2.06-17.91c-1.16-2.72-2.81-4.92-4.96-6.61
			c-2.29-1.8-4.89-2.97-7.82-3.5c-1.84-0.33-3.99-0.5-6.45-0.5c-2.49,0-4.64,0.35-6.44,1.05c-8.55,3.32-12.46,9.67-11.71,19.04
			C270.89,354.31,273.09,358.68,277.07,362.14"/>
		<path vector-effect="non-scaling-stroke" class="st9" d="M341.38,335.42c-1.75,2.17-2.85,4.65-3.32,7.42
			c-0.6,3.56-0.4,6.98,0.59,10.26c1.04,3.43,2.76,6.26,5.14,8.49c2.34,2.18,5.16,3.58,8.45,4.19c2.29,0.42,4.35,0.58,6.18,0.48
			c2.07-0.13,4.1-0.69,6.08-1.69c4.87-2.47,8.3-6.19,10.27-11.15c1.39-3.49,1.75-6.93,1.07-10.32c-0.67-3.35-2.23-6.25-4.7-8.7
			c-2.64-2.62-5.94-4.31-9.89-5.06c-3.41-0.65-7-0.5-10.77,0.44C346.67,330.73,343.64,332.61,341.38,335.42"/>
		<path vector-effect="non-scaling-stroke" class="st9" d="M319.64,425.17c4.25,3.03,8.94,4.78,14.07,5.25
			c7.63,0.7,12.37-1.79,14.2-7.46c0.42-1.31,0.88-5.74,1.36-13.29c0.64-10,0.87-20.01,0.7-30.04c0-0.03,0.01-0.78,0.04-2.26
			c0.06-2.95-0.75-5.42-2.44-7.41c-1.53-1.82-3.91-3.13-7.15-3.93c-2.57-0.64-5.42-1-8.56-1.1c-6.99-0.21-12.91,0.07-17.75,0.84
			c-2.22,0.35-4.18,1.3-5.89,2.85c-1.42,1.29-2.54,3.06-3.34,5.32c-1.15,3.25-1.76,6.84-1.82,10.75c-0.07,4.25,0.06,8.17,0.4,11.76
			c0.42,4.44,1.25,8.25,2.51,11.43c1.39,3.51,3.27,6.73,5.65,9.66C314.07,420.56,316.74,423.1,319.64,425.17"/>
		<path vector-effect="non-scaling-stroke" class="st13" d="M253.54,290.79c1.49-0.52,2.6-1.27,3.32-2.23
			c0.14-0.18,0.31-0.32,0.51-0.4c2.03-0.83,3.8-2.03,5.3-3.62c0.14-0.15,0.31-0.42,0.52-0.82c0.16-0.3,0.37-0.55,0.63-0.76
			c0.58-0.47,0.92-0.78,1.03-0.94c0.84-1.22,1.5-2.79,1.98-4.7c0.06-0.24,0.08-0.48,0.08-0.73c-0.11-4.2-1.74-7.06-4.89-8.59
			c-0.38-0.18-0.94-0.37-1.69-0.57c-0.58-0.15-1.15-0.32-1.72-0.51c-1.18-0.39-2.04-0.6-2.59-0.63c-1.46-0.08-2.77,0.28-3.92,1.07
			c-0.4,0.27-0.86,0.43-1.33,0.45c-4.04,0.2-6.94,1.69-8.7,4.47c-0.02,0.03-0.22,0.3-0.6,0.81c-0.37,0.5-0.51,1.09-0.43,1.76
			c0.03,0.23-0.01,0.45-0.11,0.63c-0.49,0.87-0.87,1.79-1.13,2.76c-0.68,2.57-0.05,4.6,1.91,6.08c0.17,0.13,0.26,0.32,0.27,0.54
			c0.01,1.12,0.37,2.02,1.07,2.71c0.18,0.18,0.95,0.82,2.3,1.92c0.72,0.59,1.54,1,2.46,1.23c1.12,0.28,2,0.46,2.66,0.52
			C251.41,291.33,252.43,291.19,253.54,290.79"/>
		<path vector-effect="non-scaling-stroke" class="st14" d="M304.93,357.09c1.54-2.07,2.5-4.39,2.89-6.94
			c0.42-2.75,0.3-5.41-0.36-7.98c-0.69-2.68-2.05-5.06-4.09-7.17c-2-2.05-4.4-3.4-7.2-4.03c-5.39-1.22-10.66-0.84-15.81,1.13
			c-2.32,0.88-4.19,2.44-5.63,4.66c-1.71,2.66-2.75,5.45-3.11,8.39c-0.35,2.92,0.01,5.79,1.09,8.61c0.95,2.48,2.35,4.68,4.21,6.6
			c1.46,1.5,3.03,2.61,4.7,3.34c1.71,0.74,3.61,1.21,5.71,1.41c4.72,0.44,8.83-0.54,12.31-2.94
			C301.71,360.74,303.48,359.05,304.93,357.09"/>
		<path vector-effect="non-scaling-stroke" class="st15" d="M375.12,346.39c-0.21-4.01-1.58-7.44-4.09-10.29
			c-2.29-2.59-5.29-4.33-9.02-5.23c-2.77-0.67-5.59-0.82-8.46-0.46c-3.07,0.39-5.69,1.27-7.86,2.64c-3.41,2.15-5.51,5.34-6.32,9.57
			c-1,5.26-0.22,10.14,2.34,14.65c1.08,1.9,2.49,3.47,4.25,4.72c1.52,1.09,3.43,1.87,5.72,2.34c8,1.63,14.52-0.61,19.56-6.73
			c1.34-1.63,2.33-3.37,2.96-5.2C374.92,350.33,375.23,348.33,375.12,346.39"/>
		<path vector-effect="non-scaling-stroke" class="st14" d="M283.08,349.42c1.41,1.94,3.09,3.11,5.05,3.52c0.02,0,1.72,0.13,5.1,0.4
			c2.22,0.17,3.93,0.07,5.16-0.29c2.4-0.71,3.64-2.46,3.72-5.23c0.07-2.21-0.53-3.89-1.81-5.05c-0.93-0.84-2.46-1.34-4.58-1.51
			c-2.13-0.17-4.26-0.15-6.38,0.07c-2.25,0.24-3.9,0.78-4.97,1.63c-1.67,1.33-2.22,3.22-1.65,5.67
			C282.78,348.92,282.9,349.18,283.08,349.42"/>
		<path vector-effect="non-scaling-stroke" class="st16" d="M292.34,360.72c0-0.31-1.37-0.56-3.05-0.56s-3.05,0.25-3.05,0.56
			s1.37,0.56,3.05,0.56S292.34,361.03,292.34,360.72"/>
		<path vector-effect="non-scaling-stroke" class="st15" d="M351.11,343.47c-1.19,1.58-1.47,3.34-0.84,5.27
			c0.44,1.36,1.22,2.37,2.32,3.02c0.63,0.37,1.76,0.78,3.41,1.23c2.88,0.79,5.75,0.78,8.59-0.02c1.81-0.51,3.07-1.38,3.76-2.62
			c0.84-1.49,0.92-3.19,0.26-5.1c-0.69-1.99-2.06-3.22-4.13-3.69c-3.2-0.73-6.42-0.83-9.65-0.31
			C353.28,341.5,352.03,342.24,351.11,343.47"/>
		<path vector-effect="non-scaling-stroke" class="st17" d="M351.1,346.72c-0.23,1.79,0.35,3.15,1.76,4.1
			c0.84,0.57,2.13,0.98,3.85,1.25c1.77,0.27,3.66,0.38,5.65,0.32c2.49-0.07,4.15-1.02,5-2.87c0.56-1.22,0.7-2.46,0.41-3.71
			c-0.35-1.5-1.33-2.47-2.93-2.93c-2.02-0.57-4.63-0.75-7.83-0.54c-1.55,0.1-2.86,0.49-3.93,1.16
			C351.94,344.21,351.29,345.29,351.1,346.72"/>
		<path vector-effect="non-scaling-stroke" class="st17" d="M284.44,344.81c-1.16,2.22-1.07,4.02,0.27,5.4
			c0.86,0.89,2.28,1.52,4.24,1.88c1.37,0.25,2.76,0.38,4.16,0.38c1.93,0.01,3.32-0.06,4.16-0.2c2.89-0.48,4.15-2.36,3.78-5.63
			c-0.12-1.02-0.36-1.81-0.73-2.38c-0.53-0.82-1.29-1.29-2.28-1.41c-2.99-0.38-6.56-0.33-10.72,0.14
			C285.96,343.13,285,343.74,284.44,344.81"/>
		<path vector-effect="non-scaling-stroke" class="st18" d="M347.79,411.57c0.81-11.23,1.17-22.47,1.08-33.73
			c-0.04-5.86-2.76-9.31-8.16-10.34c-6.29-1.2-13.4-1.51-21.32-0.93c-3.97,0.29-6.75,0.84-8.34,1.66c-2.75,1.41-4.61,3.83-5.57,7.24
			c-0.62,2.2-1.04,5.39-1.25,9.57c-0.31,6.19-0.01,11.44,0.9,15.76c1.97,9.41,6.6,16.94,13.87,22.57c2.54,1.96,5.28,3.41,8.24,4.35
			c3.14,1,6.24,1.51,9.31,1.53c6.52,0.06,10.11-3.01,10.79-9.19c0.14-1.29,0.23-2.08,0.26-2.37c0.1-0.83,0.14-1.65,0.13-2.48
			C347.74,413.34,347.75,412.13,347.79,411.57"/>
		<path vector-effect="non-scaling-stroke" class="st18" d="M313.65,391.5c0.33,4.69,0.82,7.97,1.44,9.83
			c2.51,7.48,7.05,13.37,13.62,17.68c2.31,1.52,4.82,2.52,7.53,3c0.89,0.16,1.69,0.06,2.39-0.31c0.56-0.3,1.01-0.88,1.37-1.75
			c1.01-2.49,1.59-5.08,1.73-7.76c0.1-1.78,0.13-3.02,0.08-3.72c-0.08-1.36-0.45-2.57-1.09-3.62c-5.85-9.6-14.37-15.96-25.55-19.1
			c-0.43-0.11-0.88,0.05-1.13,0.42c-0.66,0.96-0.89,2.04-0.7,3.26C313.54,390.78,313.65,391.47,313.65,391.5"/>
		<path vector-effect="non-scaling-stroke" class="st19" d="M322.96,413.72c3.94,4.45,8.78,7.05,14.5,7.8
			c0.82,0.11,1.36-0.23,1.63-1.02c1.39-4.15,1.92-8.3,1.57-12.44c-0.12-1.38-0.54-2.68-1.27-3.91c-2.37-3.98-5.28-7.27-8.73-9.85
			c-4.76-3.56-10.01-6.21-15.76-7.92c-0.3-0.09-0.61,0.11-0.64,0.43c-0.72,6.88,0.47,13.47,3.57,19.77
			C318.84,408.62,320.55,411.01,322.96,413.72"/>
	</g>
	<path class="st20" d="M414.56,453.49c-18.64,18.01-38.19,34.96-58.67,50.86c-4.86,3.77-9.74,7.62-14.63,11.54
		c-0.63,0.5-0.92,1.16-0.88,1.97c0.16,2.73,0.22,5.37,0.19,7.91c-0.05,3.06-0.43,5.66-1.14,7.78c-2.07,6.21-6.04,10.44-11.92,12.69
		c-4.23,1.63-8.33,1.94-12.28,0.94c-4.37-1.1-7.9-3.7-10.61-7.78c-1.84-2.79-3.09-6.01-3.72-9.67c-0.39-2.26-0.35-6.45,0.14-12.57
		c0.02-0.21-0.07-0.41-0.23-0.55c-7.3-6.2-17.8-14.8-31.52-25.78c-9.33-7.47-19.28-16.13-29.86-25.98c-0.81-0.75-4.1-3.78-9.86-9.07
		c-12.54-11.52-24.19-23.91-34.93-37.16c-9.28-11.45-16.66-23.89-22.15-37.32c-1.44-3.53-2.65-7.21-3.63-11.04
		c-0.85-3.3-1.65-7.09-2.4-11.36c-3.01-17.14-2.45-34.15,1.67-51.04c2.05-8.39,5.13-16.44,9.24-24.16
		c2.09-3.93,4.46-7.71,7.12-11.33c10.13-13.81,23-24.56,38.59-32.25c8.03-3.96,16.27-6.4,24.73-7.33
		c7.27-0.79,14.97-0.91,23.11-0.33c8.5,0.6,16.96,2.93,25.38,6.98c9.54,4.6,17.98,10.68,25.32,18.25c0.09,0.09,0.23,0.1,0.33,0.01
		c3.24-2.83,6.56-5.55,9.98-8.16c3.96-3.02,7.52-5.41,10.68-7.16c11.25-6.22,23.74-9.59,37.49-10.1
		c17.08-0.63,32.58,3.18,46.52,11.43c12.26,7.26,22.47,16.91,30.63,28.96c2.39,3.54,4.64,7.39,6.74,11.57
		c7.76,15.4,12.11,31.75,13.06,49.03c0.24,4.41,0.17,8.87-0.21,13.39c-0.74,8.74-2.28,17.22-4.62,25.46
		c-2.18,7.66-5.28,15.16-9.31,22.49c-7.23,13.15-16.14,25.4-26.73,36.75C428.37,439.74,421.17,447.11,414.56,453.49z M450.96,266.08
		c-3.91-5.01-8.38-9.45-13.43-13.33c-5.29-4.07-10.71-7.58-16.26-10.52c-6.86-3.64-14.12-6.07-21.78-7.31
		c-3.97-0.64-8.42-1.05-13.33-1.23c-23.24-0.84-43.59,6.67-61.05,22.51c-0.94,0.85-1.89,1.63-2.87,2.34
		c-0.28,0.21-0.66,0.18-0.92-0.06c-4.53-4.32-9.25-8.1-14.16-11.34c-4.21-2.77-8.08-4.99-11.62-6.66
		c-6.22-2.93-13.03-4.87-20.44-5.83c-8.93-1.16-17.35-1.34-25.26-0.55c-3.62,0.37-5.76,0.59-6.43,0.67
		c-2.16,0.27-4.28,0.69-6.37,1.27c-2.74,0.75-5.62,1.74-8.63,2.99c-2.5,1.03-5.26,2.35-8.27,3.96
		c-22.94,12.21-38.82,30.32-47.62,54.32c-2.85,7.77-4.79,16.29-5.8,25.56c-1.21,11.06-1.08,21.78,0.4,32.16
		c0.62,4.4,1.3,8.32,2.03,11.78c0.86,4.09,1.98,7.92,3.35,11.5c5.73,14.96,13.84,28.73,24.33,41.31c1,1.2,2.64,3.23,4.92,6.11
		c1.63,2.05,3.35,4.03,5.15,5.93c8.44,8.9,17.18,17.49,26.21,25.79c3.18,2.93,6.43,6,9.74,9.19c4.34,4.19,8.18,7.74,11.54,10.64
		c5.75,4.97,13.65,11.41,23.69,19.33c9.17,7.23,14.75,11.7,16.75,13.41c3.18,2.72,5.76,4.78,7.76,6.18
		c0.17,0.11,0.25,0.31,0.21,0.51c-0.96,4.31-1.13,8.65-0.52,13.03c0.46,3.26,1.52,6.23,3.2,8.9c1.75,2.77,3.96,4.85,6.65,6.22
		c2.91,1.48,6.03,2.03,9.38,1.64c8.77-1.01,14.45-5.48,17.04-13.41c0.56-1.71,0.85-3.89,0.86-6.54c0.02-3.27,0.04-6.55,0.06-9.83
		c0-0.21,0.09-0.42,0.25-0.56c2.21-2.08,4.51-4.04,6.9-5.88c3.22-2.49,5.6-4.35,7.13-5.58c1.72-1.38,3.47-2.72,5.25-4.02
		c2.13-1.55,3.88-2.89,5.25-4.02c2.16-1.79,4.32-3.58,6.48-5.38c0.79-0.66,2.92-2.49,6.36-5.5c1.81-1.58,3.98-3.41,6.5-5.47
		c4.26-3.49,8.93-7.56,14.01-12.2c5.27-4.82,8.57-7.84,9.88-9.06c3.53-3.27,6.97-6.63,10.34-10.07c2.41-2.46,5.55-5.63,9.43-9.51
		c8.26-8.25,15.87-17.08,22.84-26.47c6.39-8.62,11.86-17.79,16.4-27.52c2.15-4.62,3.9-9.95,5.24-15.99
		c1.06-4.79,1.93-8.95,2.6-12.48c0.78-4.09,1.23-8.3,1.35-12.63c0.18-6.19,0.09-11.66-0.27-16.42c-0.65-8.61-2.51-17.25-5.59-25.94
		c-1.6-4.54-3.22-8.7-4.86-12.49c-2.21-5.11-4.97-10.35-8.27-15.7c-1.28-2.08-2.47-3.78-3.56-5.1
		C451.71,266.99,450.98,266.11,450.96,266.08z"/>
	<path class="st21" d="M453.13,268.7c1.09,1.32,2.28,3.02,3.56,5.1c3.3,5.35,6.06,10.59,8.27,15.7c1.64,3.79,3.26,7.95,4.86,12.49
		c3.07,8.69,4.93,17.34,5.59,25.94c0.36,4.76,0.45,10.23,0.27,16.42c-0.13,4.33-0.58,8.54-1.35,12.63
		c-0.67,3.53-1.54,7.69-2.6,12.48c-1.34,6.04-3.09,11.37-5.24,15.99c-4.54,9.73-10.01,18.9-16.4,27.52
		c-6.97,9.4-14.58,18.22-22.84,26.47c-3.88,3.88-7.02,7.05-9.43,9.51c-3.36,3.44-6.81,6.8-10.34,10.07
		c-1.31,1.22-4.61,4.24-9.88,9.06c-5.08,4.64-9.75,8.71-14.01,12.2c-2.52,2.07-4.69,3.89-6.5,5.47c-3.45,3.01-5.57,4.84-6.36,5.5
		c-2.16,1.8-4.32,3.59-6.48,5.38c-1.36,1.13-3.11,2.47-5.25,4.02c-1.78,1.3-3.53,2.63-5.25,4.02c-1.53,1.23-3.91,3.09-7.13,5.58
		c-2.39,1.84-4.69,3.8-6.9,5.88c-0.16,0.15-0.25,0.36-0.25,0.56c-0.02,3.28-0.04,6.55-0.06,9.83c-0.02,2.65-0.31,4.83-0.86,6.54
		c-2.59,7.93-8.26,12.4-17.04,13.41c-3.34,0.38-6.47-0.16-9.38-1.64c-2.68-1.37-4.9-3.44-6.65-6.22c-1.67-2.67-2.74-5.63-3.2-8.9
		c-0.61-4.38-0.44-8.72,0.52-13.03c0.04-0.19-0.04-0.4-0.21-0.51c-2-1.39-4.58-3.45-7.76-6.18c-2-1.71-7.59-6.19-16.75-13.41
		c-10.04-7.92-17.94-14.36-23.69-19.33c-3.36-2.91-7.21-6.46-11.54-10.64c-3.31-3.19-6.56-6.26-9.74-9.19
		c-9.03-8.3-17.76-16.89-26.21-25.79c-1.8-1.9-3.52-3.88-5.15-5.93c-2.29-2.88-3.93-4.91-4.92-6.11
		c-10.49-12.58-18.6-26.35-24.33-41.31c-1.37-3.58-2.49-7.41-3.35-11.5c-0.73-3.45-1.41-7.38-2.03-11.78
		c-1.47-10.38-1.61-21.1-0.4-32.16c1.01-9.27,2.95-17.79,5.8-25.56c8.81-24,24.68-42.11,47.62-54.32c3.01-1.61,5.77-2.93,8.27-3.96
		c3.01-1.25,5.89-2.24,8.63-2.99c2.09-0.57,4.21-0.99,6.37-1.27c0.67-0.08,2.81-0.3,6.43-0.67c7.91-0.79,16.33-0.61,25.26,0.55
		c7.41,0.96,14.22,2.9,20.44,5.83c3.54,1.67,7.42,3.89,11.62,6.66c4.91,3.24,9.63,7.02,14.16,11.34c0.25,0.24,0.64,0.27,0.92,0.06
		c0.97-0.71,1.93-1.5,2.87-2.34c17.45-15.84,37.8-23.34,61.05-22.51c4.91,0.18,9.36,0.59,13.33,1.23
		c7.66,1.24,14.92,3.67,21.78,7.31c5.56,2.95,10.98,6.46,16.26,10.52c5.05,3.88,9.52,8.32,13.43,13.33
		C450.98,266.11,451.71,266.99,453.13,268.7z M429.42,265.05c-2.3-2.08-4.74-3.98-7.34-5.71c-9.41-6.27-19.71-10.31-30.9-12.1
		c-4.47-0.72-9.27-0.73-14.42-0.03c-16.64,2.27-30.71,9.24-42.21,20.93c-2.89,2.93-5.79,5.86-8.69,8.78
		c-0.01,0.01-0.26,0.29-0.74,0.83c-0.79,0.89-1.7,1.24-2.75,1.05c-0.71-0.13-1.56-0.67-2.55-1.61c-1.1-1.05-1.93-1.9-2.49-2.55
		c-6.9-8.04-14.95-14.68-24.16-19.9c-3.62-2.05-7.8-3.72-12.55-5.01c-5.47-1.48-10.34-2.46-14.62-2.94
		c-5.65-0.64-11.26-0.4-16.84,0.73c-12.72,2.55-24.23,7.73-34.54,15.53c-0.02,0.01-0.25,0.13-0.69,0.38
		c-0.25,0.13-0.53,0.35-0.84,0.66c-5.59,5.45-10.22,10.43-13.87,14.95c-8.62,10.62-14.3,22.53-17.01,35.72
		c-0.95,4.63-1.67,9.04-2.16,13.22c-0.63,5.48-0.67,11-0.11,16.55c0.84,8.31,1.87,15.05,3.09,20.22c1.76,7.39,4.81,15.1,9.15,23.14
		c5.07,9.39,11.1,18.08,18.07,26.09c0.21,0.24,3.19,3.56,8.94,9.97c9.69,10.8,19.69,20.54,29.99,29.23c2,1.68,3.63,3.11,4.91,4.29
		c2.55,2.35,3.82,3.53,3.83,3.54c15.95,14.05,32.07,27.89,48.37,41.53c1.56,1.31,2.81,2.43,3.76,3.37c1.52,1.5,2.64,2.76,3.36,3.78
		c1.69,2.38,2.52,5.33,2.47,8.84c-0.03,1.97,0.1,3.87,0.4,5.71c0.2,1.28,0.86,2.07,1.98,2.36l4.07,1.07
		c0.21,0.05,0.44,0.03,0.64-0.08c0.89-0.47,1.29-1.32,1.2-2.54c-0.31-4.03,0.54-7.92,2.56-11.68c1.4-2.62,3.03-5.06,4.91-7.32
		c1.37-1.66,3.48-3.67,6.32-6.05c9.59-8.02,17.68-14.67,24.27-19.96c13.9-11.17,26.83-22.7,38.77-34.58
		c6.1-6.07,10.74-10.71,13.93-13.93c0.08-0.08,2.79-2.79,8.15-8.15c4.18-4.17,7.59-7.86,10.24-11.07
		c10.13-12.26,17.98-26.36,23.53-42.29c2.41-6.91,3.92-13.74,4.51-20.48c0.35-3.93,0.53-8.39,0.53-13.38
		c0-7.4-0.84-14.56-2.53-21.48c-2.31-9.48-6.02-18.72-11.13-27.72c-3.01-5.3-7.05-10.46-12.12-15.49
		C433.33,268.7,431.1,266.57,429.42,265.05z M197.49,270.87c-0.09,0.19,0.03,0.4,0.23,0.43c0.85,0.11,1.29-0.26,1.31-1.11
		c0.01-0.21-0.15-0.38-0.33-0.38C198.22,269.83,197.82,270.18,197.49,270.87z M195.94,272.73c-1.22,1.59-2.32,3.14-3.3,4.66
		c-0.69,1.07-1.74,2.65-3.15,4.75c-1.14,1.7-2.14,3.44-2.98,5.2c-0.38,0.79-0.27,0.87,0.33,0.23c0.76-0.81,1.39-1.7,1.9-2.67
		c0.64-1.22,1.2-2.13,1.69-2.73c2.1-2.61,4.01-5.35,5.72-8.23c0.11-0.18,0.28-0.36,0.5-0.54c0.39-0.31,0.48-0.56,0.25-0.77
		C196.62,272.39,196.18,272.43,195.94,272.73z M461.02,376.83c0.22,0.1,0.62-0.3,0.87-0.89c0.25-0.59,0.28-1.15,0.05-1.25
		c-0.22-0.1-0.62,0.3-0.87,0.89C460.82,376.18,460.79,376.73,461.02,376.83z M460.8,378.81c-1.19,2.68-2.18,5.62-2.96,8.82
		c-0.1,0.41,0.05,0.55,0.45,0.42c0.92-0.29,1.52-0.74,1.79-1.35c1.07-2.4,1.71-4.91,1.9-7.54c0.02-0.25-0.01-0.46-0.09-0.63
		c-0.15-0.34-0.37-0.44-0.64-0.29C461.08,378.33,460.93,378.52,460.8,378.81z M450.67,405.66c0-0.42-0.5-0.76-1.11-0.76
		c-0.61,0-1.11,0.34-1.11,0.76c0,0.42,0.5,0.76,1.11,0.76C450.17,406.42,450.67,406.07,450.67,405.66z M211.49,427.33
		c0.19-0.18,0.17-0.51-0.05-0.75c-0.22-0.23-0.55-0.28-0.74-0.09c-0.19,0.18-0.17,0.51,0.05,0.75
		C210.96,427.47,211.29,427.52,211.49,427.33z M392.43,462.89c2.96-1.57,5.66-3.5,8.1-5.77c0.03-0.03,0.27-0.28,0.71-0.76
		c0.77-0.84,1.77-1.19,2.98-1.03c0.25,0.03,0.46,0.01,0.64-0.06c1.19-0.48,2.23-1.2,3.1-2.17c2.25-2.49,4.64-4.83,7.18-7.01
		c0.24-0.21,0.38-0.41,0.43-0.62c0.08-0.39-0.07-0.65-0.48-0.76c-0.18-0.05-0.4,0.01-0.58,0.17l-2.16,1.81
		c-0.24,0.2-0.6,0.13-0.76-0.15c-0.42-0.77-0.96-1.23-1.63-1.36c-0.75-0.15-0.88,0.06-0.4,0.65c1.4,1.7,1.37,2.87-0.09,3.52
		c-0.01,0-0.88,0.15-2.61,0.43c-0.96,0.15-1.8,0.57-2.51,1.26c-0.65,0.63-1.13,1.12-1.45,1.47c-0.48,0.54-0.79,1.18-0.94,1.92
		c-0.05,0.22-0.14,0.42-0.28,0.56c-2.72,2.81-5.75,5.24-9.08,7.29c-0.1,0.06-0.19,0.14-0.26,0.22
		C391.88,463.04,391.91,463.17,392.43,462.89z"/>
	<path class="st20" d="M436.1,271.45c5.07,5.03,9.11,10.19,12.12,15.49c5.11,9,8.82,18.24,11.13,27.72
		c1.69,6.92,2.54,14.08,2.53,21.48c0,5-0.18,9.46-0.53,13.38c-0.6,6.74-2.1,13.57-4.51,20.48c-5.55,15.93-13.39,30.03-23.53,42.29
		c-2.65,3.21-6.07,6.9-10.24,11.07c-5.36,5.36-8.08,8.08-8.15,8.15c-3.19,3.22-7.83,7.86-13.93,13.93
		c-11.95,11.88-24.87,23.41-38.77,34.58c-6.59,5.29-14.68,11.95-24.27,19.96c-2.84,2.38-4.95,4.39-6.32,6.05
		c-1.88,2.26-3.51,4.7-4.91,7.32c-2.01,3.76-2.87,7.65-2.56,11.68c0.09,1.22-0.31,2.07-1.2,2.54c-0.2,0.11-0.44,0.13-0.64,0.08
		l-4.07-1.07c-1.12-0.29-1.78-1.08-1.98-2.36c-0.29-1.84-0.42-3.75-0.4-5.71c0.04-3.51-0.78-6.45-2.47-8.84
		c-0.72-1.01-1.84-2.27-3.36-3.78c-0.95-0.94-2.21-2.06-3.76-3.37c-16.3-13.64-32.42-27.48-48.37-41.53c0-0.01-1.28-1.19-3.83-3.54
		c-1.28-1.18-2.91-2.61-4.91-4.29c-10.3-8.69-20.3-18.43-29.99-29.23c-5.75-6.4-8.73-9.73-8.94-9.97c-6.98-8-13-16.7-18.07-26.09
		c-4.34-8.04-7.39-15.76-9.15-23.14c-1.23-5.17-2.26-11.91-3.09-20.22c-0.55-5.55-0.52-11.06,0.11-16.55
		c0.49-4.18,1.21-8.59,2.16-13.22c2.72-13.19,8.39-25.1,17.01-35.72c3.66-4.51,8.28-9.49,13.87-14.95c0.32-0.31,0.6-0.53,0.84-0.66
		c0.44-0.24,0.67-0.37,0.69-0.38c10.31-7.8,21.82-12.98,34.54-15.53c5.58-1.13,11.19-1.37,16.84-0.73
		c4.28,0.48,9.15,1.46,14.62,2.94c4.75,1.29,8.94,2.96,12.55,5.01c9.21,5.23,17.27,11.86,24.16,19.9c0.55,0.64,1.38,1.49,2.49,2.55
		c0.98,0.94,1.83,1.48,2.55,1.61c1.05,0.2,1.96-0.15,2.75-1.05c0.48-0.54,0.72-0.82,0.74-0.83c2.9-2.92,5.8-5.85,8.69-8.78
		c11.5-11.68,25.56-18.66,42.21-20.93c5.15-0.7,9.96-0.69,14.42,0.03c11.2,1.8,21.5,5.83,30.9,12.1c2.59,1.73,5.04,3.63,7.34,5.71
		C431.1,266.57,433.33,268.7,436.1,271.45z M229.36,255.59c-6.91,3.19-13.13,7.4-18.67,12.63c-2.96,2.79-5.51,5.38-7.64,7.76
		c-8.59,9.6-14.7,20.53-18.35,32.79c-1.2,4.03-2.1,8.4-2.71,13.1c-1.89,14.62-1.04,29.06,2.54,43.33c1.07,4.27,2.51,8.49,4.31,12.67
		c5.31,12.29,12.35,23.56,21.14,33.79c8.47,9.87,17.4,19.3,26.78,28.31c9.16,8.79,18.54,17.33,28.16,25.6
		c11.65,10.03,23.38,19.95,35.2,29.76c3.35,2.78,7.11,6.17,11.29,10.16c1.84,1.76,3.27,3.71,4.27,5.83c0.65,1.38,1.06,3.1,1.22,5.17
		c0.17,2.23,0.2,4.02,0.08,5.37c-0.1,1.11,0.07,2.04,0.51,2.79c0.4,0.69,1.12,1.17,2.16,1.45c0.89,0.25,1.91,0.41,3.05,0.5
		c0.26,0.02,0.48-0.19,0.48-0.46c0-4.43,0.81-8.56,2.42-12.38c1.31-3.1,3.67-6.46,7.09-10.07c3.71-3.92,7.86-7.68,12.47-11.27
		c4.98-3.89,13.25-10.64,24.81-20.26c18.78-15.64,36.52-32.39,53.2-50.26c8.18-8.49,15.29-17.79,21.34-27.9
		c4.26-7.12,7.69-14.31,10.27-21.57c6.06-17.07,7.43-34.66,4.09-52.75c-1.58-8.54-4.19-16.75-7.84-24.62
		c-3.18-6.87-7.2-13.15-12.05-18.85c-2.97-3.49-6.08-6.69-9.32-9.62c-7.99-7.21-17.15-12.38-27.47-15.53
		c-4.37-1.33-8.75-2.19-13.12-2.59c-7.25-0.65-14.25-0.13-20.99,1.58c-8.39,2.13-16.24,5.82-23.53,11.08
		c-2.67,1.92-5.64,4.46-8.93,7.63c-2.83,2.72-5.57,5.53-8.24,8.41c-1.13,1.22-2.43,2.24-3.89,3.03c-0.19,0.11-0.42,0.13-0.62,0.09
		c-1.42-0.31-2.58-0.97-3.48-1.99c-4.36-4.94-8.95-9.45-13.77-13.5c-3.81-3.21-7.43-5.8-10.86-7.79
		c-11.98-6.94-25.28-9.82-39.88-8.64C245.53,249.13,237.04,251.53,229.36,255.59z"/>
	<path class="st22" d="M423.15,421.91c-0.46-0.06-0.55-0.28-0.29-0.67c0.67-1,1.43-1.9,2.28-2.73c1.1-1.05,1.9-1.91,2.39-2.59
		c1.46-2.01,2.93-4.01,4.43-5.99c5.83-7.72,11.05-15.83,15.66-24.34c0.35-0.65,0.78-1.65,1.29-2.99c0.38-1.03,0.85-2.02,1.39-2.97
		c0.4-0.7,0.7-1.41,0.92-2.13c0.21-0.74,0.46-1.48,0.75-2.2c0.05-0.15-0.07-0.3-0.22-0.27c-2.36,0.33-4.05,1.53-5.08,3.58
		c-1.51,3.04-3.45,5.72-5.81,8.03c-1.55,1.52-4.06,3.62-7.52,6.29c-2.88,2.22-5.95,4.17-9.21,5.83c-8.72,4.43-17.89,7.42-27.51,8.97
		c-4.28,0.69-6.44,1.04-6.47,1.05c-1.94,0.29-4.12,0.53-6.52,0.72c-10.48,0.82-20.19,1.15-29.14,1c-0.85-0.01-2.12,0.05-3.81,0.18
		c-0.19,0.01-0.36,0.17-0.38,0.36c-0.05,0.49-0.11,0.97-0.17,1.46c-0.07,0.54-0.06,1.13,0.03,1.78c0.27,1.98,0.21,4.24-0.19,6.77
		c-0.11,0.71-0.28,1.3-0.52,1.78c-0.5,1.02-0.75,1.54-0.76,1.56c-1.17,3.18-3.35,5.32-6.53,6.42c-0.25,0.09-0.86,0.15-1.83,0.19
		c-0.67,0.03-1.28,0.27-1.83,0.7c-0.17,0.14-0.38,0.21-0.58,0.2c-3.2-0.18-6.37-0.6-9.5-1.24c-1.66-0.34-3.32-0.88-4.98-1.62
		c-2.38-1.06-3.93-1.87-4.66-2.44c-4.01-3.15-6.97-6.11-8.88-8.88c-1.92-2.8-3.29-4.68-4.09-5.65c-0.14-0.17-0.33-0.27-0.56-0.31
		c-3.55-0.58-7.12-1.07-10.7-1.45c-4.44-0.48-8-0.96-10.68-1.45c-3.69-0.67-7.38-1.38-11.05-2.13c-6.33-1.28-12.5-3.09-18.51-5.43
		c-16.09-6.27-29.14-16.43-39.14-30.47c-6.93-9.74-10.67-20.91-11.23-33.53c-0.64-14.46,2.49-27.61,9.38-39.44
		c1.27-2.19,2.63-4.16,4.08-5.91c1.6-1.93,3.27-3.66,5-5.19c4.46-3.91,8.36-7.59,11.71-11.02c0.33-0.35,0.52-0.7,0.57-1.06
		c0.08-0.73-0.21-1.1-0.88-1.11c-0.39-0.01-0.83,0.16-1.32,0.51c-4.22,2.93-10.76,7.83-19.62,14.69c-2.13,1.65-3.95,1.52-5.46-0.38
		c-0.51-0.64-0.97-1.27-1.37-1.88c-0.44-0.67-0.75-1.38-0.92-2.14c-0.23-1.02-0.04-2.08,0.58-3.2c1.28-2.34,3.1-4.19,5.47-5.56
		c0.18-0.1,0.33-0.25,0.47-0.44c0.33-0.47,0.73-0.81,1.21-1.02c0.48-0.21,0.85-0.49,1.1-0.86c0.43-0.64,0.69-1,0.76-1.07
		c1.17-1.13,2.39-2.21,3.66-3.23c1.27-1.02,2.37-1.96,3.31-2.84c1.07-0.99,2.16-1.95,3.27-2.88c0.16-0.13,0.29-0.32,0.36-0.54
		c0.4-1.19,1.27-2.47,2.63-3.83c0.55-0.55,0.64-1.25,0.27-2.08c-0.07-0.16,0.01-0.36,0.17-0.43c0.41-0.19,0.76-0.47,1.04-0.84
		c7.68-4.05,16.17-6.45,25.48-7.2c14.61-1.18,27.9,1.7,39.88,8.64c3.43,1.99,7.05,4.58,10.86,7.79c4.82,4.06,9.41,8.56,13.77,13.5
		c0.9,1.02,2.06,1.68,3.48,1.99c0.21,0.04,0.43,0.01,0.62-0.09c1.46-0.8,2.75-1.81,3.89-3.03c2.67-2.88,5.41-5.69,8.24-8.41
		c3.29-3.17,6.26-5.71,8.93-7.63c7.3-5.26,15.14-8.95,23.53-11.08c6.75-1.71,13.75-2.23,20.99-1.58c4.38,0.39,8.75,1.25,13.12,2.59
		c10.33,3.14,19.48,8.32,27.47,15.53c3.24,2.93,6.35,6.13,9.32,9.62c4.85,5.7,8.87,11.98,12.05,18.85
		c3.65,7.88,6.26,16.09,7.84,24.62c3.34,18.1,1.98,35.68-4.09,52.75c-2.58,7.26-6,14.45-10.27,21.57
		C438.44,404.12,431.33,413.42,423.15,421.91z M250.04,265.09c-0.64,0.02-1.26,0.17-1.84,0.44c-3.34,1.55-6.2,3.71-8.58,6.46
		c-0.7,0.81-1.26,1.76-1.69,2.87c-0.33,0.86-0.72,1.91-1.17,3.17c-0.68,1.89-0.55,3.69,0.41,5.39c1.74,3.1,4.08,5.43,7,6.99
		c2.8,1.49,5.89,2.03,9.27,1.61c3.84-0.48,7.34-2,10.5-4.56c2.41-1.95,4.16-4.55,5.27-7.8c0.62-1.82,0.83-3.59,0.64-5.29
		c-0.18-1.62-0.86-3.19-2.03-4.72c-3.08-4.03-7.4-5.86-12.98-5.5c-1.46,0.1-2.92,0.26-4.37,0.5c-0.41,0.06-0.53,0.17-0.38,0.31
		C250.17,265.04,250.16,265.09,250.04,265.09z M379.06,269.61c-2.8,2.72-4.37,5.74-4.73,9.06c-0.27,2.5,0.38,5.63,1.94,9.41
		c1.5,3.64,3.39,7.05,5.68,10.24c1.65,2.31,4.14,5.28,7.46,8.92c3.2,3.5,6.59,6.81,10.19,9.92c3.14,2.72,6.5,4.64,10.11,5.79
		c2.86,0.91,5.7,0.97,8.51,0.19c2.22-0.62,4.11-1.43,5.67-2.42c1.73-1.1,3.18-2.65,4.33-4.63c2.51-4.3,3.66-8.72,3.48-13.26
		c-0.15-3.68-1.48-7.77-3.99-12.27c-5.99-10.74-14.84-18.53-26.53-23.37c-4.59-1.9-9.37-2.49-14.33-1.78
		c-1.73,0.25-3.14,0.71-4.23,1.37C381.49,267.45,380.31,268.4,379.06,269.61z M277.07,362.14c2.91,2.52,6.15,4.01,9.73,4.46
		c3.39,0.43,6.76-0.09,10.1-1.58c3.63-1.62,6.59-4.14,8.88-7.57c3.96-5.91,4.65-11.88,2.06-17.91c-1.16-2.72-2.81-4.92-4.96-6.61
		c-2.29-1.8-4.89-2.97-7.82-3.5c-1.84-0.33-3.99-0.5-6.45-0.5c-2.49,0-4.64,0.35-6.44,1.05c-8.55,3.32-12.46,9.67-11.71,19.04
		C270.89,354.31,273.09,358.68,277.07,362.14z M341.38,335.42c-1.75,2.17-2.85,4.65-3.32,7.42c-0.6,3.56-0.4,6.98,0.59,10.26
		c1.04,3.43,2.76,6.26,5.14,8.49c2.34,2.18,5.16,3.58,8.45,4.19c2.29,0.42,4.35,0.58,6.18,0.48c2.07-0.13,4.1-0.69,6.08-1.69
		c4.87-2.47,8.3-6.19,10.27-11.15c1.39-3.49,1.75-6.93,1.07-10.32c-0.67-3.35-2.23-6.25-4.7-8.7c-2.64-2.62-5.94-4.31-9.89-5.06
		c-3.41-0.65-7-0.5-10.77,0.44C346.67,330.73,343.64,332.61,341.38,335.42z M319.64,425.17c4.25,3.03,8.94,4.78,14.07,5.25
		c7.63,0.7,12.37-1.79,14.2-7.46c0.42-1.31,0.88-5.74,1.36-13.29c0.64-10,0.87-20.01,0.7-30.04c0-0.03,0.01-0.78,0.04-2.26
		c0.06-2.95-0.75-5.42-2.44-7.41c-1.53-1.82-3.91-3.13-7.15-3.93c-2.57-0.64-5.42-1-8.56-1.1c-6.99-0.21-12.91,0.07-17.75,0.84
		c-2.22,0.35-4.18,1.3-5.89,2.85c-1.42,1.29-2.54,3.06-3.34,5.32c-1.15,3.25-1.76,6.84-1.82,10.75c-0.07,4.25,0.06,8.17,0.4,11.76
		c0.42,4.44,1.25,8.25,2.51,11.43c1.39,3.51,3.27,6.73,5.65,9.66C314.07,420.56,316.74,423.1,319.64,425.17z"/>
	<path class="st23" d="M229.36,255.59c-0.28,0.37-0.63,0.65-1.04,0.84c-0.16,0.07-0.24,0.27-0.17,0.43
		c0.37,0.84,0.27,1.53-0.27,2.08c-1.35,1.36-2.23,2.63-2.63,3.83c-0.07,0.21-0.19,0.4-0.36,0.54c-1.11,0.93-2.2,1.89-3.27,2.88
		c-0.94,0.88-2.04,1.82-3.31,2.84c-1.27,1.02-2.49,2.09-3.66,3.23c-0.07,0.07-0.32,0.42-0.76,1.07c-0.25,0.37-0.62,0.66-1.1,0.86
		c-0.48,0.21-0.88,0.54-1.21,1.02c-0.13,0.19-0.29,0.34-0.47,0.44c-2.36,1.37-4.18,3.22-5.47,5.56c-0.61,1.11-0.8,2.18-0.58,3.2
		c0.17,0.76,0.48,1.48,0.92,2.14c0.41,0.61,0.86,1.23,1.37,1.88c1.51,1.9,3.33,2.02,5.46,0.38c8.86-6.86,15.41-11.76,19.62-14.69
		c0.49-0.35,0.93-0.52,1.32-0.51c0.67,0.01,0.97,0.38,0.88,1.11c-0.04,0.36-0.23,0.71-0.57,1.06c-3.34,3.43-7.25,7.11-11.71,11.02
		c-1.74,1.53-3.41,3.26-5,5.19c-1.45,1.75-2.81,3.72-4.08,5.91c-6.89,11.83-10.02,24.97-9.38,39.44
		c0.56,12.62,4.3,23.79,11.23,33.53c10,14.04,23.05,24.2,39.14,30.47c6.01,2.34,12.18,4.16,18.51,5.43
		c3.68,0.75,7.36,1.46,11.05,2.13c2.68,0.49,6.25,0.98,10.68,1.45c3.58,0.39,7.15,0.87,10.7,1.45c0.22,0.03,0.42,0.14,0.56,0.31
		c0.8,0.97,2.17,2.85,4.09,5.65c1.9,2.77,4.86,5.73,8.88,8.88c0.72,0.57,2.28,1.38,4.66,2.44c1.67,0.74,3.33,1.28,4.98,1.62
		c3.13,0.64,6.3,1.06,9.5,1.24c0.2,0.01,0.41-0.06,0.58-0.2c0.55-0.44,1.16-0.67,1.83-0.7c0.97-0.04,1.58-0.1,1.83-0.19
		c3.18-1.1,5.36-3.24,6.53-6.42c0.01-0.02,0.26-0.54,0.76-1.56c0.23-0.48,0.4-1.07,0.52-1.78c0.4-2.54,0.46-4.79,0.19-6.77
		c-0.09-0.65-0.1-1.24-0.03-1.78c0.06-0.49,0.12-0.97,0.17-1.46c0.02-0.19,0.18-0.35,0.38-0.36c1.69-0.13,2.96-0.19,3.81-0.18
		c8.95,0.15,18.66-0.19,29.14-1c2.41-0.19,4.58-0.43,6.52-0.72c0.04-0.01,2.19-0.36,6.47-1.05c9.62-1.55,18.79-4.54,27.51-8.97
		c3.26-1.66,6.33-3.6,9.21-5.83c3.46-2.67,5.96-4.77,7.52-6.29c2.37-2.31,4.31-4.99,5.81-8.03c1.03-2.06,2.72-3.25,5.08-3.58
		c0.15-0.03,0.27,0.13,0.22,0.27c-0.29,0.73-0.54,1.46-0.75,2.2c-0.21,0.72-0.52,1.43-0.92,2.13c-0.54,0.95-1,1.94-1.39,2.97
		c-0.5,1.34-0.93,2.34-1.29,2.99c-4.61,8.5-9.83,16.62-15.66,24.34c-1.5,1.98-2.97,3.98-4.43,5.99c-0.5,0.68-1.29,1.55-2.39,2.59
		c-0.86,0.82-1.62,1.73-2.28,2.73c-0.26,0.39-0.17,0.61,0.29,0.67c-16.68,17.87-34.41,34.63-53.2,50.26
		c-11.56,9.62-19.83,16.37-24.81,20.26c-4.6,3.6-8.76,7.35-12.47,11.27c-3.42,3.61-5.78,6.97-7.09,10.07
		c-1.61,3.82-2.42,7.95-2.42,12.38c0,0.26-0.22,0.48-0.48,0.46c-1.14-0.08-2.15-0.25-3.05-0.5c-1.04-0.28-1.76-0.77-2.16-1.45
		c-0.44-0.75-0.61-1.69-0.51-2.79c0.12-1.35,0.09-3.14-0.08-5.37c-0.16-2.07-0.57-3.8-1.22-5.17c-1-2.13-2.42-4.07-4.27-5.83
		c-4.18-4-7.94-7.38-11.29-10.16c-11.82-9.82-23.55-19.74-35.2-29.76c-9.62-8.28-19-16.81-28.16-25.6
		c-9.38-9.01-18.3-18.44-26.78-28.31c-8.79-10.23-15.84-21.49-21.14-33.79c-1.8-4.18-3.24-8.4-4.31-12.67
		c-3.58-14.27-4.43-28.71-2.54-43.33c0.61-4.7,1.51-9.06,2.71-13.1c3.64-12.26,9.76-23.19,18.35-32.79
		c2.13-2.38,4.68-4.97,7.64-7.76C216.23,262.99,222.45,258.78,229.36,255.59z"/>
	<path class="st24" d="M250.08,264.96c-0.15-0.15-0.02-0.25,0.38-0.31c1.45-0.23,2.91-0.4,4.37-0.5c5.58-0.36,9.91,1.47,12.98,5.5
		c1.17,1.53,1.85,3.11,2.03,4.72c0.19,1.71-0.03,3.47-0.64,5.29c-1.11,3.26-2.86,5.86-5.27,7.8c-3.16,2.55-6.66,4.07-10.5,4.56
		c-3.39,0.42-6.48-0.12-9.27-1.61c-2.93-1.56-5.26-3.89-7-6.99c-0.96-1.7-1.09-3.5-0.41-5.39c0.45-1.25,0.84-2.31,1.17-3.17
		c0.42-1.1,0.99-2.06,1.69-2.87c2.38-2.75,5.24-4.9,8.58-6.46c0.59-0.27,1.2-0.42,1.84-0.44
		C250.16,265.09,250.17,265.04,250.08,264.96z M253.54,290.79c1.49-0.52,2.6-1.27,3.32-2.23c0.14-0.18,0.31-0.32,0.51-0.4
		c2.03-0.83,3.8-2.03,5.3-3.62c0.14-0.15,0.31-0.42,0.52-0.82c0.16-0.3,0.37-0.55,0.63-0.76c0.58-0.47,0.92-0.78,1.03-0.94
		c0.84-1.22,1.5-2.79,1.98-4.7c0.06-0.24,0.08-0.48,0.08-0.73c-0.11-4.2-1.74-7.06-4.89-8.59c-0.38-0.18-0.94-0.37-1.69-0.57
		c-0.58-0.15-1.15-0.32-1.72-0.51c-1.18-0.39-2.04-0.6-2.59-0.63c-1.46-0.08-2.77,0.28-3.92,1.07c-0.4,0.27-0.86,0.43-1.33,0.45
		c-4.04,0.2-6.94,1.69-8.7,4.47c-0.02,0.03-0.22,0.3-0.6,0.81c-0.37,0.5-0.51,1.09-0.43,1.76c0.03,0.23-0.01,0.45-0.11,0.63
		c-0.49,0.87-0.87,1.79-1.13,2.76c-0.68,2.57-0.05,4.6,1.91,6.08c0.17,0.13,0.26,0.32,0.27,0.54c0.01,1.12,0.37,2.02,1.07,2.71
		c0.18,0.18,0.95,0.82,2.3,1.92c0.72,0.59,1.54,1,2.46,1.23c1.12,0.28,2,0.46,2.66,0.52C251.41,291.33,252.43,291.19,253.54,290.79z
		"/>
	<path class="st25" d="M379.06,269.61c1.25-1.21,2.43-2.16,3.54-2.84c1.09-0.67,2.5-1.12,4.23-1.37c4.96-0.71,9.74-0.12,14.33,1.78
		c11.69,4.84,20.53,12.62,26.53,23.37c2.51,4.5,3.84,8.59,3.99,12.27c0.19,4.55-0.97,8.97-3.48,13.26
		c-1.15,1.98-2.59,3.53-4.33,4.63c-1.56,1-3.45,1.8-5.67,2.42c-2.81,0.79-5.64,0.72-8.51-0.19c-3.6-1.14-6.97-3.07-10.11-5.79
		c-3.6-3.11-6.99-6.42-10.19-9.92c-3.32-3.64-5.81-6.61-7.46-8.92c-2.29-3.19-4.18-6.6-5.68-10.24c-1.56-3.78-2.2-6.92-1.94-9.41
		C374.69,275.35,376.27,272.33,379.06,269.61z"/>
	<path class="st25" d="M253.54,290.79c-1.11,0.39-2.13,0.54-3.07,0.44c-0.66-0.07-1.54-0.24-2.66-0.52
		c-0.92-0.24-1.74-0.65-2.46-1.23c-1.35-1.09-2.11-1.73-2.3-1.92c-0.7-0.69-1.05-1.6-1.07-2.71c-0.01-0.21-0.1-0.41-0.27-0.54
		c-1.96-1.49-2.59-3.51-1.91-6.08c0.26-0.97,0.63-1.89,1.13-2.76c0.11-0.18,0.15-0.4,0.11-0.63c-0.08-0.67,0.06-1.26,0.43-1.76
		c0.38-0.51,0.59-0.78,0.6-0.81c1.76-2.78,4.66-4.27,8.7-4.47c0.48-0.02,0.94-0.17,1.33-0.45c1.15-0.79,2.45-1.14,3.92-1.07
		c0.54,0.03,1.41,0.24,2.59,0.63c0.57,0.19,1.15,0.36,1.72,0.51c0.75,0.2,1.32,0.39,1.69,0.57c3.15,1.53,4.78,4.39,4.89,8.59
		c0,0.25-0.02,0.49-0.08,0.73c-0.48,1.91-1.14,3.48-1.98,4.7c-0.11,0.16-0.46,0.48-1.03,0.94c-0.26,0.21-0.47,0.46-0.63,0.76
		c-0.21,0.4-0.38,0.67-0.52,0.82c-1.5,1.59-3.27,2.79-5.3,3.62c-0.19,0.08-0.37,0.22-0.51,0.4
		C256.14,289.53,255.03,290.27,253.54,290.79z"/>
	<path class="st26" d="M197.49,270.87c0.33-0.69,0.73-1.04,1.21-1.05c0.19-0.01,0.34,0.17,0.33,0.38c-0.03,0.84-0.46,1.21-1.31,1.11
		C197.52,271.27,197.41,271.06,197.49,270.87z"/>
	<path class="st27" d="M195.94,272.73c0.23-0.3,0.68-0.34,0.96-0.09c0.23,0.21,0.15,0.46-0.25,0.77c-0.22,0.17-0.39,0.35-0.5,0.54
		c-1.71,2.88-3.62,5.62-5.72,8.23c-0.49,0.6-1.06,1.51-1.69,2.73c-0.51,0.97-1.14,1.86-1.9,2.67c-0.59,0.64-0.7,0.56-0.33-0.23
		c0.84-1.77,1.84-3.5,2.98-5.2c1.41-2.09,2.46-3.68,3.15-4.75C193.62,275.88,194.72,274.32,195.94,272.73z"/>
	<path class="st20" d="M277.07,362.14c-3.98-3.45-6.19-7.82-6.61-13.11c-0.75-9.38,3.16-15.73,11.71-19.04
		c1.81-0.7,3.96-1.05,6.44-1.05c2.46,0,4.61,0.17,6.45,0.5c2.93,0.53,5.54,1.7,7.82,3.5c2.14,1.69,3.8,3.89,4.96,6.61
		c2.59,6.03,1.9,12-2.06,17.91c-2.3,3.43-5.26,5.95-8.88,7.57c-3.34,1.49-6.71,2.01-10.1,1.58
		C283.23,366.14,279.98,364.66,277.07,362.14z M304.93,357.09c1.54-2.07,2.5-4.39,2.89-6.94c0.42-2.75,0.3-5.41-0.36-7.98
		c-0.69-2.68-2.05-5.06-4.09-7.17c-2-2.05-4.4-3.4-7.2-4.03c-5.39-1.22-10.66-0.84-15.81,1.13c-2.32,0.88-4.19,2.44-5.63,4.66
		c-1.71,2.66-2.75,5.45-3.11,8.39c-0.35,2.92,0.01,5.79,1.09,8.61c0.95,2.48,2.35,4.68,4.21,6.6c1.46,1.5,3.03,2.61,4.7,3.34
		c1.71,0.74,3.61,1.21,5.71,1.41c4.72,0.44,8.83-0.54,12.31-2.94C301.71,360.74,303.48,359.05,304.93,357.09z"/>
	<path class="st20" d="M341.38,335.42c2.26-2.81,5.29-4.7,9.09-5.65c3.77-0.94,7.36-1.09,10.77-0.44c3.96,0.75,7.25,2.44,9.89,5.06
		c2.47,2.45,4.04,5.35,4.7,8.7c0.67,3.39,0.32,6.83-1.07,10.32c-1.97,4.96-5.4,8.67-10.27,11.15c-1.98,1-4,1.56-6.08,1.69
		c-1.83,0.11-3.89-0.05-6.18-0.48c-3.29-0.61-6.11-2.01-8.45-4.19c-2.39-2.23-4.1-5.06-5.14-8.49c-0.99-3.27-1.19-6.69-0.59-10.26
		C338.52,340.07,339.63,337.6,341.38,335.42z M375.12,346.39c-0.21-4.01-1.58-7.44-4.09-10.29c-2.29-2.59-5.29-4.33-9.02-5.23
		c-2.77-0.67-5.59-0.82-8.46-0.46c-3.07,0.39-5.69,1.27-7.86,2.64c-3.41,2.15-5.51,5.34-6.32,9.57c-1,5.26-0.22,10.14,2.34,14.65
		c1.08,1.9,2.49,3.47,4.25,4.72c1.52,1.09,3.43,1.87,5.72,2.34c8,1.63,14.52-0.61,19.56-6.73c1.34-1.63,2.33-3.37,2.96-5.2
		C374.92,350.33,375.23,348.33,375.12,346.39z"/>
	<path class="st28" d="M299.64,362.17c-3.48,2.4-7.59,3.38-12.31,2.94c-2.1-0.2-4.01-0.67-5.71-1.41c-1.67-0.72-3.24-1.84-4.7-3.34
		c-1.86-1.92-3.27-4.12-4.21-6.6c-1.08-2.83-1.44-5.7-1.09-8.61c0.36-2.93,1.39-5.73,3.11-8.39c1.43-2.22,3.31-3.78,5.63-4.66
		c5.15-1.97,10.42-2.35,15.81-1.13c2.8,0.63,5.2,1.98,7.2,4.03c2.04,2.1,3.41,4.49,4.09,7.17c0.66,2.57,0.77,5.23,0.36,7.98
		c-0.39,2.55-1.35,4.87-2.89,6.94C303.48,359.05,301.71,360.74,299.64,362.17z M283.08,349.42c1.41,1.94,3.09,3.11,5.05,3.52
		c0.02,0,1.72,0.13,5.1,0.4c2.22,0.17,3.93,0.07,5.16-0.29c2.4-0.71,3.64-2.46,3.72-5.23c0.07-2.21-0.53-3.89-1.81-5.05
		c-0.93-0.84-2.46-1.34-4.58-1.51c-2.13-0.17-4.26-0.15-6.38,0.07c-2.25,0.24-3.9,0.78-4.97,1.63c-1.67,1.33-2.22,3.22-1.65,5.67
		C282.78,348.92,282.9,349.18,283.08,349.42z M292.34,360.72c0-0.31-1.37-0.56-3.05-0.56s-3.05,0.25-3.05,0.56s1.37,0.56,3.05,0.56
		S292.34,361.03,292.34,360.72z"/>
	<path class="st29" d="M375.12,346.39c0.1,1.93-0.2,3.94-0.92,6.02c-0.63,1.84-1.62,3.57-2.96,5.2c-5.04,6.11-11.56,8.36-19.56,6.73
		c-2.29-0.47-4.2-1.25-5.72-2.34c-1.76-1.25-3.17-2.82-4.25-4.72c-2.56-4.51-3.34-9.39-2.34-14.65c0.8-4.23,2.91-7.42,6.32-9.57
		c2.17-1.37,4.79-2.25,7.86-2.64c2.87-0.37,5.69-0.21,8.46,0.46c3.73,0.9,6.74,2.64,9.02,5.23
		C373.55,338.95,374.91,342.38,375.12,346.39z M351.11,343.47c-1.19,1.58-1.47,3.34-0.84,5.27c0.44,1.36,1.22,2.37,2.32,3.02
		c0.63,0.37,1.76,0.78,3.41,1.23c2.88,0.79,5.75,0.78,8.59-0.02c1.81-0.51,3.07-1.38,3.76-2.62c0.84-1.49,0.92-3.19,0.26-5.1
		c-0.69-1.99-2.06-3.22-4.13-3.69c-3.2-0.73-6.42-0.83-9.65-0.31C353.28,341.5,352.03,342.24,351.11,343.47z"/>
	<path class="st20" d="M351.11,343.47c0.92-1.23,2.17-1.97,3.72-2.22c3.24-0.52,6.46-0.42,9.65,0.31c2.06,0.47,3.44,1.7,4.13,3.69
		c0.66,1.91,0.57,3.61-0.26,5.1c-0.7,1.24-1.95,2.11-3.76,2.62c-2.84,0.8-5.7,0.81-8.59,0.02c-1.65-0.45-2.78-0.86-3.41-1.23
		c-1.11-0.65-1.88-1.66-2.32-3.02C349.64,346.81,349.92,345.05,351.11,343.47z M351.1,346.72c-0.23,1.79,0.35,3.15,1.76,4.1
		c0.84,0.57,2.13,0.98,3.85,1.25c1.77,0.27,3.66,0.38,5.65,0.32c2.49-0.07,4.15-1.02,5-2.87c0.56-1.22,0.7-2.46,0.41-3.71
		c-0.35-1.5-1.33-2.47-2.93-2.93c-2.02-0.57-4.63-0.75-7.83-0.54c-1.55,0.1-2.86,0.49-3.93,1.16
		C351.94,344.21,351.29,345.29,351.1,346.72z"/>
	<path class="st20" d="M283.08,349.42c-0.17-0.24-0.29-0.5-0.36-0.78c-0.57-2.46-0.02-4.35,1.65-5.67c1.07-0.85,2.72-1.39,4.97-1.63
		c2.13-0.22,4.25-0.25,6.38-0.07c2.12,0.17,3.64,0.67,4.58,1.51c1.28,1.16,1.88,2.84,1.81,5.05c-0.08,2.77-1.33,4.52-3.72,5.23
		c-1.22,0.36-2.94,0.46-5.16,0.29c-3.38-0.27-5.08-0.4-5.1-0.4C286.17,352.53,284.49,351.35,283.08,349.42z M284.44,344.81
		c-1.16,2.22-1.07,4.02,0.27,5.4c0.86,0.89,2.28,1.52,4.24,1.88c1.37,0.25,2.76,0.38,4.16,0.38c1.93,0.01,3.32-0.06,4.16-0.2
		c2.89-0.48,4.15-2.36,3.78-5.63c-0.12-1.02-0.36-1.81-0.73-2.38c-0.53-0.82-1.29-1.29-2.28-1.41c-2.99-0.38-6.56-0.33-10.72,0.14
		C285.96,343.13,285,343.74,284.44,344.81z"/>
	<path class="st30" d="M353.07,343.49c1.06-0.67,2.37-1.06,3.93-1.16c3.2-0.21,5.81-0.03,7.83,0.54c1.61,0.46,2.59,1.43,2.93,2.93
		c0.29,1.25,0.15,2.49-0.41,3.71c-0.84,1.84-2.51,2.8-5,2.87c-2,0.05-3.88-0.05-5.65-0.32c-1.72-0.26-3-0.68-3.85-1.25
		c-1.4-0.95-1.99-2.31-1.76-4.1C351.29,345.29,351.94,344.21,353.07,343.49z"/>
	<path class="st30" d="M284.44,344.81c0.55-1.06,1.52-1.67,2.89-1.83c4.15-0.47,7.73-0.52,10.72-0.14c0.99,0.13,1.75,0.6,2.28,1.41
		c0.37,0.57,0.61,1.37,0.73,2.38c0.38,3.27-0.88,5.14-3.78,5.63c-0.84,0.14-2.23,0.21-4.16,0.2c-1.4,0-2.79-0.13-4.16-0.38
		c-1.96-0.36-3.38-0.98-4.24-1.88C283.38,348.83,283.29,347.03,284.44,344.81z"/>
	<ellipse class="st27" cx="289.29" cy="360.72" rx="3.05" ry="0.56"/>
	<path class="st20" d="M311.63,417.56c-2.38-2.93-4.26-6.15-5.65-9.66c-1.25-3.18-2.09-7-2.51-11.43c-0.33-3.59-0.47-7.51-0.4-11.76
		c0.07-3.92,0.67-7.5,1.82-10.75c0.8-2.26,1.91-4.03,3.34-5.32c1.71-1.55,3.68-2.5,5.89-2.85c4.84-0.77,10.76-1.05,17.75-0.84
		c3.14,0.09,5.99,0.46,8.56,1.1c3.23,0.8,5.62,2.11,7.15,3.93c1.68,1.99,2.5,4.46,2.44,7.41c-0.03,1.47-0.04,2.23-0.04,2.26
		c0.17,10.03-0.06,20.05-0.7,30.04c-0.48,7.55-0.94,11.98-1.36,13.29c-1.84,5.67-6.57,8.15-14.2,7.46
		c-5.13-0.47-9.82-2.22-14.07-5.25C316.74,423.1,314.07,420.56,311.63,417.56z M347.79,411.57c0.81-11.23,1.17-22.47,1.08-33.73
		c-0.04-5.86-2.76-9.31-8.16-10.34c-6.29-1.2-13.4-1.51-21.32-0.93c-3.97,0.29-6.75,0.84-8.34,1.66c-2.75,1.41-4.61,3.83-5.57,7.24
		c-0.62,2.2-1.04,5.39-1.25,9.57c-0.31,6.19-0.01,11.44,0.9,15.76c1.97,9.41,6.6,16.94,13.87,22.57c2.54,1.96,5.28,3.41,8.24,4.35
		c3.14,1,6.24,1.51,9.31,1.53c6.52,0.06,10.11-3.01,10.79-9.19c0.14-1.29,0.23-2.08,0.26-2.37c0.1-0.83,0.14-1.65,0.13-2.48
		C347.74,413.34,347.75,412.13,347.79,411.57z"/>
	<path class="st31" d="M347.75,415.21c0.01,0.83-0.04,1.65-0.13,2.48c-0.03,0.29-0.12,1.08-0.26,2.37
		c-0.68,6.19-4.28,9.25-10.79,9.19c-3.07-0.03-6.18-0.54-9.31-1.53c-2.96-0.93-5.7-2.38-8.24-4.35
		c-7.27-5.63-11.9-13.15-13.87-22.57c-0.91-4.32-1.21-9.58-0.9-15.76c0.21-4.18,0.63-7.37,1.25-9.57c0.96-3.42,2.82-5.83,5.57-7.24
		c1.59-0.82,4.37-1.37,8.34-1.66c7.92-0.58,15.02-0.27,21.32,0.93c5.39,1.03,8.11,4.48,8.16,10.34c0.09,11.26-0.27,22.5-1.08,33.73
		C347.75,412.13,347.74,413.34,347.75,415.21z M313.65,391.5c0.33,4.69,0.82,7.97,1.44,9.83c2.51,7.48,7.05,13.37,13.62,17.68
		c2.31,1.52,4.82,2.52,7.53,3c0.89,0.16,1.69,0.06,2.39-0.31c0.56-0.3,1.01-0.88,1.37-1.75c1.01-2.49,1.59-5.08,1.73-7.76
		c0.1-1.78,0.13-3.02,0.08-3.72c-0.08-1.36-0.45-2.57-1.09-3.62c-5.85-9.6-14.37-15.96-25.55-19.1c-0.43-0.11-0.88,0.05-1.13,0.42
		c-0.66,0.96-0.89,2.04-0.7,3.26C313.54,390.78,313.65,391.47,313.65,391.5z"/>
	
		<ellipse transform="matrix(0.3939 -0.9191 0.9191 0.3939 -65.6931 651.8948)" class="st27" cx="461.48" cy="375.76" rx="1.17" ry="0.45"/>
	<path class="st27" d="M461.25,378.24c0.28-0.14,0.49-0.04,0.64,0.29c0.08,0.17,0.1,0.38,0.09,0.63c-0.2,2.62-0.83,5.13-1.9,7.54
		c-0.27,0.61-0.87,1.06-1.79,1.35c-0.4,0.13-0.55-0.01-0.45-0.42c0.78-3.21,1.77-6.15,2.96-8.82
		C460.93,378.52,461.08,378.33,461.25,378.24z"/>
	<path class="st20" d="M313.33,389.41c-0.19-1.21,0.05-2.3,0.7-3.26c0.25-0.36,0.7-0.53,1.13-0.42c11.18,3.14,19.7,9.5,25.55,19.1
		c0.64,1.06,1.01,2.27,1.09,3.62c0.04,0.71,0.02,1.95-0.08,3.72c-0.14,2.68-0.72,5.27-1.73,7.76c-0.35,0.87-0.81,1.45-1.37,1.75
		c-0.7,0.37-1.5,0.48-2.39,0.31c-2.71-0.48-5.22-1.48-7.53-3c-6.56-4.31-11.1-10.21-13.62-17.68c-0.63-1.86-1.11-5.13-1.44-9.83
		C313.65,391.47,313.54,390.78,313.33,389.41z M322.96,413.72c3.94,4.45,8.78,7.05,14.5,7.8c0.82,0.11,1.36-0.23,1.63-1.02
		c1.39-4.15,1.92-8.3,1.57-12.44c-0.12-1.38-0.54-2.68-1.27-3.91c-2.37-3.98-5.28-7.27-8.73-9.85c-4.76-3.56-10.01-6.21-15.76-7.92
		c-0.3-0.09-0.61,0.11-0.64,0.43c-0.72,6.88,0.47,13.47,3.57,19.77C318.84,408.62,320.55,411.01,322.96,413.72z"/>
	<path class="st32" d="M322.96,413.72c-2.41-2.71-4.12-5.09-5.12-7.15c-3.1-6.31-4.29-12.9-3.57-19.77
		c0.03-0.31,0.34-0.52,0.64-0.43c5.74,1.72,10.99,4.36,15.76,7.92c3.45,2.59,6.36,5.87,8.73,9.85c0.73,1.23,1.16,2.54,1.27,3.91
		c0.34,4.14-0.18,8.29-1.57,12.44c-0.26,0.79-0.81,1.13-1.63,1.02C331.74,420.76,326.9,418.17,322.96,413.72z"/>
	<ellipse class="st27" cx="449.56" cy="405.66" rx="1.11" ry="0.76"/>
	
		<ellipse transform="matrix(0.729 -0.6845 0.6845 0.729 -235.0304 260.2087)" class="st27" cx="211.09" cy="426.91" rx="0.48" ry="0.58"/>
	<path class="st27" d="M392.43,462.89c-0.53,0.28-0.56,0.15-0.09-0.4c0.07-0.08,0.16-0.16,0.26-0.22c3.34-2.05,6.36-4.48,9.08-7.29
		c0.14-0.15,0.23-0.34,0.28-0.56c0.15-0.74,0.46-1.38,0.94-1.92c0.31-0.35,0.79-0.84,1.45-1.47c0.71-0.69,1.55-1.11,2.51-1.26
		c1.73-0.28,2.6-0.42,2.61-0.43c1.46-0.65,1.5-1.83,0.09-3.52c-0.48-0.59-0.35-0.8,0.4-0.65c0.67,0.13,1.21,0.59,1.63,1.36
		c0.15,0.28,0.52,0.36,0.76,0.15l2.16-1.81c0.18-0.15,0.4-0.21,0.58-0.17c0.4,0.11,0.56,0.36,0.48,0.76
		c-0.05,0.21-0.19,0.41-0.43,0.62c-2.54,2.18-4.93,4.51-7.18,7.01c-0.88,0.97-1.91,1.69-3.1,2.17c-0.18,0.07-0.4,0.09-0.64,0.06
		c-1.21-0.16-2.21,0.19-2.98,1.03c-0.44,0.48-0.68,0.74-0.71,0.76C398.09,459.4,395.39,461.32,392.43,462.89z"/>
	<path class="st20" d="M396.86,606.13c-0.89,0-1.09-0.15-0.58-0.46c0.12-0.07,0.26-0.11,0.42-0.12c2.04-0.11,4.05-0.44,6.02-0.98
		c2.42-0.26,4.83-0.62,7.21-1.09c0.15-0.03,2.38-0.44,6.71-1.24c3.79-0.7,7.48-1.79,11.06-3.28c1.38-0.58,2.39-1.36,3.03-2.36
		c0.78-1.21,0.9-2.36,0.37-3.44c-0.36-0.71-1.14-1.37-2.36-1.96c-3.63-1.76-7.39-3.09-11.29-4c-1.97-0.46-5.87-1.17-11.71-2.12
		c-3.55-0.58-7.13-1.02-10.71-1.32c-3.43-0.29-6-0.53-7.71-0.73c-4.12-0.48-6.69-0.72-7.71-0.72c-3.77,0-9.91-0.17-18.42-0.5
		c-16.76-0.65-34.78-0.85-54.09-0.6c-3.95,0.05-8.41,0.18-13.4,0.38c-5.48,0.22-10.95,0.44-16.42,0.64
		c-5.3,0.2-9.76,0.45-13.38,0.75c-6.83,0.56-13.65,1.29-20.45,2.17c-5.42,0.71-10.79,1.67-16.11,2.88
		c-4.03,0.92-7.55,2.35-10.56,4.29c-1.02,0.66-1.5,1.51-1.42,2.57c0.06,0.84,0.49,1.58,1.27,2.23c0.69,0.57,1.54,1.05,2.53,1.44
		c3.26,1.28,5.89,2.14,7.89,2.59c8.92,1.96,17.9,3.54,26.96,4.74c0.68,0.09,1.79,0.16,3.34,0.22c1.12,0.04,2.24,0.16,3.35,0.36
		c1.74,0.33,3.29,0.45,4.65,0.35c0.71-0.05,1.17,0.2,1.38,0.77c-13.09-0.81-25.71-2.48-37.85-5c-3.23-0.67-6.44-1.75-9.65-3.23
		c-1.85-0.86-3.09-1.69-3.71-2.51c-1.25-1.63-0.86-3.39,1.17-5.28c0.64-0.6,1.71-1.19,3.21-1.78c4.64-1.84,9.43-3.17,14.36-4.01
		c12.92-2.19,25.93-3.59,39.01-4.21c1.15-0.05,5.61-0.23,13.38-0.52c26.46-1.01,52.92-0.95,79.37,0.19c0.06,0,3.76,0.13,11.09,0.38
		c13.97,0.47,27.8,2.21,41.48,5.23c3.35,0.74,6.61,1.79,9.77,3.16c0.89,0.38,1.68,0.9,2.36,1.55c0.71,0.67,1.13,1.48,1.27,2.4
		c0.28,1.84-0.4,3.32-2.02,4.42c-1.89,1.29-4.4,2.32-7.52,3.11C414.02,603.61,405.49,605.16,396.86,606.13z"/>
	<path class="st26" d="M402.72,604.57l-0.14-0.78c-0.04-0.19-0.21-0.33-0.4-0.34c-1.33-0.05-2.66-0.12-3.99-0.21
		c-1.25-0.08-2.59-0.07-3.99,0.04c-2.66,0.21-5.33,0.25-8.01,0.11c-0.15-0.01-0.35-0.11-0.54-0.28c-0.21-0.2-0.49-0.26-0.84-0.17
		c-2.36,0.59-4.74,0.99-7.15,1.19c-1.21,0.1-2.43,0.38-3.66,0.82c-2.55,0.92-5.2,1.49-7.94,1.69c-0.12,0.01-0.16,0.06-0.11,0.14
		c0.02,0.05-0.01,0.11-0.05,0.11c-4.07,0.34-8.15,0.52-12.23,0.54c-11.77,0.06-23.54,0.02-35.31-0.13
		c-0.84-0.01-2.75-0.16-5.73-0.44c-1.91-0.18-3.83-0.19-5.76-0.02c-0.04,0-0.84,0.14-2.42,0.42c-0.82,0.14-1.72,0.2-2.7,0.17
		c-3.52-0.09-11.96-0.24-25.33-0.45c-0.18,0-0.56,0.06-1.12,0.19c-0.4,0.1-0.79,0.06-1.18-0.13c-0.15-0.07-0.31-0.23-0.42-0.47
		c-0.35-0.68-0.92-0.89-1.71-0.62c-0.42,0.15-1.45,0.59-3.08,1.33c-0.18,0.08-0.4,0.06-0.58-0.05c-0.76-0.5-1.6-0.74-2.51-0.72
		c-0.92,0.03-1.41,0.04-1.46,0.03c-1.21-0.06-2.42-0.09-3.62-0.1c-1.11-0.19-2.23-0.31-3.35-0.36c-1.55-0.06-2.66-0.13-3.34-0.22
		c-9.05-1.2-18.04-2.78-26.96-4.74c-2.01-0.44-4.64-1.3-7.89-2.59c-1-0.39-1.84-0.87-2.53-1.44c-0.79-0.65-1.21-1.39-1.27-2.23
		c-0.08-1.05,0.4-1.91,1.42-2.57c3.01-1.94,6.53-3.37,10.56-4.29c5.32-1.21,10.69-2.17,16.11-2.88c6.8-0.88,13.62-1.61,20.45-2.17
		c3.62-0.3,8.08-0.55,13.38-0.75c5.47-0.21,10.94-0.42,16.42-0.64c4.98-0.21,9.45-0.33,13.4-0.38c19.3-0.25,37.33-0.05,54.09,0.6
		c8.51,0.33,14.65,0.5,18.42,0.5c1.02,0,3.59,0.24,7.71,0.72c1.71,0.2,4.28,0.44,7.71,0.73c3.59,0.3,7.16,0.74,10.71,1.32
		c5.84,0.95,9.74,1.66,11.71,2.12c3.9,0.91,7.66,2.24,11.29,4c1.21,0.59,2,1.24,2.36,1.96c0.53,1.08,0.41,2.22-0.37,3.44
		c-0.64,1-1.65,1.79-3.03,2.36c-3.58,1.48-7.27,2.57-11.06,3.28c-4.32,0.8-6.56,1.21-6.71,1.24
		C407.55,603.94,405.14,604.31,402.72,604.57z"/>
	<path class="st33" d="M402.72,604.57c-1.97,0.54-3.97,0.87-6.02,0.98c-0.16,0.01-0.3,0.05-0.42,0.12
		c-0.51,0.31-0.32,0.46,0.58,0.46c-6.57,0.79-13.72,1.4-21.44,1.82c-23.37,1.25-46.37,1.64-69,1.17c-2.86-0.06-7.32-0.22-13.38-0.47
		c-6.09-0.25-12.18-0.45-18.27-0.58c-2.68-0.06-5.36-0.22-8.04-0.48c-0.21-0.57-0.67-0.82-1.38-0.77c-1.36,0.1-2.91-0.01-4.65-0.35
		c1.21,0.01,2.41,0.04,3.62,0.1c0.05,0,0.54-0.01,1.46-0.03c0.92-0.02,1.75,0.22,2.51,0.72c0.18,0.11,0.4,0.13,0.58,0.05
		c1.63-0.74,2.66-1.18,3.08-1.33c0.79-0.27,1.37-0.07,1.71,0.62c0.11,0.23,0.27,0.4,0.42,0.47c0.38,0.18,0.78,0.23,1.18,0.13
		c0.56-0.13,0.94-0.2,1.12-0.19c13.37,0.21,21.82,0.36,25.33,0.45c0.98,0.03,1.88-0.03,2.7-0.17c1.58-0.27,2.38-0.41,2.42-0.42
		c1.93-0.17,3.85-0.16,5.76,0.02c2.98,0.28,4.89,0.43,5.73,0.44c11.77,0.15,23.54,0.2,35.31,0.13c4.09-0.02,8.16-0.2,12.23-0.54
		c0.05,0,0.07-0.06,0.05-0.11c-0.04-0.08-0.01-0.13,0.11-0.14c2.74-0.21,5.38-0.77,7.94-1.69c1.24-0.45,2.46-0.72,3.66-0.82
		c2.41-0.21,4.8-0.6,7.15-1.19c0.35-0.09,0.63-0.03,0.84,0.17c0.19,0.17,0.38,0.27,0.54,0.28c2.68,0.14,5.35,0.1,8.01-0.11
		c1.41-0.11,2.74-0.12,3.99-0.04c1.33,0.09,2.66,0.16,3.99,0.21c0.19,0.01,0.36,0.15,0.4,0.34L402.72,604.57z"/>
</g>
</svg>
