<?xml version="1.0" encoding="utf-8"?>
<!-- Generator: Adobe Illustrator 27.4.1, SVG Export Plug-In . SVG Version: 6.00 Build 0)  -->
<svg version="1.1" id="Layer_1" xmlns="http://www.w3.org/2000/svg" xmlns:xlink="http://www.w3.org/1999/xlink" x="0px" y="0px"
	 viewBox="0 0 612 792" style="enable-background:new 0 0 612 792;" xml:space="preserve">
<style type="text/css">
	.st0{fill:none;stroke:#6E4A27;stroke-width:2;}
	.st1{fill:none;stroke:#E08642;stroke-width:2;}
	.st2{fill:none;stroke:#10191D;stroke-width:2;}
	.st3{fill:none;stroke:#1B2A36;stroke-width:2;}
	.st4{fill:none;stroke:#1C2F38;stroke-width:2;}
	.st5{fill:none;stroke:#6E1D16;stroke-width:2;}
	.st6{fill:none;stroke:#601B18;stroke-width:2;}
	.st7{fill:none;stroke:#70361A;stroke-width:2;}
	.st8{fill:none;stroke:#6B1E14;stroke-width:2;}
	.st9{fill:none;stroke:#702B19;stroke-width:2;}
	.st10{fill:none;stroke:#6B2117;stroke-width:2;}
	.st11{fill:none;stroke:#733F1D;stroke-width:2;}
	.st12{fill:none;stroke:#DF5931;stroke-width:2;}
	.st13{fill:none;stroke:#F1BD9B;stroke-width:2;}
	.st14{fill:none;stroke:#C2692B;stroke-width:2;}
	.st15{fill:none;stroke:#BB4627;stroke-width:2;}
	.st16{fill:none;stroke:#EC9A95;stroke-width:2;}
	.st17{fill:none;stroke:#DB502E;stroke-width:2;}
	.st18{fill:none;stroke:#CD362B;stroke-width:2;}
	.st19{fill:none;stroke:#CFAB90;stroke-width:2;}
	.st20{fill:none;stroke:#D9542F;stroke-width:2;}
	.st21{fill:none;stroke:#DF5E2F;stroke-width:2;}
	.st22{fill:none;stroke:#DA502D;stroke-width:2;}
	.st23{fill:none;stroke:#DA492D;stroke-width:2;}
	.st24{fill:none;stroke:#DC462A;stroke-width:2;}
	.st25{fill:none;stroke:#DA8C4C;stroke-width:2;}
	.st26{fill:none;stroke:#774220;stroke-width:2;}
	.st27{fill:none;stroke:#6C5334;stroke-width:2;}
	.st28{fill:none;stroke:#F7F8F6;stroke-width:2;}
	.st29{fill:none;stroke:#CAA582;stroke-width:2;}
	.st30{fill:none;stroke:#FBF9F0;stroke-width:2;}
	.st31{fill:none;stroke:#11161C;stroke-width:2;}
	.st32{fill:none;stroke:#717677;stroke-width:2;}
	.st33{fill:none;stroke:#161C1E;stroke-width:2;}
	.st34{fill:none;stroke:#8A9192;stroke-width:2;}
	.st35{fill:none;stroke:#7C7C7A;stroke-width:2;}
	.st36{fill:none;stroke:#DFC6A6;stroke-width:2;}
	.st37{fill:#020303;}
	.st38{fill:#1B2C38;}
	.st39{fill:#E47B37;}
	.st40{fill:#1D2733;}
	.st41{fill:#D93729;}
	.st42{fill:#1E303A;}
	.st43{fill:#FFFFFF;}
	.st44{fill:#9C5624;}
	.st45{fill:#F7F2E3;}
	.st46{fill:#EFEFEC;}
	.st47{fill:#C0352C;}
	.st48{fill:#E0E9EA;}
	.st49{fill:#090909;}
	.st50{fill:#243036;}
	.st51{fill:#CF9D60;}
	.st52{fill:#DD6930;}
	.st53{fill:#D63927;}
	.st54{fill:#DF552D;}
	.st55{fill:#D43E2B;}
</style>
<g>
	<g>
		<path vector-effect="non-scaling-stroke" class="st0" d="M304.7,468.67c-2.9,1.13-5.69,2.57-8.37,4.34
			c-2.9,1.92-5.27,3.96-7.1,6.11c-3.61,4.26-5.59,9.16-5.95,14.71c-0.28,4.3,0.48,8.44,2.27,12.44c2.49,5.54,6.44,9.68,11.86,12.42
			c3.49,1.77,7.59,2.77,12.31,3.01c11.96,0.61,22.57-3.21,31.82-11.47c5.93-5.28,9.92-11.77,11.99-19.47
			c1.83-6.81,2.42-13.73,1.77-20.78c-0.83-8.96-3.04-17.53-6.64-25.72c-1.43-3.25-2.16-4.9-2.18-4.95
			c-2.28-5.42-4.6-10.91-6.95-16.47c-0.13-0.29,0.01-0.63,0.29-0.77c4.72-2.26,9.34-4.43,13.84-6.53
			c15.32-7.14,29.89-15.57,43.72-25.28c12.03-8.44,23.27-17.83,33.74-28.15c17.54-17.28,31.71-37,42.51-59.15
			c8.16-16.76,13.59-33.93,16.28-51.51c2.06-13.47,2.09-27.2,0.08-41.17c-0.66-4.58-1.56-8.74-2.69-12.48
			c-2.01-6.68-4.78-13.24-8.31-19.68c-10.45-19.11-25.71-32-45.78-38.67c-4.05-1.35-8.18-2.36-12.4-3.04
			c-6.79-1.09-13.92-1.48-21.39-1.17c-18.56,0.76-35.52,5.69-50.9,14.77c-3.82,2.26-7.38,4.59-10.69,7.01
			c-5.12,3.74-9.85,7.96-14.18,12.67c-0.12,0.13-0.33,0.14-0.46,0.01c-3.64-3.54-7.34-6.91-11.11-10.1
			c-17.68-15-38.18-23.12-61.49-24.36c-6.3-0.34-12.59-0.12-18.86,0.66c-12.81,1.59-24.56,5.8-35.23,12.62
			c-3.46,2.21-6.84,4.8-10.13,7.76c-6.1,5.49-11.05,11.28-14.87,17.37c-7.69,12.29-12.56,26.28-14.59,41.99
			c-0.85,6.62-1.17,12.86-0.96,18.72c0.62,16.95,3.56,33.63,8.82,50.05c1.29,4.02,2.79,8,4.52,11.95
			c10.77,24.63,25.91,46.3,45.41,65c8.05,7.72,15.01,13.97,20.9,18.75c18.86,15.33,39.88,28.3,63.07,38.92
			c3.41,1.56,6.08,2.65,8.01,3.26c0.16,0.05,0.24,0.23,0.17,0.38c-2.36,4.69-4.58,9.44-6.68,14.25c-1.14,2.62-1.9,5.32-2.28,8.11
			c-0.41,2.98-0.48,5.76-0.22,8.34c0.55,5.45,2.96,10.19,7.22,14.22C305.25,467.93,305.14,468.5,304.7,468.67"/>
		<path vector-effect="non-scaling-stroke" class="st1" d="M304.84,423.12c-0.31-0.16-0.69-0.06-0.89,0.22
			c-2.09,3.07-3.52,6.48-4.29,10.24c-0.09,0.45-0.01,0.58,0.24,0.4c0.07-0.06,0.13-0.14,0.17-0.25c1.13-3.44,2.69-6.66,4.66-9.69
			c0.03-0.04,0.13-0.16,0.31-0.35C305.23,423.48,305.17,423.29,304.84,423.12"/>
		<path vector-effect="non-scaling-stroke" class="st2" d="M470.14,166.39c-6.57-8.08-14.14-14.45-22.71-19.1
			c-3.61-1.97-7.47-3.77-11.58-5.41c-5.18-2.08-10.34-3.48-15.47-4.23c-18.06-2.61-35.79-0.97-53.19,4.94
			c-3.96,1.34-7.88,3.01-11.76,4.99c-6.9,3.52-13.47,7.59-19.71,12.21c-3.82,2.83-7.32,6.02-10.49,9.57
			c-0.02,0.02-0.29,0.42-0.82,1.2c-0.55,0.81-1.27,0.75-2.15-0.17c-1.68-1.77-5.02-4.75-10.02-8.95c-3.99-3.35-7.37-5.94-10.15-7.78
			c-7.43-4.92-15.58-8.94-24.43-12.05c-3.73-1.32-7.36-2.34-10.86-3.06c-2.94-0.61-6.6-1.18-10.99-1.71
			c-4.02-0.49-7.72-0.7-11.12-0.63c-6.45,0.12-13.17,0.88-20.14,2.28c-4.55,0.91-8.66,2.04-12.32,3.38
			c-11.21,4.12-20.84,10.35-28.89,18.68c-10.54,10.92-17.84,23.86-21.9,38.83c-1.08,3.99-2.01,8.15-2.77,12.48
			c-1.77,10.04-2.11,20.16-1.02,30.34c0.03,0.23,0.21,2.37,0.55,6.4c0.15,1.83,0.42,3.96,0.8,6.39
			c3.57,22.73,11.07,43.69,22.5,62.86c9.86,16.55,21.73,31.46,35.6,44.72c2.85,2.73,5.99,5.61,9.43,8.65
			c13.68,12.12,28.76,22.97,45.22,32.55c9.23,5.37,17.86,9.97,25.88,13.81c1.58,0.76,3.33,1.51,5.24,2.26
			c1.77,0.69,3.54,1.39,5.31,2.08c0.16,0.06,0.23,0.25,0.15,0.4c-2.01,3.96-3.93,7.97-5.77,12.02c-2.87,6.36-4.09,12.55-3.66,18.56
			c0.42,5.86,2.85,10.66,7.31,14.42c1.04,0.88,0.92,1.55-0.36,2.01c-5.91,2.08-10.93,5.33-15.05,9.75c-2.85,3.05-4.75,6.25-5.7,9.58
			c-1.05,3.7-1.15,7.55-0.29,11.55c1.53,7.17,5.13,12.47,10.8,15.92c3.35,2.05,7.37,3.38,12.05,4c5.89,0.78,11.74,0.18,17.56-1.8
			c7.6-2.59,14.07-6.87,19.42-12.83c5.25-5.86,8.24-12.69,8.98-20.5c0-0.04,0.12-0.99,0.35-2.83c0.13-1.04,0.21-2.33,0.24-3.87
			c0.14-7.94-0.76-15.5-2.7-22.68c-0.75-2.76-2.2-6.76-4.36-12.01c-2.91-7.08-5.8-14.02-8.67-20.84c-0.24-0.56,0-1.2,0.54-1.47
			c5.73-2.82,11.09-5.42,16.09-7.82c11.3-5.41,22.27-11.43,32.91-18.05c2.72-1.69,6.22-4.11,10.51-7.25
			c11.78-8.62,22.41-17.6,31.89-26.93c6.97-6.86,13.16-13.72,18.58-20.57c2.83-3.59,5.39-7,7.67-10.24
			c3.87-5.5,7.65-11.63,11.36-18.39c6.68-12.21,11.87-24.59,15.57-37.15c1.55-5.26,2.67-9.37,3.38-12.34
			c1.03-4.32,1.74-8.71,2.15-13.16c0.35-3.84,0.62-9.17,0.81-16c0.18-6.8,0-13.16-0.54-19.07c-0.4-4.45-1.1-8.65-2.09-12.6
			c-2.11-8.47-5.34-16.52-9.68-24.14c-1.65-2.89-2.79-4.82-3.43-5.79C473.12,170.2,471.77,168.4,470.14,166.39"/>
		<path vector-effect="non-scaling-stroke" class="st2" d="M306.21,504.93c-0.93-0.1-1.1-0.05-0.49,0.17
			c0.13,0.05,0.26,0.07,0.41,0.08c4.1,0.22,8.18,0.07,12.25-0.45c0.92-0.12,1.85-0.38,2.8-0.77c0.9-0.38,1.81-0.76,2.72-1.13
			c1.66-0.68,2.98-1.33,3.94-1.94c3.26-2.09,5.94-4.7,8.06-7.83c1.95-2.88,3.35-6.26,4.2-10.14c0.79-3.58,1.17-7.51,1.16-11.81
			c-0.03-6.53-1.1-12.22-3.22-17.09c-2.79-6.38-5.03-10.85-6.73-13.4c-5.76-8.65-6.7-17.66-2.8-27.02c0.57-1.36,1.61-2.44,3.13-3.22
			c1.04-0.54,1.78-0.93,2.21-1.17c0.72-0.41,1.48-0.76,2.26-1.05c1.7-0.61,2.85-1.07,3.45-1.37c1.6-0.81,3.21-1.6,4.83-2.35
			c1.8-0.84,3.41-1.64,4.81-2.42c5.04-2.78,10.12-5.48,15.23-8.13c4.68-2.42,10.63-6.16,17.85-11.22
			c5.32-3.73,10.57-7.54,15.77-11.43c3.68-2.75,6.99-5.43,9.92-8.05c9.61-8.59,18.57-17.82,26.88-27.7
			c4.87-5.8,9.92-12.75,15.14-20.85c4.36-6.76,7.99-13.47,10.91-20.14c0.12-0.27,1.5-3.56,4.14-9.89c1.6-3.83,2.92-7.16,3.94-9.98
			c3.05-8.41,5.24-17.36,6.55-26.86c1.56-11.26,1.63-21.64,0.22-31.15c-2.08-13.97-7.09-26.79-15.02-38.45
			c-5.81-8.55-13.56-15.24-23.24-20.08c-13.18-6.59-26.93-9.29-41.24-8.08c-15.32,1.29-29.22,6.13-41.7,14.52
			c-3.25,2.18-6.68,4.71-10.3,7.59c-4.94,3.92-9.52,8.24-13.76,12.94c-2.8,3.11-4.66,4.93-5.58,5.44c-1.11,0.62-2.1,0.51-2.96-0.32
			c-1.93-1.86-3.78-3.78-5.57-5.77c-6.07-6.75-12.82-12.72-20.25-17.93c-12.47-8.73-26.21-14.17-41.22-16.32
			c-1.82-0.26-3.84-0.39-6.06-0.38c-2.02,0-4.04,0.01-6.07,0.03c-9.87,0.06-19.13,2.21-27.79,6.46c-3.21,1.58-6.26,3.3-9.15,5.15
			c-2.97,1.91-5.75,4.06-8.34,6.45c-3.13,2.89-6.07,5.97-8.8,9.27c-3.74,4.51-6.98,9.67-9.7,15.49c-1.86,3.98-3.21,7.61-4.05,10.91
			c-0.48,1.89-0.82,3.13-1.02,3.72c-0.41,1.22-0.85,2.43-1.33,3.62c-0.26,0.65-0.27,1.28-0.02,1.89c0.08,0.18,0.06,0.39-0.03,0.56
			c-0.33,0.58-0.47,1.17-0.43,1.78c0.06,0.98,0.07,1.56,0.04,1.75c-0.35,2.52-0.65,5.05-0.88,7.59c-0.06,0.59-0.29,1.4-0.7,2.44
			c-0.63,1.57-0.64,3.32-0.05,5.24c0.92,2.99,1.28,6.56,1.07,10.72c-0.05,1.07-0.09,2.13-0.1,3.2c-0.01,0.88,0.1,1.93,0.33,3.15
			c0.35,1.83,0.72,4.46,1.1,7.88c0.44,3.97,1.82,9.57,4.14,16.79c4.85,15.15,11.61,29.39,20.26,42.73
			c3.99,6.16,8.25,12.13,12.76,17.92c2.27,2.92,5.96,7.12,11.07,12.6c10.03,10.76,20.49,19.97,31.4,27.62
			c5.45,3.82,8.2,5.75,8.26,5.79c12.97,9.23,25.81,16.85,38.51,22.86c5.04,2.39,8.87,4.48,11.48,6.29c0.17,0.12,0.37,0.18,0.58,0.19
			c1.5,0.05,2.93,0.61,4.3,1.68c0.17,0.13,0.3,0.31,0.37,0.51c0.42,1.23,1.18,1.95,2.28,2.16c0.2,0.04,0.37,0.17,0.45,0.35
			c0.65,1.54,1.2,3.12,1.67,4.73c0.38,1.31,0.46,2.53,0.26,3.66c-0.2,1.1-0.54,2.31-1.02,3.62c-1.77,4.91-3.23,8.71-4.39,11.39
			c-2.07,4.78-3.28,8.11-3.64,9.99c-0.54,2.87,0.17,5.36,2.14,7.46c2.77,2.96,5.33,6.1,7.67,9.41c2.08,2.92,3.04,6.15,2.9,9.68
			c-0.04,0.88-0.19,1.6-0.45,2.15c-0.37,0.78-0.9,1.32-1.59,1.64c-2.01,0.9-4.66,1.66-7.95,2.28c-2.49,0.46-5.28,1.56-8.37,3.29
			c-4.36,2.44-6.9,6.14-7.6,11.1c-0.21,1.47-0.02,2.88,0.58,4.2c1.43,3.16,3.84,5.09,7.21,5.77
			C306.38,504.94,306.38,504.95,306.21,504.93"/>
		<path vector-effect="non-scaling-stroke" class="st3" d="M202.4,155.29c-1.11,0.23-2.19,0.56-3.24,0.98
			c-0.2,0.08-0.36,0.22-0.47,0.39c-0.6,0.92-0.87,1.92-0.81,3.01c0.01,0.17,0.18,0.28,0.34,0.23c1.52-0.47,2.95-1.13,4.3-1.99
			c0.67-0.43,1.26-0.72,1.77-0.88c0.63-0.2,1.27-0.38,1.93-0.52c0.46-0.1,0.94,0.02,1.3,0.33c0.49,0.42,0.96,0.52,1.43,0.32
			c0.23-0.11,0.43-0.17,0.59-0.19c1.58-0.21,2.17-1.17,1.75-2.88c-0.28-1.13-1.11-1.48-2.51-1.04c-1.46,0.46-2.64,0.9-3.53,1.29
			C204.2,154.79,203.25,155.11,202.4,155.29"/>
		<path vector-effect="non-scaling-stroke" class="st4" d="M187.55,169.53c-0.3,0.56-0.72,1.07-1.27,1.52
			c-0.57,0.47-0.53,0.54,0.13,0.22c0.49-0.24,0.87-0.6,1.14-1.09c0.97-1.73,2.38-2.96,4.23-3.68c0.09-0.03,0.2-0.06,0.35-0.06
			c0.26-0.02,0.36-0.1,0.31-0.25c-0.06-0.14-0.25-0.2-0.43-0.13c-1.24,0.45-2.36,1.09-3.36,1.92
			C188.33,168.22,187.97,168.74,187.55,169.53"/>
		<path vector-effect="non-scaling-stroke" class="st4" d="M431.25,355.49c0.29,0.22,0.7,0.08,0.8-0.27
			c0.08-0.28,0.24-0.44,0.48-0.48c0.25-0.04,0.44-0.13,0.53-0.24l5.46-6.42c0.14-0.17,0.2-0.38,0.15-0.57
			c-0.12-0.47-0.37-0.58-0.77-0.32c-0.15,0.1-0.21,0.29-0.16,0.5c0.17,0.67-0.06,1.05-0.7,1.15c-0.2,0.03-0.37,0.14-0.47,0.3
			c-0.42,0.65-1.01,1.01-1.77,1.07c-0.26,0.03-0.32-0.06-0.15-0.27l1.48-1.86c0.15-0.19,0.13-0.29-0.07-0.31
			c-0.22-0.02-0.44,0.07-0.65,0.26c-1.73,1.56-3.23,3.32-4.5,5.27c-0.01,0.02-0.16,0.19-0.44,0.49
			C430.07,354.24,430.33,354.8,431.25,355.49"/>
		<path vector-effect="non-scaling-stroke" class="st4" d="M229.84,362.1c0.08-0.1-0.66-0.84-1.65-1.64c-1-0.8-1.87-1.37-1.95-1.26
			c-0.08,0.1,0.66,0.84,1.65,1.64C228.89,361.64,229.76,362.21,229.84,362.1"/>
		<path vector-effect="non-scaling-stroke" class="st4" d="M405.93,378.12c0.36-0.61,0.6-1.21,0.71-1.8
			c0.08-0.42-0.01-0.61-0.28-0.58c-0.13,0.01-0.26,0.09-0.41,0.24c-0.98,1.04-2.05,1.98-3.2,2.84c-0.24,0.17-0.39,0.39-0.44,0.65
			c-0.04,0.21-0.15,0.38-0.31,0.49c-0.4,0.29-0.3,0.51,0.32,0.67c1.08,0.28,1.95-0.02,2.6-0.9
			C405.1,379.5,405.44,378.96,405.93,378.12"/>
		<path vector-effect="non-scaling-stroke" class="st4" d="M389.75,385.38c-0.07-0.14-0.92,0.14-1.89,0.63
			c-0.97,0.49-1.7,1-1.63,1.14c0.07,0.14,0.92-0.14,1.89-0.63C389.09,386.03,389.82,385.52,389.75,385.38"/>
		<path vector-effect="non-scaling-stroke" class="st4" d="M345.69,489.71c0.14,0.04,0.39-0.41,0.56-0.99
			c0.16-0.59,0.18-1.1,0.04-1.14c-0.14-0.04-0.39,0.41-0.56,0.99C345.56,489.16,345.54,489.66,345.69,489.71"/>
		<path vector-effect="non-scaling-stroke" class="st5" d="M195.12,171.23c-3.79,3.81-6.97,7.5-9.53,11.07
			c-3.61,5.03-6.46,10.54-8.57,16.54c-1.24,3.53-2.25,7.66-3.01,12.4c-2.15,13.39-2.36,26.85-0.63,40.39"/>
		<path vector-effect="non-scaling-stroke" class="st6" d="M173.38,251.64c1.41,11.26,4.02,21.77,7.82,31.53
			c7.53,19.34,18.1,37.28,31.72,53.81c0.52,0.64,1.09,1.23,1.71,1.78"/>
		<path vector-effect="non-scaling-stroke" class="st5" d="M214.62,338.76c6.41,7.48,13.26,14.53,20.53,21.14
			c2.74,2.49,6.05,5.16,9.94,8.02c4.25,3.12,8.49,6.24,12.72,9.37c4.11,3.03,7.59,5.48,10.45,7.35
			c14.05,9.18,28.78,17.12,44.21,23.8c5.74,2.49,8.79,6.91,9.13,13.29"/>
		<path vector-effect="non-scaling-stroke" class="st7" d="M321.62,421.72c-0.73,5.14-2.24,10.04-4.53,14.71"/>
		<path vector-effect="non-scaling-stroke" class="st8" d="M317.09,436.43c-2.32,4.52-3.79,8.26-4.41,11.23
			c-0.61,2.95,0.06,5.46,2,7.51c3.14,3.32,5.73,6.64,7.78,9.94c1.35,2.17,2.28,4.71,2.81,7.6c0.32,1.78,0.11,3.37-0.64,4.77"/>
		<path vector-effect="non-scaling-stroke" class="st9" d="M324.63,477.49c-0.99,1.06-2.01,1.76-3.04,2.1
			c-2.03,0.68-4.8,1.37-8.31,2.08c-1.47,0.29-3.22,1-5.28,2.1"/>
		<path vector-effect="non-scaling-stroke" class="st10" d="M308,483.77c-3.04,1.22-5.35,3.1-6.94,5.65
			c-1.6,2.56-2.2,5.19-1.78,7.88c0.52,3.38,2.74,5.52,6.65,6.43c2.94,0.68,6.08,0.84,9.43,0.46c3.15-0.35,6.15-1.17,8.98-2.46
			c9.15-4.14,14.32-11.63,15.51-22.46"/>
		<path vector-effect="non-scaling-stroke" class="st7" d="M339.84,479.27c0.14-1.6,0.24-4.32,0.29-8.15
			c0.1-7.34-1.46-14.1-4.67-20.29c-2.6-5.01-5.23-10-7.89-14.98c-1.81-3.36-2.57-6.95-2.28-10.77"/>
		<path vector-effect="non-scaling-stroke" class="st5" d="M325.29,425.08c0.16-2.71,0.5-5.39,1.02-8.04
			c0.42-2.13,1.03-3.7,1.84-4.72c1-1.26,2.38-2.33,4.15-3.22c8.28-4.17,13.39-6.73,15.35-7.67c10.07-4.86,19.11-9.83,27.14-14.91
			c6.62-4.19,13.75-9.1,21.4-14.72c3.85-2.83,7.18-5.49,9.99-7.99c3.06-2.71,6.55-5.96,10.49-9.74c8.72-8.39,16.41-17,23.09-25.85
			c3.04-4.02,5.54-7.47,7.53-10.35c6.59-9.56,11.78-19.86,15.6-30.91"/>
		<path vector-effect="non-scaling-stroke" class="st11" d="M462.88,286.96c4.38-9.5,7.68-19.36,9.9-29.58
			c2.51-11.54,3.31-23.21,2.4-35c-1.1-14.19-5.29-27.24-12.55-39.14c-2.38-3.9-4.9-7.34-7.56-10.29
			c-6.45-7.16-14.22-12.63-23.32-16.4c-6.75-2.79-13.15-4.51-19.2-5.15c-7.83-0.83-15.92-0.55-24.26,0.84
			c-4.21,0.7-8.33,1.76-12.37,3.17c-12.3,4.31-23.37,10.76-33.21,19.35c-2.13,1.86-4.14,3.68-6.05,5.45
			c-1.99,1.85-3.9,3.78-5.73,5.79c-1.73,1.9-3.58,3.68-5.56,5.33c-0.76,0.64-1.59,0.74-2.48,0.31c-0.86-0.41-1.71-1.05-2.56-1.91
			c-3.1-3.13-6.21-6.26-9.32-9.38c-7.46-7.46-15.76-13.77-24.89-18.91c-3.93-2.21-7.79-4.01-11.57-5.4
			c-10.14-3.72-20.63-5.42-31.47-5.08c-4.76,0.15-8.99,0.57-12.71,1.26c-5.93,1.1-11.66,3.11-17.2,6
			c-6.8,3.55-12.82,7.88-18.05,12.99"/>
		<path vector-effect="non-scaling-stroke" class="st12" d="M462.88,286.96l-1.21-0.11c-0.19-0.02-0.38,0.08-0.49,0.27
			c-1.36,2.26-3.06,4.4-5.11,6.43c-6.44,6.4-13.3,12-20.6,16.82c-4.4,2.91-8.86,5.27-13.36,7.08
			c-16.57,6.67-33.82,10.63-51.76,11.86c-1.21,0.09-5.47,0.31-12.78,0.67c-11.92,0.59-23.85,0.89-35.79,0.9
			c-0.03,0-1.9,0.03-5.59,0.08c-3.44,0.05-7.45-0.07-12.03-0.36c-11.15-0.71-21.26-1.84-30.33-3.4c-8-1.37-16.19-3.92-24.59-7.65
			c-4.09-1.82-7.86-3.81-11.3-5.97c-14.43-9.08-25.53-21.21-33.31-36.39c-1.85-3.61-3.47-7.54-4.87-11.8
			c-2.41-7.34-4.01-14.38-4.78-21.11c-1.29-11.15-0.34-22.34,2.85-33.55c1.28-4.51,2.84-8.46,4.69-11.87
			c4.22-7.81,10.04-14.3,17.44-19.47c0.03-0.02,0.81-0.47,2.34-1.36c1.3-0.75,2.26-1.76,2.86-3.01c0.61-1.28,1.29-2.27,2.03-2.95
			c0.17-0.15,0.39-0.19,0.52-0.07l1.34,1.14"/>
		<path vector-effect="non-scaling-stroke" class="st13" d="M229.06,173.15c-0.98,1.3-1.69,2.74-2.13,4.32"/>
		<path vector-effect="non-scaling-stroke" class="st14" d="M226.93,177.46c-0.26-0.08-0.41-0.03-0.45,0.16
			c-0.93,3.83-0.45,7.23,1.43,10.18c1.36,2.13,3.13,4.02,5.32,5.68c3.06,2.31,6.61,3.1,10.67,2.36c4.6-0.84,8.17-2.98,10.72-6.41
			c2.52-3.39,3.58-7.1,3.16-11.11c-0.5-4.79-3.32-8.34-8.44-10.64"/>
		<path vector-effect="non-scaling-stroke" class="st12" d="M249.34,167.68c-1.04-0.56-2.12-0.95-3.25-1.19
			c-1.04-0.21-2.16-0.4-3.38-0.57c-2.45-0.35-4.77,0.09-6.96,1.3c-1.9,1.05-3.85,1.55-5.87,1.5c-0.22-0.01-0.43,0.04-0.6,0.15
			c-6.27,3.76-12.42,7.71-18.45,11.82c-2.34,1.6-4.21,2.78-5.59,3.54c-1.89,1.04-3.87,2.03-5.93,2.96c-0.27,0.12-0.59,0.12-0.88,0
			l-2.13-0.88c-0.22-0.09-0.39-0.21-0.51-0.35c-0.86-1.06-1.53-2.22-2.01-3.48c-0.48-1.24-0.76-2.12-0.84-2.63
			c-0.16-0.96,0.01-1.91,0.49-2.85c0.58-1.1,1.29-2.11,2.14-3.01c0.14-0.15,0.22-0.35,0.2-0.55c-0.05-0.8-0.27-1.55-0.65-2.24"/>
		<path vector-effect="non-scaling-stroke" class="st15" d="M249.34,167.68l-0.48,0.37"/>
		<path vector-effect="non-scaling-stroke" class="st16" d="M248.86,168.06c-6.03-1.78-11.69-0.95-16.98,2.49
			c-1.18,0.76-2.11,1.63-2.81,2.6"/>
		<path vector-effect="non-scaling-stroke" class="st17" d="M325.29,425.08c-0.06-2.33-1.29-3.45-3.68-3.36"/>
		<path vector-effect="non-scaling-stroke" class="st18" d="M214.62,338.76c0.36-0.65,0.58-1.34,0.65-2.08
			c0.01-0.15-0.07-0.34-0.23-0.53l-2.19-2.63c-0.78-0.94-1.39-1.53-1.81-1.78c-0.84-0.48-1.53-1.24-2.07-2.27
			c-1.12-2.14-2.38-4.21-3.79-6.18c-5.47-7.7-10.32-15.77-14.55-24.21c-0.02-0.04-0.2-0.34-0.55-0.91c-0.37-0.6-0.5-1.25-0.39-1.95
			c0.07-0.46-0.1-0.93-0.45-1.25c-0.79-0.7-1.38-1.52-1.76-2.46c-0.61-1.5-0.93-2.26-0.93-2.28c-1.7-3.28-2.72-5.38-3.06-6.3
			c-0.31-0.85-0.69-2.38-1.14-4.58c-0.15-0.75-0.51-1.68-1.07-2.79c-0.55-1.08-0.9-2.25-1.06-3.49c-0.18-1.45-0.63-2.89-1.36-4.34
			c-0.21-0.42-0.35-0.87-0.4-1.33c-0.3-2.78-0.87-5.18-1.69-7.21c-0.49-1.21-0.75-2.46-0.79-3.76c-0.06-1.71-0.75-3-2.07-3.87
			c-0.31-0.2-0.49-0.51-0.52-0.93"/>
		<path vector-effect="non-scaling-stroke" class="st19" d="M248.86,168.06c2.63,1.19,4.7,2.9,6.22,5.12
			c1.5,2.2,2.22,4.66,2.14,7.37c-0.12,3.98-1.84,7.37-5.18,10.15c-7.55,6.31-14.73,6-21.56-0.93c-3.11-3.16-4.29-7.27-3.54-12.31"/>
		<path vector-effect="non-scaling-stroke" class="st20" d="M339.84,479.27l-0.82-0.29c-0.19-0.06-0.38-0.01-0.47,0.12
			c-0.72,1.02-1.4,2.07-2.03,3.14c-0.77,1.31-1.46,2.34-2.08,3.07c-2.68,3.17-5.71,5.98-9.08,8.43c-2.66,1.93-5.46,2.97-8.4,3.12
			c-3.48,0.17-6.4-1.12-8.75-3.87c-0.86-1.01-1.3-2.33-1.34-3.96"/>
		<path vector-effect="non-scaling-stroke" class="st21" d="M306.86,489.02c0.38-1.05,1.03-1.63,1.94-1.76
			c1.68-0.23,3.72-0.13,6.11,0.29c2.3,0.41,4.57,0.33,6.81-0.25c0.19-0.05,0.36-0.17,0.49-0.35c0.49-0.63,1.12-0.97,1.87-1.01
			c0.74-0.04,1.35-0.35,1.82-0.92c2.28-2.79,4.13-5.83,5.58-9.12"/>
		<path vector-effect="non-scaling-stroke" class="st22" d="M331.48,475.92c1.82-3.96,1.97-7.83,0.47-11.63
			c-1.3-3.26-3.21-6.47-5.74-9.63c-1.75-2.19-2.64-3.3-2.67-3.34c-0.93-1.2-1.89-2.39-2.86-3.57c-1.17-1.42-2.13-3.26-2.87-5.5
			c-0.19-0.58-0.25-1.37-0.17-2.4c0.09-1.16-0.09-2.3-0.54-3.41"/>
		<path vector-effect="non-scaling-stroke" class="st23" d="M306.86,489.02c-0.11-0.2-0.16-0.42-0.17-0.64
			c0-0.17,0.08-0.37,0.23-0.58c0.86-1.19,1.22-2.53,1.08-4.03"/>
		<path vector-effect="non-scaling-stroke" class="st24" d="M331.48,475.92c-0.78,0.32-1.57,0.4-2.38,0.24
			c-0.22-0.04-0.43-0.02-0.59,0.07c-0.78,0.42-1.54,0.87-2.28,1.34c-0.28,0.18-0.54,0.26-0.77,0.23c-0.29-0.03-0.56-0.13-0.82-0.31"
			/>
		<path vector-effect="non-scaling-stroke" class="st14" d="M437.51,179.94c-3.07-2.97-6.46-5.59-10.15-7.85
			c-3.56-2.18-7.54-3.64-11.93-4.38c-3.87-0.65-7.41-0.2-10.64,1.35c-1.99,0.95-3.82,2.37-5.49,4.25c-1.58,1.77-2.86,3.75-3.84,5.92
			c-0.92,2.02-1.31,4.11-1.19,6.26c0.15,2.52,0.74,4.92,1.77,7.19c3.9,8.59,9.37,16.23,16.41,22.91c2.33,2.2,4.62,4.45,6.87,6.73
			c3.03,3.06,6.49,5.48,10.4,7.26c3.54,1.62,7.07,1.65,10.6,0.1c3.67-1.62,6.36-3.55,8.08-5.81c0.84-1.1,1.5-2.3,2-3.6
			c1.93-5.07,2.42-10.29,1.46-15.66c-0.99-5.53-3-10.54-6.03-15.03C443.74,186.5,440.97,183.29,437.51,179.94"/>
		<path vector-effect="non-scaling-stroke" class="st11" d="M295.62,259.86c-0.88-0.77-1.85-1.4-2.9-1.91
			c-4.28-2.05-8.6-2.78-12.96-2.19c-4.57,0.62-8.28,2.44-11.11,5.45c-2.13,2.27-3.49,5-4.09,8.19c-0.56,2.98-0.36,5.92,0.61,8.8
			c0.98,2.93,2.62,5.6,4.92,7.99c1.96,2.05,4.18,3.46,6.68,4.25c2.17,0.68,4.47,0.98,6.91,0.9c2.44-0.08,4.73-0.7,6.87-1.87
			c2.99-1.63,5.48-3.79,7.47-6.5c2.03-2.76,3.22-5.73,3.55-8.91C302.14,268.58,300.16,263.84,295.62,259.86"/>
		<path vector-effect="non-scaling-stroke" class="st11" d="M351.61,285.72c3.84,3.65,8.05,5.42,12.62,5.31
			c4.32-0.1,8.2-1.64,11.65-4.62c3.67-3.17,5.81-7.46,6.43-12.89c0.61-5.31-1.02-9.59-4.88-12.82c-5.78-4.86-12.15-6.28-19.09-4.27
			c-2.95,0.85-5.41,2.15-7.36,3.89c-2.24,1.99-3.78,4.42-4.64,7.3c-0.96,3.24-0.99,6.44-0.08,9.61
			C347.16,280.36,348.95,283.2,351.61,285.72"/>
		<path vector-effect="non-scaling-stroke" class="st25" d="M320.79,328.87c-0.07,0.63,0.13,0.99,0.6,1.08
			c0.27,0.06,0.59-0.03,0.96-0.26c6.38-4.04,11.63-8.84,15.74-14.39c1.42-1.91,2.54-4.18,3.38-6.82c0.4-1.24,0.57-2.53,0.52-3.86
			c-0.06-1.42-0.2-2.72-0.42-3.91c-0.12-0.63-0.54-0.95-1.25-0.96"/>
		<path vector-effect="non-scaling-stroke" class="st26" d="M340.32,299.75c-1.9-3.57-4.68-5.49-8.34-5.75
			c-5.05-0.36-11.09-0.27-18.13,0.29c-3.5,0.28-6.04,0.85-7.62,1.73c-2.68,1.48-4.3,3.78-4.88,6.9c-0.38,2.05-0.21,4.29,0.52,6.72
			c0.67,2.23,1.66,4.31,2.95,6.22c1.28,1.91,3.33,4.26,6.14,7.05c2.3,2.28,4.74,4.25,7.3,5.9c0.75,0.48,1.59,0.5,2.52,0.06"/>
		<path vector-effect="non-scaling-stroke" class="st27" d="M340.32,299.75c1.36,5.7,0.08,10.89-3.82,15.54
			c-4.77,5.7-10.01,10.23-15.7,13.58"/>
		<path vector-effect="non-scaling-stroke" class="st28" d="M247.63,187.49c-0.2-0.47-0.77-0.66-1.28-0.45
			c-0.51,0.22-0.76,0.77-0.57,1.23c0.2,0.47,0.77,0.66,1.28,0.45C247.57,188.5,247.82,187.95,247.63,187.49"/>
		<path vector-effect="non-scaling-stroke" class="st29" d="M405.52,169.49c-1.97,0.68-3.87,2.01-5.72,4.01
			c-3.29,3.57-4.92,7.46-4.9,11.68c0.01,3.03,1.18,6.81,3.49,11.32c3.22,6.28,7.45,11.87,12.69,16.77"/>
		<path vector-effect="non-scaling-stroke" class="st19" d="M411.09,213.27c5.16,5.73,10.35,10.41,15.57,14.03
			c4,2.77,8.04,3.54,12.14,2.32c3.65-1.09,6.64-3.36,8.98-6.82c2.36-3.49,3.57-7.68,3.63-12.57c0.07-5.67-1.21-11-3.84-16
			c-4.77-9.08-11.48-16.24-20.12-21.47c-1.88-1.14-3.68-2.02-5.4-2.64c-1.81-0.66-3.74-1.19-5.81-1.61
			c-3.77-0.77-7.34-0.44-10.71,0.98"/>
		<path vector-effect="non-scaling-stroke" class="st30" d="M411.09,213.27c-0.11-0.55-0.33-1.03-0.66-1.43
			c-0.46-0.55-0.73-0.96-0.83-1.24c-0.16-0.48-0.29-0.96-0.39-1.46c-0.04-0.2-0.13-0.38-0.27-0.54c-2.18-2.41-3.76-4.78-4.74-7.12
			c-1.23-2.94-2.49-5.41-3.78-7.4c-0.53-0.83-0.85-1.67-0.96-2.51c-0.14-1.13-0.25-2.26-0.34-3.39c-0.12-1.46,0.06-2.71,0.51-3.75
			c0.62-1.42,0.94-2.15,0.97-2.2c0.36-1.01,0.87-2.13,1.52-3.36c0.84-1.58,1.62-3.65,2.35-6.21c0.05-0.19,0.16-0.36,0.33-0.52
			c0.73-0.71,0.97-1.59,0.72-2.63"/>
		<path vector-effect="non-scaling-stroke" class="st31" d="M293.34,286.52c3-2.22,5.12-5.03,6.35-8.44c0.93-2.57,1.21-5.1,0.84-7.6
			c-0.39-2.64-1.43-5.07-3.1-7.31c-2.28-3.05-5.47-5.03-9.57-5.94c-3.64-0.81-7.11-0.84-10.38-0.08c-3.55,0.82-6.39,2.51-8.54,5.08
			c-1.77,2.11-2.93,4.59-3.47,7.44c-0.37,1.93-0.48,3.56-0.34,4.89c0.16,1.5,0.64,3.09,1.43,4.78c1.53,3.27,3.54,5.86,6.02,7.78
			c2.51,1.93,5.46,2.98,8.85,3.14C285.74,290.45,289.71,289.21,293.34,286.52"/>
		<path vector-effect="non-scaling-stroke" class="st31" d="M380.65,267.08c-0.94-2.88-2.68-5.19-5.22-6.93
			c-6.1-4.16-12.78-4.71-20.04-1.65c-2.56,1.08-4.62,2.94-6.18,5.57c-3.17,5.34-3.41,10.72-0.71,16.14
			c2.4,4.83,6.23,7.87,11.47,9.11c4.51,1.07,8.65,0.54,12.42-1.59c5.04-2.85,7.98-6.97,8.8-12.37
			C381.65,272.35,381.47,269.59,380.65,267.08"/>
		<path vector-effect="non-scaling-stroke" class="st31" d="M286.67,279c2.3,0.31,4.26-0.11,5.88-1.26c1.61-1.14,2.51-2.72,2.7-4.76
			c0.2-2.09-0.61-3.65-2.42-4.66c-1.02-0.58-2.57-0.86-4.66-0.86c-2.15,0-4.31,0-6.46,0c-1.55,0-2.71,0.27-3.48,0.81
			c-1.15,0.8-1.79,1.93-1.91,3.41c-0.1,1.18-0.04,2.2,0.19,3.07c0.28,1.07,0.93,1.94,1.97,2.6c1.68,1.07,3.24,1.57,4.67,1.51
			C284.32,278.8,285.49,278.85,286.67,279"/>
		<path vector-effect="non-scaling-stroke" class="st31" d="M358,269.66c-0.71,1.35-0.88,2.78-0.51,4.3
			c0.33,1.36,1.09,2.47,2.26,3.35c1.26,0.94,2.7,1.49,4.3,1.65c0.15,0.02,1.47,0.07,3.95,0.15c1.68,0.06,3-0.09,3.94-0.47
			c3.61-1.43,4.85-4,3.72-7.71c-0.76-2.5-2.47-3.69-5.13-3.56c-1.06,0.05-1.61,0.08-1.66,0.08c-1.81,0-3.61,0-5.42,0
			c-0.04,0-0.46-0.02-1.24-0.05C360.24,267.32,358.84,268.07,358,269.66"/>
		<path vector-effect="non-scaling-stroke" class="st32" d="M292.25,269.19c-1.09-0.49-2.22-0.76-3.38-0.79
			c-1.1-0.03-1.66-0.05-1.68-0.05c-2.49-0.17-4.61-0.15-6.36,0.06c-2.49,0.31-3.72,1.64-3.68,4c0.05,2.42,1.05,3.98,3,4.69
			c0.99,0.36,2.61,0.67,4.87,0.95c1.6,0.19,3.17,0.09,4.73-0.31c1.66-0.43,2.86-1.2,3.6-2.31c0.93-1.39,1.02-2.99,0.29-4.8
			C293.36,269.97,292.9,269.49,292.25,269.19"/>
		<path vector-effect="non-scaling-stroke" class="st32" d="M359.12,269.82c-1.76,3.93-0.63,6.47,3.38,7.61
			c3.25,0.93,6.18,1.01,8.8,0.26c2.17-0.62,3.35-2.01,3.52-4.16c0.22-2.72-0.69-4.35-2.72-4.91c-0.55-0.15-2.15-0.23-4.8-0.24
			c-2.13,0-4.27,0.06-6.4,0.19C360.06,268.63,359.47,269.04,359.12,269.82"/>
		<path vector-effect="non-scaling-stroke" class="st33" d="M316.32,326.31c0.93,0.78,1.94,1.42,3.06,1.92
			c0.19,0.08,0.4,0.07,0.58-0.03c7.59-4.15,13.57-9.69,17.94-16.63c1.41-2.24,2.1-4.7,2.07-7.4c-0.03-2.28-0.61-4.15-1.75-5.63
			c-1.3-1.68-3.11-2.77-5.45-3.25c-1.76-0.36-3.41-0.48-4.95-0.35c-3.31,0.27-6.29,0.35-8.95,0.22c-2.02-0.1-4.36-0.06-7.04,0.1
			c-4.32,0.27-7.28,2.09-8.88,5.46c-0.71,1.5-0.99,3.24-0.84,5.21c0.15,1.95,0.58,3.71,1.28,5.28c2.28,5.06,5.77,9.4,10.46,13.03
			C313.9,324.28,314.72,324.97,316.32,326.31"/>
		<path vector-effect="non-scaling-stroke" class="st34" d="M322.07,318.75l2.69-2.37"/>
		<path vector-effect="non-scaling-stroke" class="st33" d="M324.76,316.38c0.21,0.24,0.42,0.28,0.63,0.12
			c2.54-2.02,5.02-4.5,7.44-7.42c2.05-2.47,2.21-4.47,0.47-5.99c-1.02-0.9-2.54-1.45-4.56-1.67c-2.57-0.28-5.22-0.09-7.95,0.57
			c-1.14,0.27-2.39,0.36-3.75,0.27c-0.35-0.03-1.2-0.26-2.54-0.7c-1.06-0.35-2.11-0.34-3.15,0.02c-0.93,0.32-1.69,0.69-2.28,1.11
			c-0.9,0.64-1.2,1.53-0.91,2.66c0.7,2.71,2.06,5.31,4.09,7.81c1.87,2.29,2.97,3.68,3.31,4.18c1.01,1.48,1.98,2.97,2.92,4.47
			c0.15,0.23,0.44,0.31,0.69,0.2c1.33-0.64,2.34-1.4,3.05-2.28c0.35-0.43,0.3-0.76-0.15-0.97"/>
		<path vector-effect="non-scaling-stroke" class="st35" d="M324.76,316.38c3.23-2.89,6-6.15,8.31-9.8c0.76-1.2,0.53-2.17-0.68-2.9
			c-1.13-0.69-2.44-1.04-3.93-1.07"/>
		<path vector-effect="non-scaling-stroke" class="st27" d="M328.47,302.6c-2.03-0.23-4.05-0.18-6.07,0.16"/>
		<path vector-effect="non-scaling-stroke" class="st35" d="M322.39,302.76c-3.56,0.48-6.86,0.49-9.91,0.03
			c-1.44-0.22-2.5,0.17-3.19,1.17c-0.11,0.16-0.15,0.37-0.12,0.59c0.46,2.8,1.36,5.03,2.7,6.68c2.41,2.95,4.74,6.12,7,9.49
			c0.13,0.19,0.37,0.23,0.54,0.1l2.66-2.07"/>
		<path vector-effect="non-scaling-stroke" class="st36" d="M328.47,302.6l-6.07,0.16"/>
	</g>
	<path class="st37" d="M304.7,468.67c0.44-0.17,0.55-0.74,0.2-1.06c-4.26-4.03-6.67-8.77-7.22-14.22c-0.26-2.59-0.19-5.37,0.22-8.34
		c0.38-2.78,1.14-5.49,2.28-8.11c2.1-4.81,4.32-9.56,6.68-14.25c0.07-0.15-0.01-0.33-0.17-0.38c-1.93-0.61-4.6-1.7-8.01-3.26
		c-23.19-10.62-44.21-23.6-63.07-38.92c-5.88-4.78-12.85-11.03-20.9-18.75c-19.5-18.7-34.64-40.37-45.41-65
		c-1.73-3.95-3.23-7.94-4.52-11.95c-5.26-16.42-8.2-33.11-8.82-50.05c-0.21-5.86,0.11-12.1,0.96-18.72
		c2.03-15.7,6.89-29.7,14.59-41.99c3.82-6.09,8.77-11.88,14.87-17.37c3.3-2.97,6.68-5.55,10.13-7.76
		c10.67-6.82,22.41-11.02,35.23-12.62c6.27-0.78,12.55-1,18.86-0.66c23.32,1.24,43.82,9.37,61.49,24.36
		c3.77,3.2,7.47,6.56,11.11,10.1c0.13,0.13,0.34,0.12,0.46-0.01c4.33-4.71,9.06-8.93,14.18-12.67c3.31-2.42,6.87-4.75,10.69-7.01
		c15.38-9.08,32.34-14.01,50.9-14.77c7.47-0.31,14.6,0.08,21.39,1.17c4.22,0.68,8.35,1.69,12.4,3.04
		c20.07,6.68,35.33,19.57,45.78,38.67c3.53,6.45,6.29,13.01,8.31,19.68c1.13,3.74,2.02,7.9,2.69,12.48c2,13.98,1.98,27.7-0.08,41.17
		c-2.69,17.58-8.12,34.75-16.28,51.51c-10.8,22.15-24.97,41.87-42.51,59.15c-10.47,10.32-21.72,19.7-33.74,28.15
		c-13.83,9.71-28.41,18.14-43.72,25.28c-4.51,2.1-9.12,4.27-13.84,6.53c-0.29,0.13-0.42,0.47-0.29,0.77
		c2.35,5.56,4.67,11.05,6.95,16.47c0.02,0.05,0.75,1.7,2.18,4.95c3.6,8.18,5.82,16.76,6.64,25.72c0.65,7.04,0.06,13.97-1.77,20.78
		c-2.07,7.7-6.06,14.19-11.99,19.47c-9.26,8.25-19.87,12.07-31.82,11.47c-4.71-0.24-8.82-1.24-12.31-3.01
		c-5.42-2.75-9.37-6.89-11.86-12.42c-1.79-3.99-2.55-8.14-2.27-12.44c0.36-5.55,2.34-10.45,5.95-14.71c1.83-2.15,4.19-4.19,7.1-6.11
		C299,471.24,301.79,469.8,304.7,468.67z M470.14,166.39c-6.57-8.08-14.14-14.45-22.71-19.1c-3.61-1.97-7.47-3.77-11.58-5.41
		c-5.18-2.08-10.34-3.48-15.47-4.23c-18.06-2.61-35.79-0.97-53.19,4.94c-3.96,1.34-7.88,3.01-11.76,4.99
		c-6.9,3.52-13.47,7.59-19.71,12.21c-3.82,2.83-7.32,6.02-10.49,9.57c-0.02,0.02-0.29,0.42-0.82,1.2c-0.55,0.81-1.27,0.75-2.15-0.17
		c-1.68-1.77-5.02-4.75-10.02-8.95c-3.99-3.35-7.37-5.94-10.15-7.78c-7.43-4.92-15.58-8.94-24.43-12.05
		c-3.73-1.32-7.36-2.34-10.86-3.06c-2.94-0.61-6.6-1.18-10.99-1.71c-4.02-0.49-7.72-0.7-11.12-0.63
		c-6.45,0.12-13.17,0.88-20.14,2.28c-4.55,0.91-8.66,2.04-12.32,3.38c-11.21,4.12-20.84,10.35-28.89,18.68
		c-10.54,10.92-17.84,23.86-21.9,38.83c-1.08,3.99-2.01,8.15-2.77,12.48c-1.77,10.04-2.11,20.16-1.02,30.34
		c0.03,0.23,0.21,2.37,0.55,6.4c0.15,1.83,0.42,3.96,0.8,6.39c3.57,22.73,11.07,43.69,22.5,62.86c9.86,16.55,21.73,31.46,35.6,44.72
		c2.85,2.73,5.99,5.61,9.43,8.65c13.68,12.12,28.76,22.97,45.22,32.55c9.23,5.37,17.86,9.97,25.88,13.81
		c1.58,0.76,3.33,1.51,5.24,2.26c1.77,0.69,3.54,1.39,5.31,2.08c0.16,0.06,0.23,0.25,0.15,0.4c-2.01,3.96-3.93,7.97-5.77,12.02
		c-2.87,6.36-4.09,12.55-3.66,18.56c0.42,5.86,2.85,10.66,7.31,14.42c1.04,0.88,0.92,1.55-0.36,2.01
		c-5.91,2.08-10.93,5.33-15.05,9.75c-2.85,3.05-4.75,6.25-5.7,9.58c-1.05,3.7-1.15,7.55-0.29,11.55c1.53,7.17,5.13,12.47,10.8,15.92
		c3.35,2.05,7.37,3.38,12.05,4c5.89,0.78,11.74,0.18,17.56-1.8c7.6-2.59,14.07-6.87,19.42-12.83c5.25-5.86,8.24-12.69,8.98-20.5
		c0-0.04,0.12-0.99,0.35-2.83c0.13-1.04,0.21-2.33,0.24-3.87c0.14-7.94-0.76-15.5-2.7-22.68c-0.75-2.76-2.2-6.76-4.36-12.01
		c-2.91-7.08-5.8-14.02-8.67-20.84c-0.24-0.56,0-1.2,0.54-1.47c5.73-2.82,11.09-5.42,16.09-7.82c11.3-5.41,22.27-11.43,32.91-18.05
		c2.72-1.69,6.22-4.11,10.51-7.25c11.78-8.62,22.41-17.6,31.89-26.93c6.97-6.86,13.16-13.72,18.58-20.57
		c2.83-3.59,5.39-7,7.67-10.24c3.87-5.5,7.65-11.63,11.36-18.39c6.68-12.21,11.87-24.59,15.57-37.15c1.55-5.26,2.67-9.37,3.38-12.34
		c1.03-4.32,1.74-8.71,2.15-13.16c0.35-3.84,0.62-9.17,0.81-16c0.18-6.8,0-13.16-0.54-19.07c-0.4-4.45-1.1-8.65-2.09-12.6
		c-2.11-8.47-5.34-16.52-9.68-24.14c-1.65-2.89-2.79-4.82-3.43-5.79C473.12,170.2,471.77,168.4,470.14,166.39z"/>
	<path class="st38" d="M470.14,166.39c1.63,2,2.98,3.81,4.04,5.42c0.64,0.97,1.79,2.9,3.43,5.79c4.34,7.62,7.57,15.66,9.68,24.14
		c0.99,3.95,1.69,8.15,2.09,12.6c0.54,5.91,0.72,12.27,0.54,19.07c-0.18,6.83-0.45,12.16-0.81,16c-0.4,4.45-1.12,8.84-2.15,13.16
		c-0.7,2.97-1.83,7.08-3.38,12.34c-3.7,12.56-8.89,24.94-15.57,37.15c-3.7,6.76-7.49,12.89-11.36,18.39
		c-2.28,3.24-4.84,6.65-7.67,10.24c-5.42,6.85-11.61,13.71-18.58,20.57c-9.48,9.33-20.12,18.31-31.89,26.93
		c-4.29,3.14-7.79,5.56-10.51,7.25c-10.64,6.62-21.6,12.64-32.91,18.05c-5,2.4-10.37,5-16.09,7.82c-0.54,0.27-0.78,0.91-0.54,1.47
		c2.87,6.82,5.76,13.76,8.67,20.84c2.16,5.25,3.61,9.25,4.36,12.01c1.94,7.18,2.85,14.74,2.7,22.68c-0.03,1.54-0.1,2.83-0.24,3.87
		c-0.23,1.85-0.35,2.79-0.35,2.83c-0.74,7.81-3.74,14.64-8.98,20.5c-5.35,5.97-11.82,10.25-19.42,12.83
		c-5.82,1.98-11.67,2.58-17.56,1.8c-4.68-0.62-8.69-1.96-12.05-4c-5.67-3.45-9.27-8.76-10.8-15.92c-0.86-4.01-0.76-7.86,0.29-11.55
		c0.95-3.33,2.85-6.53,5.7-9.58c4.13-4.42,9.14-7.67,15.05-9.75c1.29-0.46,1.41-1.13,0.36-2.01c-4.45-3.76-6.89-8.56-7.31-14.42
		c-0.43-6.01,0.79-12.2,3.66-18.56c1.83-4.05,3.76-8.06,5.77-12.02c0.08-0.15,0.01-0.34-0.15-0.4c-1.77-0.69-3.54-1.39-5.31-2.08
		c-1.91-0.75-3.66-1.5-5.24-2.26c-8.02-3.83-16.64-8.43-25.88-13.81c-16.46-9.58-31.54-20.43-45.22-32.55
		c-3.43-3.04-6.57-5.92-9.43-8.65c-13.87-13.26-25.73-28.17-35.6-44.72c-11.42-19.17-18.92-40.13-22.5-62.86
		c-0.38-2.43-0.65-4.55-0.8-6.39c-0.34-4.03-0.52-6.17-0.55-6.4c-1.09-10.18-0.75-20.3,1.02-30.34c0.76-4.33,1.69-8.49,2.77-12.48
		c4.06-14.97,11.36-27.91,21.9-38.83c8.05-8.33,17.68-14.56,28.89-18.68c3.67-1.35,7.77-2.47,12.32-3.38
		c6.97-1.39,13.68-2.15,20.14-2.28c3.4-0.06,7.1,0.15,11.12,0.63c4.38,0.53,8.04,1.1,10.99,1.71c3.51,0.72,7.13,1.74,10.86,3.06
		c8.85,3.12,17,7.13,24.43,12.05c2.78,1.83,6.16,4.42,10.15,7.78c5,4.19,8.34,7.18,10.02,8.95c0.88,0.92,1.59,0.98,2.15,0.17
		c0.52-0.78,0.8-1.17,0.82-1.2c3.17-3.55,6.67-6.74,10.49-9.57c6.25-4.62,12.82-8.69,19.71-12.21c3.88-1.98,7.8-3.64,11.76-4.99
		c17.4-5.91,35.13-7.56,53.19-4.94c5.13,0.74,10.29,2.15,15.47,4.23c4.11,1.64,7.97,3.44,11.58,5.41
		C456,151.94,463.56,158.31,470.14,166.39z M306.21,504.93c-0.93-0.1-1.1-0.05-0.49,0.17c0.13,0.05,0.26,0.07,0.41,0.08
		c4.1,0.22,8.18,0.07,12.25-0.45c0.92-0.12,1.85-0.38,2.8-0.77c0.9-0.38,1.81-0.76,2.72-1.13c1.66-0.68,2.98-1.33,3.94-1.94
		c3.26-2.09,5.94-4.7,8.06-7.83c1.95-2.88,3.35-6.26,4.2-10.14c0.79-3.58,1.17-7.51,1.16-11.81c-0.03-6.53-1.1-12.22-3.22-17.09
		c-2.79-6.38-5.03-10.85-6.73-13.4c-5.76-8.65-6.7-17.66-2.8-27.02c0.57-1.36,1.61-2.44,3.13-3.22c1.04-0.54,1.78-0.93,2.21-1.17
		c0.72-0.41,1.48-0.76,2.26-1.05c1.7-0.61,2.85-1.07,3.45-1.37c1.6-0.81,3.21-1.6,4.83-2.35c1.8-0.84,3.41-1.64,4.81-2.42
		c5.04-2.78,10.12-5.48,15.23-8.13c4.68-2.42,10.63-6.16,17.85-11.22c5.32-3.73,10.57-7.54,15.77-11.43
		c3.68-2.75,6.99-5.43,9.92-8.05c9.61-8.59,18.57-17.82,26.88-27.7c4.87-5.8,9.92-12.75,15.14-20.85
		c4.36-6.76,7.99-13.47,10.91-20.14c0.12-0.27,1.5-3.56,4.14-9.89c1.6-3.83,2.92-7.16,3.94-9.98c3.05-8.41,5.24-17.36,6.55-26.86
		c1.56-11.26,1.63-21.64,0.22-31.15c-2.08-13.97-7.09-26.79-15.02-38.45c-5.81-8.55-13.56-15.24-23.24-20.08
		c-13.18-6.59-26.93-9.29-41.24-8.08c-15.32,1.29-29.22,6.13-41.7,14.52c-3.25,2.18-6.68,4.71-10.3,7.59
		c-4.94,3.92-9.52,8.24-13.76,12.94c-2.8,3.11-4.66,4.93-5.58,5.44c-1.11,0.62-2.1,0.51-2.96-0.32c-1.93-1.86-3.78-3.78-5.57-5.77
		c-6.07-6.75-12.82-12.72-20.25-17.93c-12.47-8.73-26.21-14.17-41.22-16.32c-1.82-0.26-3.84-0.39-6.06-0.38
		c-2.02,0-4.04,0.01-6.07,0.03c-9.87,0.06-19.13,2.21-27.79,6.46c-3.21,1.58-6.26,3.3-9.15,5.15c-2.97,1.91-5.75,4.06-8.34,6.45
		c-3.13,2.89-6.07,5.97-8.8,9.27c-3.74,4.51-6.98,9.67-9.7,15.49c-1.86,3.98-3.21,7.61-4.05,10.91c-0.48,1.89-0.82,3.13-1.02,3.72
		c-0.41,1.22-0.85,2.43-1.33,3.62c-0.26,0.65-0.27,1.28-0.02,1.89c0.08,0.18,0.06,0.39-0.03,0.56c-0.33,0.58-0.47,1.17-0.43,1.78
		c0.06,0.98,0.07,1.56,0.04,1.75c-0.35,2.52-0.65,5.05-0.88,7.59c-0.06,0.59-0.29,1.4-0.7,2.44c-0.63,1.57-0.64,3.32-0.05,5.24
		c0.92,2.99,1.28,6.56,1.07,10.72c-0.05,1.07-0.09,2.13-0.1,3.2c-0.01,0.88,0.1,1.93,0.33,3.15c0.35,1.83,0.72,4.46,1.1,7.88
		c0.44,3.97,1.82,9.57,4.14,16.79c4.85,15.15,11.61,29.39,20.26,42.73c3.99,6.16,8.25,12.13,12.76,17.92
		c2.27,2.92,5.96,7.12,11.07,12.6c10.03,10.76,20.49,19.97,31.4,27.62c5.45,3.82,8.2,5.75,8.26,5.79
		c12.97,9.23,25.81,16.85,38.51,22.86c5.04,2.39,8.87,4.48,11.48,6.29c0.17,0.12,0.37,0.18,0.58,0.19c1.5,0.05,2.93,0.61,4.3,1.68
		c0.17,0.13,0.3,0.31,0.37,0.51c0.42,1.23,1.18,1.95,2.28,2.16c0.2,0.04,0.37,0.17,0.45,0.35c0.65,1.54,1.2,3.12,1.67,4.73
		c0.38,1.31,0.46,2.53,0.26,3.66c-0.2,1.1-0.54,2.31-1.02,3.62c-1.77,4.91-3.23,8.71-4.39,11.39c-2.07,4.78-3.28,8.11-3.64,9.99
		c-0.54,2.87,0.17,5.36,2.14,7.46c2.77,2.96,5.33,6.1,7.67,9.41c2.08,2.92,3.04,6.15,2.9,9.68c-0.04,0.88-0.19,1.6-0.45,2.15
		c-0.37,0.78-0.9,1.32-1.59,1.64c-2.01,0.9-4.66,1.66-7.95,2.28c-2.49,0.46-5.28,1.56-8.37,3.29c-4.36,2.44-6.9,6.14-7.6,11.1
		c-0.21,1.47-0.02,2.88,0.58,4.2c1.43,3.16,3.84,5.09,7.21,5.77C306.38,504.94,306.38,504.95,306.21,504.93z M202.4,155.29
		c-1.11,0.23-2.19,0.56-3.24,0.98c-0.2,0.08-0.36,0.22-0.47,0.39c-0.6,0.92-0.87,1.92-0.81,3.01c0.01,0.17,0.18,0.28,0.34,0.23
		c1.52-0.47,2.95-1.13,4.3-1.99c0.67-0.43,1.26-0.72,1.77-0.88c0.63-0.2,1.27-0.38,1.93-0.52c0.46-0.1,0.94,0.02,1.3,0.33
		c0.49,0.42,0.96,0.52,1.43,0.32c0.23-0.11,0.43-0.17,0.59-0.19c1.58-0.21,2.17-1.17,1.75-2.88c-0.28-1.13-1.11-1.48-2.51-1.04
		c-1.46,0.46-2.64,0.9-3.53,1.29C204.2,154.79,203.25,155.11,202.4,155.29z M187.55,169.53c-0.3,0.56-0.72,1.07-1.27,1.52
		c-0.57,0.47-0.53,0.54,0.13,0.22c0.49-0.24,0.87-0.6,1.14-1.09c0.97-1.73,2.38-2.96,4.23-3.68c0.09-0.03,0.2-0.06,0.35-0.06
		c0.26-0.02,0.36-0.1,0.31-0.25c-0.06-0.14-0.25-0.2-0.43-0.13c-1.24,0.45-2.36,1.09-3.36,1.92
		C188.33,168.22,187.97,168.74,187.55,169.53z M431.25,355.49c0.29,0.22,0.7,0.08,0.8-0.27c0.08-0.28,0.24-0.44,0.48-0.48
		c0.25-0.04,0.44-0.13,0.53-0.24l5.46-6.42c0.14-0.17,0.2-0.38,0.15-0.57c-0.12-0.47-0.37-0.58-0.77-0.32
		c-0.15,0.1-0.21,0.29-0.16,0.5c0.17,0.67-0.06,1.05-0.7,1.15c-0.2,0.03-0.37,0.14-0.47,0.3c-0.42,0.65-1.01,1.01-1.77,1.07
		c-0.26,0.03-0.32-0.06-0.15-0.27l1.48-1.86c0.15-0.19,0.13-0.29-0.07-0.31c-0.22-0.02-0.44,0.07-0.65,0.26
		c-1.73,1.56-3.23,3.32-4.5,5.27c-0.01,0.02-0.16,0.19-0.44,0.49C430.07,354.24,430.33,354.8,431.25,355.49z M229.84,362.1
		c0.08-0.1-0.66-0.84-1.65-1.64c-1-0.8-1.87-1.37-1.95-1.26c-0.08,0.1,0.66,0.84,1.65,1.64
		C228.89,361.64,229.76,362.21,229.84,362.1z M405.93,378.12c0.36-0.61,0.6-1.21,0.71-1.8c0.08-0.42-0.01-0.61-0.28-0.58
		c-0.13,0.01-0.26,0.09-0.41,0.24c-0.98,1.04-2.05,1.98-3.2,2.84c-0.24,0.17-0.39,0.39-0.44,0.65c-0.04,0.21-0.15,0.38-0.31,0.49
		c-0.4,0.29-0.3,0.51,0.32,0.67c1.08,0.28,1.95-0.02,2.6-0.9C405.1,379.5,405.44,378.96,405.93,378.12z M389.75,385.38
		c-0.07-0.14-0.92,0.14-1.89,0.63c-0.97,0.49-1.7,1-1.63,1.14c0.07,0.14,0.92-0.14,1.89-0.63
		C389.09,386.03,389.82,385.52,389.75,385.38z M345.69,489.71c0.14,0.04,0.39-0.41,0.56-0.99c0.16-0.59,0.18-1.1,0.04-1.14
		c-0.14-0.04-0.39,0.41-0.56,0.99C345.56,489.16,345.54,489.66,345.69,489.71z"/>
	<path class="st37" d="M306.22,504.91c-3.38-0.69-5.78-2.61-7.21-5.77c-0.6-1.33-0.8-2.73-0.58-4.2c0.71-4.96,3.24-8.66,7.6-11.1
		c3.09-1.73,5.88-2.82,8.37-3.29c3.29-0.61,5.94-1.37,7.95-2.28c0.69-0.32,1.23-0.86,1.59-1.64c0.26-0.55,0.41-1.27,0.45-2.15
		c0.14-3.53-0.83-6.76-2.9-9.68c-2.34-3.31-4.9-6.44-7.67-9.41c-1.97-2.1-2.68-4.59-2.14-7.46c0.35-1.88,1.57-5.22,3.64-9.99
		c1.16-2.68,2.62-6.48,4.39-11.39c0.47-1.31,0.81-2.52,1.02-3.62c0.21-1.13,0.12-2.35-0.26-3.66c-0.46-1.61-1.02-3.18-1.67-4.73
		c-0.08-0.18-0.24-0.31-0.45-0.35c-1.1-0.21-1.86-0.93-2.28-2.16c-0.07-0.2-0.2-0.38-0.37-0.51c-1.37-1.07-2.8-1.62-4.3-1.68
		c-0.21-0.01-0.42-0.07-0.58-0.19c-2.62-1.81-6.45-3.9-11.48-6.29c-12.71-6.01-25.55-13.63-38.51-22.86
		c-0.06-0.04-2.81-1.97-8.26-5.79c-10.9-7.65-21.37-16.85-31.4-27.62c-5.12-5.49-8.81-9.69-11.07-12.6
		c-4.51-5.78-8.77-11.76-12.76-17.92c-8.66-13.33-15.41-27.58-20.26-42.73c-2.31-7.23-3.69-12.82-4.14-16.79
		c-0.38-3.42-0.75-6.04-1.1-7.88c-0.23-1.22-0.34-2.27-0.33-3.15c0.02-1.07,0.05-2.13,0.1-3.2c0.2-4.15-0.15-7.72-1.07-10.72
		c-0.59-1.93-0.58-3.67,0.05-5.24c0.41-1.04,0.65-1.85,0.7-2.44c0.23-2.54,0.53-5.07,0.88-7.59c0.03-0.18,0.01-0.77-0.04-1.75
		c-0.04-0.61,0.11-1.2,0.43-1.78c0.1-0.17,0.11-0.38,0.03-0.56c-0.25-0.61-0.24-1.24,0.02-1.89c0.48-1.19,0.92-2.4,1.33-3.62
		c0.2-0.59,0.54-1.83,1.02-3.72c0.84-3.3,2.18-6.93,4.05-10.91c2.72-5.82,5.96-10.98,9.7-15.49c2.73-3.29,5.67-6.38,8.8-9.27
		c2.59-2.39,5.37-4.54,8.34-6.45c2.89-1.86,5.94-3.58,9.15-5.15c8.66-4.25,17.92-6.4,27.79-6.46c2.02-0.01,4.05-0.02,6.07-0.03
		c2.23-0.01,4.25,0.12,6.06,0.38c15.01,2.15,28.74,7.59,41.22,16.32c7.43,5.2,14.18,11.18,20.25,17.93
		c1.79,1.99,3.64,3.92,5.57,5.77c0.87,0.83,1.85,0.94,2.96,0.32c0.92-0.52,2.78-2.33,5.58-5.44c4.24-4.71,8.82-9.02,13.76-12.94
		c3.62-2.88,7.05-5.41,10.3-7.59c12.49-8.39,26.39-13.23,41.7-14.52c14.31-1.21,28.06,1.49,41.24,8.08
		c9.68,4.84,17.43,11.54,23.24,20.08c7.93,11.66,12.94,24.48,15.02,38.45c1.42,9.5,1.34,19.88-0.22,31.15
		c-1.32,9.5-3.5,18.45-6.55,26.86c-1.02,2.82-2.34,6.14-3.94,9.98c-2.64,6.32-4.02,9.62-4.14,9.89
		c-2.92,6.67-6.55,13.38-10.91,20.14c-5.22,8.1-10.26,15.05-15.14,20.85c-8.31,9.88-17.27,19.11-26.88,27.7
		c-2.93,2.62-6.24,5.3-9.92,8.05c-5.2,3.89-10.46,7.7-15.77,11.43c-7.22,5.06-13.17,8.8-17.85,11.22
		c-5.12,2.64-10.19,5.35-15.23,8.13c-1.41,0.78-3.01,1.58-4.81,2.42c-1.62,0.75-3.24,1.53-4.83,2.35c-0.6,0.3-1.75,0.76-3.45,1.37
		c-0.78,0.29-1.54,0.64-2.26,1.05c-0.43,0.24-1.16,0.63-2.21,1.17c-1.52,0.78-2.57,1.85-3.13,3.22c-3.9,9.36-2.96,18.36,2.8,27.02
		c1.7,2.55,3.94,7.02,6.73,13.4c2.12,4.87,3.2,10.57,3.22,17.09c0.02,4.3-0.37,8.23-1.16,11.81c-0.85,3.87-2.25,7.25-4.2,10.14
		c-2.11,3.13-4.8,5.74-8.06,7.83c-0.96,0.62-2.28,1.27-3.94,1.94c-0.91,0.37-1.81,0.74-2.72,1.13c-0.95,0.4-1.88,0.65-2.8,0.77
		c-4.07,0.52-8.15,0.67-12.25,0.45c-0.14-0.01-0.28-0.04-0.41-0.08c-0.61-0.21-0.44-0.27,0.49-0.17
		C306.38,504.95,306.38,504.94,306.22,504.91z M195.12,171.23c-3.79,3.81-6.97,7.5-9.53,11.07c-3.61,5.03-6.46,10.54-8.57,16.54
		c-1.24,3.53-2.25,7.66-3.01,12.4c-2.15,13.39-2.36,26.85-0.63,40.39c1.41,11.26,4.02,21.77,7.82,31.53
		c7.53,19.34,18.1,37.28,31.72,53.81c0.52,0.64,1.09,1.23,1.71,1.78c6.41,7.48,13.26,14.53,20.53,21.14
		c2.74,2.49,6.05,5.16,9.94,8.02c4.25,3.12,8.49,6.24,12.72,9.37c4.11,3.03,7.59,5.48,10.45,7.35c14.05,9.18,28.78,17.12,44.21,23.8
		c5.74,2.49,8.79,6.91,9.13,13.29c-0.73,5.14-2.24,10.04-4.53,14.71c-2.32,4.52-3.79,8.26-4.41,11.23c-0.61,2.95,0.06,5.46,2,7.51
		c3.14,3.32,5.73,6.64,7.78,9.94c1.35,2.17,2.28,4.71,2.81,7.6c0.32,1.78,0.11,3.37-0.64,4.77c-0.99,1.06-2.01,1.76-3.04,2.1
		c-2.03,0.68-4.8,1.37-8.31,2.08c-1.47,0.29-3.22,1-5.28,2.1c-3.04,1.22-5.35,3.1-6.94,5.65c-1.6,2.56-2.2,5.19-1.78,7.88
		c0.52,3.38,2.74,5.52,6.65,6.43c2.94,0.68,6.08,0.84,9.43,0.46c3.15-0.35,6.15-1.17,8.98-2.46c9.15-4.14,14.32-11.63,15.51-22.46
		c0.14-1.6,0.24-4.32,0.29-8.15c0.1-7.34-1.46-14.1-4.67-20.29c-2.6-5.01-5.23-10-7.89-14.98c-1.81-3.36-2.57-6.95-2.28-10.77
		c0.16-2.71,0.5-5.39,1.02-8.04c0.42-2.13,1.03-3.7,1.84-4.72c1-1.26,2.38-2.33,4.15-3.22c8.28-4.17,13.39-6.73,15.35-7.67
		c10.07-4.86,19.11-9.83,27.14-14.91c6.62-4.19,13.75-9.1,21.4-14.72c3.85-2.83,7.18-5.49,9.99-7.99c3.06-2.71,6.55-5.96,10.49-9.74
		c8.72-8.39,16.41-17,23.09-25.85c3.04-4.02,5.54-7.47,7.53-10.35c6.59-9.56,11.78-19.86,15.6-30.91c4.38-9.5,7.68-19.36,9.9-29.58
		c2.51-11.54,3.31-23.21,2.4-35c-1.1-14.19-5.29-27.24-12.55-39.14c-2.38-3.9-4.9-7.34-7.56-10.29
		c-6.45-7.16-14.22-12.63-23.32-16.4c-6.75-2.79-13.15-4.51-19.2-5.15c-7.83-0.83-15.92-0.55-24.26,0.84
		c-4.21,0.7-8.33,1.76-12.37,3.17c-12.3,4.31-23.37,10.76-33.21,19.35c-2.13,1.86-4.14,3.68-6.05,5.45
		c-1.99,1.85-3.9,3.78-5.73,5.79c-1.73,1.9-3.58,3.68-5.56,5.33c-0.76,0.64-1.59,0.74-2.48,0.31c-0.86-0.41-1.71-1.05-2.56-1.91
		c-3.1-3.13-6.21-6.26-9.32-9.38c-7.46-7.46-15.76-13.77-24.89-18.91c-3.93-2.21-7.79-4.01-11.57-5.4
		c-10.14-3.72-20.63-5.42-31.47-5.08c-4.76,0.15-8.99,0.57-12.71,1.26c-5.93,1.1-11.66,3.11-17.2,6
		C206.37,161.79,200.35,166.12,195.12,171.23z"/>
	<path class="st39" d="M462.88,286.96l-1.21-0.11c-0.19-0.02-0.38,0.08-0.49,0.27c-1.36,2.26-3.06,4.4-5.11,6.43
		c-6.44,6.4-13.3,12-20.6,16.82c-4.4,2.91-8.86,5.27-13.36,7.08c-16.57,6.67-33.82,10.63-51.76,11.86
		c-1.21,0.09-5.47,0.31-12.78,0.67c-11.92,0.59-23.85,0.89-35.79,0.9c-0.03,0-1.9,0.03-5.59,0.08c-3.44,0.05-7.45-0.07-12.03-0.36
		c-11.15-0.71-21.26-1.84-30.33-3.4c-8-1.37-16.19-3.92-24.59-7.65c-4.09-1.82-7.86-3.81-11.3-5.97
		c-14.43-9.08-25.53-21.21-33.31-36.39c-1.85-3.61-3.47-7.54-4.87-11.8c-2.41-7.34-4.01-14.38-4.78-21.11
		c-1.29-11.15-0.34-22.34,2.85-33.55c1.28-4.51,2.84-8.46,4.69-11.87c4.22-7.81,10.04-14.3,17.44-19.47
		c0.03-0.02,0.81-0.47,2.34-1.36c1.3-0.75,2.26-1.76,2.86-3.01c0.61-1.28,1.29-2.27,2.03-2.95c0.17-0.15,0.39-0.19,0.52-0.07
		l1.34,1.14c-0.98,1.3-1.69,2.74-2.13,4.32c-0.26-0.08-0.41-0.03-0.45,0.16c-0.93,3.83-0.45,7.23,1.43,10.18
		c1.36,2.13,3.13,4.02,5.32,5.68c3.06,2.31,6.61,3.1,10.67,2.36c4.6-0.84,8.17-2.98,10.72-6.41c2.52-3.39,3.58-7.1,3.16-11.11
		c-0.5-4.79-3.32-8.34-8.44-10.64c-1.04-0.56-2.12-0.95-3.25-1.19c-1.04-0.21-2.16-0.4-3.38-0.57c-2.45-0.35-4.77,0.09-6.96,1.3
		c-1.9,1.05-3.85,1.55-5.87,1.5c-0.22-0.01-0.43,0.04-0.6,0.15c-6.27,3.76-12.42,7.71-18.45,11.82c-2.34,1.6-4.21,2.78-5.59,3.54
		c-1.89,1.04-3.87,2.03-5.93,2.96c-0.27,0.12-0.59,0.12-0.88,0l-2.13-0.88c-0.22-0.09-0.39-0.21-0.51-0.35
		c-0.86-1.06-1.53-2.22-2.01-3.48c-0.48-1.24-0.76-2.12-0.84-2.63c-0.16-0.96,0.01-1.91,0.49-2.85c0.58-1.1,1.29-2.11,2.14-3.01
		c0.14-0.15,0.22-0.35,0.2-0.55c-0.05-0.8-0.27-1.55-0.65-2.24c5.23-5.11,11.25-9.44,18.05-12.99c5.54-2.9,11.28-4.9,17.2-6
		c3.72-0.69,7.95-1.11,12.71-1.26c10.84-0.33,21.33,1.36,31.47,5.08c3.79,1.39,7.64,3.19,11.57,5.4
		c9.13,5.14,17.43,11.44,24.89,18.91c3.12,3.12,6.22,6.25,9.32,9.38c0.84,0.86,1.7,1.49,2.56,1.91c0.9,0.43,1.72,0.33,2.48-0.31
		c1.97-1.65,3.83-3.43,5.56-5.33c1.83-2.01,3.74-3.94,5.73-5.79c1.91-1.78,3.92-3.6,6.05-5.45c9.84-8.59,20.91-15.04,33.21-19.35
		c4.04-1.42,8.16-2.47,12.37-3.17c8.34-1.39,16.43-1.66,24.26-0.84c6.05,0.64,12.45,2.36,19.2,5.15c9.1,3.77,16.87,9.23,23.32,16.4
		c2.66,2.96,5.18,6.39,7.56,10.29c7.26,11.9,11.45,24.95,12.55,39.14c0.91,11.79,0.11,23.46-2.4,35
		C470.56,267.61,467.26,277.47,462.88,286.96z M437.51,179.94c-3.07-2.97-6.46-5.59-10.15-7.85c-3.56-2.18-7.54-3.64-11.93-4.38
		c-3.87-0.65-7.41-0.2-10.64,1.35c-1.99,0.95-3.82,2.37-5.49,4.25c-1.58,1.77-2.86,3.75-3.84,5.92c-0.92,2.02-1.31,4.11-1.19,6.26
		c0.15,2.52,0.74,4.92,1.77,7.19c3.9,8.59,9.37,16.23,16.41,22.91c2.33,2.2,4.62,4.45,6.87,6.73c3.03,3.06,6.49,5.48,10.4,7.26
		c3.54,1.62,7.07,1.65,10.6,0.1c3.67-1.62,6.36-3.55,8.08-5.81c0.84-1.1,1.5-2.3,2-3.6c1.93-5.07,2.42-10.29,1.46-15.66
		c-0.99-5.53-3-10.54-6.03-15.03C443.74,186.5,440.97,183.29,437.51,179.94z M295.62,259.86c-0.88-0.77-1.85-1.4-2.9-1.91
		c-4.28-2.05-8.6-2.78-12.96-2.19c-4.57,0.62-8.28,2.44-11.11,5.45c-2.13,2.27-3.49,5-4.09,8.19c-0.56,2.98-0.36,5.92,0.61,8.8
		c0.98,2.93,2.62,5.6,4.92,7.99c1.96,2.05,4.18,3.46,6.68,4.25c2.17,0.68,4.47,0.98,6.91,0.9c2.44-0.08,4.73-0.7,6.87-1.87
		c2.99-1.63,5.48-3.79,7.47-6.5c2.03-2.76,3.22-5.73,3.55-8.91C302.14,268.58,300.16,263.84,295.62,259.86z M351.61,285.72
		c3.84,3.65,8.05,5.42,12.62,5.31c4.32-0.1,8.2-1.64,11.65-4.62c3.67-3.17,5.81-7.46,6.43-12.89c0.61-5.31-1.02-9.59-4.88-12.82
		c-5.78-4.86-12.15-6.28-19.09-4.27c-2.95,0.85-5.41,2.15-7.36,3.89c-2.24,1.99-3.78,4.42-4.64,7.3c-0.96,3.24-0.99,6.44-0.08,9.61
		C347.16,280.36,348.95,283.2,351.61,285.72z M320.79,328.87c-0.07,0.63,0.13,0.99,0.6,1.08c0.27,0.06,0.59-0.03,0.96-0.26
		c6.38-4.04,11.63-8.84,15.74-14.39c1.42-1.91,2.54-4.18,3.38-6.82c0.4-1.24,0.57-2.53,0.52-3.86c-0.06-1.42-0.2-2.72-0.42-3.91
		c-0.12-0.63-0.54-0.95-1.25-0.96c-1.9-3.57-4.68-5.49-8.34-5.75c-5.05-0.36-11.09-0.27-18.13,0.29c-3.5,0.28-6.04,0.85-7.62,1.73
		c-2.68,1.48-4.3,3.78-4.88,6.9c-0.38,2.05-0.21,4.29,0.52,6.72c0.67,2.23,1.66,4.31,2.95,6.22c1.28,1.91,3.33,4.26,6.14,7.05
		c2.3,2.28,4.74,4.25,7.3,5.9C319.02,329.29,319.86,329.31,320.79,328.87z"/>
	<path class="st40" d="M205.24,154.33c0.89-0.4,2.07-0.83,3.53-1.29c1.4-0.44,2.24-0.09,2.51,1.04c0.41,1.71-0.17,2.67-1.75,2.88
		c-0.16,0.02-0.35,0.09-0.59,0.19c-0.46,0.2-0.94,0.1-1.43-0.32c-0.36-0.31-0.84-0.43-1.3-0.33c-0.66,0.14-1.3,0.31-1.93,0.52
		c-0.51,0.16-1.1,0.46-1.77,0.88c-1.35,0.86-2.78,1.52-4.3,1.99c-0.16,0.05-0.33-0.06-0.34-0.23c-0.06-1.09,0.21-2.09,0.81-3.01
		c0.11-0.17,0.27-0.31,0.47-0.39c1.05-0.43,2.13-0.75,3.24-0.98C203.25,155.11,204.2,154.79,205.24,154.33z"/>
	<path class="st41" d="M249.34,167.68l-0.48,0.37c-6.03-1.78-11.69-0.95-16.98,2.49c-1.18,0.76-2.11,1.63-2.81,2.6l-1.34-1.14
		c-0.13-0.12-0.36-0.08-0.52,0.07c-0.74,0.68-1.42,1.66-2.03,2.95c-0.6,1.25-1.55,2.25-2.86,3.01c-1.53,0.89-2.31,1.34-2.34,1.36
		c-7.4,5.18-13.22,11.67-17.44,19.47c-1.85,3.41-3.41,7.37-4.69,11.87c-3.18,11.22-4.13,22.4-2.85,33.55
		c0.78,6.74,2.37,13.77,4.78,21.11c1.39,4.26,3.02,8.19,4.87,11.8c7.78,15.18,18.88,27.31,33.31,36.39
		c3.44,2.16,7.21,4.15,11.3,5.97c8.4,3.73,16.6,6.28,24.59,7.65c9.07,1.56,19.18,2.69,30.33,3.4c4.58,0.29,8.59,0.41,12.03,0.36
		c3.69-0.06,5.55-0.08,5.59-0.08c11.94,0,23.87-0.3,35.79-0.9c7.3-0.36,11.56-0.59,12.78-0.67c17.94-1.24,35.19-5.19,51.76-11.86
		c4.51-1.82,8.96-4.18,13.36-7.08c7.3-4.81,14.17-10.42,20.6-16.82c2.05-2.03,3.75-4.17,5.11-6.43c0.11-0.19,0.3-0.29,0.49-0.27
		l1.21,0.11c-3.81,11.05-9.01,21.35-15.6,30.91c-1.98,2.88-4.49,6.33-7.53,10.35c-6.68,8.85-14.37,17.46-23.09,25.85
		c-3.94,3.79-7.44,7.03-10.49,9.74c-2.81,2.49-6.14,5.16-9.99,7.99c-7.65,5.62-14.78,10.53-21.4,14.72
		c-8.02,5.08-17.07,10.05-27.14,14.91c-1.95,0.94-7.07,3.5-15.35,7.67c-1.77,0.89-3.15,1.97-4.15,3.22
		c-0.81,1.01-1.42,2.59-1.84,4.72c-0.52,2.65-0.87,5.33-1.02,8.04c-0.06-2.33-1.29-3.45-3.68-3.36c-0.35-6.37-3.39-10.8-9.13-13.29
		c-15.43-6.68-30.16-14.62-44.21-23.8c-2.86-1.87-6.35-4.32-10.45-7.35c-4.24-3.12-8.48-6.25-12.72-9.37
		c-3.89-2.86-7.21-5.53-9.94-8.02c-7.28-6.61-14.12-13.66-20.53-21.14c0.36-0.65,0.58-1.34,0.65-2.08c0.01-0.15-0.07-0.34-0.23-0.53
		l-2.19-2.63c-0.78-0.94-1.39-1.53-1.81-1.78c-0.84-0.48-1.53-1.24-2.07-2.27c-1.12-2.14-2.38-4.21-3.79-6.18
		c-5.47-7.7-10.32-15.77-14.55-24.21c-0.02-0.04-0.2-0.34-0.55-0.91c-0.37-0.6-0.5-1.25-0.39-1.95c0.07-0.46-0.1-0.93-0.45-1.25
		c-0.79-0.7-1.38-1.52-1.76-2.46c-0.61-1.5-0.93-2.26-0.93-2.28c-1.7-3.28-2.72-5.38-3.06-6.3c-0.31-0.85-0.69-2.38-1.14-4.58
		c-0.15-0.75-0.51-1.68-1.07-2.79c-0.55-1.08-0.9-2.25-1.06-3.49c-0.18-1.45-0.63-2.89-1.36-4.34c-0.21-0.42-0.35-0.87-0.4-1.33
		c-0.3-2.78-0.87-5.18-1.69-7.21c-0.49-1.21-0.75-2.46-0.79-3.76c-0.06-1.71-0.75-3-2.07-3.87c-0.31-0.2-0.49-0.51-0.52-0.93
		c-1.73-13.54-1.52-27.01,0.63-40.39c0.76-4.74,1.76-8.88,3.01-12.4c2.11-6,4.97-11.51,8.57-16.54c2.56-3.57,5.74-7.26,9.53-11.07
		c0.38,0.69,0.6,1.44,0.65,2.24c0.01,0.2-0.06,0.4-0.2,0.55c-0.85,0.9-1.57,1.9-2.14,3.01c-0.49,0.94-0.65,1.89-0.49,2.85
		c0.08,0.51,0.36,1.38,0.84,2.63c0.49,1.26,1.16,2.42,2.01,3.48c0.12,0.14,0.28,0.26,0.51,0.35l2.13,0.88
		c0.29,0.12,0.61,0.12,0.88,0c2.06-0.93,4.04-1.92,5.93-2.96c1.38-0.76,3.24-1.94,5.59-3.54c6.04-4.12,12.19-8.06,18.45-11.82
		c0.17-0.1,0.38-0.15,0.6-0.15c2.02,0.06,3.97-0.44,5.87-1.5c2.19-1.21,4.51-1.65,6.96-1.3c1.22,0.17,2.35,0.36,3.38,0.57
		C247.22,166.73,248.3,167.13,249.34,167.68z"/>
	<path class="st42" d="M188.63,167.97c1-0.84,2.12-1.48,3.36-1.92c0.19-0.07,0.38-0.01,0.43,0.13c0.06,0.15-0.05,0.23-0.31,0.25
		c-0.14,0.01-0.26,0.03-0.35,0.06c-1.85,0.72-3.26,1.95-4.23,3.68c-0.27,0.49-0.65,0.85-1.14,1.09c-0.66,0.32-0.71,0.25-0.13-0.22
		c0.55-0.45,0.97-0.95,1.27-1.52C187.97,168.74,188.33,168.22,188.63,167.97z"/>
	<path class="st43" d="M248.86,168.06c2.63,1.19,4.7,2.9,6.22,5.12c1.5,2.2,2.22,4.66,2.14,7.37c-0.12,3.98-1.84,7.37-5.18,10.15
		c-7.55,6.31-14.73,6-21.56-0.93c-3.11-3.16-4.29-7.27-3.54-12.31c0.44-1.58,1.15-3.02,2.13-4.32c0.7-0.97,1.64-1.83,2.81-2.6
		C237.16,167.11,242.82,166.28,248.86,168.06z M247.63,187.49c-0.2-0.47-0.77-0.66-1.28-0.45c-0.51,0.22-0.76,0.77-0.57,1.23
		c0.2,0.47,0.77,0.66,1.28,0.45C247.57,188.5,247.82,187.95,247.63,187.49z"/>
	<path class="st44" d="M445.83,189.58c3.03,4.48,5.04,9.49,6.03,15.03c0.95,5.37,0.47,10.59-1.46,15.66c-0.49,1.3-1.16,2.5-2,3.6
		c-1.72,2.26-4.41,4.2-8.08,5.81c-3.53,1.55-7.06,1.52-10.6-0.1c-3.9-1.78-7.37-4.2-10.4-7.26c-2.25-2.28-4.54-4.52-6.87-6.73
		c-7.04-6.68-12.51-14.32-16.41-22.91c-1.03-2.27-1.62-4.67-1.77-7.19c-0.12-2.15,0.27-4.24,1.19-6.26
		c0.98-2.17,2.26-4.15,3.84-5.92c1.67-1.88,3.5-3.3,5.49-4.25c3.23-1.55,6.77-2,10.64-1.35c4.39,0.74,8.37,2.2,11.93,4.38
		c3.69,2.26,7.07,4.87,10.15,7.85C440.97,183.29,443.74,186.5,445.83,189.58z M405.52,169.49c-1.97,0.68-3.87,2.01-5.72,4.01
		c-3.29,3.57-4.92,7.46-4.9,11.68c0.01,3.03,1.18,6.81,3.49,11.32c3.22,6.28,7.45,11.87,12.69,16.77
		c5.16,5.73,10.35,10.41,15.57,14.03c4,2.77,8.04,3.54,12.14,2.32c3.65-1.09,6.64-3.36,8.98-6.82c2.36-3.49,3.57-7.68,3.63-12.57
		c0.07-5.67-1.21-11-3.84-16c-4.77-9.08-11.48-16.24-20.12-21.47c-1.88-1.14-3.68-2.02-5.4-2.64c-1.81-0.66-3.74-1.19-5.81-1.61
		C412.45,167.74,408.88,168.07,405.52,169.49z"/>
	<path class="st44" d="M249.34,167.68c5.12,2.3,7.94,5.85,8.44,10.64c0.42,4.02-0.64,7.72-3.16,11.11
		c-2.55,3.43-6.12,5.57-10.72,6.41c-4.06,0.74-7.62-0.04-10.67-2.36c-2.19-1.66-3.96-3.56-5.32-5.68
		c-1.88-2.95-2.36-6.35-1.43-10.18c0.05-0.19,0.2-0.24,0.45-0.16c-0.75,5.04,0.43,9.15,3.54,12.31c6.82,6.94,14.01,7.25,21.56,0.93
		c3.34-2.79,5.06-6.17,5.18-10.15c0.08-2.72-0.63-5.17-2.14-7.37c-1.52-2.22-3.59-3.93-6.22-5.12L249.34,167.68z"/>
	<path class="st43" d="M411.09,213.27c-0.11-0.55-0.33-1.03-0.66-1.43c-0.46-0.55-0.73-0.96-0.83-1.24
		c-0.16-0.48-0.29-0.96-0.39-1.46c-0.04-0.2-0.13-0.38-0.27-0.54c-2.18-2.41-3.76-4.78-4.74-7.12c-1.23-2.94-2.49-5.41-3.78-7.4
		c-0.53-0.83-0.85-1.67-0.96-2.51c-0.14-1.13-0.25-2.26-0.34-3.39c-0.12-1.46,0.06-2.71,0.51-3.75c0.62-1.42,0.94-2.15,0.97-2.2
		c0.36-1.01,0.87-2.13,1.52-3.36c0.84-1.58,1.62-3.65,2.35-6.21c0.05-0.19,0.16-0.36,0.33-0.52c0.73-0.71,0.97-1.59,0.72-2.63
		c3.37-1.42,6.94-1.75,10.71-0.98c2.06,0.42,4,0.95,5.81,1.61c1.72,0.62,3.52,1.5,5.4,2.64c8.65,5.23,15.35,12.38,20.12,21.47
		c2.63,5,3.9,10.34,3.84,16c-0.06,4.89-1.27,9.08-3.63,12.57c-2.34,3.46-5.33,5.73-8.98,6.82c-4.09,1.22-8.14,0.45-12.14-2.32
		C421.43,223.68,416.24,219,411.09,213.27z"/>
	<path class="st45" d="M405.52,169.49c0.25,1.04,0.01,1.92-0.72,2.63c-0.17,0.16-0.27,0.34-0.33,0.52
		c-0.73,2.56-1.51,4.63-2.35,6.21c-0.66,1.23-1.16,2.35-1.52,3.36c-0.02,0.05-0.34,0.78-0.97,2.2c-0.46,1.04-0.63,2.29-0.51,3.75
		c0.09,1.13,0.2,2.26,0.34,3.39c0.11,0.84,0.43,1.68,0.96,2.51c1.29,2,2.55,4.46,3.78,7.4c0.98,2.34,2.56,4.71,4.74,7.12
		c0.14,0.15,0.23,0.34,0.27,0.54c0.1,0.49,0.23,0.98,0.39,1.46c0.1,0.28,0.38,0.69,0.83,1.24c0.33,0.4,0.55,0.88,0.66,1.43
		c-5.24-4.9-9.47-10.49-12.69-16.77c-2.31-4.52-3.48-8.29-3.49-11.32c-0.02-4.22,1.61-8.11,4.9-11.68
		C401.64,171.51,403.55,170.17,405.52,169.49z"/>
	
		<ellipse transform="matrix(0.9212 -0.3891 0.3891 0.9212 -53.664 110.8049)" class="st46" cx="246.7" cy="187.88" rx="1" ry="0.91"/>
	<path class="st47" d="M214.62,338.76c-0.61-0.55-1.18-1.14-1.71-1.78c-13.62-16.53-24.19-34.47-31.72-53.81
		c-3.8-9.76-6.41-20.27-7.82-31.53c0.04,0.41,0.21,0.72,0.52,0.93c1.33,0.87,2.02,2.15,2.07,3.87c0.04,1.3,0.31,2.55,0.79,3.76
		c0.82,2.03,1.39,4.43,1.69,7.21c0.05,0.46,0.18,0.91,0.4,1.33c0.72,1.44,1.18,2.89,1.36,4.34c0.15,1.24,0.51,2.41,1.06,3.49
		c0.56,1.11,0.91,2.04,1.07,2.79c0.45,2.21,0.83,3.74,1.14,4.58c0.34,0.92,1.36,3.02,3.06,6.3c0.01,0.02,0.32,0.78,0.93,2.28
		c0.39,0.94,0.98,1.76,1.76,2.46c0.35,0.31,0.52,0.79,0.45,1.25c-0.11,0.7,0.02,1.35,0.39,1.95c0.35,0.57,0.53,0.88,0.55,0.91
		c4.23,8.44,9.08,16.51,14.55,24.21c1.41,1.98,2.67,4.04,3.79,6.18c0.54,1.03,1.23,1.79,2.07,2.27c0.42,0.24,1.03,0.84,1.81,1.78
		l2.19,2.63c0.16,0.19,0.24,0.38,0.23,0.53C215.2,337.41,214.98,338.11,214.62,338.76z"/>
	<path class="st37" d="M295.62,259.86c4.54,3.99,6.52,8.72,5.94,14.21c-0.33,3.18-1.52,6.16-3.55,8.91c-1.99,2.7-4.48,4.87-7.47,6.5
		c-2.14,1.16-4.43,1.79-6.87,1.87c-2.43,0.08-4.74-0.22-6.91-0.9c-2.5-0.78-4.73-2.2-6.68-4.25c-2.29-2.4-3.93-5.06-4.92-7.99
		c-0.97-2.89-1.17-5.82-0.61-8.8c0.6-3.19,1.97-5.92,4.09-8.19c2.83-3.01,6.53-4.83,11.11-5.45c4.36-0.59,8.68,0.14,12.96,2.19
		C293.77,258.45,294.74,259.09,295.62,259.86z M293.34,286.52c3-2.22,5.12-5.03,6.35-8.44c0.93-2.57,1.21-5.1,0.84-7.6
		c-0.39-2.64-1.43-5.07-3.1-7.31c-2.28-3.05-5.47-5.03-9.57-5.94c-3.64-0.81-7.11-0.84-10.38-0.08c-3.55,0.82-6.39,2.51-8.54,5.08
		c-1.77,2.11-2.93,4.59-3.47,7.44c-0.37,1.93-0.48,3.56-0.34,4.89c0.16,1.5,0.64,3.09,1.43,4.78c1.53,3.27,3.54,5.86,6.02,7.78
		c2.51,1.93,5.46,2.98,8.85,3.14C285.74,290.45,289.71,289.21,293.34,286.52z"/>
	<path class="st37" d="M351.61,285.72c-2.66-2.53-4.44-5.36-5.35-8.49c-0.91-3.17-0.89-6.38,0.08-9.61c0.85-2.87,2.4-5.31,4.64-7.3
		c1.95-1.74,4.41-3.04,7.36-3.89c6.94-2.01,13.3-0.58,19.09,4.27c3.86,3.24,5.48,7.51,4.88,12.82c-0.62,5.43-2.76,9.72-6.43,12.89
		c-3.45,2.98-7.33,4.51-11.65,4.62C359.65,291.15,355.45,289.38,351.61,285.72z M380.65,267.08c-0.94-2.88-2.68-5.19-5.22-6.93
		c-6.1-4.16-12.78-4.71-20.04-1.65c-2.56,1.08-4.62,2.94-6.18,5.57c-3.17,5.34-3.41,10.72-0.71,16.14c2.4,4.83,6.23,7.87,11.47,9.11
		c4.51,1.07,8.65,0.54,12.42-1.59c5.04-2.85,7.98-6.97,8.8-12.37C381.65,272.35,381.47,269.59,380.65,267.08z"/>
	<path class="st40" d="M293.34,286.52c-3.63,2.69-7.6,3.93-11.91,3.72c-3.39-0.16-6.34-1.21-8.85-3.14
		c-2.48-1.91-4.49-4.51-6.02-7.78c-0.79-1.69-1.27-3.28-1.43-4.78c-0.14-1.33-0.03-2.96,0.34-4.89c0.54-2.85,1.69-5.33,3.47-7.44
		c2.15-2.57,5-4.26,8.54-5.08c3.28-0.76,6.74-0.73,10.38,0.08c4.09,0.91,7.28,2.89,9.57,5.94c1.68,2.23,2.71,4.67,3.1,7.31
		c0.37,2.5,0.09,5.03-0.84,7.6C298.45,281.49,296.34,284.31,293.34,286.52z M286.67,279c2.3,0.31,4.26-0.11,5.88-1.26
		c1.61-1.14,2.51-2.72,2.7-4.76c0.2-2.09-0.61-3.65-2.42-4.66c-1.02-0.58-2.57-0.86-4.66-0.86c-2.15,0-4.31,0-6.46,0
		c-1.55,0-2.71,0.27-3.48,0.81c-1.15,0.8-1.79,1.93-1.91,3.41c-0.1,1.18-0.04,2.2,0.19,3.07c0.28,1.07,0.93,1.94,1.97,2.6
		c1.68,1.07,3.24,1.57,4.67,1.51C284.32,278.8,285.49,278.85,286.67,279z"/>
	<path class="st40" d="M381.19,275.35c-0.82,5.4-3.76,9.53-8.8,12.37c-3.77,2.12-7.91,2.65-12.42,1.59
		c-5.24-1.24-9.07-4.28-11.47-9.11c-2.7-5.42-2.46-10.8,0.71-16.14c1.56-2.63,3.62-4.49,6.18-5.57c7.26-3.07,13.94-2.52,20.04,1.65
		c2.54,1.74,4.29,4.05,5.22,6.93C381.47,269.59,381.65,272.35,381.19,275.35z M358,269.66c-0.71,1.35-0.88,2.78-0.51,4.3
		c0.33,1.36,1.09,2.47,2.26,3.35c1.26,0.94,2.7,1.49,4.3,1.65c0.15,0.02,1.47,0.07,3.95,0.15c1.68,0.06,3-0.09,3.94-0.47
		c3.61-1.43,4.85-4,3.72-7.71c-0.76-2.5-2.47-3.69-5.13-3.56c-1.06,0.05-1.61,0.08-1.66,0.08c-1.81,0-3.61,0-5.42,0
		c-0.04,0-0.46-0.02-1.24-0.05C360.24,267.32,358.84,268.07,358,269.66z"/>
	<path class="st37" d="M286.67,279c-1.17-0.15-2.35-0.2-3.52-0.15c-1.43,0.06-2.99-0.44-4.67-1.51c-1.04-0.66-1.69-1.52-1.97-2.6
		c-0.23-0.87-0.29-1.89-0.19-3.07c0.12-1.47,0.76-2.61,1.91-3.41c0.77-0.54,1.93-0.81,3.48-0.81c2.15,0,4.31,0,6.46,0
		c2.08,0,3.63,0.29,4.66,0.86c1.81,1.01,2.61,2.57,2.42,4.66c-0.19,2.03-1.09,3.62-2.7,4.76C290.92,278.89,288.96,279.31,286.67,279
		z M292.25,269.19c-1.09-0.49-2.22-0.76-3.38-0.79c-1.1-0.03-1.66-0.05-1.68-0.05c-2.49-0.17-4.61-0.15-6.36,0.06
		c-2.49,0.31-3.72,1.64-3.68,4c0.05,2.42,1.05,3.98,3,4.69c0.99,0.36,2.61,0.67,4.87,0.95c1.6,0.19,3.17,0.09,4.73-0.31
		c1.66-0.43,2.86-1.2,3.6-2.31c0.93-1.39,1.02-2.99,0.29-4.8C293.36,269.97,292.9,269.49,292.25,269.19z"/>
	<path class="st37" d="M358,269.66c0.84-1.59,2.24-2.34,4.21-2.25c0.78,0.03,1.2,0.05,1.24,0.05c1.81,0,3.61,0,5.42,0
		c0.04,0,0.59-0.03,1.66-0.08c2.66-0.13,4.37,1.05,5.13,3.56c1.13,3.71-0.1,6.28-3.72,7.71c-0.94,0.38-2.26,0.53-3.94,0.47
		c-2.48-0.09-3.79-0.14-3.95-0.15c-1.61-0.16-3.04-0.71-4.3-1.65c-1.18-0.88-1.93-2-2.26-3.35
		C357.12,272.44,357.29,271.01,358,269.66z M359.12,269.82c-1.76,3.93-0.63,6.47,3.38,7.61c3.25,0.93,6.18,1.01,8.8,0.26
		c2.17-0.62,3.35-2.01,3.52-4.16c0.22-2.72-0.69-4.35-2.72-4.91c-0.55-0.15-2.15-0.23-4.8-0.24c-2.13,0-4.27,0.06-6.4,0.19
		C360.06,268.63,359.47,269.04,359.12,269.82z"/>
	<path class="st48" d="M292.25,269.19c0.65,0.29,1.11,0.77,1.39,1.44c0.73,1.81,0.63,3.41-0.29,4.8c-0.74,1.1-1.94,1.87-3.6,2.31
		c-1.55,0.4-3.13,0.51-4.73,0.31c-2.26-0.27-3.88-0.59-4.87-0.95c-1.95-0.71-2.95-2.27-3-4.69c-0.04-2.35,1.18-3.69,3.68-4
		c1.75-0.22,3.87-0.24,6.36-0.06c0.02,0,0.58,0.02,1.68,0.05C290.03,268.44,291.16,268.7,292.25,269.19z"/>
	<path class="st48" d="M359.12,269.82c0.35-0.78,0.94-1.19,1.78-1.24c2.14-0.13,4.27-0.19,6.4-0.19c2.65,0,4.25,0.08,4.8,0.24
		c2.03,0.56,2.94,2.2,2.72,4.91c-0.17,2.15-1.34,3.53-3.52,4.16c-2.62,0.75-5.56,0.66-8.8-0.26
		C358.49,276.29,357.36,273.75,359.12,269.82z"/>
	<path class="st49" d="M340.32,299.75c1.36,5.7,0.08,10.89-3.82,15.54c-4.77,5.7-10.01,10.23-15.7,13.58
		c-0.93,0.43-1.77,0.41-2.52-0.06c-2.57-1.65-5-3.62-7.3-5.9c-2.81-2.79-4.86-5.14-6.14-7.05c-1.29-1.91-2.27-3.99-2.95-6.22
		c-0.73-2.43-0.91-4.67-0.52-6.72c0.58-3.12,2.2-5.42,4.88-6.9c1.58-0.87,4.12-1.45,7.62-1.73c7.03-0.55,13.08-0.65,18.13-0.29
		C335.64,294.26,338.42,296.18,340.32,299.75z M316.32,326.31c0.93,0.78,1.94,1.42,3.06,1.92c0.19,0.08,0.4,0.07,0.58-0.03
		c7.59-4.15,13.57-9.69,17.94-16.63c1.41-2.24,2.1-4.7,2.07-7.4c-0.03-2.28-0.61-4.15-1.75-5.63c-1.3-1.68-3.11-2.77-5.45-3.25
		c-1.76-0.36-3.41-0.48-4.95-0.35c-3.31,0.27-6.29,0.35-8.95,0.22c-2.02-0.1-4.36-0.06-7.04,0.1c-4.32,0.27-7.28,2.09-8.88,5.46
		c-0.71,1.5-0.99,3.24-0.84,5.21c0.15,1.95,0.58,3.71,1.28,5.28c2.28,5.06,5.77,9.4,10.46,13.03
		C313.9,324.28,314.72,324.97,316.32,326.31z"/>
	<path class="st50" d="M313.87,324.26c-4.69-3.63-8.18-7.98-10.46-13.03c-0.7-1.56-1.13-3.32-1.28-5.28
		c-0.15-1.97,0.13-3.71,0.84-5.21c1.59-3.37,4.55-5.19,8.88-5.46c2.68-0.17,5.02-0.2,7.04-0.1c2.66,0.13,5.64,0.06,8.95-0.22
		c1.54-0.13,3.19-0.01,4.95,0.35c2.34,0.48,4.15,1.56,5.45,3.25c1.14,1.47,1.72,3.35,1.75,5.63c0.03,2.69-0.66,5.16-2.07,7.4
		c-4.37,6.94-10.35,12.48-17.94,16.63c-0.18,0.1-0.39,0.11-0.58,0.03c-1.11-0.5-2.13-1.14-3.06-1.92
		C314.72,324.97,313.9,324.28,313.87,324.26z M322.07,318.75l2.69-2.37c0.21,0.24,0.42,0.28,0.63,0.12c2.54-2.02,5.02-4.5,7.44-7.42
		c2.05-2.47,2.21-4.47,0.47-5.99c-1.02-0.9-2.54-1.45-4.56-1.67c-2.57-0.28-5.22-0.09-7.95,0.57c-1.14,0.27-2.39,0.36-3.75,0.27
		c-0.35-0.03-1.2-0.26-2.54-0.7c-1.06-0.35-2.11-0.34-3.15,0.02c-0.93,0.32-1.69,0.69-2.28,1.11c-0.9,0.64-1.2,1.53-0.91,2.66
		c0.7,2.71,2.06,5.31,4.09,7.81c1.87,2.29,2.97,3.68,3.31,4.18c1.01,1.48,1.98,2.97,2.92,4.47c0.15,0.23,0.44,0.31,0.69,0.2
		c1.33-0.64,2.34-1.4,3.05-2.28C322.57,319.28,322.52,318.96,322.07,318.75z"/>
	<path class="st51" d="M340.32,299.75c0.72,0.01,1.13,0.33,1.25,0.96c0.23,1.19,0.37,2.49,0.42,3.91c0.05,1.33-0.12,2.62-0.52,3.86
		c-0.84,2.64-1.97,4.92-3.38,6.82c-4.11,5.55-9.36,10.35-15.74,14.39c-0.37,0.23-0.69,0.32-0.96,0.26c-0.47-0.09-0.67-0.45-0.6-1.08
		c5.7-3.35,10.93-7.87,15.7-13.58C340.4,310.64,341.68,305.46,340.32,299.75z"/>
	<path class="st49" d="M324.76,316.38c3.23-2.89,6-6.15,8.31-9.8c0.76-1.2,0.53-2.17-0.68-2.9c-1.13-0.69-2.44-1.04-3.93-1.07
		c-2.03-0.23-4.05-0.18-6.07,0.16c-3.56,0.48-6.86,0.49-9.91,0.03c-1.44-0.22-2.5,0.17-3.19,1.17c-0.11,0.16-0.15,0.37-0.12,0.59
		c0.46,2.8,1.36,5.03,2.7,6.68c2.41,2.95,4.74,6.12,7,9.49c0.13,0.19,0.37,0.23,0.54,0.1l2.66-2.07c0.45,0.21,0.5,0.53,0.15,0.97
		c-0.71,0.88-1.72,1.64-3.05,2.28c-0.25,0.12-0.54,0.03-0.69-0.2c-0.94-1.5-1.91-2.99-2.92-4.47c-0.34-0.49-1.44-1.89-3.31-4.18
		c-2.03-2.49-3.39-5.1-4.09-7.81c-0.29-1.13,0.01-2.02,0.91-2.66c0.59-0.43,1.35-0.8,2.28-1.11c1.04-0.36,2.09-0.36,3.15-0.02
		c1.35,0.44,2.2,0.68,2.54,0.7c1.36,0.09,2.61,0,3.75-0.27c2.73-0.66,5.38-0.85,7.95-0.57c2.02,0.22,3.54,0.77,4.56,1.67
		c1.73,1.52,1.58,3.51-0.47,5.99c-2.43,2.92-4.91,5.4-7.44,7.42C325.19,316.66,324.98,316.62,324.76,316.38z"/>
	<path class="st51" d="M328.47,302.6l-6.07,0.16C324.41,302.43,326.44,302.37,328.47,302.6z"/>
	<path class="st46" d="M328.47,302.6c1.48,0.03,2.79,0.38,3.93,1.07c1.21,0.74,1.44,1.71,0.68,2.9c-2.31,3.65-5.08,6.92-8.31,9.8
		l-2.69,2.37l-2.66,2.07c-0.17,0.13-0.41,0.08-0.54-0.1c-2.25-3.37-4.58-6.54-7-9.49c-1.34-1.65-2.24-3.87-2.7-6.68
		c-0.04-0.22,0.01-0.43,0.12-0.59c0.69-1,1.75-1.39,3.19-1.17c3.05,0.46,6.35,0.45,9.91-0.03L328.47,302.6z"/>
	<path class="st42" d="M431.25,355.49c-0.92-0.69-1.18-1.26-0.78-1.69c0.28-0.31,0.43-0.47,0.44-0.49c1.27-1.95,2.78-3.71,4.5-5.27
		c0.21-0.19,0.42-0.27,0.65-0.26c0.2,0.02,0.22,0.12,0.07,0.31l-1.48,1.86c-0.16,0.2-0.11,0.29,0.15,0.27
		c0.76-0.07,1.35-0.43,1.77-1.07c0.1-0.16,0.27-0.27,0.47-0.3c0.64-0.1,0.87-0.48,0.7-1.15c-0.05-0.2,0.01-0.4,0.16-0.5
		c0.4-0.26,0.66-0.15,0.77,0.32c0.04,0.19-0.01,0.4-0.15,0.57l-5.46,6.42c-0.09,0.11-0.28,0.2-0.53,0.24
		c-0.24,0.04-0.4,0.2-0.48,0.48C431.96,355.57,431.54,355.71,431.25,355.49z"/>
	
		<ellipse transform="matrix(0.628 -0.7782 0.7782 0.628 -195.8296 311.6462)" class="st42" cx="228.04" cy="360.65" rx="0.24" ry="2.31"/>
	<path class="st42" d="M404.92,379.75c-0.65,0.87-1.52,1.17-2.6,0.9c-0.62-0.16-0.72-0.38-0.32-0.67c0.15-0.11,0.26-0.28,0.31-0.49
		c0.06-0.26,0.2-0.48,0.44-0.65c1.15-0.86,2.21-1.8,3.2-2.84c0.14-0.15,0.28-0.23,0.41-0.24c0.27-0.03,0.36,0.16,0.28,0.58
		c-0.11,0.58-0.35,1.18-0.71,1.8C405.44,378.96,405.1,379.5,404.92,379.75z"/>
	
		<ellipse transform="matrix(0.8934 -0.4493 0.4493 0.8934 -132.1837 215.5178)" class="st42" cx="387.99" cy="386.26" rx="1.97" ry="0.29"/>
	<path class="st52" d="M321.62,421.72c2.39-0.09,3.62,1.03,3.68,3.36c-0.29,3.82,0.48,7.41,2.28,10.77
		c2.66,4.97,5.29,9.97,7.89,14.98c3.21,6.19,4.77,12.95,4.67,20.29c-0.05,3.84-0.15,6.55-0.29,8.15l-0.82-0.29
		c-0.19-0.06-0.38-0.01-0.47,0.12c-0.72,1.02-1.4,2.07-2.03,3.14c-0.77,1.31-1.46,2.34-2.08,3.07c-2.68,3.17-5.71,5.98-9.08,8.43
		c-2.66,1.93-5.46,2.97-8.4,3.12c-3.48,0.17-6.4-1.12-8.75-3.87c-0.86-1.01-1.3-2.33-1.34-3.96c0.38-1.05,1.03-1.63,1.94-1.76
		c1.68-0.23,3.72-0.13,6.11,0.29c2.3,0.41,4.57,0.33,6.81-0.25c0.19-0.05,0.36-0.17,0.49-0.35c0.49-0.63,1.12-0.97,1.87-1.01
		c0.74-0.04,1.35-0.35,1.82-0.92c2.28-2.79,4.13-5.83,5.58-9.12c1.82-3.96,1.97-7.83,0.47-11.63c-1.3-3.26-3.21-6.47-5.74-9.63
		c-1.75-2.19-2.64-3.3-2.67-3.34c-0.93-1.2-1.89-2.39-2.86-3.57c-1.17-1.42-2.13-3.26-2.87-5.5c-0.19-0.58-0.25-1.37-0.17-2.4
		c0.09-1.16-0.09-2.3-0.54-3.41C319.37,431.76,320.88,426.86,321.62,421.72z"/>
	<path class="st39" d="M304.84,423.12c0.33,0.17,0.39,0.36,0.19,0.58c-0.18,0.19-0.28,0.3-0.31,0.35c-1.97,3.02-3.52,6.25-4.66,9.69
		c-0.04,0.11-0.09,0.19-0.17,0.25c-0.25,0.19-0.33,0.06-0.24-0.4c0.77-3.76,2.2-7.17,4.29-10.24
		C304.15,423.05,304.53,422.96,304.84,423.12z"/>
	<path class="st53" d="M317.09,436.43c0.46,1.12,0.64,2.26,0.54,3.41c-0.08,1.02-0.03,1.82,0.17,2.4c0.75,2.24,1.7,4.08,2.87,5.5
		c0.97,1.18,1.92,2.37,2.86,3.57c0.03,0.04,0.92,1.15,2.67,3.34c2.53,3.16,4.45,6.37,5.74,9.63c1.5,3.8,1.35,7.68-0.47,11.63
		c-0.78,0.32-1.57,0.4-2.38,0.24c-0.22-0.04-0.43-0.02-0.59,0.07c-0.78,0.42-1.54,0.87-2.28,1.34c-0.28,0.18-0.54,0.26-0.77,0.23
		c-0.29-0.03-0.56-0.13-0.82-0.31c0.75-1.4,0.96-2.99,0.64-4.77c-0.52-2.89-1.46-5.43-2.81-7.6c-2.05-3.31-4.64-6.62-7.78-9.94
		c-1.94-2.05-2.61-4.56-2-7.51C313.3,444.69,314.77,440.95,317.09,436.43z"/>
	<path class="st54" d="M331.48,475.92c-1.44,3.29-3.3,6.33-5.58,9.12c-0.47,0.58-1.07,0.88-1.82,0.92
		c-0.75,0.04-1.37,0.38-1.87,1.01c-0.13,0.17-0.31,0.29-0.49,0.35c-2.24,0.58-4.51,0.66-6.81,0.25c-2.39-0.43-4.43-0.52-6.11-0.29
		c-0.91,0.12-1.56,0.71-1.94,1.76c-0.11-0.2-0.16-0.42-0.17-0.64c0-0.17,0.08-0.37,0.23-0.58c0.86-1.19,1.22-2.53,1.08-4.03
		c2.05-1.11,3.81-1.81,5.28-2.1c3.51-0.71,6.28-1.4,8.31-2.08c1.03-0.35,2.04-1.05,3.04-2.1c0.26,0.17,0.53,0.28,0.82,0.31
		c0.23,0.03,0.49-0.05,0.77-0.23c0.75-0.47,1.51-0.92,2.28-1.34c0.17-0.09,0.38-0.12,0.59-0.07
		C329.9,476.31,330.7,476.24,331.48,475.92z"/>
	<path class="st55" d="M339.84,479.27c-1.19,10.83-6.36,18.32-15.51,22.46c-2.83,1.28-5.83,2.1-8.98,2.46
		c-3.34,0.38-6.48,0.22-9.43-0.46c-3.91-0.91-6.13-3.05-6.65-6.43c-0.41-2.69,0.18-5.32,1.78-7.88c1.59-2.54,3.91-4.43,6.94-5.65
		c0.14,1.5-0.22,2.85-1.08,4.03c-0.15,0.21-0.23,0.4-0.23,0.58c0,0.22,0.06,0.43,0.17,0.64c0.04,1.63,0.49,2.95,1.34,3.96
		c2.36,2.76,5.28,4.05,8.75,3.87c2.95-0.15,5.75-1.19,8.4-3.12c3.37-2.45,6.4-5.26,9.08-8.43c0.62-0.73,1.32-1.76,2.08-3.07
		c0.63-1.07,1.31-2.12,2.03-3.14c0.1-0.13,0.29-0.19,0.47-0.12L339.84,479.27z"/>
	
		<ellipse transform="matrix(0.2689 -0.9632 0.9632 0.2689 -217.6969 690.4761)" class="st42" cx="345.99" cy="488.64" rx="1.11" ry="0.27"/>
</g>
</svg>
