<?xml version="1.0" encoding="utf-8"?>
<!-- Generator: Adobe Illustrator 27.4.1, SVG Export Plug-In . SVG Version: 6.00 Build 0)  -->
<svg version="1.1" id="Layer_1" xmlns="http://www.w3.org/2000/svg" xmlns:xlink="http://www.w3.org/1999/xlink" x="0px" y="0px"
	 viewBox="0 0 612 792" style="enable-background:new 0 0 612 792;" xml:space="preserve">
<style type="text/css">
	.st0{fill:none;stroke:#6F4A29;stroke-width:2;}
	.st1{fill:#040404;}
	.st2{fill:none;stroke:#131A1D;stroke-width:2;}
	.st3{fill:none;stroke:#3D728F;stroke-width:2;}
	.st4{fill:none;stroke:#243740;stroke-width:2;}
	.st5{fill:none;stroke:#4A7E93;stroke-width:2;}
	.st6{fill:none;stroke:#2E5669;stroke-width:2;}
	.st7{fill:none;stroke:#2E5D72;stroke-width:2;}
	.st8{fill:none;stroke:#4A849A;stroke-width:2;}
	.st9{fill:none;stroke:#132025;stroke-width:2;}
	.st10{fill:none;stroke:#A7DEEF;stroke-width:2;}
	.st11{fill:none;stroke:#52A4C3;stroke-width:2;}
	.st12{fill:none;stroke:#3A6977;stroke-width:2;}
	.st13{fill:none;stroke:#707A7B;stroke-width:2;}
	.st14{fill:none;stroke:#2E5C75;stroke-width:2;}
	.st15{fill:none;stroke:#9CD1EB;stroke-width:2;}
	.st16{fill:none;stroke:#64BFE9;stroke-width:2;}
	.st17{fill:none;stroke:#DEF1F3;stroke-width:2;}
	.st18{fill:#050505;}
	.st19{fill:#222F37;}
	.st20{fill:#253D48;}
	.st21{fill:#58B1E4;}
	.st22{fill:#6FCCEB;}
	.st23{fill:#DEF1F3;}
	.st24{fill:#377D9B;}
</style>
<g>
	<g>
		<path vector-effect="non-scaling-stroke" class="st0" d="M41.38,251.68"/>
	</g>
	<path class="st1" d="M41.38,251.68"/>
</g>
<g>
	<g>
		<path vector-effect="non-scaling-stroke" class="st0" d="M334.1,232.13c-6.03-6.03-13.82-9.49-23.35-10.4
			c-8-0.76-15.57,1.67-22.72,7.29c-0.33,0.26-0.79,0.26-1.11-0.01c-7.5-6.3-16.14-8.94-25.93-7.92c-9.63,1-17.28,4.65-22.93,10.95
			c-5.32,5.94-8.17,12.59-8.56,19.94c-0.41,7.72,1.37,15.36,5.33,22.93c3.33,6.36,8.04,12.4,14.11,18.13
			c4.63,4.38,8.59,8,11.88,10.86c3.97,3.45,6.97,5.97,8.99,7.54c3.59,2.8,6.92,4.88,10,6.23c4.49,1.96,8.81,1.81,12.94-0.44
			c10.12-5.52,19.81-12.33,29.06-20.44c8.19-7.17,14.29-15.22,18.31-24.15c3.11-6.91,4.46-13.36,4.04-19.35
			C343.6,245.32,340.24,238.27,334.1,232.13"/>
		<path vector-effect="non-scaling-stroke" class="st2" d="M333.81,234.42c-1.58-1.79-3.11-3.24-4.58-4.35
			c-1.21-0.91-3-1.98-5.39-3.22c-5.53-2.87-11.49-4.15-17.9-3.84c-6.35,0.31-12.14,2.79-17.35,7.42c-0.45,0.41-1.13,0.44-1.63,0.08
			c-8.33-6.12-17.22-8.61-26.65-7.47c-11.67,1.41-20.16,6.9-25.46,16.46c-3.53,6.37-4.73,12.87-3.6,19.48
			c0.15,0.85,0.69,3.02,1.62,6.51c0.65,2.41,1.41,4.5,2.3,6.28c3.77,7.56,9.11,14.65,16.02,21.27c5,4.79,9.27,8.65,12.81,11.57
			c3.61,2.98,5.96,4.89,7.04,5.73c2.47,1.92,5.02,3.57,7.65,4.95c3.5,1.85,6.97,2.36,10.4,1.53c1.67-0.39,4.66-1.83,8.99-4.3
			c6.86-3.93,13.29-8.44,19.29-13.53c6.25-5.29,10.98-9.98,14.21-14.06c5.74-7.25,9.4-15.46,10.98-24.64
			c1.01-5.89,0.04-11.59-2.91-17.1c-1.25-2.34-2.11-3.87-2.58-4.6C336.26,237.36,335.17,235.97,333.81,234.42"/>
		<path vector-effect="non-scaling-stroke" class="st2" d="M247.5,245.52c-0.35,1.33-0.7,2.29-1.06,2.9
			c-1.09,1.83-1.34,4.04-0.75,6.62c0.95,4.16,2.54,7.56,4.75,10.21c0.03,0.03,0.15,0.25,0.37,0.64c0.17,0.31,0.47,0.34,0.9,0.09"/>
		<path vector-effect="non-scaling-stroke" class="st3" d="M251.71,265.98c8.25,11.77,18.02,22.1,29.33,31"/>
		<path vector-effect="non-scaling-stroke" class="st2" d="M281.04,296.98c1.48,2.68,3.64,4.54,6.48,5.58
			c0.29,0.11,0.63,0.06,0.88-0.14c4.1-3.11,8.12-6.32,12.06-9.61c6.41-5.36,10.3-8.71,11.69-10.04c2.56-2.45,4.92-5.09,7.09-7.91
			c2.78-3.61,4.78-6.52,6.01-8.71c2.85-5.1,3.93-10.41,3.25-15.92c-0.45-3.65-2.53-6.88-6.25-9.71"/>
		<path vector-effect="non-scaling-stroke" class="st4" d="M322.25,240.52c-0.09-3.73-2.09-5.91-6-6.54
			c-7.35-1.18-14.01,0.07-20,3.75c-1.41,0.87-1.32,1.71,0.25,2.54"/>
		<path vector-effect="non-scaling-stroke" class="st2" d="M296.5,240.27c-1.13,0.69-1.29,1.27-0.5,1.75"/>
		<path vector-effect="non-scaling-stroke" class="st5" d="M296,242.02c-2.85,2.7-6.1,4.76-9.75,6.17"/>
		<path vector-effect="non-scaling-stroke" class="st6" d="M286.25,248.19l-3.25-0.25"/>
		<path vector-effect="non-scaling-stroke" class="st4" d="M283,247.94c-0.95-3.25-2.34-6.09-4.19-8.52
			c-3.15-4.16-7.42-6.16-12.81-6c-3.41,0.1-6.77,0.52-10.08,1.26c-0.29,0.07-0.6,0.05-0.95-0.06c-1.09-0.33-2.13-0.18-3.14,0.45
			c-1.09,0.68-2.19,1.34-3.3,1.99c-0.16,0.1-0.37,0.18-0.62,0.23c-0.61,0.14-0.75,0.35-0.4,0.62c0.18,0.14,0.18,0.39,0.01,0.5
			c-1.97,1.23-3.05,2.96-3.24,5.21c-0.07,0.79,0.01,1.52,0.25,2.19c0.59,1.63,1.58,1.53,2.97-0.29"/>
		<path vector-effect="non-scaling-stroke" class="st7" d="M283,247.94l-2.46-0.21"/>
		<path vector-effect="non-scaling-stroke" class="st8" d="M280.54,247.73c-0.14-0.15-0.22-0.32-0.25-0.5"/>
		<path vector-effect="non-scaling-stroke" class="st9" d="M280.29,247.23c0.55-0.21,0.67-0.6,0.36-1.17
			c-5.92-11.07-14.62-13.58-26.09-7.52c-2.87,1.52-5.22,3.85-7.06,6.98"/>
		<path vector-effect="non-scaling-stroke" class="st10" d="M318.54,248.73c0.25-1.23,0.16-2.34-0.25-3.33
			c-0.29-0.68-1.02-1.43-2.19-2.25c-1.42-1.01-2.75-2.12-4-3.33c-0.24-0.23-0.53-0.38-0.84-0.43c-3.3-0.57-6.45,0.06-9.45,1.9
			c-0.58,0.36-0.88,0.82-0.91,1.38c-0.02,0.33-0.17,0.61-0.41,0.74c-3.63,2.05-5.31,4.82-5.04,8.31c0.24,3.11,1.71,5.46,4.42,7.04
			c2.79,1.63,6.02,1.81,9.69,0.53c1.46-0.51,3.26-1.69,5.4-3.56"/>
		<path vector-effect="non-scaling-stroke" class="st10" d="M268.25,259.69c1.57,0.23,3.14-0.36,4.69-1.77
			c3.63-3.32,5.83-7.05,6.6-11.19"/>
		<path vector-effect="non-scaling-stroke" class="st11" d="M280.54,247.73c1.12,2.09,2.87,2.55,5.25,1.38
			c0.84-0.41,0.99-0.72,0.46-0.92"/>
		<path vector-effect="non-scaling-stroke" class="st12" d="M280.29,247.23c-0.15-0.35-0.4-0.52-0.75-0.5"/>
		<path vector-effect="non-scaling-stroke" class="st13" d="M279.54,246.73c-1.59-3.71-4.18-6.47-7.79-8.29"/>
		<path vector-effect="non-scaling-stroke" class="st14" d="M271.75,238.44c-5.66-2.35-11.26-1.94-16.81,1.23
			c-6.82,3.89-9.38,9.66-7.69,17.31c0.39,1.75,1.87,4.75,4.46,9"/>
		<path vector-effect="non-scaling-stroke" class="st14" d="M281.04,296.98l4.87,3.7c0.93,0.71,1.88,0.71,2.83,0.02
			c9.35-6.78,18.18-14.37,26.47-22.77c3.83-3.89,6.95-8.28,9.36-13.17c2.2-4.49,3.01-9.08,2.43-13.78
			c-0.57-4.64-2.98-8.06-7.21-10.25"/>
		<path vector-effect="non-scaling-stroke" class="st12" d="M319.79,240.73c-6.57-4.1-13.26-4.27-20.07-0.51
			c-1.21,0.67-2.45,1.27-3.72,1.8"/>
		<path vector-effect="non-scaling-stroke" class="st15" d="M271.75,238.44c-0.59,0.15-1.18,0.27-1.78,0.36
			c-0.51,0.08-1.1,0.01-1.76-0.21c-2.21-0.73-4.21-0.48-5.99,0.74c-1.58,1.09-2.4,1.65-2.47,1.69c-1.19,0.71-2.38,1.58-3.57,2.6
			c-0.34,0.29-0.54,0.72-0.53,1.17c0.05,3.2,0.18,4.18,0.39,2.93c0.07-0.42,0.17-0.43,0.28-0.04l0.82,2.87
			c0.13,0.47,0.25,0.76,0.35,0.89c2.84,3.7,6.43,6.45,10.76,8.25"/>
		<path vector-effect="non-scaling-stroke" class="st16" d="M268.25,259.69c-0.75-0.05-0.9,0.1-0.43,0.45
			c11.3,8.45,23.94,11.21,37.92,8.28c1.47-0.31,2.89-0.79,4.25-1.43c0.25-0.12,0.46-0.33,0.58-0.58c0.43-0.87,0.97-1.36,1.62-1.47
			c0.43-0.08,0.72-0.19,0.89-0.33c2.27-1.86,2.93-4.34,1.98-7.44c-0.04-0.14-0.07-0.62-0.1-1.44"/>
		<path vector-effect="non-scaling-stroke" class="st15" d="M314.96,255.73c1.88-1.98,3.07-4.31,3.58-7"/>
		<path vector-effect="non-scaling-stroke" class="st16" d="M318.54,248.73l1.03-2.03c0.12-0.24,0.14-0.58,0.04-0.94
			c-0.43-1.67-0.37-3.35,0.18-5.03"/>
		<path vector-effect="non-scaling-stroke" class="st9" d="M322.25,240.52c-8.47-6.43-17.05-6.51-25.75-0.25"/>
		<path vector-effect="non-scaling-stroke" class="st17" d="M261.86,242.56c-0.44,0.48-0.33,1.24,0.23,1.58
			c1.19,0.73,2.25,0.4,3.16-0.99c0.18-0.27,0.21-0.61,0.09-0.9C264.68,240.6,263.52,240.71,261.86,242.56"/>
	</g>
	<path class="st18" d="M334.1,232.13c6.15,6.14,9.5,13.19,10.06,21.16c0.42,5.99-0.93,12.44-4.04,19.35
		c-4.02,8.93-10.12,16.98-18.31,24.15c-9.25,8.11-18.94,14.92-29.06,20.44c-4.13,2.25-8.45,2.4-12.94,0.44
		c-3.08-1.35-6.41-3.43-10-6.23c-2.02-1.57-5.02-4.09-8.99-7.54c-3.29-2.86-7.25-6.48-11.88-10.86
		c-6.07-5.73-10.78-11.77-14.11-18.13c-3.96-7.57-5.74-15.21-5.33-22.93c0.39-7.35,3.24-14,8.56-19.94
		c5.65-6.3,13.3-9.95,22.93-10.95c9.79-1.02,18.43,1.62,25.93,7.92c0.32,0.27,0.78,0.27,1.11,0.01c7.15-5.62,14.72-8.05,22.72-7.29
		C320.28,222.64,328.06,226.1,334.1,232.13z M333.81,234.42c-1.58-1.79-3.11-3.24-4.58-4.35c-1.21-0.91-3-1.98-5.39-3.22
		c-5.53-2.87-11.49-4.15-17.9-3.84c-6.35,0.31-12.14,2.79-17.35,7.42c-0.45,0.41-1.13,0.44-1.63,0.08
		c-8.33-6.12-17.22-8.61-26.65-7.47c-11.67,1.41-20.16,6.9-25.46,16.46c-3.53,6.37-4.73,12.87-3.6,19.48
		c0.15,0.85,0.69,3.02,1.62,6.51c0.65,2.41,1.41,4.5,2.3,6.28c3.77,7.56,9.11,14.65,16.02,21.27c5,4.79,9.27,8.65,12.81,11.57
		c3.61,2.98,5.96,4.89,7.04,5.73c2.47,1.92,5.02,3.57,7.65,4.95c3.5,1.85,6.97,2.36,10.4,1.53c1.67-0.39,4.66-1.83,8.99-4.3
		c6.86-3.93,13.29-8.44,19.29-13.53c6.25-5.29,10.98-9.98,14.21-14.06c5.74-7.25,9.4-15.46,10.98-24.64
		c1.01-5.89,0.04-11.59-2.91-17.1c-1.25-2.34-2.11-3.87-2.58-4.6C336.26,237.36,335.17,235.97,333.81,234.42z"/>
	<path class="st19" d="M333.81,234.42c1.37,1.55,2.45,2.94,3.26,4.17c0.47,0.73,1.33,2.26,2.58,4.6c2.95,5.51,3.92,11.21,2.91,17.1
		c-1.58,9.18-5.24,17.39-10.98,24.64c-3.23,4.08-7.96,8.77-14.21,14.06c-6,5.09-12.43,9.6-19.29,13.53
		c-4.33,2.47-7.32,3.91-8.99,4.3c-3.43,0.83-6.9,0.32-10.4-1.53c-2.63-1.38-5.18-3.03-7.65-4.95c-1.08-0.84-3.43-2.75-7.04-5.73
		c-3.54-2.92-7.81-6.78-12.81-11.57c-6.91-6.62-12.25-13.71-16.02-21.27c-0.89-1.78-1.65-3.87-2.3-6.28
		c-0.93-3.49-1.47-5.66-1.62-6.51c-1.13-6.61,0.07-13.11,3.6-19.48c5.3-9.56,13.79-15.05,25.46-16.46
		c9.43-1.14,18.32,1.35,26.65,7.47c0.5,0.36,1.18,0.33,1.63-0.08c5.21-4.63,11-7.11,17.35-7.42c6.41-0.31,12.37,0.97,17.9,3.84
		c2.39,1.24,4.18,2.31,5.39,3.22C330.7,231.18,332.23,232.63,333.81,234.42z M247.5,245.52c-0.35,1.33-0.7,2.29-1.06,2.9
		c-1.09,1.83-1.34,4.04-0.75,6.62c0.95,4.16,2.54,7.56,4.75,10.21c0.03,0.03,0.15,0.25,0.37,0.64c0.17,0.31,0.47,0.34,0.9,0.09
		c8.25,11.77,18.02,22.1,29.33,31c1.48,2.68,3.64,4.54,6.48,5.58c0.29,0.11,0.63,0.06,0.88-0.14c4.1-3.11,8.12-6.32,12.06-9.61
		c6.41-5.36,10.3-8.71,11.69-10.04c2.56-2.45,4.92-5.09,7.09-7.91c2.78-3.61,4.78-6.52,6.01-8.71c2.85-5.1,3.93-10.41,3.25-15.92
		c-0.45-3.65-2.53-6.88-6.25-9.71c-0.09-3.73-2.09-5.91-6-6.54c-7.35-1.18-14.01,0.07-20,3.75c-1.41,0.87-1.32,1.71,0.25,2.54
		c-1.13,0.69-1.29,1.27-0.5,1.75c-2.85,2.7-6.1,4.76-9.75,6.17l-3.25-0.25c-0.95-3.25-2.34-6.09-4.19-8.52
		c-3.15-4.16-7.42-6.16-12.81-6c-3.41,0.1-6.77,0.52-10.08,1.26c-0.29,0.07-0.6,0.05-0.95-0.06c-1.09-0.33-2.13-0.18-3.14,0.45
		c-1.09,0.68-2.19,1.34-3.3,1.99c-0.16,0.1-0.37,0.18-0.62,0.23c-0.61,0.14-0.75,0.35-0.4,0.62c0.18,0.14,0.18,0.39,0.01,0.5
		c-1.97,1.23-3.05,2.96-3.24,5.21c-0.07,0.79,0.01,1.52,0.25,2.19C245.12,247.44,246.11,247.34,247.5,245.52z"/>
	<path class="st20" d="M283,247.94l-2.46-0.21c-0.14-0.15-0.22-0.32-0.25-0.5c0.55-0.21,0.67-0.6,0.36-1.17
		c-5.92-11.07-14.62-13.58-26.09-7.52c-2.87,1.52-5.22,3.85-7.06,6.98c-1.39,1.82-2.38,1.92-2.97,0.29
		c-0.24-0.67-0.32-1.4-0.25-2.19c0.19-2.25,1.27-3.98,3.24-5.21c0.17-0.11,0.17-0.36-0.01-0.5c-0.35-0.27-0.21-0.48,0.4-0.62
		c0.25-0.05,0.46-0.13,0.62-0.23c1.11-0.65,2.21-1.31,3.3-1.99c1.01-0.63,2.05-0.78,3.14-0.45c0.35,0.11,0.66,0.13,0.95,0.06
		c3.31-0.74,6.67-1.16,10.08-1.26c5.39-0.16,9.66,1.84,12.81,6C280.65,241.85,282.05,244.69,283,247.94z"/>
	<path class="st20" d="M322.25,240.52c-8.47-6.43-17.05-6.51-25.75-0.25c-1.57-0.83-1.66-1.67-0.25-2.54
		c5.99-3.68,12.65-4.93,20-3.75C320.15,234.61,322.15,236.79,322.25,240.52z"/>
	<path class="st18" d="M280.29,247.23c-0.15-0.35-0.4-0.52-0.75-0.5c-1.59-3.71-4.18-6.47-7.79-8.29
		c-5.66-2.35-11.26-1.94-16.81,1.23c-6.82,3.89-9.38,9.66-7.69,17.31c0.39,1.75,1.87,4.75,4.46,9c-0.43,0.25-0.73,0.22-0.9-0.09
		c-0.22-0.39-0.34-0.61-0.37-0.64c-2.21-2.65-3.8-6.05-4.75-10.21c-0.59-2.58-0.34-4.79,0.75-6.62c0.36-0.61,0.71-1.57,1.06-2.9
		c1.84-3.13,4.19-5.46,7.06-6.98c11.47-6.06,20.17-3.55,26.09,7.52C280.95,246.63,280.83,247.02,280.29,247.23z"/>
	<path class="st18" d="M322.25,240.52c3.72,2.83,5.8,6.06,6.25,9.71c0.68,5.51-0.4,10.82-3.25,15.92c-1.23,2.19-3.23,5.1-6.01,8.71
		c-2.17,2.82-4.53,5.46-7.09,7.91c-1.39,1.33-5.28,4.68-11.69,10.04c-3.94,3.29-7.96,6.5-12.06,9.61c-0.25,0.2-0.59,0.25-0.88,0.14
		c-2.84-1.04-5-2.9-6.48-5.58l4.87,3.7c0.93,0.71,1.88,0.71,2.83,0.02c9.35-6.78,18.18-14.37,26.47-22.77
		c3.83-3.89,6.95-8.28,9.36-13.17c2.2-4.49,3.01-9.08,2.43-13.78c-0.57-4.64-2.98-8.06-7.21-10.25c-6.57-4.1-13.26-4.27-20.07-0.51
		c-1.21,0.67-2.45,1.27-3.72,1.8c-0.79-0.48-0.63-1.06,0.5-1.75C305.2,234.01,313.78,234.09,322.25,240.52z"/>
	<path class="st21" d="M271.75,238.44c-0.59,0.15-1.18,0.27-1.78,0.36c-0.51,0.08-1.1,0.01-1.76-0.21
		c-2.21-0.73-4.21-0.48-5.99,0.74c-1.58,1.09-2.4,1.65-2.47,1.69c-1.19,0.71-2.38,1.58-3.57,2.6c-0.34,0.29-0.54,0.72-0.53,1.17
		c0.05,3.2,0.18,4.18,0.39,2.93c0.07-0.42,0.17-0.43,0.28-0.04l0.82,2.87c0.13,0.47,0.25,0.76,0.35,0.89
		c2.84,3.7,6.43,6.45,10.76,8.25c-0.75-0.05-0.9,0.1-0.43,0.45c11.3,8.45,23.94,11.21,37.92,8.28c1.47-0.31,2.89-0.79,4.25-1.43
		c0.25-0.12,0.46-0.33,0.58-0.58c0.43-0.87,0.97-1.36,1.62-1.47c0.43-0.08,0.72-0.19,0.89-0.33c2.27-1.86,2.93-4.34,1.98-7.44
		c-0.04-0.14-0.07-0.62-0.1-1.44c1.88-1.98,3.07-4.31,3.58-7l1.03-2.03c0.12-0.24,0.14-0.58,0.04-0.94
		c-0.43-1.67-0.37-3.35,0.18-5.03c4.23,2.19,6.64,5.61,7.21,10.25c0.58,4.7-0.23,9.29-2.43,13.78c-2.41,4.89-5.53,9.28-9.36,13.17
		c-8.29,8.4-17.12,15.99-26.47,22.77c-0.95,0.69-1.9,0.69-2.83-0.02l-4.87-3.7c-11.31-8.9-21.08-19.23-29.33-31
		c-2.59-4.25-4.07-7.25-4.46-9c-1.69-7.65,0.87-13.42,7.69-17.31C260.48,236.5,266.09,236.09,271.75,238.44z"/>
	<path class="st22" d="M319.79,240.73c-0.55,1.68-0.61,3.36-0.18,5.03c0.1,0.36,0.08,0.7-0.04,0.94l-1.03,2.03
		c0.25-1.23,0.16-2.34-0.25-3.33c-0.29-0.68-1.02-1.43-2.19-2.25c-1.42-1.01-2.75-2.12-4-3.33c-0.24-0.23-0.53-0.38-0.84-0.43
		c-3.3-0.57-6.45,0.06-9.45,1.9c-0.58,0.36-0.88,0.82-0.91,1.38c-0.02,0.33-0.17,0.61-0.41,0.74c-3.63,2.05-5.31,4.82-5.04,8.31
		c0.24,3.11,1.71,5.46,4.42,7.04c2.79,1.63,6.02,1.81,9.69,0.53c1.46-0.51,3.26-1.69,5.4-3.56c0.03,0.82,0.06,1.3,0.1,1.44
		c0.95,3.1,0.29,5.58-1.98,7.44c-0.17,0.14-0.46,0.25-0.89,0.33c-0.65,0.11-1.19,0.6-1.62,1.47c-0.12,0.25-0.33,0.46-0.58,0.58
		c-1.36,0.64-2.78,1.12-4.25,1.43c-13.98,2.93-26.62,0.17-37.92-8.28c-0.47-0.35-0.32-0.5,0.43-0.45c1.57,0.23,3.14-0.36,4.69-1.77
		c3.63-3.32,5.83-7.05,6.6-11.19c0.35-0.02,0.6,0.15,0.75,0.5c0.03,0.18,0.11,0.35,0.25,0.5c1.12,2.09,2.87,2.55,5.25,1.38
		c0.84-0.41,0.99-0.72,0.46-0.92c3.65-1.41,6.9-3.47,9.75-6.17c1.27-0.53,2.51-1.13,3.72-1.8
		C306.53,236.46,313.22,236.63,319.79,240.73z"/>
	<path class="st23" d="M271.75,238.44c3.61,1.82,6.2,4.58,7.79,8.29c-0.77,4.14-2.97,7.87-6.6,11.19c-1.55,1.41-3.12,2-4.69,1.77
		c-4.33-1.8-7.92-4.55-10.76-8.25c-0.1-0.13-0.22-0.42-0.35-0.89l-0.82-2.87c-0.11-0.39-0.21-0.38-0.28,0.04
		c-0.21,1.25-0.34,0.27-0.39-2.93c-0.01-0.45,0.19-0.88,0.53-1.17c1.19-1.02,2.38-1.89,3.57-2.6c0.07-0.04,0.89-0.6,2.47-1.69
		c1.78-1.22,3.78-1.47,5.99-0.74c0.66,0.22,1.25,0.29,1.76,0.21C270.57,238.71,271.16,238.59,271.75,238.44z M261.86,242.56
		c-0.44,0.48-0.33,1.24,0.23,1.58c1.19,0.73,2.25,0.4,3.16-0.99c0.18-0.27,0.21-0.61,0.09-0.9
		C264.68,240.6,263.52,240.71,261.86,242.56z"/>
	<path class="st23" d="M318.54,248.73c-0.51,2.69-1.7,5.02-3.58,7c-2.14,1.87-3.94,3.05-5.4,3.56c-3.67,1.28-6.9,1.1-9.69-0.53
		c-2.71-1.58-4.18-3.93-4.42-7.04c-0.27-3.49,1.41-6.26,5.04-8.31c0.24-0.13,0.39-0.41,0.41-0.74c0.03-0.56,0.33-1.02,0.91-1.38
		c3-1.84,6.15-2.47,9.45-1.9c0.31,0.05,0.6,0.2,0.84,0.43c1.25,1.21,2.58,2.32,4,3.33c1.17,0.82,1.9,1.57,2.19,2.25
		C318.7,246.39,318.78,247.5,318.54,248.73z"/>
	<path class="st23" d="M261.86,242.56c1.67-1.85,2.83-1.96,3.48-0.31c0.12,0.29,0.09,0.63-0.09,0.9c-0.91,1.39-1.97,1.72-3.16,0.99
		C261.53,243.8,261.42,243.04,261.86,242.56z"/>
	<path class="st24" d="M280.54,247.73l2.46,0.21l3.25,0.25c0.53,0.2,0.38,0.51-0.46,0.92C283.41,250.28,281.66,249.82,280.54,247.73
		z"/>
</g>
</svg>
